<svg width="88" height="102" viewBox="0 0 88 102" fill="none" xmlns="http://www.w3.org/2000/svg">
<path d="M7.31153 78.1277C7.22307 77.9115 7.08261 77.706 6.9116 77.5247C6.82157 77.453 6.79596 77.4222 6.66297 77.3233C6.57294 77.2516 6.4697 77.2006 6.38794 77.1633C6.01381 76.9696 5.62903 76.9583 5.32601 76.9843C5.02299 77.0103 4.7712 77.0979 4.56729 77.1577C4.3675 77.2347 4.22386 77.3182 4.12811 77.3738L3.98449 77.4573C3.98449 77.4573 4.22308 77.3904 4.60865 77.3295C4.99836 77.2857 5.61265 77.268 6.11484 77.6158C6.17926 77.6567 6.22635 77.7011 6.29491 77.7591L6.44859 77.944C6.51222 78.0571 6.59732 78.1838 6.63868 78.3556C6.71728 78.682 6.73067 79.0397 6.65736 79.4152C6.51074 80.1662 6.09991 80.9532 5.5437 81.5899C5.42981 81.7213 5.24579 81.9393 5.0931 82.0606C4.94454 82.1992 4.77863 82.3413 4.62594 82.4627C4.28587 82.7126 3.93754 82.9281 3.57265 83.075C3.20776 83.2218 2.84366 83.2964 2.49769 83.2951C2.16907 83.2903 1.8371 83.1961 1.61408 83.0255C1.12509 82.657 0.980311 82.0559 0.945456 81.6845C0.902327 81.2788 0.939378 81.0549 0.939378 81.0549L0.885777 81.2101C0.854446 81.3066 0.800854 81.4618 0.763804 81.6857C0.739955 81.8888 0.711178 82.147 0.768299 82.4597C0.821284 82.7553 0.964307 83.1226 1.25509 83.4235C1.55002 83.7416 1.99763 83.9383 2.4683 84.0041C2.93898 84.0699 3.41538 84.0084 3.88843 83.8574C4.34415 83.71 4.80064 83.4903 5.18859 83.2126C5.38916 83.0634 5.57241 82.9178 5.76884 82.7514C5.97848 82.5642 6.09649 82.4499 6.28052 82.232C6.91595 81.471 7.38864 80.5631 7.48148 79.5889C7.52997 79.1103 7.48349 78.6152 7.30245 78.1656L7.31153 78.1277Z" fill="white"/>
<path d="M15.8069 73.4657C16.0788 72.3286 16.3986 71.1636 16.6713 69.9542C16.7439 69.651 16.8164 69.3478 16.8889 69.0445L16.9977 68.5897C17.0479 68.3451 17.0487 68.2728 17.0726 68.0697C17.1498 67.3329 17.0967 66.6589 16.9485 65.9683C16.6176 64.5941 15.8227 63.3331 14.734 62.4385C13.718 61.6193 12.7574 60.8788 11.7968 60.1383C9.89282 58.6537 8.09134 57.2924 6.54262 56.1497C3.44105 53.847 1.30759 52.3915 1.30759 52.3915C0.908637 52.0947 0.50476 51.8529 0.0612773 51.6734C-0.993344 51.2225 -2.13783 51.0784 -3.25159 51.2885L-20.5266 55.0248C-22.7583 55.4278 -24.4378 57.1416 -24.7951 59.3596L-27.7037 77.3483C-28.0149 79.3045 -27.2502 81.3468 -25.6906 82.6856L-14.1696 93.3573C-13.6897 93.7636 -13.1743 94.0907 -12.6061 94.3348C-12.2832 94.4669 -11.9471 94.5783 -11.6193 94.6553L-7.96816 75.2169C-7.96816 75.2169 -7.95831 75.1067 -7.93604 75.048C-7.36691 72.0477 -9.4172 70.1065 -10.629 69.0029L-23.0165 57.6796L-8.93555 67.1961C-7.67348 68.0551 -5.44112 69.166 -1.73081 68.4061L15.0919 64.9066C15.3423 65.342 15.5233 65.7916 15.6391 66.2725C15.7674 66.805 15.8172 67.3896 15.7596 67.906C15.7498 68.0162 15.7169 68.2572 15.7119 68.3123L15.6032 68.7671L15.4029 69.6733C15.1261 70.8655 14.9054 72.0642 14.6508 73.1978C14.1672 75.4958 13.7545 77.635 13.4185 79.4882C12.7423 83.1773 12.3951 85.6637 12.3951 85.6637C12.3951 85.6637 13.1693 83.2882 14.1559 79.6796C14.6513 77.8839 15.2151 75.7678 15.7763 73.49L15.8069 73.4657ZM-13.485 86.5302C-13.1143 88.2206 -13.4943 89.7403 -14.3653 89.9007C-15.2322 90.0783 -16.2434 88.8254 -16.6183 87.1178C-16.9931 85.4103 -16.6091 83.9077 -15.738 83.7473C-14.8711 83.5698 -13.8599 84.8226 -13.485 86.5302ZM-13.858 69.6462C-12.9911 69.4686 -11.9799 70.7214 -11.605 72.429C-11.2343 74.1194 -11.6142 75.6392 -12.4853 75.7995C-13.3522 75.9771 -14.3634 74.7243 -14.7382 73.0167C-15.109 71.3263 -14.729 69.8065 -13.858 69.6462ZM-19.4779 72.5995C-18.611 72.422 -17.5998 73.6748 -17.2249 75.3824C-16.8501 77.09 -17.2342 78.5925 -18.1052 78.7529C-18.9721 78.9305 -19.9833 77.6776 -20.3582 75.97C-20.7289 74.2796 -20.349 72.7599 -19.4779 72.5995ZM-22.8127 78.167C-22.442 79.8574 -22.822 81.3771 -23.693 81.5375C-24.5599 81.7151 -25.5711 80.4622 -25.946 78.7546C-26.3208 77.0471 -25.9368 75.5445 -25.0657 75.3841C-24.1947 75.2238 -23.1876 76.4594 -22.8127 78.167ZM-23.0996 61.7159C-22.2327 61.5384 -21.2215 62.7912 -20.8466 64.4988C-20.4759 66.1892 -20.8559 67.7089 -21.7269 67.8693C-22.5938 68.0468 -23.605 66.794 -23.9799 65.0864C-24.3547 63.3788 -23.9707 61.8763 -23.0996 61.7159ZM-5.24516 54.0399C-5.06642 53.1201 -3.44 52.6969 -1.61503 53.0982C0.223146 53.4787 1.56952 54.5367 1.39078 55.4565C1.21204 56.3763 -0.414367 56.7995 -2.23934 56.3982C-4.07752 56.0177 -5.4239 54.9597 -5.24516 54.0399ZM-6.72403 59.1551C-6.54529 58.2354 -4.91887 57.8122 -3.0939 58.2134C-1.25572 58.5939 0.0906518 59.6519 -0.0880879 60.5717C-0.266826 61.4915 -1.89325 61.9147 -3.71822 61.5135C-5.55639 61.1329 -6.90277 60.0749 -6.72403 59.1551ZM-5.19709 66.6287C-7.03526 66.2482 -8.38164 65.1902 -8.2029 64.2704C-8.02416 63.3506 -6.39775 62.9274 -4.57277 63.3287C-2.7346 63.7092 -1.38821 64.7672 -1.56695 65.687C-1.74569 66.6068 -3.37211 67.03 -5.19709 66.6287Z" fill="white"/>
<path d="M18.2883 68.9369L18.3064 68.8611C18.8391 66.0131 17.6439 63.0144 15.2557 61.179L2.53544 50.8822L2.47103 50.8413C1.96068 50.4593 1.38927 50.1259 0.799737 49.8682C-0.641891 49.2444 -2.17493 49.0719 -3.6739 49.3428C-3.69123 49.3463 -3.7259 49.3534 -3.74324 49.357L-20.9968 53.0884C-24.0253 53.6545 -26.3075 55.9598 -26.7773 58.9932L-29.6849 76.977C-30.1113 79.587 -29.0904 82.315 -27.0175 84.1249L-15.5246 94.7631L-15.4776 94.8075C-14.8565 95.347 -14.148 95.7966 -13.3777 96.1253C-11.8543 96.7864 -10.1396 96.9579 -8.55735 96.5798C-8.52268 96.5727 -8.48802 96.5656 -8.47068 96.562L8.9598 91.6772C11.7125 91.0234 13.8247 88.843 14.3607 86.0844L18.2883 68.9369ZM6.27728 82.3521C6.0933 82.57 5.97531 82.6842 5.76573 82.8713C5.57348 83.0548 5.39028 83.2004 5.18562 83.3324C4.78458 83.6308 4.34139 83.8296 3.88579 83.977C3.43018 84.1244 2.93242 84.1722 2.46599 84.1236C1.99543 84.0578 1.54792 83.8611 1.25306 83.5431C0.966471 83.2594 0.823467 82.8923 0.766354 82.5797C0.691907 82.2706 0.720679 82.0124 0.761851 81.8058C0.785691 81.6027 0.839266 81.4475 0.883786 81.3303L0.937371 81.1752C0.937371 81.1752 0.904469 81.4162 0.94346 81.8046C0.98245 82.193 1.12307 82.7769 1.61195 83.1453C1.83492 83.3158 2.16681 83.41 2.49536 83.4148C2.84125 83.4161 3.20112 83.3244 3.57006 83.1948C3.93486 83.048 4.2831 82.8325 4.62309 82.5827C4.79308 82.4578 4.95893 82.3157 5.09012 82.1807C5.22544 82.0629 5.42676 81.8415 5.54062 81.7101C6.09669 81.0737 6.5074 80.2868 6.65397 79.536C6.72725 79.1607 6.72706 78.7823 6.63528 78.4768C6.59392 78.305 6.50883 78.1783 6.44521 78.0652L6.29157 77.8804C6.29157 77.8804 6.17596 77.778 6.11155 77.7371C5.60947 77.3894 4.99531 77.4071 4.60569 77.4508C4.19875 77.4981 3.98168 77.5786 3.98168 77.5786L4.12528 77.4952C4.22101 77.4395 4.3646 77.356 4.56433 77.2791C4.76406 77.2022 5.01994 77.1318 5.32288 77.1058C5.62583 77.0798 5.99732 77.1118 6.38456 77.2848C6.48777 77.3357 6.57366 77.3902 6.65954 77.4447C6.79249 77.5436 6.8181 77.5744 6.90811 77.646C7.07908 77.8273 7.21952 78.0328 7.30795 78.2489C7.48896 78.6983 7.53542 79.1934 7.48696 79.6718C7.39416 80.6458 6.90426 81.557 6.28633 82.3142L6.27728 82.3521ZM13.4214 79.4656C13.7573 77.6129 14.1698 75.4743 14.6532 73.177C14.9036 72.0265 15.1284 70.8453 15.4051 69.6534L15.6053 68.7475L15.714 68.2928C15.714 68.2928 15.7519 67.9967 15.7617 67.8866C15.8019 67.3738 15.7694 66.7858 15.6412 66.2535C15.5254 65.7727 15.3444 65.3233 15.0941 64.888L-1.72458 68.3862C-5.45133 69.1494 -7.66586 68.0352 -8.92765 67.1764L-23.0055 57.6621L-10.6207 68.9826C-9.40914 70.086 -7.37663 72.0303 -7.92823 75.0263C-7.93316 75.0813 -7.95542 75.1399 -7.96035 75.195L-11.6102 94.6282C-11.9553 94.5547 -12.2913 94.4433 -12.5968 94.3077C-13.1475 94.0601 -13.6801 93.7367 -14.16 93.3304L-25.6785 82.6614C-27.2377 81.323 -28.0023 79.2812 -27.6912 77.3255L-24.7836 59.3417C-24.4264 57.1243 -22.73 55.4074 -20.5162 55.0081L-3.24534 51.2732C-2.13185 51.0632 -0.983492 51.2244 0.0667584 51.658C0.492806 51.8411 0.918052 52.0964 1.31278 52.3759C1.31278 52.3759 3.44576 53.8311 6.54665 56.1332C8.09502 57.2757 9.89611 58.6367 11.7996 60.1209C12.7427 60.8647 13.7246 61.6187 14.7362 62.4206C15.8247 63.3149 16.6194 64.5756 16.9503 65.9494C17.1158 66.6363 17.1557 67.3308 17.0743 68.0502C17.0505 68.2533 17.0282 68.3119 16.9995 68.5701L16.8907 69.0248C16.8182 69.328 16.7458 69.6311 16.6733 69.9343C16.3965 71.1262 16.0982 72.3044 15.809 73.4448C15.2439 75.7048 14.6803 77.8203 14.1892 79.6327C13.2028 83.2403 12.4289 85.6151 12.4289 85.6151C12.4289 85.6151 12.776 83.1295 13.4519 79.4413L13.4214 79.4656Z" fill="url(#paint0_linear_2021_22923)"/>
<path d="M-3.56998 61.6064C-1.72848 61.9876 -0.0949226 61.5806 0.066828 60.6624C0.245949 59.7406 -1.09869 58.6976 -2.94433 58.2991C-4.78583 57.9179 -6.41937 58.3249 -6.58112 59.2431C-6.76024 60.1649 -5.41562 61.2079 -3.56998 61.6064Z" fill="url(#paint1_linear_2021_22923)"/>
<path d="M-2.01358 56.5263C-0.172078 56.9076 1.46148 56.5006 1.62323 55.5823C1.80235 54.6605 0.457713 53.6175 -1.38793 53.2191C-3.22943 52.8378 -4.86298 53.2448 -5.02473 54.1631C-5.20385 55.0848 -3.85923 56.1279 -2.01358 56.5263Z" fill="url(#paint2_linear_2021_22923)"/>
<path d="M64.0764 25.9314C64.1404 25.595 64.1601 25.3754 64.164 25.0153C64.1907 23.7705 63.9549 22.4897 63.303 21.4378C62.9943 20.9083 62.5557 20.4414 62.0464 20.1327C61.7938 19.9868 61.4935 19.8688 61.1883 19.8056C61.0592 19.7961 60.9991 19.7725 60.8008 19.7772C60.6544 19.7713 60.5335 19.7961 60.4126 19.8209C59.9117 19.9235 59.517 20.1661 59.2341 20.4216C58.9513 20.6772 58.763 20.9492 58.6315 21.1558C58.5041 21.3795 58.4202 21.5583 58.3627 21.6959L58.283 21.8918C58.283 21.8918 58.4581 21.6404 58.8109 21.2987C59.1463 20.9605 59.7417 20.4972 60.496 20.4684C60.5864 20.4678 60.6769 20.4672 60.7715 20.4837L61.0808 20.564C61.2437 20.6384 61.4066 20.7128 61.5819 20.8385C61.9151 21.0936 62.1867 21.469 62.4189 21.9064C62.8486 22.7882 63.0564 23.8773 62.9885 24.9509C62.9862 25.1669 62.9649 25.5305 62.928 25.7536C62.8952 25.9939 62.8361 26.2754 62.7687 26.5227C62.634 27.0173 62.4607 27.5019 62.219 27.9286C61.9732 28.3382 61.6806 28.7036 61.3418 28.9526C61.003 29.2017 60.6181 29.3344 60.2734 29.3332C59.5109 29.3278 58.9176 28.8207 58.5942 28.4559C58.2494 28.0776 58.0971 27.8214 58.0971 27.8214L58.1465 28.0268C58.214 28.1567 58.2807 28.3585 58.4075 28.584C58.5343 28.8095 58.7121 29.0964 59.0149 29.3756C59.2963 29.6412 59.7242 29.9128 60.2144 29.9919C60.7475 30.0982 61.3348 29.9779 61.8249 29.6798C62.3364 29.3954 62.7591 28.9675 63.0961 28.4853C63.429 27.986 63.6978 27.4459 63.8637 26.8551C63.9574 26.5665 64.0124 26.2679 64.0632 25.9521L64.0764 25.9314Z" fill="white"/>
<path d="M52.769 11.1077C49.7805 10.9995 46.9684 10.9452 44.5837 10.9294C39.7886 10.8671 36.5816 10.9837 36.5816 10.9837C34.6464 10.9479 32.837 11.6606 31.5351 12.9715C31.4477 13.0614 31.3776 13.1478 31.2861 13.2206L17.291 29.897C15.4236 31.954 15.0968 34.9738 16.4516 37.5052L27.4167 58.0547C28.6106 60.295 30.9185 61.803 33.4782 62.017L52.9077 64.3579C54.1335 64.467 55.3196 64.2601 56.3876 63.7893L44.9834 41.115C44.9834 41.115 44.9496 41.0499 44.924 41.0191C43.1563 37.528 39.6833 37.0689 37.6639 36.8342L16.8824 34.4641L37.9313 33.7185C39.8244 33.6549 42.8456 33.1442 45.8787 29.5881L59.6167 13.5045C60.1884 13.7655 60.7206 14.0887 61.2001 14.4946C61.7439 14.9414 62.23 15.5261 62.5784 16.067C62.6634 16.1936 62.7988 16.4539 62.8327 16.519L63.0903 17.0605L63.5841 18.1297C64.2381 19.5622 64.9143 20.9362 65.5691 22.2966C66.8531 24.9866 68.0957 27.5049 69.1914 29.6393C71.348 33.9151 72.929 36.7063 72.929 36.7063C72.929 36.7063 71.8602 33.7022 70.0507 29.2833C69.1547 27.072 68.0811 24.501 66.8928 21.7554C66.29 20.3844 65.6921 18.9584 65.0422 17.543L64.5657 16.4702L64.3254 15.9252C64.1644 15.6341 64.1264 15.5518 64.0034 15.343C63.5197 14.5418 62.9436 13.8855 62.2719 13.2848C60.902 12.1249 59.1554 11.4383 57.4025 11.3291C55.8005 11.2431 54.2671 11.215 52.7641 11.1627L52.769 11.1077ZM34.5319 59.2984C33.8188 60.1107 31.8759 59.5903 30.1983 58.1333C28.5206 56.6763 27.7542 54.8527 28.4847 54.0369C29.2151 53.2211 31.1406 53.745 32.8183 55.202C34.496 56.659 35.2624 58.4826 34.5319 59.2984ZM30.3164 51.6811C29.6033 52.4934 27.6604 51.973 25.9828 50.516C24.3051 49.059 23.5387 47.2353 24.2692 46.4195C24.9996 45.6037 26.9251 46.1277 28.6028 47.5847C30.2805 49.0416 31.0469 50.8653 30.3164 51.6811ZM35.0299 39.8584C35.743 39.0462 37.6858 39.5666 39.3635 41.0236C41.0412 42.4806 41.8075 44.3042 41.0771 45.12C40.364 45.9323 38.4211 45.4119 36.7435 43.9549C35.0658 42.4979 34.2994 40.6742 35.0299 39.8584ZM39.3815 47.6639C40.0947 46.8517 42.0375 47.3721 43.7152 48.8291C45.3929 50.2861 46.1592 52.1097 45.4288 52.9255C44.6983 53.7413 42.7728 53.2174 41.0951 51.7604C39.4174 50.3034 38.6511 48.4797 39.3815 47.6639ZM44.0162 55.6636C44.7294 54.8513 46.6722 55.3717 48.3499 56.8287C50.0276 58.2857 50.7939 60.1093 50.0635 60.9251C49.3504 61.7374 47.4075 61.217 45.7298 59.76C44.0522 58.303 43.2858 56.4794 44.0162 55.6636ZM24.247 39.762C25.9247 41.219 26.691 43.0426 25.9606 43.8584C25.2475 44.6707 23.3046 44.1503 21.6269 42.6933C19.9493 41.2363 19.1829 39.4126 19.9133 38.5968C20.6265 37.7846 22.5693 38.305 24.247 39.762ZM27.6301 26.7173C28.1586 27.7794 26.9006 29.4235 24.8034 30.3751C22.7062 31.3268 20.5813 31.2578 20.0528 30.1957C19.5244 29.1335 20.7824 27.4895 22.8796 26.5378C24.9727 25.569 27.1017 25.6551 27.6301 26.7173ZM43.9883 26.6442C44.5167 27.7064 43.2587 29.3504 41.1615 30.3021C39.0684 31.2709 36.9394 31.1848 36.411 30.1226C35.8825 29.0605 37.1405 27.4164 39.2377 26.4648C41.3349 25.5131 43.4598 25.5821 43.9883 26.6442ZM39.0246 13.9585C39.5531 15.0206 38.2951 16.6647 36.1979 17.6164C34.1007 18.568 31.9758 18.499 31.4473 17.4369C30.9189 16.3747 32.1769 14.7307 34.2741 13.779C36.3672 12.8102 38.4962 12.8963 39.0246 13.9585ZM54.9094 14.1084C55.4378 15.1706 54.1799 16.8146 52.0826 17.7663C49.9854 18.718 47.8605 18.649 47.3321 17.5868C46.8037 16.5247 48.0616 14.8806 50.1588 13.9289C52.256 12.9773 54.381 13.0463 54.9094 14.1084Z" fill="white"/>
<path d="M60.4254 47.0693C60.2962 47.0598 60.2362 47.0362 60.0379 47.0409C59.8915 47.035 59.7706 47.0598 59.6497 47.0845C59.1488 47.1872 58.7541 47.4297 58.4712 47.6853C58.1884 47.9408 58.0001 48.2129 57.8686 48.4195C57.7412 48.6432 57.6574 48.822 57.5999 48.9595L57.5202 49.1555C57.5202 49.1555 57.6953 48.904 58.048 48.5623C58.3835 48.2242 58.9788 47.7609 59.733 47.732C59.8235 47.7314 59.914 47.7309 60.0086 47.7474L60.3179 47.8277C60.4808 47.9021 60.6437 47.9765 60.819 48.1022C61.1522 48.3572 61.4238 48.7326 61.656 49.17C62.0857 50.0519 62.2934 51.1409 62.2256 52.2145C62.2232 52.4305 62.202 52.7941 62.1651 53.0172C62.1322 53.2574 62.0731 53.539 62.0058 53.7863C61.8711 54.2809 61.6977 54.7655 61.4561 55.1922C61.2103 55.6018 60.9176 55.9671 60.5788 56.2162C60.24 56.4652 59.8551 56.598 59.5105 56.5968C58.748 56.5914 58.1547 56.0843 57.8313 55.7195C57.4865 55.3411 57.3342 55.085 57.3342 55.085L57.3837 55.2904C57.4512 55.4202 57.5179 55.6221 57.6446 55.8476C57.7714 56.073 57.9492 56.3599 58.252 56.6391C58.5334 56.9048 58.9613 57.1763 59.4515 57.2555C59.9846 57.3617 60.5719 57.2414 61.062 56.9434C61.5735 56.6589 61.9961 56.231 62.3331 55.7488C62.6661 55.2495 62.9348 54.7095 63.1007 54.1187C63.1944 53.8301 63.2494 53.5314 63.3003 53.2157C63.3643 52.8792 63.3839 52.6597 63.3879 52.2996C63.4145 51.0548 63.1787 49.774 62.5268 48.7221C62.2182 48.1926 61.7796 47.7257 61.2703 47.417C61.0177 47.2712 60.7174 47.1531 60.4122 47.0899L60.4254 47.0693Z" fill="white"/>
<path d="M36.6433 8.52214C36.6433 8.52214 36.5913 8.53276 36.5525 8.5227C33.9779 8.47371 31.4872 9.45191 29.731 11.216C29.6131 11.3302 29.5126 11.4408 29.3988 11.5721L29.3419 11.6378L15.3729 28.2729C12.8534 31.0936 12.4116 35.1454 14.2446 38.6054L25.2105 59.1555C26.8024 62.1426 29.8911 64.175 33.2882 64.4697L52.6623 66.8045L52.7572 66.8211C55.5933 67.0506 58.3258 66.0949 60.2609 64.1681C60.4835 63.9605 60.6847 63.7392 60.8644 63.5043C60.8949 63.4801 60.9213 63.4387 60.9344 63.418L74.2049 45.4674C76.3904 42.7691 76.782 38.9617 75.1883 35.7408L65.8632 15.2869L65.8426 15.2011C64.1721 11.8879 60.6833 9.70336 56.9555 9.62044L36.6474 8.53929L36.6433 8.52214ZM62.5267 48.9752C63.1633 50.0332 63.3998 51.3172 63.3906 52.5616C63.3693 52.926 63.3455 53.129 63.3028 53.4798C63.2518 53.7964 63.1793 54.0993 63.1027 54.3851C62.9364 54.9773 62.6669 55.5187 62.3331 56.0192C61.9993 56.5197 61.5713 56.9314 61.0584 57.2165C60.5628 57.4981 59.9738 57.6187 59.4434 57.5292C58.9344 57.4534 58.5226 57.1776 58.2403 56.9113C57.9581 56.645 57.7625 56.3609 57.6312 56.1177C57.504 55.8917 57.4371 55.6893 57.3867 55.5556L57.3371 55.3497C57.3371 55.3497 57.4725 55.61 57.8184 55.9894C58.1601 56.3515 58.7377 56.8635 59.5024 56.8689C59.8481 56.8702 60.2299 56.72 60.5738 56.4875C60.9135 56.2379 61.207 55.8717 61.4535 55.4611C61.6999 55.0505 61.8737 54.5647 62.0046 54.0518C62.0722 53.8039 62.1355 53.5388 62.1643 53.2808C62.2013 53.0572 62.2226 52.6927 62.2249 52.4761C62.2755 51.4034 62.0844 50.3082 61.6534 49.4241C61.4205 48.9856 61.1481 48.6093 60.8139 48.3536C60.634 48.2104 60.4748 48.1529 60.3114 48.0784L60.0012 47.9979C60.0012 47.9979 59.8156 47.9818 59.7249 47.9824C58.9684 48.0113 58.3714 48.4756 58.035 48.8146C57.6813 49.1571 57.5057 49.4092 57.5057 49.4092L57.5857 49.2127C57.6475 49.092 57.7101 48.8991 57.8551 48.6714C57.9829 48.4472 58.1758 48.1916 58.4594 47.9354C58.7431 47.6793 59.1174 47.4226 59.6412 47.3333C59.7625 47.3085 59.901 47.2801 60.0306 47.2896C60.2294 47.2849 60.2896 47.3086 60.4191 47.3181C60.7252 47.3814 61.0222 47.4827 61.2796 47.646C61.8077 47.952 62.2303 48.4237 62.5399 48.9545L62.5267 48.9752ZM61.5578 29.7091C61.0621 29.9906 60.4732 30.1112 59.9428 30.0218C59.4338 29.9459 59.022 29.6702 58.7398 29.4038C58.4575 29.1375 58.2618 28.8535 58.1306 28.6103C58.0034 28.3842 57.9365 28.1819 57.8861 28.0481L57.8365 27.8422C57.8365 27.8422 57.9719 28.1026 58.3178 28.4819C58.6594 28.8441 59.2371 29.356 60.0018 29.3615C60.3475 29.3627 60.7293 29.2125 61.0732 28.98C61.4129 28.7304 61.7064 28.3642 61.9529 27.9536C62.1993 27.543 62.3731 27.0573 62.504 26.5443C62.5715 26.2964 62.6349 26.0313 62.6637 25.7734C62.7007 25.5497 62.7219 25.1852 62.7243 24.9687C62.7749 23.8959 62.5838 22.8007 62.1528 21.9167C61.9199 21.4782 61.6475 21.1018 61.3133 20.8461C61.1334 20.7029 60.9742 20.6455 60.8108 20.5709L60.5006 20.4904C60.5006 20.4904 60.315 20.4744 60.2243 20.4749C59.4678 20.5038 58.8708 20.9682 58.5344 21.3071C58.1807 21.6497 58.0051 21.9017 58.0051 21.9017L58.0851 21.7053C58.1469 21.5846 58.2095 21.3917 58.3545 21.1639C58.4823 20.9397 58.6752 20.6841 58.9588 20.428C59.2425 20.1718 59.6168 19.9151 60.1406 19.8259C60.2619 19.801 60.4004 19.7727 60.5299 19.7821C60.7329 19.7946 60.789 19.8011 60.9185 19.8106C61.2246 19.874 61.5216 19.9752 61.779 20.1386C62.3071 20.4446 62.7297 20.9162 63.0393 21.447C63.6759 22.5051 63.9166 23.8062 63.9031 25.0334C63.8819 25.3978 63.8581 25.6008 63.8153 25.9517C63.7644 26.2682 63.6919 26.5711 63.6153 26.8569C63.449 27.4492 63.1795 27.9905 62.8457 28.491C62.5118 28.9915 62.0839 29.4033 61.571 29.6884L61.5578 29.7091ZM64.0006 15.3262C64.1236 15.5351 64.1657 15.6345 64.3226 15.9085L64.5629 16.4535L65.0394 17.5263C65.6935 18.9589 66.2914 20.3849 66.8902 21.7388C68.0786 24.4845 69.1522 27.0555 70.0483 29.2668C71.8579 33.6859 72.9268 36.6901 72.9268 36.6901C72.9268 36.6901 71.3458 33.8988 69.189 29.6229C68.0933 27.4885 66.8546 24.9872 65.5664 22.28C64.9331 20.9332 64.2353 19.5456 63.5813 18.113L63.0875 17.0437L62.8298 16.5022C62.8298 16.5022 62.6605 16.1768 62.5755 16.0501C62.223 15.4921 61.741 14.9246 61.1971 14.4778C60.7177 14.0718 60.1854 13.7486 59.6136 13.4876L45.8754 29.5713C42.8423 33.1274 39.7995 33.6244 37.9278 33.7016L16.8782 34.4469L37.6604 36.8174C39.6973 37.0485 43.1745 37.5249 44.9209 41.0025C44.9292 41.0369 44.9547 41.0676 44.9803 41.0984L56.3853 63.7733C55.3172 64.2441 54.1311 64.451 52.9052 64.3419L33.475 62.0006C30.9152 61.7866 28.6072 60.2785 27.4133 58.0382L16.4474 37.4881C15.0925 34.9566 15.4234 31.9538 17.2867 29.8797L31.282 13.2032C31.3694 13.1133 31.4395 13.0269 31.531 12.9541C32.837 11.6603 34.6639 10.9441 36.5777 10.9664C36.5777 10.9664 39.7848 10.8498 44.5801 10.9122C46.9822 10.9245 49.7811 10.9995 52.7657 11.0906C54.2687 11.143 55.789 11.1917 57.4042 11.2571C59.1399 11.3699 60.8907 12.0737 62.2738 13.2129C62.9629 13.8101 63.5217 14.4699 64.0055 15.2712L64.0006 15.3262Z" fill="url(#paint3_linear_2021_22923)"/>
<path d="M39.2871 26.6129C37.1859 27.5864 35.9229 29.2381 36.4491 30.2878C36.9794 31.3547 39.1124 31.4237 41.2177 30.4674C43.3188 29.4939 44.5818 27.8422 44.0557 26.7925C43.5295 25.7428 41.3924 25.6566 39.2871 26.6129Z" fill="url(#paint4_linear_2021_22923)"/>
<path d="M22.7716 26.8218C20.6704 27.7953 19.4075 29.4471 19.9336 30.4967C20.4639 31.5637 22.5969 31.6327 24.7022 30.6764C26.8075 29.7201 28.0663 28.0512 27.5401 27.0015C27.0098 25.9346 24.8769 25.8656 22.7716 26.8218Z" fill="url(#paint5_linear_2021_22923)"/>
<path d="M50.4333 14.1148C48.3321 15.0883 47.0692 16.7401 47.5953 17.7897C48.1256 18.8567 50.2586 18.9257 52.3639 17.9694C54.4692 17.0131 55.728 15.3442 55.2019 14.2945C54.6757 13.2448 52.5386 13.1585 50.4333 14.1148Z" fill="url(#paint6_linear_2021_22923)"/>
<path d="M34.3947 14.0821C32.2936 15.0556 31.0306 16.7073 31.5567 17.757C32.0871 18.8239 34.22 18.8929 36.3253 17.9367C38.4306 16.9804 39.6895 15.3114 39.1633 14.2618C38.6371 13.2121 36.5 13.1258 34.3947 14.0821Z" fill="url(#paint7_linear_2021_22923)"/>
<path d="M21.3878 42.8436C23.0634 44.2989 24.9865 44.8222 25.716 44.0073C26.4283 43.196 25.6629 41.3744 24.0046 39.9156C22.3291 38.4603 20.4059 37.937 19.6764 38.7519C18.9641 39.5632 19.7295 41.3848 21.3878 42.8436Z" fill="url(#paint8_linear_2021_22923)"/>
<path d="M40.9653 45.1306C41.6776 44.3193 40.9122 42.4977 39.2539 41.0389C37.5956 39.58 35.6552 39.0603 34.9257 39.8751C34.2134 40.6865 34.9788 42.508 36.6371 43.9669C38.2953 45.4257 40.2357 45.9455 40.9653 45.1306Z" fill="url(#paint9_linear_2021_22923)"/>
<path d="M24.0001 46.4677C23.2879 47.279 24.0532 49.1006 25.7115 50.5594C27.3871 52.0147 29.3102 52.538 30.0398 51.7231C30.752 50.9118 29.9866 49.0902 28.3284 47.6314C26.6528 46.1761 24.7297 45.6528 24.0001 46.4677Z" fill="url(#paint10_linear_2021_22923)"/>
<path d="M45.2678 52.833C45.98 52.0216 45.2147 50.2001 43.5564 48.7413C41.8808 47.286 39.9577 46.7627 39.2281 47.5775C38.5159 48.3889 39.2813 50.2104 40.9395 51.6693C42.5978 53.1281 44.5382 53.6479 45.2678 52.833Z" fill="url(#paint11_linear_2021_22923)"/>
<path d="M28.1842 53.9806C27.4719 54.7919 28.2373 56.6135 29.8956 58.0723C31.5712 59.5276 33.4943 60.0509 34.2239 59.2361C34.9361 58.4247 34.1707 56.6032 32.5125 55.1443C30.8369 53.689 28.9138 53.1657 28.1842 53.9806Z" fill="url(#paint12_linear_2021_22923)"/>
<path d="M49.8713 60.7216C50.5836 59.9103 49.8182 58.0888 48.1599 56.6299C46.4843 55.1746 44.5612 54.6513 43.8317 55.4662C43.1194 56.2775 43.8848 58.0991 45.5431 59.5579C47.2186 61.0132 49.1418 61.5365 49.8713 60.7216Z" fill="url(#paint13_linear_2021_22923)"/>
<path d="M9.70508 76.6934C9.61663 76.4772 9.47616 76.2716 9.30516 76.0904C9.21512 76.0187 9.18951 75.9879 9.05653 75.889C8.96649 75.8173 8.86326 75.7663 8.7815 75.729C8.40736 75.5353 8.02258 75.524 7.71956 75.55C7.41655 75.576 7.16476 75.6636 6.96084 75.7234C6.76106 75.8004 6.61742 75.8838 6.52166 75.9395L6.37804 76.023C6.37804 76.023 6.61664 75.9561 7.00221 75.8952C7.39192 75.8514 8.00621 75.8337 8.50839 76.1815C8.57282 76.2223 8.61991 76.2668 8.68847 76.3248L8.84214 76.5096C8.90577 76.6228 8.99087 76.7495 9.03224 76.9213C9.11084 77.2476 9.12423 77.6054 9.05092 77.9809C8.9043 78.7319 8.49347 79.5189 7.93725 80.1555C7.82337 80.287 7.63935 80.5049 7.48665 80.6263C7.33809 80.7649 7.17219 80.907 7.01949 81.0284C6.67942 81.2783 6.33109 81.4938 5.9662 81.6407C5.60132 81.7875 5.23722 81.862 4.89125 81.8608C4.56262 81.856 4.23065 81.7618 4.00763 81.5912C3.51865 81.2227 3.37387 80.6215 3.33901 80.2502C3.29588 79.8445 3.33293 79.6206 3.33293 79.6206L3.27933 79.7758C3.248 79.8723 3.19441 80.0275 3.15736 80.2513C3.13351 80.4545 3.10473 80.7127 3.16185 81.0254C3.21484 81.321 3.35786 81.6882 3.64865 81.9891C3.94357 82.3072 4.39118 82.5039 4.86186 82.5698C5.33254 82.6356 5.80894 82.5741 6.28199 82.4231C6.7377 82.2757 7.1942 82.056 7.58214 81.7783C7.78271 81.6291 7.96596 81.4834 8.1624 81.317C8.37204 81.1299 8.49005 81.0156 8.67408 80.7977C9.3095 80.0367 9.78219 79.1288 9.87504 78.1545C9.92353 77.676 9.87705 77.1808 9.69601 76.7313L9.70508 76.6934Z" fill="white"/>
<path d="M19.6418 68.2176L19.6599 68.1418C20.1926 65.2938 18.9974 62.2952 16.6092 60.4598L3.88896 50.163L3.82455 50.1221C3.3142 49.7401 2.74279 49.4066 2.15325 49.149C0.711625 48.5252 -0.821413 48.3526 -2.32039 48.6235C-2.33772 48.6271 -2.37239 48.6342 -2.38972 48.6377L-19.6433 52.3692C-22.6718 52.9353 -24.9539 55.2406 -25.4238 58.2739L-28.3314 76.2577C-28.7577 78.8677 -27.7369 81.5958 -25.664 83.4057L-14.1711 94.0439L-14.124 94.0883C-13.503 94.6278 -12.7945 95.0773 -12.0241 95.4061C-10.5008 96.0672 -8.78612 96.2386 -7.20383 95.8605C-7.16916 95.8534 -7.1345 95.8463 -7.11717 95.8428L10.3133 90.958C13.066 90.3042 15.1782 88.1238 15.7143 85.3652L19.6418 68.2176ZM7.6308 81.6329C7.44682 81.8507 7.32883 81.965 7.11924 82.152C6.92699 82.3356 6.7438 82.4812 6.53914 82.6132C6.13809 82.9116 5.6949 83.1104 5.2393 83.2578C4.7837 83.4051 4.28594 83.453 3.81951 83.4044C3.34894 83.3385 2.90144 83.1419 2.60658 82.8239C2.31999 82.5402 2.17698 82.1731 2.11987 81.8604C2.04542 81.5513 2.0742 81.2932 2.11537 81.0865C2.13921 80.8834 2.19278 80.7283 2.2373 80.6111L2.29089 80.4559C2.29089 80.4559 2.25798 80.6969 2.29698 81.0854C2.33597 81.4738 2.47659 82.0576 2.96547 82.426C3.18844 82.5966 3.52033 82.6908 3.84888 82.6956C4.19476 82.6968 4.55464 82.6051 4.92358 82.4755C5.28837 82.3287 5.63662 82.1133 5.9766 81.8635C6.14659 81.7386 6.31244 81.5965 6.44363 81.4615C6.57896 81.3437 6.78028 81.1223 6.89413 80.9909C7.45021 80.3544 7.86092 79.5676 8.00749 78.8168C8.08077 78.4414 8.08058 78.0631 7.9888 77.7575C7.94744 77.5858 7.86234 77.4591 7.79873 77.346L7.64509 77.1612C7.64509 77.1612 7.52947 77.0587 7.46506 77.0179C6.96299 76.6702 6.34882 76.6879 5.95921 76.7316C5.55226 76.7789 5.33519 76.8594 5.33519 76.8594L5.4788 76.7759C5.57453 76.7203 5.71811 76.6368 5.91784 76.5599C6.11758 76.4829 6.37346 76.4125 6.6764 76.3865C6.97935 76.3605 7.35083 76.3926 7.73808 76.5655C7.84129 76.6165 7.92717 76.671 8.01305 76.7254C8.14601 76.8244 8.17162 76.8551 8.26163 76.9268C8.4326 77.108 8.57303 77.3135 8.66147 77.5297C8.84248 77.9791 8.88894 78.4741 8.84047 78.9525C8.74767 79.9266 8.25777 80.8377 7.63985 81.595L7.6308 81.6329ZM14.7749 78.7464C15.1108 76.8937 15.5233 74.755 16.0067 72.4577C16.2571 71.3073 16.4819 70.126 16.7587 68.9342L16.9588 68.0283L17.0675 67.5735C17.0675 67.5735 17.1054 67.2775 17.1152 67.1673C17.1554 66.6546 17.1229 66.0666 16.9947 65.5343C16.8789 65.0534 16.6979 64.604 16.4476 64.1688L-0.371064 67.667C-4.09781 68.4301 -6.31235 67.316 -7.57413 66.4572L-21.6519 56.9429L-9.26718 68.2634C-8.05562 69.3667 -6.02311 71.311 -6.57472 74.307C-6.57964 74.3621 -6.6019 74.4207 -6.60683 74.4758L-10.2567 93.909C-10.6017 93.8355 -10.9378 93.7241 -11.2433 93.5885C-11.794 93.3409 -12.3266 93.0175 -12.8064 92.6112L-24.3249 81.9422C-25.8841 80.6037 -26.6487 78.562 -26.3377 76.6063L-23.4301 58.6224C-23.0729 56.405 -21.3765 54.6882 -19.1627 54.2889L-1.89182 50.5539C-0.778331 50.3439 0.370023 50.5052 1.42027 50.9388C1.84632 51.1218 2.27157 51.3771 2.66629 51.6567C2.66629 51.6567 4.79928 53.1119 7.90016 55.414C9.44853 56.5565 11.2496 57.9175 13.1531 59.4016C14.0962 60.1455 15.0781 60.8994 16.0897 61.7013C17.1782 62.5956 17.973 63.8564 18.3038 65.2302C18.4693 65.9171 18.5092 66.6116 18.4279 67.331C18.404 67.5341 18.3818 67.5927 18.353 67.8509L18.2443 68.3056C18.1718 68.6088 18.0993 68.9119 18.0268 69.215C17.75 70.4069 17.4517 71.5852 17.1626 72.7256C16.5974 74.9856 16.0338 77.1011 15.5427 78.9135C14.5563 82.5211 13.7824 84.8959 13.7824 84.8959C13.7824 84.8959 14.1295 82.4103 14.8054 78.7221L14.7749 78.7464Z" fill="black"/>
<path d="M-3.12637 62.6737C-4.96785 62.2924 -6.60139 62.6994 -6.76313 63.6176C-6.94225 64.5394 -5.59763 65.5824 -3.75201 65.9809C-1.90638 66.3793 -0.276985 65.9551 -0.115236 65.0369C0.0638816 64.1151 -1.29811 63.0757 -3.12637 62.6737Z" fill="black"/>
<path d="M-2.21646 60.8874C-0.374961 61.2687 1.25859 60.8616 1.42034 59.9434C1.59946 59.0216 0.25483 57.9786 -1.59082 57.5802C-3.43232 57.1989 -5.06586 57.6059 -5.22761 58.5242C-5.40673 59.4459 -4.06211 60.4889 -2.21646 60.8874Z" fill="black"/>
<path d="M-0.660187 55.8071C1.18132 56.1883 2.81487 55.7813 2.97662 54.8631C3.15574 53.9413 1.81111 52.8983 -0.0345385 52.4998C-1.87604 52.1186 -3.50959 52.5256 -3.67134 53.4438C-3.85046 54.3656 -2.50583 55.4086 -0.660187 55.8071Z" fill="black"/>
<path d="M65.4299 25.2119C65.4939 24.8755 65.5136 24.6559 65.5175 24.2959C65.5442 23.051 65.3084 21.7702 64.6565 20.7183C64.3478 20.1888 63.9092 19.7219 63.3999 19.4132C63.1473 19.2674 62.847 19.1493 62.5418 19.0861C62.4127 19.0766 62.3526 19.053 62.1544 19.0577C62.0079 19.0518 61.887 19.0766 61.7661 19.1014C61.2652 19.204 60.8705 19.4466 60.5876 19.7021C60.3048 19.9577 60.1165 20.2297 59.985 20.4363C59.8576 20.66 59.7738 20.8389 59.7162 20.9764L59.6365 21.1723C59.6365 21.1723 59.8116 20.9209 60.1644 20.5792C60.4998 20.241 61.0952 19.7777 61.8495 19.7489C61.94 19.7483 62.0304 19.7477 62.1251 19.7643L62.4344 19.8446C62.5973 19.9189 62.7602 19.9933 62.9354 20.1191C63.2687 20.3741 63.5403 20.7495 63.7724 21.1869C64.2022 22.0688 64.4099 23.1578 64.3421 24.2314C64.3397 24.4475 64.3184 24.811 64.2815 25.0342C64.2487 25.2744 64.1896 25.5559 64.1223 25.8032C63.9876 26.2978 63.8142 26.7824 63.5725 27.2091C63.3268 27.6187 63.0341 27.9841 62.6953 28.2331C62.3565 28.4822 61.9716 28.6149 61.6269 28.6137C60.8644 28.6083 60.2711 28.1013 59.9477 27.7365C59.6029 27.3581 59.4506 27.1019 59.4506 27.1019L59.5 27.3073C59.5675 27.4372 59.6343 27.639 59.761 27.8645C59.8878 28.09 60.0656 28.3769 60.3684 28.6561C60.6498 28.9218 61.0777 29.1933 61.568 29.2724C62.101 29.3787 62.6883 29.2584 63.1784 28.9603C63.6899 28.6759 64.1126 28.248 64.4496 27.7658C64.7826 27.2665 65.0513 26.7265 65.2172 26.1356C65.3109 25.847 65.3659 25.5484 65.4167 25.2326L65.4299 25.2119Z" fill="white"/>
<path d="M61.7789 46.3495C61.6497 46.3401 61.5897 46.3165 61.3915 46.3212C61.245 46.3153 61.1241 46.34 61.0032 46.3648C60.5023 46.4675 60.1076 46.71 59.8248 46.9656C59.5419 47.2211 59.3537 47.4932 59.2221 47.6997C59.0947 47.9234 59.0109 48.1023 58.9534 48.2398L58.8737 48.4357C58.8737 48.4357 59.0488 48.1843 59.4015 47.8426C59.737 47.5044 60.3323 47.0411 61.0866 47.0123C61.177 47.0117 61.2675 47.0111 61.3621 47.0277L61.6714 47.108C61.8343 47.1823 61.9972 47.2567 62.1725 47.3825C62.5057 47.6375 62.7773 48.0129 63.0095 48.4503C63.4392 49.3322 63.6469 50.4211 63.5791 51.4948C63.5767 51.7108 63.5555 52.0744 63.5186 52.2975C63.4858 52.5377 63.4267 52.8193 63.3593 53.0666C63.2246 53.5612 63.0513 54.0457 62.8096 54.4725C62.5638 54.8821 62.2711 55.2474 61.9324 55.4964C61.5936 55.7455 61.2087 55.8782 60.864 55.877C60.1015 55.8716 59.5082 55.3646 59.1848 54.9998C58.84 54.6214 58.6877 54.3652 58.6877 54.3652L58.7372 54.5706C58.8047 54.7005 58.8714 54.9024 58.9982 55.1278C59.1249 55.3533 59.3027 55.6402 59.6055 55.9194C59.8869 56.185 60.3148 56.4566 60.8051 56.5357C61.3381 56.642 61.9254 56.5217 62.4155 56.2236C62.927 55.9392 63.3496 55.5113 63.6867 55.0291C64.0196 54.5298 64.2883 53.9898 64.4543 53.399C64.5479 53.1104 64.6029 52.8117 64.6538 52.4959C64.7178 52.1595 64.7374 51.9399 64.7414 51.5799C64.768 50.3351 64.5323 49.0542 63.8804 48.0024C63.5717 47.4729 63.1331 47.006 62.6238 46.6973C62.3712 46.5514 62.0709 46.4334 61.7657 46.3702L61.7789 46.3495Z" fill="white"/>
<path d="M37.9966 7.80241C37.9966 7.80241 37.9447 7.81304 37.9059 7.80297C35.3313 7.75399 32.8406 8.73219 31.0844 10.4963C30.9665 10.6105 30.8659 10.7211 30.7522 10.8524L30.6953 10.9181L16.7263 27.5532C14.2068 30.3739 13.765 34.4257 15.598 37.8856L26.5639 58.4358C28.1558 61.4229 31.2444 63.4553 34.6416 63.75L54.0157 66.0848L54.1106 66.1013C56.9467 66.3308 59.6792 65.3752 61.6143 63.4484C61.8369 63.2407 62.0381 63.0195 62.2178 62.7846C62.2483 62.7604 62.2746 62.719 62.2878 62.6983L75.5583 44.7477C77.7438 42.0494 78.1353 38.242 76.5417 35.0211L67.2166 14.5672L67.196 14.4814C65.5255 11.1682 62.0367 8.98364 58.3089 8.90072L38.0008 7.81956L37.9966 7.80241ZM63.8801 48.2554C64.5167 49.3135 64.7532 50.5975 64.744 51.8418C64.7227 52.2063 64.6989 52.4093 64.6562 52.7601C64.6052 53.0767 64.5327 53.3796 64.4561 53.6654C64.2898 54.2576 64.0203 54.7989 63.6865 55.2994C63.3527 55.7999 62.9247 56.2117 62.4118 56.4968C61.9162 56.7783 61.3272 56.899 60.7968 56.8095C60.2878 56.7337 59.876 56.4579 59.5937 56.1916C59.3115 55.9253 59.1159 55.6412 58.9846 55.398C58.8574 55.172 58.7905 54.9696 58.7401 54.8359L58.6905 54.6299C58.6905 54.6299 58.8259 54.8903 59.1718 55.2696C59.5135 55.6318 60.0911 56.1437 60.8558 56.1492C61.2015 56.1504 61.5833 56.0002 61.9272 55.7678C62.2669 55.5181 62.5604 55.1519 62.8069 54.7413C63.0533 54.3308 63.2271 53.845 63.358 53.332C63.4255 53.0841 63.4889 52.8191 63.5177 52.5611C63.5547 52.3374 63.576 51.973 63.5783 51.7564C63.6289 50.6837 63.4378 49.5884 63.0068 48.7044C62.7739 48.2659 62.5015 47.8895 62.1673 47.6339C61.9874 47.4906 61.8282 47.4332 61.6648 47.3586L61.3546 47.2781C61.3546 47.2781 61.169 47.2621 61.0783 47.2627C60.3218 47.2915 59.7248 47.7559 59.3884 48.0949C59.0347 48.4374 58.8591 48.6894 58.8591 48.6894L58.9391 48.493C59.0009 48.3723 59.0635 48.1794 59.2085 47.9517C59.3363 47.7274 59.5292 47.4719 59.8128 47.2157C60.0965 46.9596 60.4708 46.7028 60.9946 46.6136C61.1159 46.5888 61.2544 46.5604 61.384 46.5699C61.5828 46.5652 61.643 46.5889 61.7725 46.5984C62.0786 46.6617 62.3756 46.7629 62.633 46.9263C63.1611 47.2323 63.5837 47.7039 63.8933 48.2347L63.8801 48.2554ZM62.9112 28.9893C62.4155 29.2709 61.8266 29.3915 61.2962 29.3021C60.7871 29.2262 60.3754 28.9504 60.0931 28.6841C59.8109 28.4178 59.6152 28.1337 59.484 27.8905C59.3568 27.6645 59.2899 27.4621 59.2395 27.3284L59.1899 27.1225C59.1899 27.1225 59.3253 27.3828 59.6711 27.7622C60.0128 28.1243 60.5905 28.6363 61.3552 28.6417C61.7009 28.643 62.0827 28.4928 62.4266 28.2603C62.7663 28.0107 63.0598 27.6445 63.3063 27.2339C63.5527 26.8233 63.7265 26.3375 63.8574 25.8246C63.9249 25.5767 63.9883 25.3116 64.0171 25.0536C64.0541 24.83 64.0753 24.4655 64.0777 24.2489C64.1283 23.1762 63.9372 22.081 63.5062 21.1969C63.2733 20.7584 63.0009 20.3821 62.6667 20.1264C62.4868 19.9832 62.3276 19.9258 62.1642 19.8512L61.854 19.7707C61.854 19.7707 61.6684 19.7546 61.5777 19.7552C60.8212 19.7841 60.2242 20.2484 59.8878 20.5874C59.5341 20.9299 59.3585 21.182 59.3585 21.182L59.4384 20.9855C59.5003 20.8649 59.5629 20.672 59.7079 20.4442C59.8357 20.22 60.0286 19.9644 60.3122 19.7082C60.5959 19.4521 60.9702 19.1954 61.494 19.1061C61.6153 19.0813 61.7538 19.0529 61.8833 19.0624C62.0863 19.0749 62.1424 19.0814 62.2719 19.0909C62.578 19.1543 62.875 19.2555 63.1324 19.4188C63.6605 19.7248 64.0831 20.1965 64.3927 20.7273C65.0292 21.7853 65.2699 23.0865 65.2565 24.3136C65.2353 24.6781 65.2114 24.8811 65.1687 25.2319C65.1177 25.5485 65.0453 25.8514 64.9687 26.1372C64.8024 26.7294 64.5329 27.2708 64.1991 27.7713C63.8652 28.2718 63.4373 28.6835 62.9244 28.9686L62.9112 28.9893ZM65.354 14.6065C65.477 14.8153 65.5191 14.9148 65.676 15.1887L65.9163 15.7337L66.3928 16.8065C67.0469 18.2391 67.6448 19.6652 68.2435 21.0191C69.432 23.7647 70.5056 26.3358 71.4017 28.5471C73.2113 32.9662 74.2802 35.9703 74.2802 35.9703C74.2802 35.9703 72.6992 33.1791 70.5424 28.9032C69.4466 26.7687 68.208 24.2674 66.9198 21.5602C66.2865 20.2134 65.5887 18.8258 64.9347 17.3932L64.4408 16.3239L64.1832 15.7825C64.1832 15.7825 64.0139 15.457 63.9289 15.3304C63.5764 14.7724 63.0944 14.2049 62.5505 13.758C62.071 13.3521 61.5388 13.0289 60.967 12.7679L47.2288 28.8516C44.1957 32.4077 41.1529 32.9047 39.2812 32.9819L18.2316 33.7272L39.0138 36.0977C41.0506 36.3288 44.5279 36.8052 46.2743 40.2828C46.2825 40.3171 46.3081 40.3479 46.3337 40.3787L57.7387 63.0536C56.6706 63.5244 55.4845 63.7313 54.2586 63.6222L34.8284 61.2809C32.2686 61.0668 29.9606 59.5588 28.7667 57.3185L17.8008 36.7683C16.4459 34.2369 16.7768 31.2341 18.6401 29.16L32.6354 12.4834C32.7228 12.3935 32.7929 12.3072 32.8844 12.2344C34.1904 10.9406 36.0172 10.2244 37.931 10.2466C37.931 10.2466 41.1382 10.1301 45.9334 10.1925C48.3356 10.2048 51.1345 10.2798 54.1191 10.3709C55.6221 10.4232 57.1424 10.472 58.7576 10.5374C60.4933 10.6501 62.2441 11.354 63.6272 12.4932C64.3163 13.0903 64.8751 13.7502 65.3589 14.5514L65.354 14.6065Z" fill="black"/>
<path d="M40.6406 25.8931C38.5394 26.8666 37.2764 28.5184 37.8026 29.568C38.3329 30.635 40.4659 30.704 42.5712 29.7477C44.6723 28.7742 45.9353 27.1225 45.4092 26.0728C44.883 25.0231 42.7459 24.9369 40.6406 25.8931Z" fill="black"/>
<path d="M24.1251 26.1023C22.0239 27.0759 20.761 28.7276 21.2871 29.7773C21.8174 30.8442 23.9504 30.9132 26.0557 29.9569C28.161 29.0007 29.4198 27.3317 28.8937 26.282C28.3634 25.2151 26.2304 25.1461 24.1251 26.1023Z" fill="black"/>
<path d="M51.7868 13.3953C49.6856 14.3688 48.4227 16.0206 48.9488 17.0703C49.4791 18.1372 51.6121 18.2062 53.7174 17.2499C55.8227 16.2936 57.0815 14.6247 56.5554 13.575C56.0292 12.5253 53.8921 12.4391 51.7868 13.3953Z" fill="black"/>
<path d="M35.7482 13.3626C33.6471 14.3361 32.3841 15.9878 32.9103 17.0375C33.4406 18.1044 35.5735 18.1735 37.6788 17.2172C39.7841 16.2609 41.043 14.592 40.5168 13.5423C39.9907 12.4926 37.8535 12.4063 35.7482 13.3626Z" fill="black"/>
<path d="M22.7413 42.1241C24.4169 43.5794 26.34 44.1027 27.0695 43.2878C27.7818 42.4765 27.0164 40.6549 25.3582 39.1961C23.6826 37.7408 21.7595 37.2175 21.0299 38.0324C20.3176 38.8437 21.083 40.6653 22.7413 42.1241Z" fill="black"/>
<path d="M42.3189 44.4111C43.0312 43.5998 42.2658 41.7782 40.6075 40.3194C38.9493 38.8606 37.0088 38.3408 36.2793 39.1557C35.567 39.967 36.3324 41.7886 37.9907 43.2474C39.649 44.7062 41.5894 45.226 42.3189 44.4111Z" fill="black"/>
<path d="M25.3536 45.7479C24.6414 46.5593 25.4068 48.3808 27.065 49.8397C28.7406 51.295 30.6637 51.8183 31.3933 51.0034C32.1055 50.1921 31.3401 48.3705 29.6819 46.9117C28.0063 45.4564 26.0832 44.9331 25.3536 45.7479Z" fill="black"/>
<path d="M46.6212 52.1135C47.3334 51.3022 46.5681 49.4806 44.9098 48.0218C43.2342 46.5665 41.3111 46.0432 40.5815 46.8581C39.8693 47.6694 40.6347 49.491 42.2929 50.9498C43.9512 52.4086 45.8916 52.9284 46.6212 52.1135Z" fill="black"/>
<path d="M29.5377 53.2611C28.8255 54.0725 29.5908 55.894 31.2491 57.3529C32.9247 58.8081 34.8478 59.3314 35.5774 58.5166C36.2896 57.7052 35.5242 55.8837 33.866 54.4248C32.1904 52.9696 30.2673 52.4463 29.5377 53.2611Z" fill="black"/>
<path d="M51.2248 60.0022C51.9371 59.1908 51.1717 57.3693 49.5134 55.9104C47.8379 54.4552 45.9147 53.9318 45.1852 54.7467C44.4729 55.5581 45.2383 57.3796 46.8966 58.8385C48.5721 60.2937 50.4953 60.817 51.2248 60.0022Z" fill="black"/>
<defs>
<linearGradient id="paint0_linear_2021_22923" x1="-26.9227" y1="20.3865" x2="-21.3908" y2="96.7541" gradientUnits="userSpaceOnUse">
<stop offset="0.195" stop-color="#FFFCE8"/>
<stop offset="0.35" stop-color="#EEDBAB"/>
<stop offset="0.475" stop-color="#EEC173"/>
<stop offset="0.615" stop-color="#D6B35A"/>
<stop offset="0.77" stop-color="#FEE492"/>
<stop offset="0.91" stop-color="#EEBD57"/>
<stop offset="1" stop-color="#B48024"/>
</linearGradient>
<linearGradient id="paint1_linear_2021_22923" x1="-5.4852" y1="55.2205" x2="-4.7271" y2="62.2064" gradientUnits="userSpaceOnUse">
<stop offset="0.195" stop-color="#FFFCE8"/>
<stop offset="0.35" stop-color="#EEDBAB"/>
<stop offset="0.475" stop-color="#EEC173"/>
<stop offset="0.615" stop-color="#D6B35A"/>
<stop offset="0.77" stop-color="#FEE492"/>
<stop offset="0.91" stop-color="#EEBD57"/>
<stop offset="1" stop-color="#B48024"/>
</linearGradient>
<linearGradient id="paint2_linear_2021_22923" x1="-3.92881" y1="50.1404" x2="-3.17071" y2="57.1263" gradientUnits="userSpaceOnUse">
<stop offset="0.195" stop-color="#FFFCE8"/>
<stop offset="0.35" stop-color="#EEDBAB"/>
<stop offset="0.475" stop-color="#EEC173"/>
<stop offset="0.615" stop-color="#D6B35A"/>
<stop offset="0.77" stop-color="#FEE492"/>
<stop offset="0.91" stop-color="#EEBD57"/>
<stop offset="1" stop-color="#B48024"/>
</linearGradient>
<linearGradient id="paint3_linear_2021_22923" x1="17.2703" y1="-33.1735" x2="23.278" y2="69.5112" gradientUnits="userSpaceOnUse">
<stop offset="0.195" stop-color="#FFFCE8"/>
<stop offset="0.35" stop-color="#EEDBAB"/>
<stop offset="0.475" stop-color="#EEC173"/>
<stop offset="0.615" stop-color="#D6B35A"/>
<stop offset="0.77" stop-color="#FEE492"/>
<stop offset="0.91" stop-color="#EEBD57"/>
<stop offset="1" stop-color="#B48024"/>
</linearGradient>
<linearGradient id="paint4_linear_2021_22923" x1="37.5754" y1="23.3617" x2="38.5303" y2="31.0749" gradientUnits="userSpaceOnUse">
<stop offset="0.195" stop-color="#FFFCE8"/>
<stop offset="0.35" stop-color="#EEDBAB"/>
<stop offset="0.475" stop-color="#EEC173"/>
<stop offset="0.615" stop-color="#D6B35A"/>
<stop offset="0.77" stop-color="#FEE492"/>
<stop offset="0.91" stop-color="#EEBD57"/>
<stop offset="1" stop-color="#B48024"/>
</linearGradient>
<linearGradient id="paint5_linear_2021_22923" x1="21.0588" y1="23.566" x2="22.0139" y2="31.2839" gradientUnits="userSpaceOnUse">
<stop offset="0.195" stop-color="#FFFCE8"/>
<stop offset="0.35" stop-color="#EEDBAB"/>
<stop offset="0.475" stop-color="#EEC173"/>
<stop offset="0.615" stop-color="#D6B35A"/>
<stop offset="0.77" stop-color="#FEE492"/>
<stop offset="0.91" stop-color="#EEBD57"/>
<stop offset="1" stop-color="#B48024"/>
</linearGradient>
<linearGradient id="paint6_linear_2021_22923" x1="48.7216" y1="10.8636" x2="49.6765" y2="18.5769" gradientUnits="userSpaceOnUse">
<stop offset="0.195" stop-color="#FFFCE8"/>
<stop offset="0.35" stop-color="#EEDBAB"/>
<stop offset="0.475" stop-color="#EEC173"/>
<stop offset="0.615" stop-color="#D6B35A"/>
<stop offset="0.77" stop-color="#FEE492"/>
<stop offset="0.91" stop-color="#EEBD57"/>
<stop offset="1" stop-color="#B48024"/>
</linearGradient>
<linearGradient id="paint7_linear_2021_22923" x1="32.6831" y1="10.8309" x2="33.6379" y2="18.5442" gradientUnits="userSpaceOnUse">
<stop offset="0.195" stop-color="#FFFCE8"/>
<stop offset="0.35" stop-color="#EEDBAB"/>
<stop offset="0.475" stop-color="#EEC173"/>
<stop offset="0.615" stop-color="#D6B35A"/>
<stop offset="0.77" stop-color="#FEE492"/>
<stop offset="0.91" stop-color="#EEBD57"/>
<stop offset="1" stop-color="#B48024"/>
</linearGradient>
<linearGradient id="paint8_linear_2021_22923" x1="19.8121" y1="33.4568" x2="20.1711" y2="44.833" gradientUnits="userSpaceOnUse">
<stop offset="0.195" stop-color="#FFFCE8"/>
<stop offset="0.35" stop-color="#EEDBAB"/>
<stop offset="0.475" stop-color="#EEC173"/>
<stop offset="0.615" stop-color="#D6B35A"/>
<stop offset="0.77" stop-color="#FEE492"/>
<stop offset="0.91" stop-color="#EEBD57"/>
<stop offset="1" stop-color="#B48024"/>
</linearGradient>
<linearGradient id="paint9_linear_2021_22923" x1="35.0614" y1="34.5801" x2="35.4203" y2="45.9563" gradientUnits="userSpaceOnUse">
<stop offset="0.195" stop-color="#FFFCE8"/>
<stop offset="0.35" stop-color="#EEDBAB"/>
<stop offset="0.475" stop-color="#EEC173"/>
<stop offset="0.615" stop-color="#D6B35A"/>
<stop offset="0.77" stop-color="#FEE492"/>
<stop offset="0.91" stop-color="#EEBD57"/>
<stop offset="1" stop-color="#B48024"/>
</linearGradient>
<linearGradient id="paint10_linear_2021_22923" x1="24.1358" y1="41.1726" x2="24.4948" y2="52.5489" gradientUnits="userSpaceOnUse">
<stop offset="0.195" stop-color="#FFFCE8"/>
<stop offset="0.35" stop-color="#EEDBAB"/>
<stop offset="0.475" stop-color="#EEC173"/>
<stop offset="0.615" stop-color="#D6B35A"/>
<stop offset="0.77" stop-color="#FEE492"/>
<stop offset="0.91" stop-color="#EEBD57"/>
<stop offset="1" stop-color="#B48024"/>
</linearGradient>
<linearGradient id="paint11_linear_2021_22923" x1="39.3638" y1="42.2825" x2="39.7228" y2="53.6587" gradientUnits="userSpaceOnUse">
<stop offset="0.195" stop-color="#FFFCE8"/>
<stop offset="0.35" stop-color="#EEDBAB"/>
<stop offset="0.475" stop-color="#EEC173"/>
<stop offset="0.615" stop-color="#D6B35A"/>
<stop offset="0.77" stop-color="#FEE492"/>
<stop offset="0.91" stop-color="#EEBD57"/>
<stop offset="1" stop-color="#B48024"/>
</linearGradient>
<linearGradient id="paint12_linear_2021_22923" x1="28.3199" y1="48.6856" x2="28.6789" y2="60.0618" gradientUnits="userSpaceOnUse">
<stop offset="0.195" stop-color="#FFFCE8"/>
<stop offset="0.35" stop-color="#EEDBAB"/>
<stop offset="0.475" stop-color="#EEC173"/>
<stop offset="0.615" stop-color="#D6B35A"/>
<stop offset="0.77" stop-color="#FEE492"/>
<stop offset="0.91" stop-color="#EEBD57"/>
<stop offset="1" stop-color="#B48024"/>
</linearGradient>
<linearGradient id="paint13_linear_2021_22923" x1="43.9674" y1="50.1711" x2="44.3263" y2="61.5474" gradientUnits="userSpaceOnUse">
<stop offset="0.195" stop-color="#FFFCE8"/>
<stop offset="0.35" stop-color="#EEDBAB"/>
<stop offset="0.475" stop-color="#EEC173"/>
<stop offset="0.615" stop-color="#D6B35A"/>
<stop offset="0.77" stop-color="#FEE492"/>
<stop offset="0.91" stop-color="#EEBD57"/>
<stop offset="1" stop-color="#B48024"/>
</linearGradient>
</defs>
</svg>
