<svg width="1440" height="569" viewBox="0 0 1440 569" fill="none" xmlns="http://www.w3.org/2000/svg">
<g clip-path="url(#clip0_2_7)">
<rect width="1440" height="569" fill="#ACDDFF"/>
<path d="M252.983 568.85C247.85 551.352 237.432 539.126 224.65 529.348C206.853 515.727 186.455 509.249 163.846 512.344C159.135 512.99 157.987 510.932 157.362 506.97C146.522 438.441 96.1873 385.574 28.6466 375.915C-33.8286 366.987 -84.7881 389.383 -122.577 440.839C-124.08 442.879 -126.359 444.767 -126.883 447.046C-130.766 463.744 -143.886 464.22 -157.107 465.394C-190.895 468.386 -228.447 499.896 -237.582 533.106C-240.115 542.289 -241.212 551.879 -242.8 561.3C-243.813 567.32 -240.942 569.513 -235.134 568.901C-232.078 568.578 -228.954 568.867 -225.864 568.867C-69.4732 568.867 86.9173 568.867 243.308 568.867C246.094 568.867 248.88 568.867 253 568.867L252.983 568.85Z" fill="#FCFEFE"/>
<path d="M1106.99 644.914C1104.54 634.864 1099.56 627.842 1093.45 622.226C1084.95 614.402 1075.2 610.681 1064.4 612.459C1062.15 612.83 1061.6 611.648 1061.3 609.373C1056.12 570.012 1032.07 539.647 999.799 534.1C969.947 528.972 945.597 541.835 927.541 571.389C926.823 572.561 925.733 573.646 925.483 574.954C923.628 584.545 917.359 584.819 911.041 585.493C894.897 587.212 876.954 605.31 872.589 624.384C871.379 629.658 870.854 635.167 870.096 640.577C869.612 644.035 870.983 645.295 873.759 644.943C875.219 644.758 876.712 644.924 878.188 644.924C952.915 644.924 1027.64 644.924 1102.37 644.924C1103.7 644.924 1105.03 644.924 1107 644.924L1106.99 644.914Z" fill="#FCFEFE" fill-opacity="0.61"/>
<path d="M1680.98 588.85C1675.85 571.352 1665.43 559.126 1652.65 549.348C1634.85 535.727 1614.46 529.249 1591.85 532.344C1587.14 532.99 1585.99 530.932 1585.36 526.97C1574.52 458.441 1524.19 405.574 1456.65 395.915C1394.17 386.987 1343.21 409.383 1305.42 460.839C1303.92 462.879 1301.64 464.767 1301.12 467.046C1297.23 483.744 1284.11 484.22 1270.89 485.394C1237.11 488.386 1199.55 519.896 1190.42 553.106C1187.89 562.289 1186.79 571.879 1185.2 581.3C1184.19 587.32 1187.06 589.513 1192.87 588.901C1195.92 588.578 1199.05 588.867 1202.14 588.867C1358.53 588.867 1514.92 588.867 1671.31 588.867C1674.09 588.867 1676.88 588.867 1681 588.867L1680.98 588.85Z" fill="#FCFEFE"/>
<path d="M1283.01 200.892C1286.11 188.239 1292.42 179.399 1300.15 172.329C1310.91 162.48 1323.25 157.795 1336.92 160.033C1339.77 160.5 1340.47 159.012 1340.85 156.148C1347.4 106.596 1377.85 68.3686 1418.7 61.3847C1456.49 54.9294 1487.31 71.1228 1510.16 108.33C1511.07 109.805 1512.45 111.17 1512.77 112.818C1515.12 124.892 1523.05 125.236 1531.05 126.085C1551.48 128.249 1574.2 151.033 1579.72 175.046C1581.25 181.686 1581.92 188.62 1582.88 195.432C1583.49 199.785 1581.76 201.371 1578.24 200.928C1576.39 200.695 1574.5 200.904 1572.64 200.904C1478.04 200.904 1383.45 200.904 1288.86 200.904C1287.18 200.904 1285.49 200.904 1283 200.904L1283.01 200.892Z" fill="#FCFEFE"/>
<path d="M163.992 93.9139C161.539 83.8638 156.561 76.8415 150.454 71.2256C141.95 63.4024 132.204 59.6813 121.4 61.4588C119.149 61.83 118.601 60.6482 118.302 58.3725C113.122 19.0124 89.0713 -11.3526 56.7989 -16.9001C26.9468 -22.0277 2.59721 -9.16484 -15.4592 20.3895C-16.1773 21.5615 -17.2665 22.6456 -17.5166 23.9544C-19.3723 33.5454 -25.6412 33.8188 -31.9586 34.4927C-48.1029 36.2117 -66.0464 54.3095 -70.4112 73.3841C-71.6214 78.6582 -72.1459 84.1666 -72.9043 89.5774C-73.3884 93.0349 -72.0168 94.2948 -69.2413 93.9432C-67.781 93.7576 -66.2884 93.9236 -64.812 93.9236C9.915 93.9236 84.6419 93.9236 159.369 93.9236C160.7 93.9236 162.031 93.9236 164 93.9236L163.992 93.9139Z" fill="#FCFEFE"/>
</g>
<defs>
<clipPath id="clip0_2_7">
<rect width="1440" height="569" fill="white"/>
</clipPath>
</defs>
</svg>
