<svg width="104" height="55" viewBox="0 0 104 55" fill="none" xmlns="http://www.w3.org/2000/svg">
<path d="M40.3058 9.67251C36.4569 16.1733 35.0052 23.1696 36.1753 31.8437L36.284 32.6502L36.9543 32.1887C44.2894 27.1379 47.8531 20.8685 49.1515 13.1625L49.1515 13.1624C49.3616 11.9133 49.4792 10.5477 49.1214 9.35336C48.7502 8.11448 47.881 7.10504 46.2473 6.58317L46.2463 6.58287C44.8304 6.13371 43.6217 6.39671 42.6237 7.0482C41.6491 7.68449 40.8936 8.67765 40.3058 9.67251ZM40.3058 9.67251L40.7361 9.92725L40.3056 9.67294C40.3057 9.6728 40.3058 9.67265 40.3058 9.67251ZM40.6126 35.1962C40.2951 35.4583 39.9764 35.7215 39.6575 35.9881L39.3547 35.616L39.1024 36.563L39.0988 36.5764L38.6884 38.1169L39.528 37.406C50.1311 49.9817 69.4183 51.6689 91.1358 42.2681L92.0785 41.86L91.1758 41.3698C90.1446 40.8098 89.0274 40.6111 87.9301 40.5393C87.28 40.4967 86.5881 40.4984 85.9228 40.5001C85.5012 40.5011 85.0903 40.5021 84.7075 40.4918C83.6747 40.464 82.7415 40.3579 81.9272 40.0087C81.1804 39.6885 80.5083 39.1526 79.9578 38.2225C80.0235 38.0338 80.0798 37.8473 80.1274 37.6896C80.1515 37.6099 80.1734 37.5376 80.1931 37.4761C80.2151 37.4074 80.2337 37.3538 80.2495 37.3126C81.5364 37.0882 82.8217 36.8601 84.106 36.6321C89.2386 35.7211 94.3563 34.8128 99.5081 34.1541L99.5086 34.154C100.471 34.03 101.336 34.3338 101.889 34.8886C102.432 35.433 102.71 36.2546 102.446 37.2717C102.372 37.5549 102.298 37.8381 102.225 38.1213C101.065 42.5999 99.9043 47.0823 96.8469 51.5527C96.5805 50.9014 96.3348 50.3018 96.108 49.7482C95.5461 48.3766 95.0997 47.2872 94.7394 46.3932L94.5627 45.9549L94.1152 46.1065C92.0518 46.8053 90.0265 47.5486 88.0174 48.286C83.5905 49.9106 79.2424 51.5064 74.7389 52.5339L74.7384 52.534C59.3697 56.0577 45.6445 52.8829 34.6273 41.0688C33.6904 40.0612 32.7443 39.4903 31.7018 39.2008C30.6748 38.9156 29.5872 38.9135 28.3946 38.9846L28.3939 38.9847C18.6531 39.5792 10.4364 36.1971 4.1705 28.6899L4.17035 28.6898C3.01067 27.3016 1.89393 25.8821 1.31748 24.1974C0.846927 22.8222 0.728806 21.244 1.30439 19.3337C3.75129 25.2601 7.62991 29.0738 12.6899 31.7017L12.6901 31.7018C17.9459 34.4281 23.4678 36.0329 29.4375 34.6599L29.7938 34.5779L29.8238 34.2136C29.9594 32.5651 30.0361 30.9185 30.1112 29.3046C30.158 28.2992 30.2041 27.3066 30.2637 26.334C30.4199 23.7798 30.6693 21.3177 31.2571 18.9532C32.4552 14.1913 34.5145 9.42973 37.1593 5.27788C39.7592 1.19999 44.3855 0.234185 48.2722 1.73216C52.1069 3.21013 54.3498 6.90991 53.9291 12.0064C53.2543 20.1752 49.5893 26.9482 43.6547 32.5666C42.6782 33.4907 41.6519 34.338 40.6126 35.1962ZM80.2986 37.2082C80.2988 37.2087 80.2958 37.2141 80.2893 37.2226C80.2953 37.2119 80.2984 37.2077 80.2986 37.2082Z" fill="#333333" stroke="#FFFBF5"/>
</svg>
