<svg width="117" height="84" viewBox="0 0 117 84" fill="none" xmlns="http://www.w3.org/2000/svg">
<path d="M103.276 36.8226C104.579 37.6064 105.905 38.4038 107.264 39.2194L107.257 39.4637L107.439 39.2633L107.458 39.2425L107.54 39.1522L107.468 39.1091C107.476 38.9191 107.491 38.7671 107.503 38.6394C107.507 38.5964 107.511 38.5561 107.514 38.5181C107.528 38.3558 107.534 38.2189 107.481 38.0977L107.48 38.0953C100.347 22.9318 88.9866 11.891 72.5139 6.02632L72.5138 6.02629C68.3178 4.5363 63.8686 4.11781 59.4019 4.5901C49.7521 5.60704 42.3871 12.1546 40.6944 21.2387C39.8221 25.931 39.7642 30.574 42.0037 35.1074L42.0238 35.1479L42.0672 35.1599C42.786 35.3591 43.5031 35.5431 44.216 35.7262C45.7718 36.1256 47.308 36.5199 48.7993 37.0544C52.2073 38.2781 54.846 40.4071 56.2672 43.6941C57.3389 46.1739 57.0877 48.3424 55.6248 49.3884C53.7527 50.7274 51.6034 50.4277 49.9185 49.2462L49.9182 49.246C47.5297 47.5819 45.3694 45.5682 43.3174 43.5036C42.6596 42.8418 42.0938 42.093 41.5543 41.3199C41.3455 41.0207 41.1399 40.7166 40.9343 40.4127C40.611 39.9347 40.2878 39.4569 39.9528 38.9985L39.9222 38.9566L39.8705 38.9572C35.2391 39.01 31.6835 40.957 29.614 44.195C27.546 47.4304 26.9707 51.9406 28.2663 57.1064L28.2789 57.1567L28.3271 57.1758C28.7034 57.3247 29.0892 57.4694 29.4793 57.6157C30.3704 57.95 31.2841 58.2927 32.1595 58.7133C36.6836 60.887 39.9594 64.1105 41.0677 68.9056L41.0678 68.9056C41.4859 70.7078 41.4647 72.6024 39.6938 73.854C38.3336 74.8114 36.105 74.5307 34.042 73.0155C30.7637 70.599 28.6489 67.3317 26.9001 63.8159C26.4837 62.9754 26.1084 62.1198 25.7394 61.2784C25.571 60.8944 25.4039 60.5134 25.2348 60.1381L25.2087 60.0802L25.1454 60.0787C18.0061 59.9065 11.5682 62.5007 7.43497 66.716C3.33653 70.8959 1.50578 76.6697 3.51021 82.9055C3.23153 82.8443 2.96087 82.8008 2.71121 82.7607C2.56058 82.7365 2.41759 82.7136 2.2851 82.6887C1.87747 82.6121 1.56828 82.5174 1.36913 82.3287C1.14014 82.11 0.963735 81.7939 0.83793 81.4418C0.712459 81.0907 0.639702 80.7104 0.613857 80.3701C0.140916 73.7827 1.6562 67.8989 7.19605 63.5882C11.339 60.3703 16.1419 58.4032 21.42 57.4245L21.4204 57.4245C22.173 57.2824 22.9274 57.1251 23.6745 56.9591L23.6747 56.9591C23.7564 56.9407 23.823 56.8878 23.8929 56.8281C23.9112 56.8124 23.9305 56.7956 23.9513 56.7775C24.015 56.7219 24.0928 56.654 24.2 56.5702L24.2368 56.5414L24.2381 56.4945C24.2425 56.3242 24.2494 56.1419 24.2567 55.9506C24.2778 55.3929 24.3019 54.7594 24.2756 54.1297C24.0617 48.9293 24.8427 45.1085 26.9857 42.1593C29.1294 39.209 32.6476 37.1147 37.9446 35.3943L38.0289 35.3669L38.011 35.2796C37.9637 35.0485 37.9162 34.8146 37.8683 34.5787C37.7103 33.8001 37.5477 32.999 37.3709 32.1962L37.3709 32.196C36.0119 26.073 36.5995 20.1847 39.3535 14.5791L39.3536 14.5791C43.8753 5.35875 53.3941 0.266426 64.4959 1.07807C70.5433 1.52152 76.2191 3.19932 81.546 5.99895C94.4635 12.8033 104.094 22.4398 109.544 35.6258L109.544 35.626C109.834 36.3233 110.132 37.014 110.44 37.6981L110.44 37.6981L110.442 37.702C110.479 37.7752 110.55 37.8266 110.647 37.894C110.67 37.9098 110.695 37.9271 110.724 37.9463C110.825 38.0158 110.964 38.111 111.159 38.2541L111.264 38.3313L111.311 38.2101C112.139 36.0598 112.291 33.9114 112.441 31.8024C112.466 31.4494 112.491 31.0975 112.519 30.7469C112.65 29.082 112.732 27.4099 112.818 25.6734C112.854 24.9352 112.89 24.1855 112.932 23.4197C113.886 23.666 114.524 24.0576 114.959 24.5412C115.412 25.0447 115.652 25.6567 115.794 26.3316C115.846 26.5801 115.9 26.8292 115.955 27.0785C116.247 28.421 116.541 29.7695 116.429 31.0651L116.429 31.0653C116.078 35.241 115.653 39.4188 114.863 43.5168L114.863 43.517C114.554 45.1371 113.915 46.0759 113.06 46.4004C112.204 46.7256 111.087 46.4521 109.779 45.535C104.204 41.6061 98.6496 37.641 93.1221 33.6562L93.122 33.6562C92.6937 33.3481 92.3042 32.9909 91.8911 32.5881C91.7551 32.4555 91.6162 32.3176 91.4725 32.175C91.2087 31.913 90.9289 31.6352 90.6212 31.3447C91.516 30.8072 92.2405 30.7239 92.8742 30.8488C93.492 30.9705 94.0314 31.2906 94.5738 31.6124C94.6172 31.6381 94.6605 31.6638 94.7039 31.6894C97.5298 33.3662 100.346 35.0599 103.276 36.8226ZM37.552 71.3634L37.7032 71.4478L37.7 71.2749C37.6495 68.5839 36.8371 66.2843 35.4078 64.5502C33.9782 62.8158 31.9364 61.6533 29.4385 61.2288L29.2401 61.195L29.3342 61.3736C29.4251 61.5464 29.5156 61.7188 29.6059 61.8907C31.5268 65.5501 33.3468 69.0175 37.552 71.3634ZM53.2167 47.2479L53.3613 47.2917L53.3442 47.1415C53.0777 44.798 52.1948 42.979 50.7437 41.7243C49.2936 40.4705 47.2871 39.79 44.7909 39.7011L44.5961 39.6942L44.7054 39.8567C46.8773 43.0858 49.0286 45.9809 53.2167 47.2479Z" fill="#333333" stroke="#FFFBF5" stroke-width="0.2"/>
</svg>
