<svg width="118" height="78" viewBox="0 0 118 78" fill="none" xmlns="http://www.w3.org/2000/svg">
<path d="M104.349 38.6403C105.57 37.7738 106.812 36.8923 108.085 35.9904L108.059 35.7479L108.256 35.9339L108.276 35.9529L108.365 36.0367L108.296 36.0849C108.319 36.2704 108.344 36.4181 108.366 36.5423C108.373 36.5842 108.38 36.6234 108.386 36.6605C108.412 36.8186 108.427 36.953 108.384 37.0763L108.383 37.0788C102.514 52.4921 92.1894 64.175 76.4608 71.1595L76.4607 71.1596C72.4538 72.9349 68.1185 73.6776 63.6996 73.5473C54.1532 73.2693 46.4363 67.3928 44.0973 58.6035C42.8912 54.0636 42.4879 49.5111 44.3476 44.8947L44.3645 44.8527L44.407 44.8374C45.0975 44.5884 45.7875 44.3543 46.4735 44.1215C47.9705 43.6134 49.4485 43.1119 50.8721 42.4761C54.1249 41.0211 56.5553 38.7352 57.7046 35.404C58.5713 32.8907 58.1627 30.7824 56.6501 29.8655C54.7137 28.6916 52.6275 29.1459 51.0625 30.4307L51.0622 30.4309C48.8425 32.2421 46.8728 34.3793 45.0131 36.5586C44.417 37.257 43.9177 38.0339 43.4459 38.8329C43.2633 39.142 43.0842 39.4557 42.9052 39.7694C42.6235 40.2626 42.342 40.7557 42.0474 41.2305L42.0201 41.2746L41.9685 41.278C37.419 41.5717 33.7839 39.926 31.511 36.9023C29.2399 33.881 28.3389 29.4974 29.2249 24.3309L29.2337 24.2798L29.2802 24.2571C29.6385 24.0829 30.0064 23.9121 30.3783 23.7393C31.2278 23.3449 32.0988 22.9404 32.9264 22.4623C37.2038 19.9918 40.1776 16.5844 40.9075 11.7966L40.9075 11.7965C41.1834 9.99694 41.0211 8.14012 39.1908 7.04453C37.7853 6.20695 35.6199 6.64818 33.7087 8.28892C30.672 10.9046 28.8405 14.2686 27.3866 17.8492C27.0407 18.7051 26.7363 19.5727 26.4369 20.426C26.3003 20.8153 26.1647 21.2017 26.0267 21.5826L26.0051 21.6423L25.9422 21.6486C18.9484 22.3504 12.4364 20.2846 8.06544 16.4559C3.73178 12.6599 1.50416 7.1308 3.0049 0.862124C2.73683 0.942617 2.47528 1.00528 2.23402 1.06308C2.08803 1.09806 1.94946 1.13125 1.82137 1.16555C1.42705 1.27111 1.1311 1.38698 0.950095 1.5867C0.741919 1.81817 0.592471 2.14123 0.495316 2.49597C0.398422 2.84976 0.35541 3.22828 0.355435 3.56406C0.382754 10.0636 2.30862 15.7241 8.06625 19.5408C12.3719 22.3894 17.2317 23.9615 22.4843 24.5281L22.4846 24.5281C23.2339 24.6114 23.9859 24.7095 24.7315 24.8167L24.7317 24.8167C24.8137 24.8287 24.8833 24.8759 24.9563 24.9293C24.9755 24.9433 24.9956 24.9583 25.0174 24.9746C25.084 25.0244 25.1655 25.0852 25.2768 25.1594L25.3158 25.1853L25.3205 25.232C25.3376 25.3987 25.358 25.5771 25.3794 25.7643C25.4417 26.31 25.5126 26.93 25.5339 27.55C25.7118 32.6693 26.7633 36.3601 29.086 39.0941C31.4096 41.8291 35.0181 43.6219 40.3446 44.915L40.4307 44.9359L40.4195 45.0243C40.3903 45.2547 40.3612 45.4878 40.3318 45.7229C40.2348 46.4987 40.1349 47.2971 40.0214 48.098L40.0213 48.0982C39.1446 54.2082 40.1605 59.9425 43.2811 65.2378L43.2812 65.2379C48.4061 73.9484 58.1268 78.2354 68.9606 76.6107C74.862 75.7244 80.3066 73.6545 85.3251 70.5098C97.4939 62.8688 106.226 52.6936 110.59 39.3472L110.59 39.347C110.823 38.6411 111.064 37.941 111.315 37.2466L111.315 37.2466L111.317 37.2426C111.347 37.1676 111.414 37.1116 111.504 37.0382C111.526 37.0211 111.549 37.0022 111.575 36.9812C111.67 36.9055 111.799 36.8016 111.98 36.6467L112.079 36.5617L112.135 36.679C113.107 38.7277 113.417 40.825 113.721 42.8835C113.772 43.2281 113.823 43.5715 113.877 43.9135C114.13 45.5375 114.335 47.1724 114.548 48.8702C114.639 49.5913 114.731 50.3237 114.828 51.0714C115.745 50.7587 116.341 50.3272 116.731 49.8208C117.138 49.2932 117.329 48.6749 117.417 48.0021C117.45 47.7544 117.484 47.5059 117.519 47.2572C117.706 45.9179 117.894 44.5729 117.687 43.31L117.687 43.3098C117.031 39.2382 116.302 35.17 115.221 31.2074L115.221 31.2072C114.798 29.6405 114.1 28.7676 113.238 28.5131C112.375 28.2581 111.299 28.6094 110.084 29.6068C104.906 33.8785 99.7511 38.184 94.6239 42.5069L94.6238 42.507C94.2266 42.8411 93.8711 43.2207 93.4957 43.6468C93.3722 43.7871 93.2461 43.9328 93.1158 44.0834C92.8769 44.3597 92.6234 44.6527 92.3437 44.9602C93.2607 45.4199 93.9769 45.4474 94.5887 45.2778C95.1856 45.1123 95.6909 44.7582 96.1992 44.4018C96.2398 44.3734 96.2803 44.345 96.3209 44.3167C98.9687 42.4606 101.605 40.5885 104.349 38.6403ZM37.2746 9.64581L37.419 9.55021L37.4289 9.72285C37.5801 12.3678 36.9543 14.6855 35.6808 16.4942C34.407 18.3032 32.4896 19.5967 30.0696 20.1997L29.8744 20.2484L29.9546 20.0631C30.031 19.8868 30.107 19.7109 30.1828 19.5353C31.7948 15.8009 33.3224 12.262 37.2746 9.64581ZM54.4467 32.143L54.5876 32.0884L54.5819 32.2394C54.4953 34.5594 53.7644 36.4109 52.4336 37.7507C51.1037 39.0897 49.1851 39.9073 46.7417 40.1808L46.548 40.2025L46.6447 40.0322C48.5352 36.7012 50.4307 33.6991 54.4467 32.143Z" fill="#333333" stroke="#FFFBF5" stroke-width="0.2"/>
</svg>
