<svg width="438" height="984" viewBox="0 0 438 984" fill="none" xmlns="http://www.w3.org/2000/svg">
<mask id="mask0_1_1698" style="mask-type:alpha" maskUnits="userSpaceOnUse" x="4" y="0" width="430" height="976">
<rect x="4" width="430" height="976" fill="white"/>
</mask>
<g mask="url(#mask0_1_1698)">
<path fill-rule="evenodd" clip-rule="evenodd" d="M232.016 473.101C232.029 472.898 232.016 472.683 232.029 472.48L773 465.002C770.358 420.382 772.604 442.67 766.197 398.151L231.858 470.856C231.818 470.664 231.765 470.45 231.725 470.236C231.659 470.033 231.607 469.83 231.541 469.627L753.398 347.44C737.653 304.421 746.411 325.626 727.139 283.802L230.907 468.082C230.801 467.879 230.695 467.687 230.603 467.506C230.484 467.326 230.365 467.134 230.246 466.954L699.915 237.479C672.282 199.434 686.878 218 656.167 181.76L229.203 465.6C229.031 465.442 228.886 465.273 228.714 465.115C228.555 464.957 228.397 464.799 228.225 464.653L616.54 142.847C578.816 111.885 598.286 126.785 558.065 98.1472L226.772 463.559C226.574 463.435 226.389 463.322 226.191 463.186C225.98 463.074 225.768 462.961 225.57 462.837L508.267 68.7424C462.419 46.6014 485.759 56.9444 438.273 37.6908L223.866 462.092C223.628 462.013 223.404 461.934 223.179 461.867C222.941 461.788 222.717 461.709 222.479 461.664L381.131 19.7231C330.29 8.083 355.889 13.1022 304.282 4.6203L220.643 461.303C220.405 461.269 220.181 461.235 219.904 461.213C219.679 461.201 219.415 461.19 219.19 461.167L244.155 -0.579401C191.676 -1.08696 217.896 -1.62836 165.734 0.999683L217.248 461.201C217.011 461.224 216.76 461.235 216.509 461.269C216.271 461.303 216.046 461.337 215.795 461.382L105.541 8.71464C54.3826 19.4073 79.7438 13.2827 29.5235 27.0771L213.959 461.81C213.735 461.878 213.497 461.957 213.273 462.047C213.035 462.115 212.81 462.216 212.586 462.295L-26.4031 47.4022C-72.6211 68.5958 -49.981 57.3053 -94.3233 81.2284L210.935 463.13C210.737 463.265 210.538 463.378 210.34 463.502C210.155 463.638 209.957 463.773 209.772 463.897L-142.324 112.596C-180.855 142.801 -162.23 127.135 -198.172 159.596L208.412 465.07C208.253 465.217 208.095 465.375 207.923 465.555C207.791 465.713 207.632 465.882 207.474 466.063L-235.672 200.19C-264.335 237.75 -250.796 218.541 -276.329 257.849L206.496 467.461C206.391 467.63 206.272 467.833 206.179 468.014C206.087 468.206 205.981 468.409 205.889 468.6L-300.884 305.312C-317.712 347.936 -310.196 326.415 -323.419 369.964L205.347 470.157C205.308 470.371 205.255 470.574 205.215 470.777C205.176 470.98 205.149 471.183 205.11 471.398L-333.246 420.901C-337.103 465.589 -324.898 442.895 -325.07 487.719L205.043 473.044C205.057 473.247 205.07 473.462 205.083 473.665C205.11 473.879 205.136 474.093 205.162 474.296L-331.08 539.445C-321.82 583.749 -327.355 561.789 -314.423 605.383L205.559 475.898C205.625 476.09 205.717 476.293 205.796 476.496C205.876 476.676 205.981 476.868 206.061 477.071L-294.227 654.357C-272.274 695.233 -284.069 675.156 -258.867 714.498L206.906 478.537C207.051 478.718 207.196 478.91 207.302 479.079C207.461 479.248 207.593 479.428 207.738 479.586L-225.131 757.437C-192.228 792.143 -209.386 775.315 -173.682 807.968L209.006 480.827C209.178 480.962 209.363 481.109 209.548 481.244C209.733 481.38 209.918 481.515 210.102 481.662L-128.653 842.381C-86.6225 869.135 -108.14 856.423 -63.9824 880.583L211.688 482.586C211.899 482.699 212.123 482.79 212.348 482.902C212.559 482.993 212.784 483.083 213.008 483.173L-10.0505 904.507C38.7829 921.572 14.0558 913.789 64.0912 927.809L214.805 483.737C215.056 483.805 215.267 483.85 215.505 483.895C215.769 483.94 216.007 483.985 216.245 484.019L123.412 939.472C175.152 945.518 149.143 943.262 201.451 946.206L218.147 484.188C218.384 484.199 218.635 484.188 218.86 484.199C219.124 484.188 219.362 484.177 219.6 484.166L261.855 944.976C314.109 939.889 288.101 943.228 339.84 934.949L221.488 483.918C221.739 483.861 221.964 483.816 222.202 483.76C222.426 483.703 222.664 483.636 222.902 483.579L398.435 920.794C447.519 904.732 423.321 913.507 471.018 894.457L224.659 482.936C224.87 482.846 225.095 482.744 225.306 482.643C225.517 482.53 225.715 482.429 225.927 482.327L523.325 868.402C566.003 842.516 545.239 856.085 585.645 827.707L227.459 481.312C227.644 481.188 227.829 481.041 227.987 480.895C228.172 480.725 228.344 480.59 228.529 480.432L628.653 791.489C662.534 757.358 646.313 774.92 677.288 738.804L229.691 479.135C229.837 478.955 229.969 478.774 230.101 478.616C230.206 478.436 230.339 478.244 230.457 478.064L708.607 694.387C731.59 653.94 720.944 674.513 740.519 632.656L231.237 476.563C231.316 476.36 231.395 476.169 231.474 475.954C231.514 475.763 231.607 475.56 231.659 475.357L757.863 582.96C768.258 538.982 764.005 561.044 770.662 516.751L231.963 473.766C231.976 473.541 232.003 473.338 232.016 473.101Z" fill="url(#paint0_radial_1_1698)"/>
<g filter="url(#filter0_f_1_1698)">
<path d="M480 498.5C480 745.647 364.937 946 223 946C81.0628 946 -34 745.647 -34 498.5C-34 251.353 81.0628 51 223 51C364.937 51 480 251.353 480 498.5Z" fill="white"/>
</g>
</g>
<defs>
<filter id="filter0_f_1_1698" x="-347.8" y="-262.8" width="1141.6" height="1522.6" filterUnits="userSpaceOnUse" color-interpolation-filters="sRGB">
<feFlood flood-opacity="0" result="BackgroundImageFix"/>
<feBlend mode="normal" in="SourceGraphic" in2="BackgroundImageFix" result="shape"/>
<feGaussianBlur stdDeviation="156.9" result="effect1_foregroundBlur_1_1698"/>
</filter>
<radialGradient id="paint0_radial_1_1698" cx="0" cy="0" r="1" gradientUnits="userSpaceOnUse" gradientTransform="translate(215.064 455.529) rotate(-0.570783) scale(652.087 556.796)">
<stop stop-color="white"/>
<stop offset="0.35938" stop-color="#FFD595" stop-opacity="0.69"/>
<stop offset="1" stop-color="white" stop-opacity="0"/>
</radialGradient>
</defs>
</svg>
