<svg width="121" height="96" viewBox="0 0 121 96" fill="none" xmlns="http://www.w3.org/2000/svg">
<path d="M58.7176 32.5577C59.0588 32.3743 59.3895 32.1853 59.7202 32.0301L52.4924 21.8982C52.1618 22.0535 51.8311 22.2425 51.4898 22.4258C50.7055 22.8533 49.9297 23.2785 49.175 23.715C40.1591 28.8663 33.2339 34.4406 28.2546 39.9285C30.6603 43.3039 33.0745 46.6771 35.4823 50.0604C40.4617 44.5725 47.3868 38.9981 56.3943 33.8491C57.151 33.4205 57.9163 32.9896 58.7091 32.5599L58.7176 32.5577Z" fill="#FFD575"/>
<path d="M27.7685 77.4671C23.4146 71.3732 25.6374 60.8947 35.4816 50.0534C33.0684 46.6814 30.6636 43.3072 28.2568 39.9251C18.421 50.7642 16.1982 61.2427 20.5521 67.3366C22.7228 70.3767 25.6064 74.4247 27.777 77.4648L27.7685 77.4671Z" fill="#FFD575"/>
<path d="M23.719 64.4825L30.9457 74.6127C24.6601 65.801 32.6827 47.4656 58.4188 32.7578C58.8448 32.5182 59.2772 32.2685 59.7117 32.0267L52.485 21.8966C52.0505 22.1384 51.616 22.3802 51.1921 22.6277C25.456 37.3354 17.4334 55.6708 23.719 64.4825Z" fill="#FFD575"/>
<path d="M60.1257 37.6861C60.1257 37.6861 60.1427 37.6816 60.1511 37.6794C57.7468 34.3054 55.334 30.9337 52.9275 27.5519C52.919 27.5542 52.9106 27.5564 52.9021 27.5587C55.0724 30.5986 57.9555 34.6462 60.1257 37.6861Z" fill="#FFD575"/>
<path d="M51.6486 29.2564L58.8729 39.3843C58.6982 38.9671 59.2798 38.1889 60.1274 37.6941L52.903 27.5662C52.0555 28.061 51.4739 28.8392 51.6486 29.2564Z" fill="#FFD575"/>
<path d="M55.2969 28.6418L62.5203 38.7691L62.0047 37.549L54.7813 27.4216L55.2969 28.6418Z" fill="#FFD575"/>
<path d="M60.1505 37.672C60.9472 37.2245 61.724 37.1447 61.9561 37.4708L54.7314 27.3427C54.4993 27.0165 53.7225 27.0963 52.9258 27.5439C55.3305 30.9181 57.7437 34.29 60.1505 37.672Z" fill="#FFD575"/>
<path d="M61.9564 37.4697L54.7328 27.3423C54.7328 27.3423 54.7644 27.3929 54.7728 27.4244L61.9964 37.5518C61.9964 37.5518 61.9711 37.4911 61.9564 37.4697Z" fill="#FFD575"/>
<path d="M52.1867 30.5299L59.41 40.6573L58.8713 39.3842L51.6479 29.2569L52.1867 30.5299Z" fill="#FFD575"/>
<path d="M62.5238 38.7701C65.0843 37.3146 67.5274 36.236 69.7029 35.5488C67.2976 32.174 64.8837 28.8015 62.4763 25.4188C60.3008 26.106 57.8577 27.1846 55.2972 28.6401C57.4684 31.6808 60.3527 35.7294 62.5238 38.7701Z" fill="#FFD575"/>
<path d="M69.2062 34.6668C66.9937 31.5707 64.7918 28.4801 62.5794 25.384C62.5455 25.393 62.5116 25.402 62.4777 25.4109C64.8821 28.7849 67.2949 32.1566 69.7014 35.5384C69.7353 35.5294 69.7692 35.5205 69.803 35.5115C69.7862 35.4822 69.7567 35.4395 69.7313 35.4125C69.706 35.3855 69.6849 35.3405 69.6596 35.3135C69.6132 35.2415 69.5584 35.1718 69.5141 35.1077C69.4128 34.966 69.3095 34.8164 69.2083 34.6747L69.2062 34.6668Z" fill="#FFD575"/>
<path d="M41.498 39.5624L48.7247 49.6925C51.7171 46.3517 54.7843 43.5982 59.4078 40.659L52.1811 30.5289C47.5576 33.468 44.4883 36.2137 41.498 39.5624Z" fill="#FFD575"/>
<path d="M48.1204 50.9547C47.9814 50.6376 48.2235 50.253 48.7178 49.6918L41.4939 39.5642C40.9932 40.1354 40.7575 40.5099 40.8964 40.8271C43.3009 44.2011 45.7159 47.5807 48.1204 50.9547Z" fill="#FFD575"/>
<path d="M48.1581 51.0286C48.1581 51.0286 48.1264 50.978 48.1201 50.9544C45.7158 47.5804 43.303 44.2087 40.8966 40.8269C40.9049 40.8584 40.9197 40.8798 40.9345 40.9012C43.1047 43.9411 45.9878 47.9887 48.1581 51.0286Z" fill="#FFD575"/>
<path d="M44.0017 39.7312L51.2282 49.8611C53.9173 46.7442 56.7869 44.2708 60.1639 42.0674L52.9375 31.9376C49.5605 34.141 46.6908 36.6144 44.0017 39.7312Z" fill="#FFD575"/>
<path d="M40.9364 40.9076L48.1617 51.0363C48.4191 51.3895 49.2617 51.2838 50.1115 50.7968C50.5438 50.5472 50.8469 50.3234 51.2247 49.869L43.9994 39.7404C43.6237 40.2026 43.3206 40.4264 42.8862 40.6682C42.0364 41.1552 41.1938 41.2608 40.9364 40.9076Z" fill="#FFD575"/>
<path d="M69.8148 35.5092C72.3609 34.7152 74.5417 34.4567 76.1306 34.7683C73.7254 31.3937 71.3116 28.0212 68.9043 24.6387C67.309 24.3371 65.1346 24.5856 62.5885 25.3796C64.9938 28.7543 67.4075 32.1267 69.8148 35.5092Z" fill="#FFD575"/>
<path d="M76.0426 34.6038C73.672 31.2883 71.3077 27.9627 68.9371 24.6473C68.9286 24.6495 68.918 24.6439 68.9075 24.6383C71.3118 28.0122 73.7267 31.3918 76.1311 34.7657C76.1396 34.7635 76.1501 34.7691 76.1607 34.7747C76.1185 34.7185 76.0848 34.66 76.0447 34.6116L76.0426 34.6038Z" fill="#FFD575"/>
<path d="M75.1028 38.0344L67.8754 27.9033C66.5418 26.0312 61.7854 26.7374 55.7674 30.165L62.9947 40.2961C69.0043 36.8708 73.7628 36.1725 75.1028 38.0344Z" fill="#FFD575"/>
<path d="M76.1596 34.7664C77.1727 34.9611 77.9419 35.3975 78.4166 36.0554L71.1922 25.9275C70.7155 25.2617 69.9484 24.8332 68.9352 24.6385C70.4708 26.7935 72.0169 28.954 73.5525 31.1089C74.392 32.2853 75.2315 33.4618 76.071 34.6382C76.1005 34.6809 76.1131 34.7282 76.1596 34.7664Z" fill="#FFD575"/>
<path d="M55.7669 30.1669L59.4641 38.9331C67.4778 33.0195 68.9994 30.4568 68.073 28.2743C67.1024 25.9601 62.1389 26.5358 55.7669 30.1669Z" fill="#FFD575"/>
<path d="M59.4645 38.938L66.6869 49.0649L62.9899 40.2945L55.7675 30.1676L59.4645 38.938Z" fill="#FFD575"/>
<path d="M75.0998 38.0311L67.8738 27.9018C67.9582 28.0143 68.0172 28.1335 68.0804 28.2685C68.9982 30.4529 67.4874 33.0207 59.4731 38.9255L66.6991 49.0548C74.7113 43.1422 76.2327 40.58 75.3064 38.3978C75.2538 38.2684 75.1842 38.1436 75.0998 38.0311Z" fill="#FFD575"/>
<path d="M56.7185 40.9321L63.9409 51.059L60.1577 42.0671L52.9354 31.9402L56.7185 40.9321Z" fill="#FFD575"/>
<path d="M54.6263 58.9027C56.5576 56.7205 59.6201 54.1537 63.9391 51.0594L56.7125 40.9295C52.3936 44.0238 49.3332 46.5985 47.3998 48.7728C49.8051 52.1475 52.2189 55.52 54.6263 58.9027Z" fill="#FFD575"/>
<path d="M78.4127 36.0553L71.1864 25.9257C71.3025 26.0889 71.3931 26.2587 71.4794 26.4466C72.8246 29.6558 69.5279 33.7939 60.1502 40.575L67.3765 50.7045C76.7541 43.9234 80.0529 39.7932 78.7078 36.584C78.6299 36.3939 78.5308 36.2263 78.4148 36.0632L78.4127 36.0553Z" fill="#FFD575"/>
<path d="M54.4062 59.1527C54.4741 59.0673 54.5526 58.9874 54.629 58.8997C52.2246 55.5257 49.8117 52.154 47.4052 48.7722C47.3288 48.8599 47.2588 48.9375 47.1825 49.0252C49.5868 52.3991 51.9997 55.7709 54.4062 59.1527Z" fill="#FFD575"/>
<path d="M51.3535 54.8802C49.9634 52.9311 48.5733 50.9819 47.1812 49.0249C46.3855 49.9527 45.7994 50.8164 45.4125 51.6104C47.8172 54.9845 50.2303 58.3564 52.637 61.7384C53.024 60.9445 53.61 60.0808 54.4057 59.153C53.3911 57.728 52.3765 56.303 51.3535 54.8802Z" fill="#FFD575"/>
<path d="M48.5019 53.3514L55.728 63.4808C54.7912 61.2592 56.5246 58.5733 64.6364 52.6932L57.4102 42.5637C49.2984 48.4438 47.5672 51.1377 48.5019 53.3514Z" fill="#FFD575"/>
<path d="M52.6342 61.7379C50.2299 58.3639 47.8172 54.9923 45.4108 51.6105C44.7624 52.9543 44.6815 54.1137 45.1234 55.1596C45.2055 55.3654 45.3087 55.5487 45.4353 55.7174L52.6587 65.8448C52.5406 65.6739 52.4374 65.4905 52.3469 65.287C51.9049 64.2411 51.9838 63.0738 52.6342 61.7379Z" fill="#FFD575"/>
<path d="M48.7195 53.7404L55.9431 63.8678C55.8566 63.7475 55.785 63.6148 55.7218 63.4798L48.4982 53.3524C48.5529 53.4896 48.6331 53.62 48.7195 53.7404Z" fill="#FFD575"/>
<path d="M75.5213 39.3811L82.7456 49.509C82.9069 49.2976 83.2463 48.9377 83.8269 48.5981L76.6025 38.4702C76.022 38.8098 75.691 39.1674 75.5213 39.3811Z" fill="#FFD575"/>
<path d="M83.8264 48.5902C84.6444 48.1202 85.5186 48.0314 85.7633 48.3711L78.5385 38.2429C78.2938 37.9032 77.4281 37.9897 76.6165 38.4497C76.6165 38.4497 76.608 38.4519 76.5996 38.4542C78.7702 41.4943 81.6537 45.5422 83.8243 48.5824L83.8264 48.5902Z" fill="#FFD575"/>
<path d="M48.7206 53.7361L55.948 63.8673C57.3513 65.8305 62.1798 65.0883 68.3547 61.5685L61.1273 51.4373C54.9439 54.9594 50.1239 55.6993 48.7206 53.7361Z" fill="#FFD575"/>
<path d="M61.1328 51.4392L68.3552 61.5661L64.6373 52.6833L57.4171 42.5642L61.1328 51.4392Z" fill="#FFD575"/>
<path d="M64.0068 49.7231L71.2292 59.85L67.3681 50.7018L60.1457 40.5749L64.0068 49.7231Z" fill="#FFD575"/>
<path d="M64.0094 49.72L71.2361 59.8502C76.2201 56.6299 79.7883 53.3049 82.7479 49.5006L75.5211 39.3705C72.5615 43.1747 68.9913 46.4919 64.0094 49.72Z" fill="#FFD575"/>
<path d="M45.4263 55.7137L52.6541 65.8456C54.5956 68.5685 61.0913 67.4426 68.8373 63.0755L61.6095 52.9436C53.8614 57.3029 47.3657 58.4287 45.4263 55.7137Z" fill="#FFD575"/>
<path d="M85.7615 48.3793L78.5346 38.2489C78.5346 38.2489 78.5642 38.2917 78.5705 38.3153C78.7032 38.6089 78.5034 38.9486 78.1276 39.4109C74.5421 43.8283 70.321 47.5628 64.7391 51.0937L71.966 61.2241C77.5478 57.6932 81.769 53.9587 85.3545 49.5413C85.7303 49.079 85.93 48.7393 85.7973 48.4457C85.791 48.422 85.7763 48.4007 85.7615 48.3793Z" fill="#FFD575"/>
<path d="M62.6569 55.4574L69.8885 65.5823L68.8384 63.0711L61.6153 52.9439L62.6569 55.4574Z" fill="#FFD575"/>
<path d="M62.703 55.5288L69.9266 65.6562C69.9266 65.6562 69.897 65.6135 69.8907 65.5899L62.6672 55.4624C62.6672 55.4624 62.6882 55.5074 62.703 55.5288Z" fill="#FFD575"/>
<path d="M65.7943 53.638L73.0259 63.763L71.9654 61.2124L64.7444 51.0931L65.7943 53.638Z" fill="#FFD575"/>
<path d="M62.7031 55.528L69.9278 65.6562C70.1725 65.9958 70.9832 65.907 71.7863 65.4494L64.5616 55.3212C63.7585 55.7789 62.9478 55.8677 62.7031 55.528Z" fill="#FFD575"/>
<path d="M64.5613 55.3131L71.7856 65.441C72.6332 64.9462 73.1978 64.1725 73.0232 63.7553L65.7988 53.6274C65.9735 54.0446 65.4089 54.8183 64.5613 55.3131Z" fill="#FFD575"/>
<path d="M13.0779 72.3174L20.3062 82.4505C26.5596 91.2063 44.0643 92.4711 70.6966 78.0373C71.64 77.5254 72.5727 77.0079 73.478 76.4892C105.836 58.005 115.908 34.9544 108.004 23.8873L100.776 13.7541C108.68 24.8212 98.6078 47.8719 66.2581 66.3538C65.3529 66.8725 64.4201 67.3901 63.4767 67.902C36.8444 82.3357 19.3312 81.0732 13.0864 72.3151L13.0779 72.3174Z" fill="#FFD575"/>
<g opacity="0.1">
<path d="M13.0871 72.3137L20.3168 82.4519C26.5712 91.212 44.0742 92.4808 70.7003 78.0476C71.6435 77.5357 72.5761 77.0181 73.4811 76.4995C105.832 58.0155 115.898 34.9589 107.992 23.8863L100.763 13.7482C108.668 24.8208 98.6021 47.8774 66.26 66.3591C65.3549 66.8777 64.4223 67.3953 63.4792 67.9072C36.853 82.3404 19.3416 81.0738 13.0956 72.3115L13.0871 72.3137Z" fill="black"/>
</g>
<path d="M47.6013 19.7357C-10.341 52.8388 3.18436 100.593 63.4737 67.9213C64.417 67.4094 65.3498 66.8919 66.255 66.3732C124.202 33.2521 110.676 -14.5024 50.389 18.1775C49.4457 18.6894 48.5129 19.2069 47.5992 19.7278L47.6013 19.7357ZM62.3549 63.6894C12.3427 90.799 1.11921 51.1709 49.178 23.7112C49.9348 23.2825 50.7001 22.8516 51.4929 22.4218C51.8342 22.2384 52.165 22.0494 52.4956 21.8942C52.061 22.1361 51.6264 22.378 51.2024 22.6255C5.08983 48.9781 15.847 86.9927 63.8623 60.9698C64.6063 60.5614 65.3504 60.1531 66.067 59.7435C84.3755 49.2826 93.7408 36.9622 95.3397 27.5725C94.3768 37.5102 84.6426 50.9997 64.7038 62.391C63.9406 62.8298 63.1668 63.263 62.3655 63.695M76.6067 38.4835C77.4717 37.984 78.4077 37.921 78.5803 38.3306C78.7131 38.6243 78.5133 38.9641 78.1374 39.4265C74.5513 43.845 70.3294 47.5804 64.7466 51.112L65.8057 53.6562C65.9805 54.0736 65.4155 54.8477 64.5675 55.3428C63.7174 55.8299 62.847 55.9007 62.6723 55.4833L61.63 52.9684C53.3918 57.6014 46.5762 58.5844 45.1337 55.1806C43.8029 52.0254 47.2214 47.7611 56.7287 40.9441L52.9425 31.9468C49.5647 34.1508 46.6944 36.625 44.0047 39.7427C43.6289 40.2052 43.3256 40.4291 42.9228 40.6541C41.9858 41.1896 41.0836 41.2773 40.9026 40.8362C40.7636 40.5189 41.0058 40.1341 41.5004 39.5727C44.4934 36.231 47.5612 33.4767 52.1857 30.5368L51.6466 29.2631C51.4718 28.8456 52.0537 28.067 52.9018 27.572C53.7668 27.0724 54.6223 27.014 54.7801 27.436L55.296 28.6568C63.3202 24.1059 70.1185 23.2287 71.4831 26.4761C72.8286 29.6864 69.531 33.8258 60.1509 40.6091L64.015 49.7628C69 46.5417 72.5689 43.2158 75.529 39.4106C75.6904 39.1991 76.03 38.839 76.6109 38.4993" fill="#FFD575"/>
<path d="M48.5017 53.355C49.5419 55.7941 54.569 55.1846 61.1296 51.4444L57.4115 42.5656C49.2984 48.4467 47.5669 51.141 48.5017 53.355Z" fill="#FFD575"/>
<path d="M56.7179 40.9311C47.2117 47.747 43.7935 52.0106 45.1241 55.1653C46.5664 58.5685 53.3897 57.5834 61.6185 52.9533L62.6607 55.4678C62.8354 55.8852 63.7056 55.8143 64.5557 55.3273C65.4036 54.8323 65.9685 54.0583 65.7938 53.6409L64.7348 51.0972C70.317 47.5661 74.5384 43.8313 78.1242 39.4136C78.5 38.9512 78.6998 38.6115 78.5671 38.3179C78.3944 37.9083 77.4585 37.9713 76.617 38.4561C76.0044 38.8127 75.6733 39.1705 75.5119 39.3819C72.552 43.1866 68.9815 46.504 63.9991 49.7325L60.1355 40.5803C69.5146 33.7982 72.8139 29.6673 71.4665 26.4497C70.1021 23.2028 63.3046 24.0799 55.2812 28.6301L54.7654 27.4095C54.6076 26.9876 53.7543 27.0539 52.9191 27.5286C52.0393 28.0404 51.4575 28.8189 51.6322 29.2363L52.1713 30.5099C47.5473 33.4493 44.4777 36.1952 41.4871 39.5442C40.9862 40.1157 40.7504 40.4903 40.8893 40.8076C41.081 41.2542 41.9724 41.1609 42.8776 40.6423C43.31 40.3926 43.6133 40.1687 43.9911 39.7143C46.6806 36.597 49.5506 34.1233 52.928 31.9195L56.7137 40.9154L56.7179 40.9311ZM48.507 53.3564C47.5701 51.1345 49.3037 48.448 57.4169 42.5669L61.1351 51.4458C54.5744 55.1861 49.5472 55.7955 48.507 53.3564ZM59.4618 38.9378L55.7646 30.1714C62.1366 26.5403 67.1023 25.9724 68.0708 28.2788C68.9888 30.4636 67.4777 33.0319 59.4618 38.9378Z" fill="#FFD575"/>
<path d="M49.175 23.7025C1.1179 51.1705 12.331 90.7938 62.3521 63.6815C63.145 63.2517 63.9273 62.8163 64.6905 62.3775C84.6379 50.9837 94.3638 37.4962 95.3267 27.5583C93.7278 36.9482 84.3624 49.2688 66.0537 59.7299C65.3287 60.1417 64.5951 60.5558 63.849 60.9563C15.8353 86.9874 5.07588 48.9642 51.1889 22.6111C51.615 22.3715 52.0475 22.1217 52.4821 21.8798C52.1515 22.0351 51.8208 22.2241 51.4795 22.4075C50.6951 22.835 49.9192 23.2603 49.1644 23.6968L49.175 23.7025Z" fill="#FFD575"/>
<g opacity="0.1">
<path d="M49.1717 23.6936C1.12585 51.1613 12.3459 90.8007 62.3556 63.6893C63.1483 63.2595 63.9303 62.8241 64.6934 62.3853C84.6362 50.9916 94.3582 37.5015 95.3189 27.5603C93.7221 36.9532 84.3603 49.2761 66.0559 59.7371C65.331 60.1489 64.5977 60.5629 63.8517 60.9634C15.849 86.9937 5.08292 48.9551 51.1852 22.6023C51.6112 22.3627 52.0436 22.1129 52.4781 21.871C52.1475 22.0263 51.8168 22.2153 51.4756 22.3987C50.6914 22.8262 49.9157 23.2515 49.1611 23.688L49.1717 23.6936Z" fill="black"/>
</g>
</svg>
