<svg width="85" height="67" viewBox="0 0 85 67" fill="none" xmlns="http://www.w3.org/2000/svg">
<path d="M40.9229 22.1821C41.1626 22.0533 41.3948 21.9206 41.627 21.8116L36.5516 14.697C36.3195 14.806 36.0872 14.9387 35.8476 15.0675C35.2968 15.3676 34.7521 15.6662 34.2221 15.9727C27.8911 19.5899 23.0283 23.5043 19.5318 27.3579C21.2211 29.7281 22.9163 32.0967 24.6071 34.4725C28.1036 30.6189 32.9665 26.7045 39.2915 23.0889C39.8229 22.7879 40.3603 22.4854 40.917 22.1836L40.9229 22.1821Z" fill="#FFD575"/>
<path d="M19.1904 53.7174C16.133 49.4383 17.6939 42.0802 24.6065 34.4675C22.9119 32.0997 21.2233 29.7303 19.5332 27.3554C12.6265 34.9666 11.0656 42.3246 14.123 46.6037C15.6472 48.7385 17.6721 51.581 19.1963 53.7158L19.1904 53.7174Z" fill="#FFD575"/>
<path d="M16.3468 44.5996L21.4214 51.713C17.0076 45.5254 22.6411 32.6502 40.7131 22.3224C41.0122 22.1542 41.3159 21.9788 41.621 21.809L36.5464 14.6956C36.2413 14.8654 35.9361 15.0353 35.6385 15.209C17.5665 25.5368 11.933 38.412 16.3468 44.5996Z" fill="#FFD575"/>
<path d="M41.9117 25.783C41.9117 25.783 41.9236 25.7799 41.9296 25.7783C40.2412 23.4091 38.5469 21.0415 36.8571 18.6668C36.8512 18.6684 36.8452 18.6699 36.8393 18.6715C38.3633 20.8062 40.3878 23.6484 41.9117 25.783Z" fill="#FFD575"/>
<path d="M35.959 19.864L41.0319 26.9758C40.9093 26.6828 41.3177 26.1364 41.9128 25.7889L36.8399 18.6771C36.2447 19.0245 35.8363 19.571 35.959 19.864Z" fill="#FFD575"/>
<path d="M38.5208 19.4322L43.5931 26.5437L43.231 25.6868L38.1588 18.5754L38.5208 19.4322Z" fill="#FFD575"/>
<path d="M41.9292 25.7732C42.4886 25.4589 43.0341 25.4028 43.1971 25.6319L38.1239 18.5199C37.9609 18.2909 37.4154 18.3469 36.856 18.6612C38.5446 21.0305 40.2391 23.3983 41.9292 25.7732Z" fill="#FFD575"/>
<path d="M43.1973 25.631L38.1249 18.5195C38.1249 18.5195 38.1471 18.5551 38.153 18.5772L43.2254 25.6887C43.2254 25.6887 43.2076 25.6461 43.1973 25.631Z" fill="#FFD575"/>
<path d="M36.337 20.758L41.4092 27.8695L41.0309 26.9755L35.9587 19.8641L36.337 20.758Z" fill="#FFD575"/>
<path d="M43.5958 26.5443C45.3938 25.5223 47.1093 24.7649 48.637 24.2823C46.948 21.9125 45.253 19.5443 43.5624 17.169C42.0348 17.6516 40.3192 18.409 38.5213 19.431C40.0459 21.5662 42.0712 24.4091 43.5958 26.5443Z" fill="#FFD575"/>
<path d="M48.2882 23.663C46.7346 21.4889 45.1884 19.3187 43.6348 17.1446C43.611 17.1509 43.5872 17.1572 43.5635 17.1635C45.2518 19.5327 46.9461 21.9003 48.6359 24.2751C48.6597 24.2687 48.6835 24.2624 48.7073 24.2561C48.6955 24.2356 48.6747 24.2056 48.6569 24.1866C48.6392 24.1677 48.6244 24.1361 48.6066 24.1171C48.574 24.0666 48.5355 24.0176 48.5044 23.9726C48.4333 23.8731 48.3607 23.7681 48.2897 23.6685L48.2882 23.663Z" fill="#FFD575"/>
<path d="M28.8312 27.1007L33.9058 34.2141C36.0071 31.8682 38.1609 29.9346 41.4076 27.8708L36.333 20.7574C33.0863 22.8212 30.931 24.7493 28.8312 27.1007Z" fill="#FFD575"/>
<path d="M33.4817 35.1003C33.3841 34.8776 33.5541 34.6076 33.9012 34.2135L28.8285 27.1019C28.477 27.503 28.3114 27.766 28.409 27.9887C30.0974 30.3579 31.7932 32.7311 33.4817 35.1003Z" fill="#FFD575"/>
<path d="M33.5081 35.1524C33.5081 35.1524 33.4859 35.1169 33.4815 35.1003C31.7931 32.7311 30.0988 30.3635 28.409 27.9888C28.4149 28.0109 28.4253 28.0259 28.4357 28.0409C29.9596 30.1755 31.9841 33.0178 33.5081 35.1524Z" fill="#FFD575"/>
<path d="M30.5896 27.2191L35.664 34.3323C37.5523 32.1437 39.5673 30.4068 41.9387 28.8596L36.8643 21.7464C34.4929 23.2936 32.4778 25.0305 30.5896 27.2191Z" fill="#FFD575"/>
<path d="M28.4369 28.0452L33.5105 35.1575C33.6913 35.4055 34.2829 35.3313 34.8796 34.9894C35.1832 34.8141 35.3961 34.6569 35.6614 34.3379L30.5877 27.2255C30.3239 27.5501 30.1111 27.7073 29.806 27.877C29.2093 28.219 28.6177 28.2932 28.4369 28.0452Z" fill="#FFD575"/>
<path d="M48.7153 24.2545C50.5032 23.6969 52.0345 23.5153 53.1503 23.7342C51.4613 21.3645 49.7664 18.9964 48.076 16.6211C46.9557 16.4094 45.4289 16.5839 43.641 17.1414C45.33 19.5111 47.0249 21.8792 48.7153 24.2545Z" fill="#FFD575"/>
<path d="M53.0885 23.6188C51.4239 21.2906 49.7637 18.9554 48.099 16.6273C48.0931 16.6289 48.0857 16.6249 48.0783 16.621C49.7666 18.9902 51.4623 21.3633 53.1507 23.7325C53.1566 23.7309 53.1641 23.7349 53.1715 23.7388C53.1418 23.6993 53.1182 23.6583 53.09 23.6243L53.0885 23.6188Z" fill="#FFD575"/>
<path d="M52.4288 26.0277L47.3537 18.9136C46.4172 17.599 43.0773 18.0949 38.8514 20.5017L43.9265 27.6158C48.1464 25.2106 51.4878 24.7202 52.4288 26.0277Z" fill="#FFD575"/>
<path d="M53.1706 23.7329C53.882 23.8696 54.4222 24.176 54.7555 24.6381L49.6825 17.5262C49.3478 17.0587 48.8091 16.7578 48.0977 16.6211C49.1759 18.1343 50.2616 19.6514 51.3399 21.1646C51.9294 21.9907 52.5189 22.8168 53.1084 23.6429C53.1291 23.6729 53.138 23.7061 53.1706 23.7329Z" fill="#FFD575"/>
<path d="M38.8511 20.503L41.4473 26.6587C47.0745 22.5061 48.143 20.7066 47.4924 19.174C46.8109 17.549 43.3255 17.9533 38.8511 20.503Z" fill="#FFD575"/>
<path d="M41.4474 26.6622L46.5189 33.7733L43.9229 27.6147L38.8514 20.5036L41.4474 26.6622Z" fill="#FFD575"/>
<path d="M52.4266 26.0253L47.3525 18.9125C47.4117 18.9915 47.4532 19.0752 47.4975 19.17C48.142 20.7039 47.0811 22.5071 41.4534 26.6534L46.5276 33.7662C52.1538 29.6143 53.2221 27.8151 52.5716 26.2828C52.5347 26.192 52.4859 26.1043 52.4266 26.0253Z" fill="#FFD575"/>
<path d="M39.5193 28.0624L44.5908 35.1736L41.9343 28.8594L36.8627 21.7483L39.5193 28.0624Z" fill="#FFD575"/>
<path d="M38.05 40.6814C39.4061 39.1491 41.5566 37.3467 44.5894 35.1739L39.5149 28.0606C36.4821 30.2334 34.3331 32.0414 32.9755 33.5681C34.6645 35.9379 36.3595 38.3061 38.05 40.6814Z" fill="#FFD575"/>
<path d="M54.7528 24.6379L49.6785 17.5249C49.76 17.6395 49.8236 17.7587 49.8843 17.8907C50.8288 20.1442 48.5139 23.05 41.9289 27.8117L47.0032 34.9247C53.5882 30.163 55.9046 27.2627 54.96 25.0092C54.9053 24.8757 54.8358 24.758 54.7543 24.6435L54.7528 24.6379Z" fill="#FFD575"/>
<path d="M37.8956 40.8572C37.9433 40.7971 37.9984 40.7411 38.052 40.6795C36.3636 38.3103 34.6693 35.9426 32.9794 33.5679C32.9258 33.6295 32.8767 33.684 32.823 33.7456C34.5114 36.1148 36.2057 38.4824 37.8956 40.8572Z" fill="#FFD575"/>
<path d="M35.7517 37.8568C34.7756 36.4881 33.7995 35.1194 32.8219 33.7452C32.2632 34.3967 31.8517 35.0032 31.5799 35.5607C33.2685 37.9301 34.963 40.2978 36.653 42.6727C36.9248 42.1151 37.3363 41.5086 37.895 40.8572C37.1825 39.8565 36.4701 38.8559 35.7517 37.8568Z" fill="#FFD575"/>
<path d="M33.7494 36.7834L38.8236 43.8963C38.1658 42.3363 39.3829 40.4502 45.0791 36.3212L40.0049 29.2083C34.3087 33.3373 33.093 35.2289 33.7494 36.7834Z" fill="#FFD575"/>
<path d="M36.6512 42.6725C34.9629 40.3033 33.2687 37.9357 31.5789 35.561C31.1236 36.5047 31.0668 37.3188 31.3771 38.0532C31.4347 38.1978 31.5072 38.3265 31.5961 38.4449L36.6684 45.5564C36.5855 45.4364 36.513 45.3076 36.4494 45.1647C36.1391 44.4303 36.1945 43.6106 36.6512 42.6725Z" fill="#FFD575"/>
<path d="M33.9023 37.0567L38.9747 44.1682C38.914 44.0837 38.8637 43.9905 38.8194 43.8957L33.747 36.7842C33.7854 36.8806 33.8416 36.9722 33.9023 37.0567Z" fill="#FFD575"/>
<path d="M52.7226 26.9734L57.7955 34.0853C57.9088 33.9368 58.1471 33.6841 58.5548 33.4456L53.4819 26.3338C53.0742 26.5723 52.8418 26.8234 52.7226 26.9734Z" fill="#FFD575"/>
<path d="M58.5545 33.44C59.1288 33.1099 59.7427 33.0475 59.9145 33.286L54.8413 26.174C54.6695 25.9355 54.0616 25.9963 53.4917 26.3192C53.4917 26.3192 53.4857 26.3208 53.4798 26.3224C55.004 28.4572 57.0288 31.2996 58.553 33.4344L58.5545 33.44Z" fill="#FFD575"/>
<path d="M33.9029 37.0535L38.978 44.1677C39.9634 45.5463 43.354 45.0251 47.69 42.5535L42.615 35.4393C38.273 37.9125 34.8883 38.4321 33.9029 37.0535Z" fill="#FFD575"/>
<path d="M42.619 35.4406L47.6906 42.5517L45.0799 36.3141L40.0098 29.2085L42.619 35.4406Z" fill="#FFD575"/>
<path d="M44.637 34.2354L49.7086 41.3465L46.9973 34.9226L41.9258 27.8115L44.637 34.2354Z" fill="#FFD575"/>
<path d="M44.6389 34.2334L49.7135 41.3468C53.2133 39.0855 55.7189 36.7507 57.7971 34.0793L52.7225 26.9659C50.6443 29.6373 48.1372 31.9666 44.6389 34.2334Z" fill="#FFD575"/>
<path d="M31.5897 38.4422L36.6651 45.5569C38.0284 47.4688 42.5897 46.6783 48.0289 43.6117L42.9536 36.497C37.5129 39.5581 32.9515 40.3487 31.5897 38.4422Z" fill="#FFD575"/>
<path d="M59.9133 33.292L54.8386 26.1785C54.8386 26.1785 54.8593 26.2085 54.8638 26.2251C54.9569 26.4312 54.8166 26.6698 54.5528 26.9944C52.035 30.0963 49.0709 32.7187 45.1514 35.1981L50.2261 42.3117C54.1456 39.8323 57.1097 37.2099 59.6275 34.108C59.8914 33.7834 60.0316 33.5448 59.9385 33.3386C59.9341 33.322 59.9237 33.307 59.9133 33.292Z" fill="#FFD575"/>
<path d="M43.6892 38.2622L48.7673 45.3719L48.0299 43.6086L42.9578 36.4972L43.6892 38.2622Z" fill="#FFD575"/>
<path d="M43.7216 38.3125L48.794 45.424C48.794 45.424 48.7733 45.394 48.7689 45.3774L43.6965 38.2659C43.6965 38.2659 43.7112 38.2975 43.7216 38.3125Z" fill="#FFD575"/>
<path d="M45.8921 36.9845L50.9702 44.0942L50.2255 42.3032L45.1549 35.1974L45.8921 36.9845Z" fill="#FFD575"/>
<path d="M43.7215 38.3116L48.7947 45.4236C48.9665 45.6621 49.5358 45.5998 50.0997 45.2784L45.0265 38.1664C44.4626 38.4877 43.8933 38.5501 43.7215 38.3116Z" fill="#FFD575"/>
<path d="M45.0263 38.161L50.0992 45.2728C50.6944 44.9254 51.0909 44.3821 50.9682 44.0891L45.8953 36.9773C46.0179 37.2703 45.6215 37.8136 45.0263 38.161Z" fill="#FFD575"/>
<path d="M8.87453 50.1014L13.9503 57.2169C18.3414 63.3652 30.6333 64.2533 49.3345 54.1179C49.9969 53.7585 50.6519 53.3951 51.2876 53.0308C74.0096 40.0512 81.082 23.865 75.532 16.0936L70.4562 8.97813C76.0063 16.7495 68.9338 32.9357 46.2178 45.9138C45.5821 46.278 44.9271 46.6414 44.2647 47.0009C25.5635 57.1363 13.2656 56.2497 8.88048 50.0998L8.87453 50.1014Z" fill="#FFD575"/>
<g opacity="0.1">
<path d="M8.88121 50.0987L13.9579 57.2177C18.3497 63.3691 30.6404 64.26 49.3373 54.125C49.9996 53.7655 50.6545 53.4021 51.29 53.0379C74.0066 40.0584 81.0749 23.868 75.5239 16.0928L70.4473 8.97382C75.9982 16.749 68.93 32.9394 46.2193 45.9173C45.5838 46.2815 44.9289 46.6449 44.2666 47.0044C25.5697 57.1394 13.2731 56.25 8.88716 50.0971L8.88121 50.0987Z" fill="black"/>
</g>
<path d="M33.117 13.1784C-7.57021 36.4234 1.92733 69.9567 44.2626 47.0144C44.925 46.655 45.58 46.2915 46.2157 45.9273C86.9059 22.6696 77.4083 -10.8637 35.0745 12.0842C34.4121 12.4437 33.7571 12.8071 33.1155 13.1728L33.117 13.1784ZM43.477 44.0427C8.35836 63.0792 0.477176 35.2522 34.2241 15.9699C34.7556 15.6689 35.293 15.3664 35.8497 15.0646C36.0894 14.9358 36.3216 14.8031 36.5538 14.6941C36.2486 14.8639 35.9434 15.0338 35.6457 15.2076C3.26535 33.7124 10.8191 60.4064 44.5355 42.1331C45.058 41.8463 45.5805 41.5595 46.0836 41.2719C58.9399 33.9262 65.5163 25.2749 66.639 18.6814C65.9629 25.6597 59.1274 35.132 45.1264 43.131C44.5905 43.4391 44.0471 43.7433 43.4844 44.0467M53.4847 26.3431C54.0921 25.9923 54.7493 25.9481 54.8705 26.2357C54.9637 26.442 54.8234 26.6806 54.5595 27.0053C52.0413 30.1079 49.0767 32.7309 45.1565 35.2109L45.9002 36.9974C46.0229 37.2905 45.6262 37.8341 45.0307 38.1817C44.4337 38.5238 43.8226 38.5735 43.6999 38.2804L42.968 36.5144C37.1831 39.7678 32.3972 40.458 31.3843 38.0678C30.4497 35.8523 32.8503 32.8579 39.5263 28.071L36.8676 21.753C34.4957 23.3007 32.4802 25.038 30.5915 27.2273C30.3276 27.5521 30.1146 27.7093 29.8318 27.8673C29.1738 28.2433 28.5403 28.3049 28.4131 27.9952C28.3155 27.7724 28.4856 27.5022 28.8329 27.1079C30.9346 24.7614 33.0889 22.8273 36.3362 20.763L35.9576 19.8685C35.8349 19.5754 36.2435 19.0286 36.839 18.681C37.4464 18.3302 38.0471 18.2892 38.1579 18.5855L38.5202 19.4428C44.1548 16.2471 48.9287 15.6312 49.8868 17.9115C50.8317 20.1658 48.5161 23.0725 41.9294 27.8357L44.6427 34.2635C48.1432 32.0016 50.6493 29.6662 52.7279 26.9941C52.8412 26.8456 53.0797 26.5928 53.4876 26.3542" fill="#FFD575"/>
<path d="M33.7493 36.7858C34.4797 38.4985 38.0097 38.0705 42.6166 35.4441L40.0057 29.2095C34.3087 33.3392 33.0928 35.2311 33.7493 36.7858Z" fill="#FFD575"/>
<path d="M39.5188 28.0616C32.8435 32.8478 30.4432 35.8417 31.3777 38.0569C32.3904 40.4466 37.1817 39.7549 42.96 36.5036L43.6918 38.2693C43.8145 38.5624 44.4256 38.5126 45.0225 38.1706C45.6179 37.823 46.0146 37.2796 45.8919 36.9865L45.1483 35.2003C49.0681 32.7207 52.0324 30.0981 54.5504 26.996C54.8142 26.6713 54.9545 26.4328 54.8613 26.2266C54.7401 25.939 54.0829 25.9832 53.492 26.3237C53.0618 26.5741 52.8293 26.8253 52.716 26.9738C50.6376 29.6454 48.1303 31.9749 44.6317 34.242L41.9187 27.8153C48.5047 23.0528 50.8215 20.1521 49.8753 17.8927C48.9173 15.6127 44.144 16.2287 38.51 19.4238L38.1477 18.5667C38.0369 18.2704 37.4377 18.317 36.8513 18.6503C36.2335 19.0098 35.8249 19.5564 35.9477 19.8495L36.3262 20.7438C33.0792 22.8078 30.9237 24.7361 28.8237 27.0877C28.472 27.489 28.3064 27.7521 28.404 27.9749C28.5385 28.2885 29.1645 28.223 29.8001 27.8588C30.1038 27.6835 30.3167 27.5263 30.5821 27.2071C32.4706 25.0182 34.4859 23.2811 36.8576 21.7337L39.5158 28.0506L39.5188 28.0616ZM33.7531 36.7867C33.0952 35.2264 34.3126 33.34 40.0097 29.2103L42.6206 35.445C38.0136 38.0715 34.4835 38.4994 33.7531 36.7867ZM41.4456 26.6619L38.8494 20.5061C43.3239 17.9563 46.8108 17.5576 47.4909 19.1771C48.1355 20.7113 47.0744 22.5148 41.4456 26.6619Z" fill="#FFD575"/>
<path d="M34.2221 15.9637C0.476257 35.2519 8.35014 63.0754 43.4751 44.0371C44.0318 43.7353 44.5811 43.4295 45.1171 43.1214C59.1242 35.1207 65.9538 25.6498 66.6299 18.6713C65.5071 25.2649 58.9307 33.9165 46.0743 41.2623C45.5652 41.5515 45.0501 41.8422 44.5261 42.1235C10.8109 60.4026 3.25556 33.7026 35.6362 15.1974C35.9355 15.0291 36.2392 14.8537 36.5443 14.6839C36.3121 14.7929 36.0799 14.9256 35.8403 15.0544C35.2895 15.3546 34.7446 15.6533 34.2146 15.9598L34.2221 15.9637Z" fill="#FFD575"/>
<g opacity="0.1">
<path d="M34.2197 15.9575C0.481824 35.2453 8.36055 63.0802 43.4775 44.0425C44.0341 43.7407 44.5833 43.4349 45.1191 43.1268C59.123 35.1262 65.9497 25.6534 66.6243 18.6727C65.5031 25.2683 58.9292 33.9215 46.0759 41.2673C45.5668 41.5564 45.0519 41.8471 44.528 42.1284C10.8205 60.4069 3.26048 33.6961 35.6336 15.1911C35.9327 15.0229 36.2364 14.8475 36.5415 14.6776C36.3093 14.7866 36.0771 14.9194 35.8375 15.0481C35.2869 15.3483 34.7422 15.647 34.2123 15.9535L34.2197 15.9575Z" fill="black"/>
</g>
</svg>
