<svg width="99" height="99" viewBox="0 0 99 99" fill="none" xmlns="http://www.w3.org/2000/svg">
<path d="M66.2347 53.2608C66.4175 53.0243 66.6068 52.7967 66.7597 52.5643L77.9944 59.6145C77.8415 59.8469 77.6522 60.0745 77.4694 60.311C77.0429 60.8537 76.6184 61.3902 76.1808 61.9088C71.0219 68.1128 65.3158 72.6426 59.6181 75.6842C55.8754 73.3371 52.1347 70.9838 48.3834 68.634C54.0811 65.5924 59.7872 61.0626 64.9441 54.8648C65.373 54.3435 65.8041 53.8159 66.2327 53.267L66.2347 53.2608Z" fill="#FFD575"/>
<path d="M19.1752 70.5826C25.9345 74.8294 37.1339 74.6406 48.3922 68.6244C52.1325 70.9774 55.8749 73.3243 59.6259 75.6739C48.3696 81.6839 37.1702 81.8727 30.411 77.6259C27.0389 75.5084 22.5494 72.6939 19.1773 70.5764L19.1752 70.5826Z" fill="#FFD575"/>
<path d="M33.3469 75.6036L22.1127 68.5537C31.8848 74.6857 51.2989 71.1672 66.0307 53.4564C66.2704 53.1626 66.5207 52.8654 66.7624 52.5655L77.9966 59.6154C77.7549 59.9153 77.5132 60.2153 77.2649 60.5063C62.5331 78.2171 43.119 81.7355 33.3469 75.6036Z" fill="#FFD575"/>
<path d="M60.64 51.4284C60.64 51.4284 60.6441 51.416 60.6462 51.4098C64.3885 53.7566 68.1287 56.1096 71.8796 58.4591C71.8776 58.4653 71.8755 58.4715 71.8735 58.4777C68.5015 56.3602 64.012 53.5459 60.64 51.4284Z" fill="#FFD575"/>
<path d="M70.0979 59.1974L58.8643 52.148C59.3218 52.3436 60.1354 52.0082 60.6319 51.4263L71.8654 58.4757C71.3689 59.0576 70.5553 59.393 70.0979 59.1974Z" fill="#FFD575"/>
<path d="M70.6003 56.4733L59.3669 49.424L60.7049 49.9996L71.9383 57.0489L70.6003 56.4733Z" fill="#FFD575"/>
<path d="M60.6545 51.4121C61.1023 50.8625 61.1545 50.2748 60.7927 50.0482L72.0263 57.0977C72.3881 57.3243 72.3359 57.912 71.8881 58.4615C68.1458 56.1147 64.4055 53.7617 60.6545 51.4121Z" fill="#FFD575"/>
<path d="M60.7932 50.0487L72.0266 57.098C72.0266 57.098 71.9707 57.0662 71.9364 57.0552L60.703 50.0058C60.703 50.0058 60.7695 50.0342 60.7932 50.0487Z" fill="#FFD575"/>
<path d="M68.7016 58.596L57.4682 51.5467L58.8642 52.1479L70.0976 59.1972L68.7016 58.596Z" fill="#FFD575"/>
<path d="M59.3658 49.423C60.8231 47.6599 61.8792 45.9323 62.5251 44.3542C66.2677 46.7012 70.0082 49.0543 73.7593 51.4041C73.1134 52.9822 72.0572 54.7097 70.6 56.4729C67.2277 54.3552 62.738 51.5407 59.3658 49.423Z" fill="#FFD575"/>
<path d="M63.4959 44.8659C66.9303 47.0242 70.3582 49.1734 73.7927 51.3317C73.7845 51.3565 73.7763 51.3813 73.768 51.4062C70.0257 49.0594 66.2855 46.7064 62.5346 44.3568C62.5428 44.332 62.551 44.3072 62.5593 44.2823C62.5915 44.2996 62.6389 44.3286 62.6691 44.3521C62.6993 44.3756 62.7487 44.3984 62.7789 44.4218C62.8585 44.4681 62.9361 44.5206 63.0071 44.5641C63.1643 44.6629 63.3301 44.7644 63.4873 44.8632L63.4959 44.8659Z" fill="#FFD575"/>
<path d="M59.4311 65.5225L48.1969 58.4726C51.6675 56.6508 54.5019 54.6857 57.4685 51.5472L68.7027 58.5971C65.7361 61.7356 62.9103 63.7034 59.4311 65.5225Z" fill="#FFD575"/>
<path d="M46.8631 58.7513C47.2111 58.9047 47.6152 58.7739 48.1986 58.4742L59.4321 65.5236C58.838 65.8267 58.4446 65.9541 58.0966 65.8007C54.3543 63.4539 50.6055 61.0981 46.8631 58.7513Z" fill="#FFD575"/>
<path d="M46.7818 58.7111C46.7818 58.7111 46.8378 58.7429 46.8635 58.7512C50.6058 61.098 54.3461 63.451 58.097 65.8005C58.0626 65.7894 58.039 65.7749 58.0153 65.7604C54.6433 63.6429 50.1538 60.8286 46.7818 58.7111Z" fill="#FFD575"/>
<path d="M59.1394 63.5663L47.9053 56.5164C51.1478 54.8959 53.6889 53.0425 55.9168 50.7583L67.1509 57.8081C64.923 60.0923 62.3819 61.9458 59.1394 63.5663Z" fill="#FFD575"/>
<path d="M58.0069 65.7573L46.7731 58.7077C46.3812 58.4577 46.4584 57.823 46.9463 57.2383C47.1966 56.9412 47.4246 56.7399 47.8979 56.5146L59.1317 63.5642C58.6498 63.7867 58.4217 63.988 58.18 64.2879C57.6921 64.8726 57.6149 65.5073 58.0069 65.7573Z" fill="#FFD575"/>
<path d="M62.5606 44.2756C63.3055 42.4271 63.4892 40.7825 63.084 39.5113C66.8265 41.8583 70.567 44.2114 74.318 46.5611C74.7126 47.8357 74.5396 49.4769 73.7946 51.3254C70.0521 48.9785 66.3117 46.6253 62.5606 44.2756Z" fill="#FFD575"/>
<path d="M63.2628 39.6028C66.9406 41.915 70.629 44.2239 74.3068 46.5361C74.3047 46.5423 74.3113 46.5513 74.3178 46.5603C70.5755 44.2135 66.8267 41.8577 63.0844 39.5109C63.0864 39.5047 63.0799 39.4957 63.0734 39.4868C63.1358 39.5275 63.2004 39.5621 63.2542 39.6L63.2628 39.6028Z" fill="#FFD575"/>
<path d="M59.6094 39.8271L70.8439 46.8772C72.9198 48.1785 72.3659 51.7445 68.9339 55.8873L57.6994 48.8373C61.1294 44.7006 61.6747 41.1319 59.6094 39.8271Z" fill="#FFD575"/>
<path d="M63.0823 39.4894C62.8283 38.6793 62.3243 38.0222 61.5943 37.5602L72.8278 44.6096C73.5664 45.0744 74.0618 45.7288 74.3158 46.5389C71.9257 45.0402 69.5291 43.5325 67.139 42.0338C65.8341 41.2147 64.5292 40.3956 63.2244 39.5765C63.177 39.5475 63.1255 39.5309 63.0823 39.4894Z" fill="#FFD575"/>
<path d="M68.9333 55.8876L59.3238 51.7592C65.3485 46.439 68.0442 45.6384 70.437 46.6709C72.9736 47.7565 72.5694 51.5013 68.9333 55.8876Z" fill="#FFD575"/>
<path d="M59.3168 51.7561L48.0835 44.7069L57.7005 48.8376L68.9338 55.8868L59.3168 51.7561Z" fill="#FFD575"/>
<path d="M59.6108 39.8275L70.8447 46.8772C70.7198 46.7957 70.5887 46.7328 70.4405 46.6644C68.0457 45.6383 65.3435 46.4298 59.3277 51.7525L48.0938 44.7028C54.1182 39.3828 56.8138 38.5823 59.2065 39.6147C59.3482 39.6741 59.4859 39.746 59.6108 39.8275Z" fill="#FFD575"/>
<path d="M57.2882 53.583L46.0549 46.5338L55.9146 50.7634L67.1479 57.8125L57.2882 53.583Z" fill="#FFD575"/>
<path d="M38.0077 52.5756C40.2757 51.4036 42.909 49.4149 46.0562 46.5339L57.2903 53.5837C54.1432 56.4648 51.5013 58.4507 49.2419 59.6254C45.4993 57.2785 41.7588 54.9253 38.0077 52.5756Z" fill="#FFD575"/>
<path d="M61.5951 37.5604L72.8291 44.6101C72.6483 44.4969 72.4612 44.4022 72.255 44.3082C68.737 42.8032 64.42 44.7437 57.5191 50.9904L46.2851 43.9406C53.186 37.6939 57.4944 35.7506 61.0124 37.2557C61.2207 37.3435 61.4057 37.4443 61.5865 37.5576L61.5951 37.5604Z" fill="#FFD575"/>
<path d="M37.7469 52.7058C37.836 52.6659 37.9187 52.6169 38.0099 52.5708C41.7522 54.9176 45.4925 57.2706 49.2434 59.6201C49.1521 59.6663 49.0715 59.709 48.9803 59.7552C45.238 57.4084 41.4977 55.0554 37.7469 52.7058Z" fill="#FFD575"/>
<path d="M42.4874 55.6832C44.6493 57.0396 46.8111 58.3961 48.9816 59.7553C48.0161 60.234 47.1105 60.5604 46.2714 60.7433C42.5291 58.3965 38.7888 56.0435 35.0378 53.6939C35.8769 53.5109 36.7825 53.1846 37.748 52.7058C39.3285 53.6962 40.909 54.6866 42.4874 55.6832Z" fill="#FFD575"/>
<path d="M44.2568 58.108L33.0228 51.0583C35.4584 52.1045 38.2782 51.1585 44.2631 45.7571L55.4971 52.8068C49.5122 58.2082 46.6838 59.1515 44.2568 58.108Z" fill="#FFD575"/>
<path d="M35.0378 53.6945C38.7801 56.0412 42.5204 58.3942 46.2712 60.7438C44.8507 61.0484 43.6043 60.9419 42.4574 60.4485C42.2319 60.3553 42.0298 60.2489 41.8424 60.1266L30.609 53.0773C30.7984 53.1934 31.0006 53.2997 31.224 53.3992C32.3708 53.8926 33.6259 54.0018 35.0378 53.6945Z" fill="#FFD575"/>
<path d="M43.8293 57.8811L32.5958 50.8318C32.7293 50.9161 32.8755 50.9907 33.0238 51.0591L44.2572 58.1084C44.1069 58.0462 43.9628 57.9654 43.8293 57.8811Z" fill="#FFD575"/>
<path d="M58.1305 39.3065L46.897 32.257C47.1178 32.1634 47.491 31.9539 47.8318 31.5554L59.0654 38.6048C58.7246 39.0033 58.3534 39.2066 58.1305 39.3065Z" fill="#FFD575"/>
<path d="M47.8401 31.5584C48.3111 30.9958 48.3688 30.3342 47.9919 30.0959L59.2255 37.1454C59.6024 37.3837 59.5468 38.0391 59.0864 38.5982C59.0864 38.5982 59.0843 38.6044 59.0823 38.6107C55.7102 36.4931 51.2207 33.6787 47.8486 31.5612L47.8401 31.5584Z" fill="#FFD575"/>
<path d="M43.8294 57.8806L32.5949 50.8305C30.4177 49.4622 31.0073 45.8459 34.5319 41.5955L45.7664 48.6455C42.2398 52.9022 41.6522 56.5123 43.8294 57.8806Z" fill="#FFD575"/>
<path d="M45.7651 48.6443L34.5318 41.5951L44.271 45.7584L55.4957 52.8048L45.7651 48.6443Z" fill="#FFD575"/>
<path d="M47.4889 46.6785L36.2556 39.6293L46.2872 43.9418L57.5205 50.9909L47.4889 46.6785Z" fill="#FFD575"/>
<path d="M47.4885 46.6775L36.2543 39.6276C39.5083 36.2519 42.9368 33.9837 46.9084 32.2547L58.1426 39.3046C54.171 41.0336 50.7511 43.3046 47.4885 46.6775Z" fill="#FFD575"/>
<path d="M41.8413 60.1324L30.6066 53.0821C27.5874 51.1882 28.5177 46.3418 32.8869 41.0032L44.1216 48.0534C39.761 53.3948 38.8307 58.2412 41.8413 60.1324Z" fill="#FFD575"/>
<path d="M47.9845 30.0933L59.2188 37.1433C59.2188 37.1433 59.1714 37.1142 59.1457 37.1059C58.8234 36.9608 58.466 37.0655 57.984 37.288C53.3789 39.4105 49.5375 42.1228 45.9749 45.9143L34.7406 38.8644C38.3032 35.0729 42.1446 32.3606 46.7498 30.238C47.2317 30.0155 47.5892 29.9109 47.9114 30.056C47.9372 30.0643 47.9609 30.0788 47.9845 30.0933Z" fill="#FFD575"/>
<path d="M41.3653 46.8818L30.1339 39.8263L32.8871 41.0024L44.1205 48.0517L41.3653 46.8818Z" fill="#FFD575"/>
<path d="M41.2853 46.835L30.0519 39.7857C30.0519 39.7857 30.0993 39.8147 30.125 39.823L41.3584 46.8723C41.3584 46.8723 41.309 46.8495 41.2853 46.835Z" fill="#FFD575"/>
<path d="M43.1881 44.728L31.9568 37.6725L34.7529 38.8625L45.9777 45.909L43.1881 44.728Z" fill="#FFD575"/>
<path d="M41.2855 46.8353L30.0519 39.7858C29.6751 39.5476 29.7354 38.935 30.1938 38.382L41.4275 45.4315C40.9691 45.9845 40.9087 46.597 41.2855 46.8353Z" fill="#FFD575"/>
<path d="M41.4356 45.4335L30.2021 38.3841C30.6986 37.8022 31.5081 37.4792 31.9655 37.6747L43.1991 44.7242C42.7416 44.5286 41.9321 44.8516 41.4356 45.4335Z" fill="#FFD575"/>
<path d="M25.358 82.667L14.1229 75.6165C4.41457 69.5187 2.2888 55.8335 16.6831 37.3942C17.1937 36.7411 17.7108 36.0971 18.2303 35.4744C36.7401 13.2085 61.1422 8.79652 73.4133 16.5039L84.6484 23.5543C72.3774 15.847 47.9752 20.2589 29.4675 42.5186C28.948 43.1413 28.4309 43.7854 27.9203 44.4384C13.526 62.8777 15.6497 76.5691 25.3601 82.6608L25.358 82.667Z" fill="#FFD575"/>
<g opacity="0.1">
<path d="M25.357 82.6649L14.1202 75.6148C4.41056 69.5172 2.28432 55.8329 16.6803 37.3949C17.1909 36.7419 17.7081 36.0979 18.2276 35.4752C36.7396 13.211 61.1449 8.79963 73.4177 16.5066L84.6544 23.5567C72.3816 15.8497 47.9763 20.2612 29.4664 42.5191C28.9468 43.1418 28.4297 43.7858 27.919 44.4388C13.5231 62.8768 15.6473 76.5673 25.359 82.6587L25.357 82.6649Z" fill="black"/>
</g>
<path d="M80.5272 63.7001C47.3774 103.57 -4.67625 86.1852 27.9068 44.4421C28.4173 43.7891 28.9344 43.145 29.4539 42.5223C62.623 2.6516 114.677 20.0365 82.085 61.7768C81.5745 62.4299 81.0574 63.0739 80.5358 63.7028L80.5272 63.7001ZM32.5162 45.9212C5.47984 80.5475 48.6755 94.9739 76.1743 61.9052C76.6032 61.3839 77.0343 60.8563 77.4629 60.3074C77.6456 60.0709 77.8349 59.8433 77.9878 59.6109C77.7461 59.9109 77.5043 60.2108 77.2561 60.5018C50.8656 92.2307 9.42917 78.3989 35.3813 45.1546C35.789 44.6401 36.1967 44.1257 36.6068 43.6326C47.0827 31.0347 59.952 25.6053 70.0015 25.7392C59.3337 25.0349 45.2205 30.5787 33.8131 44.2986C33.3734 44.8233 32.9404 45.3571 32.5097 45.9122M59.0592 38.599C59.5598 38.0046 59.5869 37.2918 59.1379 37.099C58.8157 36.9539 58.4582 37.0585 57.9762 37.2811C53.3708 39.4037 49.5292 42.1161 45.9664 45.9078L43.1785 44.7205C42.721 44.5249 41.9114 44.8479 41.4148 45.4299C40.9269 46.0147 40.8884 46.6756 41.346 46.8712L44.1016 48.0413C39.4676 53.7207 38.7053 58.8343 42.4364 60.4424C45.8946 61.9283 50.3412 59.9125 57.2735 53.5723L67.1348 57.8025C64.9067 60.0869 62.3655 61.9404 59.1227 63.561C58.6407 63.7835 58.4127 63.9848 58.1877 64.2627C57.6514 64.9075 57.5962 65.5905 58.0795 65.7944C58.4275 65.9478 58.8316 65.817 59.4151 65.5173C62.886 63.6954 65.7205 61.7302 68.6873 58.5915L70.0835 59.1928C70.541 59.3884 71.3547 59.0529 71.8513 58.4709C72.3519 57.8765 72.3776 57.2252 71.916 57.042L70.5778 56.4663C75.1326 50.94 75.7817 45.8243 72.2226 44.2991C68.7043 42.7938 64.387 44.7345 57.4855 50.9816L47.4523 46.6685C50.7064 43.2926 54.1351 41.0243 58.107 39.2952C58.3279 39.2015 58.7011 38.992 59.042 38.5934" fill="#FFD575"/>
<path d="M44.2554 58.1083C41.5812 56.9508 42.019 53.1619 45.7645 48.646L55.4962 52.8069C49.5111 58.2085 46.6825 59.1518 44.2554 58.1083Z" fill="#FFD575"/>
<path d="M57.2884 53.5834C50.3563 59.9234 45.9099 61.9392 42.4518 60.4534C38.7209 58.8453 39.4853 53.7257 44.1171 48.0526L41.3615 46.8827C40.9041 46.6871 40.9425 46.0261 41.4304 45.4414C41.9269 44.8594 42.7365 44.5364 43.194 44.732L45.9818 45.9192C49.5444 42.1276 53.3859 39.4153 57.9912 37.2927C58.4731 37.0702 58.8306 36.9656 59.1529 37.1107C59.6018 37.3035 59.5747 38.0162 59.0888 38.5947C58.7312 39.0154 58.36 39.2186 58.1391 39.3123C54.1674 41.0414 50.7474 43.3124 47.4848 46.6854L57.5175 50.9983C64.4188 44.7514 68.7273 42.808 72.254 44.3159C75.813 45.8411 75.1639 50.9566 70.6092 56.4828L71.9473 57.0584C72.4089 57.2416 72.3746 57.8901 71.8994 58.4652C71.3861 59.0693 70.5724 59.4047 70.1149 59.2091L68.7187 58.6079C65.7521 61.7465 62.9262 63.7144 59.4469 65.5335C58.8528 65.8367 58.4593 65.964 58.1113 65.8106C57.6216 65.5978 57.6833 64.9237 58.2028 64.3011C58.4531 64.0039 58.6812 63.8026 59.1545 63.5773C62.3972 61.9567 64.9384 60.1032 67.1664 57.8189L57.3055 53.5889L57.2884 53.5834ZM44.254 58.1074C46.6897 59.1537 49.5096 58.2076 55.4948 52.806L45.763 48.6451C42.0176 53.161 41.5797 56.9499 44.254 58.1074ZM59.3173 51.7571L68.9269 55.8855C72.563 51.4992 72.9586 47.7517 70.4306 46.6688C68.0357 45.6425 65.3334 46.4341 59.3173 51.7571Z" fill="#FFD575"/>
<path d="M76.1834 61.9079C48.676 94.9739 5.4866 80.5564 32.5251 45.9238C32.9537 45.3749 33.3889 44.8349 33.8285 44.3102C45.2381 30.5841 59.3492 25.0465 70.0171 25.7508C59.9675 25.6168 47.0981 31.0463 36.6223 43.6442C36.2101 44.1435 35.7959 44.6489 35.3967 45.1661C9.43594 78.4078 50.8812 92.2425 77.2717 60.5135C77.5114 60.2197 77.7617 59.9225 78.0035 59.6226C77.8506 59.855 77.6613 60.0825 77.4785 60.3191C77.052 60.8618 76.6275 61.3983 76.1899 61.9169L76.1834 61.9079Z" fill="#FFD575"/>
<g opacity="0.1">
<path d="M76.1867 61.908C48.6761 94.9716 5.48081 80.5545 32.5224 45.9244C32.9511 45.3755 33.3863 44.8356 33.826 44.3109C45.2369 30.5858 59.3498 25.0487 70.0191 25.7531C59.9682 25.619 47.0972 31.048 36.6201 43.645C36.2079 44.1442 35.7936 44.6496 35.3944 45.1668C9.43065 78.406 50.8815 92.2403 77.2752 60.5137C77.5149 60.22 77.7652 59.9228 78.007 59.6228C77.8541 59.8552 77.6648 60.0828 77.482 60.3193C77.0554 60.862 76.6308 61.3984 76.1932 61.917L76.1867 61.908Z" fill="black"/>
</g>
</svg>
