<svg width="36" height="37" viewBox="0 0 36 37" fill="none" xmlns="http://www.w3.org/2000/svg">
<path d="M14.9222 21.5483C14.9775 21.6455 15.0293 21.7425 15.0863 21.8312L11.7659 23.2049C11.7089 23.1162 11.6571 23.0192 11.6017 22.922C11.4756 22.697 11.3511 22.4739 11.2335 22.2513C9.81941 19.6072 8.98126 17.18 8.6055 15.0723C9.71115 14.6143 10.8185 14.1582 11.9259 13.6986C12.3017 15.8063 13.1398 18.2335 14.5522 20.8757C14.6715 21.0968 14.7925 21.3196 14.9204 21.5464L14.9222 21.5483Z" fill="#FFD575"/>
<path d="M14.2466 5.80316C12.2473 6.62851 11.1837 9.5368 11.9282 13.7028C10.8209 14.1589 9.71534 14.6168 8.60807 15.0764C7.86536 10.9122 8.92894 8.00391 10.9282 7.17856C11.9253 6.76657 13.2513 6.217 14.2483 5.80501L14.2466 5.80316Z" fill="#FFD575"/>
<path d="M11.2634 8.36142L14.5836 6.98781C11.6956 8.18272 10.8452 13.9047 14.8818 21.454C14.9492 21.578 15.0166 21.7055 15.0857 21.8313L11.7655 23.205C11.6963 23.0791 11.6272 22.9532 11.5615 22.8276C7.52498 15.2783 8.37537 9.55633 11.2634 8.36142Z" fill="#FFD575"/>
<path d="M16.0531 20.5059C16.0531 20.5059 16.0565 20.5096 16.0582 20.5115C14.9527 20.9694 13.8455 21.4255 12.7382 21.885C12.7365 21.8832 12.7348 21.8813 12.7331 21.8795C13.7301 21.4675 15.056 20.9179 16.0531 20.5059Z" fill="#FFD575"/>
<path d="M12.6873 21.2714L16.0073 19.8978C15.9006 19.9733 15.9235 20.2531 16.0548 20.5044L12.7348 21.8779C12.6034 21.6267 12.5806 21.3468 12.6873 21.2714Z" fill="#FFD575"/>
<path d="M13.485 21.981L16.805 20.6075L16.4917 20.8274L13.1717 22.2009L13.485 21.981Z" fill="#FFD575"/>
<path d="M16.0571 20.5133C16.1832 20.7451 16.361 20.8838 16.4677 20.8395L13.1476 22.213C13.0409 22.2574 12.8632 22.1187 12.737 21.8868C13.8425 21.4289 14.9498 20.9728 16.0571 20.5133Z" fill="#FFD575"/>
<path d="M16.4676 20.8393L13.1476 22.2129C13.1476 22.2129 13.1631 22.2053 13.17 22.1989L16.49 20.8254C16.49 20.8254 16.4745 20.8364 16.4676 20.8393Z" fill="#FFD575"/>
<path d="M13.0144 21.042L16.3343 19.6685L16.0073 19.8978L12.6873 21.2713L13.0144 21.042Z" fill="#FFD575"/>
<path d="M16.8053 20.6074C17.2081 21.3566 17.64 21.9954 18.0664 22.4974C16.9608 22.9553 15.8535 23.4114 14.7462 23.871C14.3197 23.369 13.8878 22.7302 13.485 21.981C14.4821 21.569 15.8082 21.0194 16.8053 20.6074Z" fill="#FFD575"/>
<path d="M17.8098 22.6367C16.7938 23.0559 15.7813 23.4755 14.7653 23.8948C14.7584 23.8874 14.7515 23.88 14.7446 23.8726C15.8501 23.4147 16.9574 22.9586 18.0646 22.499C18.0715 22.5064 18.0784 22.5138 18.0853 22.5212C18.0767 22.5258 18.063 22.5318 18.0526 22.5345C18.0423 22.5372 18.0302 22.545 18.0199 22.5477C17.9975 22.5583 17.9734 22.5669 17.9528 22.5759C17.9063 22.5951 17.858 22.6159 17.8115 22.635L17.8098 22.6367Z" fill="#FFD575"/>
<path d="M11.7872 17.191L15.1075 15.8174C15.3268 17.0947 15.6544 18.2395 16.334 19.6685L13.0138 21.0421C12.3341 19.6132 12.0048 18.4699 11.7872 17.191Z" fill="#FFD575"/>
<path d="M15.1547 15.4165C15.072 15.4729 15.0723 15.6043 15.1071 15.8176L11.7871 17.1912C11.7522 16.9744 11.752 16.8465 11.8346 16.7901C12.9402 16.3321 14.0491 15.8745 15.1547 15.4165Z" fill="#FFD575"/>
<path d="M15.1753 15.4041C15.1753 15.4041 15.1598 15.4117 15.1546 15.4165C14.0491 15.8744 12.9419 16.3305 11.8346 16.79C11.8415 16.7836 11.8484 16.7806 11.8553 16.7776C12.8523 16.3657 14.1783 15.8161 15.1753 15.4041Z" fill="#FFD575"/>
<path d="M12.4257 17.5333L15.7459 16.1598C15.9254 17.3357 16.2476 18.3816 16.7354 19.4393L13.4151 20.8129C12.9274 19.7552 12.6051 18.7093 12.4257 17.5333Z" fill="#FFD575"/>
<path d="M11.857 16.7762L15.1771 15.4026C15.2942 15.3556 15.484 15.5107 15.6171 15.7603C15.6845 15.8878 15.7243 15.9891 15.747 16.1584L12.4269 17.5319C12.4059 17.3611 12.3661 17.2597 12.297 17.1339C12.1639 16.8842 11.9741 16.7291 11.857 16.7762Z" fill="#FFD575"/>
<path d="M18.0875 22.5232C18.5883 23.1081 19.0818 23.5059 19.5181 23.6732C18.4125 24.1311 17.3052 24.5872 16.1978 25.0467C15.7616 24.876 15.2681 24.4817 14.7673 23.8968C15.8729 23.4388 16.9802 22.9827 18.0875 22.5232Z" fill="#FFD575"/>
<path d="M19.4717 23.6993C18.3834 24.148 17.2951 24.6003 16.2068 25.049C16.205 25.0472 16.2016 25.0469 16.1981 25.0467C17.3037 24.5888 18.4126 24.1311 19.5182 23.6732C19.5199 23.675 19.5233 23.6753 19.5268 23.6755C19.5078 23.6828 19.4906 23.692 19.4734 23.6977L19.4717 23.6993Z" fill="#FFD575"/>
<path d="M19.7677 22.7158L16.4473 24.0894C15.8343 24.3435 14.7798 23.4413 13.8342 21.6789L17.1545 20.3053C18.0984 22.0658 19.1546 22.9664 19.7677 22.7158Z" fill="#FFD575"/>
<path d="M19.5248 23.6773C19.8024 23.785 20.0575 23.796 20.2745 23.7076L16.9544 25.0811C16.7357 25.1712 16.4824 25.1585 16.2048 25.0508C16.9108 24.7583 17.6203 24.4661 18.3263 24.1736C18.712 24.0141 19.0978 23.8546 19.4835 23.6951C19.4973 23.6891 19.5076 23.6795 19.5248 23.6773Z" fill="#FFD575"/>
<path d="M13.8343 21.6791L16.0823 20.0985C17.1346 22.7758 17.1136 23.6369 16.5525 24.0295C15.9603 24.4476 14.8352 23.5455 13.8343 21.6791Z" fill="#FFD575"/>
<path d="M16.0839 20.0974L19.4038 18.7239L17.1543 20.3059L13.8343 21.6794L16.0839 20.0974Z" fill="#FFD575"/>
<path d="M19.7676 22.7162L16.4474 24.0897C16.4853 24.0751 16.518 24.055 16.5541 24.0316C17.1135 23.6371 17.1379 22.7764 16.084 20.1008L19.4042 18.7272C20.4564 21.4044 20.4354 22.2654 19.8743 22.658C19.8416 22.6816 19.8055 22.7016 19.7676 22.7162Z" fill="#FFD575"/>
<path d="M15.7185 19.1883L19.0384 17.8147L16.7338 19.4378L13.4139 20.8113L15.7185 19.1883Z" fill="#FFD575"/>
<path d="M17.9643 14.4656C18.1019 15.2963 18.457 16.3947 19.0384 17.815L15.7181 19.1886C15.1367 17.7683 14.7833 16.6683 14.6441 15.8392C15.7497 15.3812 16.857 14.9251 17.9643 14.4656Z" fill="#FFD575"/>
<path d="M20.2745 23.7078L16.9543 25.0813C17.0077 25.0592 17.0559 25.0315 17.1058 24.9987C17.9268 24.4187 17.7554 22.8994 16.5026 19.8001L19.8228 18.4265C21.0756 21.5258 21.2488 23.0435 20.4277 23.6235C20.3795 23.6581 20.3296 23.684 20.2762 23.7062L20.2745 23.7078Z" fill="#FFD575"/>
<path d="M17.9498 14.3711C17.9533 14.4025 17.9602 14.4341 17.9655 14.4673C16.86 14.9252 15.7527 15.3813 14.6455 15.8408C14.6402 15.8076 14.635 15.7779 14.6298 15.7447C15.7353 15.2867 16.8426 14.8307 17.9498 14.3711Z" fill="#FFD575"/>
<path d="M16.5479 14.9498C15.909 15.2142 15.2702 15.4786 14.6296 15.7446C14.5773 15.3952 14.5665 15.0937 14.5936 14.8398C15.6991 14.3819 16.8064 13.9258 17.9137 13.4663C17.8865 13.7202 17.8974 14.0217 17.9496 14.3711C17.483 14.5646 17.0163 14.7581 16.5479 14.9498Z" fill="#FFD575"/>
<path d="M15.6161 14.8862L18.9363 13.5127C18.3666 13.9133 18.3784 14.8371 19.46 17.5216L16.1398 18.8952C15.0582 16.2107 15.0481 15.2853 15.6161 14.8862Z" fill="#FFD575"/>
<path d="M17.9137 13.4666C16.8082 13.9245 15.7009 14.3806 14.5937 14.8401C14.6413 14.4114 14.7993 14.1149 15.0678 13.9264C15.1194 13.8885 15.1728 13.8595 15.2296 13.8375L18.5496 12.464C18.4945 12.4878 18.4412 12.5169 18.3878 12.5528C18.1193 12.7413 17.9595 13.0395 17.9137 13.4666Z" fill="#FFD575"/>
<path d="M15.7293 14.8252L19.0493 13.4517C19.0097 13.4679 18.9719 13.4895 18.9357 13.5128L15.6157 14.8864C15.6501 14.8611 15.6897 14.8415 15.7293 14.8252Z" fill="#FFD575"/>
<path d="M20.0781 22.4481L23.3982 21.0746C23.4052 21.1511 23.433 21.2913 23.5229 21.4636L20.2028 22.8371C20.1129 22.6649 20.0868 22.5265 20.0781 22.4481Z" fill="#FFD575"/>
<path d="M23.5211 21.4655C23.649 21.7061 23.8492 21.8619 23.9611 21.8162L20.641 23.1897C20.5291 23.2354 20.3307 23.0815 20.2027 22.8443C20.2027 22.8443 20.201 22.8425 20.1993 22.8406C21.1964 22.4286 22.5223 21.8791 23.5194 21.4671L23.5211 21.4655Z" fill="#FFD575"/>
<path d="M15.7297 14.8253L19.05 13.4517C19.6941 13.1859 20.7607 14.108 21.7305 15.917L18.4101 17.2907C17.4386 15.4798 16.3738 14.5595 15.7297 14.8253Z" fill="#FFD575"/>
<path d="M18.4107 17.2902L21.7306 15.9166L19.4587 17.5229L16.1405 18.8949L18.4107 17.2902Z" fill="#FFD575"/>
<path d="M18.8501 18.1511L22.17 16.7776L19.8224 18.4269L16.5024 19.8005L18.8501 18.1511Z" fill="#FFD575"/>
<path d="M18.8502 18.1512L22.1705 16.7776C22.8951 18.3307 23.2576 19.6924 23.3978 21.0782L20.0775 22.4518C19.9373 21.066 19.5732 19.7059 18.8502 18.1512Z" fill="#FFD575"/>
<path d="M15.228 13.8358L18.5484 12.4622C19.4405 12.0929 20.8558 13.3645 22.0797 15.6219L18.7593 16.9955C17.5336 14.7398 16.1183 13.4681 15.228 13.8358Z" fill="#FFD575"/>
<path d="M23.9624 21.8146L20.6421 23.1882C20.6421 23.1882 20.6559 23.1823 20.6611 23.1774C20.7385 23.1259 20.7418 23.012 20.7208 22.8411C20.5216 21.2092 20.0624 19.6471 19.2392 17.9263L22.5595 16.5526C23.3826 18.2735 23.8419 19.8356 24.0411 21.4675C24.0621 21.6384 24.0588 21.7522 23.9814 21.8038C23.9762 21.8086 23.9693 21.8116 23.9624 21.8146Z" fill="#FFD575"/>
<path d="M19.4003 16.5395L22.722 15.1678L22.08 15.6221L18.76 16.9956L19.4003 16.5395Z" fill="#FFD575"/>
<path d="M19.4229 16.529L22.7429 15.1555C22.7429 15.1555 22.7291 15.1614 22.724 15.1662L19.404 16.5398C19.404 16.5398 19.416 16.532 19.4229 16.529Z" fill="#FFD575"/>
<path d="M19.8878 17.4657L23.2096 16.094L22.559 16.5563L19.2407 17.9282L19.8878 17.4657Z" fill="#FFD575"/>
<path d="M19.4225 16.5293L22.7426 15.1557C22.8546 15.1101 23.0392 15.2561 23.1654 15.4914L19.8453 16.865C19.7191 16.6297 19.5345 16.4836 19.4225 16.5293Z" fill="#FFD575"/>
<path d="M19.8438 16.8664L23.1639 15.4928C23.2953 15.744 23.3147 16.0202 23.208 16.0957L19.8879 17.4692C19.9946 17.3938 19.9752 17.1176 19.8438 16.8664Z" fill="#FFD575"/>
<path d="M9.86578 4.80937L13.1863 3.43565C16.0573 2.24979 20.5301 4.62364 24.8272 12.2419C24.9793 12.5119 25.128 12.7816 25.2698 13.0474C30.3455 22.5356 29.2734 29.7254 25.6446 31.2244L22.3241 32.5981C25.9529 31.0992 27.025 23.9093 21.951 14.423C21.8092 14.1572 21.6606 13.8874 21.5084 13.6174C17.2113 5.99922 12.7368 3.62352 9.8675 4.81122L9.86578 4.80937Z" fill="#FFD575"/>
<g opacity="0.1">
<path d="M9.86677 4.80938L13.1874 3.43525C16.0585 2.24905 20.5311 4.62267 24.8274 12.2411C24.9795 12.5111 25.1282 12.7809 25.2699 13.0467C30.3448 22.5351 29.272 29.7256 25.6431 31.225L22.3225 32.5991C25.9514 31.0997 27.0241 23.9092 21.951 14.4227C21.8093 14.1568 21.6606 13.8871 21.5086 13.6171C17.2122 5.99865 12.7379 3.62317 9.86849 4.81123L9.86677 4.80938Z" fill="black"/>
</g>
<path d="M10.2408 22.9821C1.15253 5.99097 11.7805 -3.6321 21.5086 13.6133C21.6607 13.8833 21.8094 14.1531 21.9511 14.4189C31.0377 31.4151 20.4097 41.0382 10.6833 23.7912C10.5312 23.5212 10.3826 23.2514 10.2391 22.9837L10.2408 22.9821ZM20.5863 14.4783C12.5175 0.170916 3.69818 8.15646 11.2357 22.2501C11.355 22.4712 11.476 22.694 11.6039 22.9208C11.6592 23.0181 11.7111 23.1151 11.7681 23.2038C11.699 23.0779 11.6298 22.9521 11.5641 22.8264C4.33258 9.30228 12.7906 1.64046 20.5378 15.3755C20.657 15.5896 20.7763 15.8037 20.8887 16.0139C23.7602 21.383 24.1605 25.8365 23.1117 28.3814C24.4 25.7997 24.0888 21.0034 20.9614 15.1564C20.8421 14.9319 20.7193 14.7072 20.5897 14.4786M20.2055 22.837C20.3403 23.092 20.5594 23.2509 20.6645 23.177C20.7419 23.1255 20.7452 23.0116 20.7242 22.8407C20.525 21.2087 20.0657 19.6465 19.2425 17.9256L19.8915 17.4648C19.9982 17.3894 19.9788 17.1132 19.8474 16.8619C19.7143 16.6122 19.5124 16.4615 19.4057 16.5369L18.7653 16.9931C17.4619 14.5953 15.9466 13.3097 15.0721 13.9222C14.263 14.491 14.4448 16.0596 15.7236 19.1868L13.4187 20.8101C12.9309 19.7524 12.6086 18.7064 12.4291 17.5304C12.4082 17.3595 12.3684 17.2582 12.3044 17.1413C12.1575 16.8665 11.9504 16.7067 11.8385 16.7869C11.7559 16.8434 11.7561 16.9747 11.7909 17.1881C12.0102 18.4654 12.3378 19.6104 13.0175 21.0394L12.6904 21.2688C12.5837 21.3442 12.6065 21.6241 12.7379 21.8754C12.8728 22.1304 13.073 22.2758 13.1762 22.1967L13.4895 21.9767C14.7532 24.3216 16.2806 25.5787 17.112 24.9925C17.9331 24.4125 17.7617 22.8931 16.5088 19.7936L18.8568 18.1439C19.5815 19.6971 19.944 21.0589 20.0842 22.4447C20.0912 22.5213 20.119 22.6615 20.2089 22.8338" fill="#FFD575"/>
<path d="M15.616 14.8856C16.2443 14.4476 17.3798 15.3677 18.4102 17.2898L16.1397 18.8947C15.0582 16.2102 15.048 15.2847 15.616 14.8856Z" fill="#FFD575"/>
<path d="M15.7183 19.1884C14.4395 16.0612 14.2576 14.4927 15.0667 13.924C15.9411 13.3114 17.4581 14.5989 18.7598 16.9948L19.4001 16.5386C19.5068 16.4631 19.7087 16.6139 19.8418 16.8636C19.9732 17.1148 19.9927 17.391 19.8859 17.4665L19.237 17.9272C20.0602 19.6481 20.5195 21.2102 20.7187 22.8422C20.7396 23.0131 20.7364 23.1269 20.6589 23.1785C20.5539 23.2523 20.3348 23.0934 20.2034 22.8456C20.1083 22.6644 20.0822 22.526 20.0752 22.4494C19.935 21.0636 19.5708 19.7035 18.8479 18.1487L16.5 19.7983C17.7528 22.8977 17.926 24.4155 17.1032 24.9971C16.2718 25.5833 14.7445 24.3262 13.4808 21.9814L13.1675 22.2013C13.0643 22.2805 12.8658 22.1334 12.7345 21.8891C12.5979 21.6288 12.575 21.3489 12.6817 21.2734L13.0088 21.0441C12.3291 19.6151 11.9998 18.4718 11.7822 17.1929C11.7474 16.9761 11.7472 16.8482 11.8298 16.7918C11.9451 16.7117 12.1488 16.8713 12.2905 17.1371C12.358 17.2646 12.3978 17.3659 12.4204 17.5352C12.5999 18.7111 12.9222 19.7571 13.4099 20.8148L15.7148 19.1916L15.7183 19.1884ZM15.6163 14.8857C15.0465 15.2864 15.0584 16.2103 16.14 18.8948L18.4104 17.2899C17.3801 15.3678 16.2446 14.4477 15.6163 14.8857ZM16.0834 20.0974L13.8353 21.6779C14.8363 23.5444 15.9631 24.4449 16.5535 24.0284C17.113 23.634 17.1374 22.7731 16.0834 20.0974Z" fill="#FFD575"/>
<path d="M11.2338 22.2518C3.69791 8.15649 12.5139 0.170662 20.5843 14.48C20.7123 14.7068 20.8367 14.9333 20.956 15.1578C24.0851 21.0066 24.3947 25.8012 23.1064 28.3829C24.1552 25.8379 23.7549 21.3844 20.8833 16.0153C20.7692 15.8033 20.6534 15.5894 20.5324 15.3769C12.7869 1.64021 4.32714 9.30367 11.5587 22.8279C11.6261 22.9519 11.6936 23.0794 11.7627 23.2052C11.7057 23.1165 11.6538 23.0195 11.5985 22.9223C11.4723 22.6973 11.3479 22.4742 11.2303 22.2516L11.2338 22.2518Z" fill="#FFD575"/>
<g opacity="0.1">
<path d="M11.2334 22.2526C3.69892 8.15688 12.5155 0.169652 20.5847 14.4793C20.7125 14.7061 20.837 14.9327 20.9563 15.1572C24.0848 21.0062 24.3939 25.801 23.1054 28.383C24.1544 25.8378 23.7545 21.384 20.8835 16.0147C20.7694 15.8027 20.6536 15.5888 20.5326 15.3763C12.7884 1.63928 4.32805 9.30409 11.5583 22.8286C11.6258 22.9527 11.6932 23.0802 11.7623 23.206C11.7053 23.1173 11.6534 23.0203 11.5981 22.9231C11.472 22.6981 11.3475 22.475 11.23 22.2523L11.2334 22.2526Z" fill="black"/>
</g>
</svg>
