<svg width="460" height="5" viewBox="0 0 460 5" fill="none" xmlns="http://www.w3.org/2000/svg">
<path d="M458.254 4.21987C460.337 4.1809 460.264 3.79359 458.181 3.7536C455.719 3.71189 453.236 3.64107 450.774 3.5475C445.294 3.3292 439.793 3.11058 434.313 2.9038C423.739 2.50163 413.164 2.15708 402.566 1.89864C392.846 1.65878 383.126 1.46502 373.383 1.32279C370.856 1.28591 368.351 1.24933 365.824 1.22397C356.188 1.11211 346.531 1.00571 336.894 0.934187C314.345 0.772121 291.795 0.610041 269.265 0.56352C247.249 0.518739 225.233 0.49701 203.237 0.538966C192.422 0.559721 181.606 0.568953 170.79 0.606992C159.096 0.649501 147.402 0.66321 135.729 0.734839C111.633 0.87868 87.5154 1.02795 63.4194 1.17756C42.4934 1.31004 21.6499 1.66273 0.889748 2.18375C-0.701268 2.2241 1.01612 4.48493 2.60765 4.49357C3.58585 4.49887 4.92168 4.51484 6.72507 4.54524C16.7458 4.71457 26.7676 4.80902 36.7901 4.84583C43.2577 4.8711 49.7256 4.86755 56.1725 4.84065C60.1348 4.82357 64.0977 4.76617 68.0604 4.72605C78.6633 4.60998 89.2663 4.48815 99.8692 4.37785C111.993 4.2494 124.117 4.09216 136.262 3.9986C148.771 3.89883 161.279 3.79329 173.81 3.69384C185.055 3.60443 196.321 3.56145 207.565 3.49509C218.553 3.43074 229.54 3.424 240.527 3.39423C251.6 3.3657 262.672 3.38326 273.766 3.38385C285.031 3.38695 296.338 3.46558 307.603 3.51477C328.205 3.6023 348.826 3.83417 369.425 4.10031C380.881 4.25026 392.36 4.30257 403.817 4.36609C415.103 4.42712 426.411 4.45389 437.697 4.43425C442.281 4.42624 446.907 4.4419 451.469 4.38173C453.697 4.35662 455.903 4.31391 458.089 4.2248C458.142 4.22255 458.197 4.22092 458.254 4.21987Z" fill="#FFE0A4"/>
</svg>
