<svg width="231" height="237" viewBox="0 0 231 237" fill="none" xmlns="http://www.w3.org/2000/svg">
<path d="M69.1049 322.611L3.3461 92.8696L84.0844 73.635L111.268 93.7867L126.85 153.393L163.269 161.488L167.746 176.783L163.146 181.708L180.256 259.999L144.243 291.471L69.1049 322.611Z" fill="#EB6D4C"/>
<path d="M2.78394 92.9788L29.9594 113.125L47.9783 181.454L83.4569 188.516L87.9345 203.81L84.2536 208.191L101.428 291.719L68.5559 322.718L9.41086 301.635L-38.7329 92.6763L2.78394 92.9788Z" fill="#C35C40"/>
<g style="mix-blend-mode:multiply" opacity="0.39">
<path d="M68.5554 322.718L101.434 291.717L83.3424 208.747L87.9406 203.809L83.463 188.514L47.0518 180.425L29.9668 113.131L2.79004 92.9775C2.79004 92.9775 37.6337 177.625 45.9704 206.915C54.046 235.278 68.5542 322.711 68.5542 322.711L68.5554 322.718Z" fill="#C35C40"/>
</g>
<path d="M163.269 161.488L83.4567 188.516L47.0456 180.426L126.85 153.393L163.269 161.488Z" fill="#F4A790"/>
<path d="M163.27 161.488L167.747 176.783L87.9347 203.811L83.4571 188.516L163.27 161.488Z" fill="#DA9580"/>
<path d="M167.747 176.783L87.9346 203.811L83.3364 208.749L163.146 181.708L167.747 176.783Z" fill="#6B4A40"/>
<path d="M111.268 93.7869L29.9591 113.125L47.0454 180.426L126.85 153.393L111.268 93.7869Z" fill="#EE805F"/>
<path d="M163.146 181.708L83.3364 208.749L101.428 291.719L180.257 259.999L163.146 181.708Z" fill="#E0795A"/>
<path d="M84.0849 73.635L39.8808 72.9568L-38.7331 92.6762L2.78376 92.9787L84.0849 73.635Z" fill="#F4A790"/>
<path d="M130.292 163.728C130.136 162.923 133.108 161.682 136.93 160.941C140.753 160.201 143.981 160.247 144.135 161.046L144.542 163.147C144.697 163.946 141.72 165.195 137.898 165.935C134.075 166.676 130.854 166.628 130.699 165.829L130.292 163.728Z" fill="#5D2C1E"/>
<path d="M130.292 163.728C130.448 164.533 133.668 164.575 137.491 163.834C141.313 163.094 144.29 161.845 144.135 161.046C143.981 160.247 140.753 160.201 136.93 160.941C133.108 161.682 130.138 162.929 130.292 163.728Z" fill="#EB6F4D"/>
<g style="mix-blend-mode:screen">
<path d="M130.279 163.73C130.294 163.809 130.33 163.89 130.384 163.955C130.437 164.019 130.507 164.067 130.577 164.114C130.716 164.196 130.863 164.256 131.022 164.306C131.326 164.404 131.641 164.451 131.955 164.492C132.587 164.567 133.208 164.582 133.842 164.561C134.463 164.543 135.091 164.489 135.717 164.422C136.332 164.337 136.952 164.244 137.562 164.133C138.177 164.013 138.781 163.869 139.387 163.704C139.994 163.539 140.59 163.356 141.179 163.14C141.769 162.924 142.346 162.676 142.898 162.372C143.174 162.217 143.448 162.055 143.694 161.851C143.816 161.746 143.93 161.636 144.034 161.507C144.082 161.437 144.123 161.368 144.148 161.288C144.173 161.208 144.191 161.123 144.161 161.041L144.135 161.046C144.163 161.19 144.077 161.342 143.976 161.45C143.876 161.565 143.759 161.662 143.634 161.754C143.377 161.933 143.107 162.081 142.826 162.21C142.266 162.474 141.689 162.688 141.096 162.884C139.921 163.268 138.716 163.569 137.504 163.798C136.293 164.032 135.058 164.21 133.824 164.293C133.207 164.331 132.586 164.35 131.974 164.312C131.666 164.297 131.359 164.255 131.054 164.191C130.904 164.153 130.761 164.113 130.624 164.037C130.489 163.975 130.353 163.866 130.325 163.722L130.292 163.728L130.279 163.73Z" fill="#EB6F4D"/>
</g>
<path d="M113.415 168.763C113.26 167.965 116.23 166.717 120.053 165.977C123.875 165.236 127.104 165.289 127.258 166.081L127.665 168.182C127.819 168.981 124.842 170.23 121.02 170.971C117.198 171.711 113.975 171.656 113.822 170.864L113.415 168.763Z" fill="#005071"/>
<path d="M113.415 168.763C113.57 169.568 116.791 169.61 120.613 168.87C124.435 168.129 127.412 166.88 127.258 166.081C127.103 165.283 123.875 165.236 120.053 165.977C116.23 166.717 113.261 167.971 113.415 168.763Z" fill="#0595CF"/>
<g style="mix-blend-mode:screen">
<path d="M113.401 168.766C113.41 168.846 113.453 168.926 113.506 168.99C113.558 169.048 113.629 169.102 113.699 169.143C113.838 169.231 113.985 169.291 114.137 169.336C114.441 169.434 114.757 169.488 115.07 169.529C115.695 169.598 116.324 169.619 116.95 169.593C117.579 169.58 118.206 169.519 118.825 169.454C119.441 169.375 120.067 169.274 120.677 169.163C121.285 169.045 121.902 168.898 122.503 168.741C123.108 168.569 123.706 168.393 124.294 168.17C124.877 167.955 125.454 167.708 126.014 167.409C126.289 167.254 126.562 167.085 126.808 166.882C126.93 166.776 127.053 166.671 127.149 166.537C127.191 166.475 127.237 166.398 127.264 166.325C127.288 166.239 127.306 166.154 127.277 166.078L127.244 166.084C127.274 166.234 127.186 166.38 127.085 166.488C126.985 166.603 126.868 166.7 126.743 166.792C126.486 166.971 126.216 167.119 125.936 167.254C125.378 167.525 124.801 167.739 124.208 167.935C123.033 168.319 121.827 168.614 120.609 168.85C119.392 169.086 118.17 169.261 116.929 169.345C116.312 169.384 115.691 169.402 115.071 169.359C114.762 169.338 114.456 169.302 114.157 169.231C114.007 169.192 113.863 169.152 113.726 169.076C113.592 169.014 113.457 168.911 113.428 168.761L113.401 168.766Z" fill="#ADC9E6"/>
</g>
<path d="M95.8095 174.144C95.6548 173.345 98.6252 172.097 102.448 171.357C106.27 170.616 109.493 170.671 109.646 171.463L110.053 173.564C110.208 174.363 107.237 175.61 103.415 176.351C99.5927 177.091 96.37 177.037 96.2166 176.245L95.8095 174.144Z" fill="#17411B"/>
<path d="M95.8095 174.144C95.9655 174.949 99.1857 174.99 103.008 174.25C106.83 173.509 109.801 172.262 109.646 171.463C109.491 170.665 106.27 170.616 102.448 171.357C98.6252 172.097 95.6561 173.352 95.8095 174.144Z" fill="#759524"/>
<g style="mix-blend-mode:screen">
<path d="M95.7897 174.148C95.805 174.226 95.8411 174.307 95.8943 174.372C95.9475 174.436 96.0178 174.484 96.0869 174.525C96.2263 174.613 96.3789 174.665 96.5316 174.717C96.8357 174.814 97.1452 174.87 97.464 174.903C98.0899 174.979 98.7174 174.993 99.3451 174.973C99.9741 174.96 100.601 174.9 101.22 174.834C101.836 174.755 102.455 174.656 103.072 174.543C103.687 174.424 104.29 174.28 104.898 174.121C105.497 173.951 106.1 173.773 106.689 173.55C107.272 173.336 107.854 173.08 108.408 172.783C108.683 172.628 108.951 172.467 109.197 172.263C109.319 172.158 109.434 172.054 109.537 171.919C109.586 171.855 109.626 171.779 109.659 171.705C109.684 171.626 109.695 171.542 109.672 171.458L109.639 171.464C109.669 171.615 109.575 171.762 109.48 171.869C109.38 171.983 109.256 172.082 109.125 172.175C108.874 172.353 108.604 172.5 108.325 172.636C107.766 172.907 107.19 173.121 106.596 173.317C105.421 173.701 104.215 173.996 102.998 174.232C101.78 174.467 100.551 174.644 99.3178 174.727C98.7005 174.765 98.0846 174.776 97.4598 174.741C97.1566 174.718 96.8443 174.684 96.5453 174.612C96.3952 174.574 96.2438 174.528 96.1082 174.459C95.9805 174.396 95.8386 174.294 95.8094 174.144L95.7832 174.149L95.7897 174.148Z" fill="#B9BA1A"/>
</g>
<path d="M76.9282 180.511C76.7735 179.713 79.7438 178.465 83.5662 177.724C87.3886 176.984 90.6178 177.037 90.7713 177.829L91.1783 179.93C91.333 180.729 88.3627 181.977 84.5338 182.718C80.7048 183.46 77.4887 183.404 77.3352 182.612L76.9282 180.511Z" fill="#956419"/>
<path d="M76.9282 180.511C77.0842 181.316 80.3056 181.364 84.128 180.624C87.9504 179.883 90.926 178.628 90.7713 177.829C90.6166 177.031 87.3952 176.983 83.5662 177.724C79.7373 178.466 76.7748 179.719 76.9282 180.511Z" fill="#FCC203"/>
<g style="mix-blend-mode:screen">
<path d="M76.9089 180.515C76.9242 180.594 76.9615 180.682 77.0148 180.746C77.0745 180.809 77.1383 180.858 77.2074 180.899C77.3467 180.987 77.4928 181.04 77.6521 181.091C77.9627 181.187 78.2722 181.242 78.5858 181.284C79.2116 181.359 79.8457 181.372 80.4734 181.353C81.0946 181.334 81.7212 181.274 82.3401 181.208C82.9629 181.128 83.5754 181.03 84.192 180.917C84.8072 180.798 85.4186 180.659 86.0185 180.495C86.6236 180.324 87.2209 180.147 87.8093 179.924C88.399 179.708 88.9758 179.461 89.5359 179.162C89.8048 179.008 90.0778 178.84 90.3236 178.636C90.4458 178.531 90.568 178.426 90.6643 178.292C90.713 178.228 90.7605 178.157 90.778 178.073C90.8112 177.998 90.8209 177.908 90.7978 177.824L90.7651 177.831C90.7943 177.981 90.7071 178.127 90.6058 178.235C90.5057 178.349 90.3822 178.448 90.264 178.539C90.0066 178.718 89.7429 178.864 89.4558 178.994C88.8972 179.265 88.3206 179.479 87.7271 179.676C86.552 180.059 85.346 180.354 84.1351 180.589C82.9242 180.823 81.6954 181 80.4619 181.083C79.8393 181.129 79.2234 181.14 78.6039 181.097C78.2941 181.075 77.9819 181.041 77.6841 180.976C77.534 180.937 77.3826 180.892 77.247 180.823C77.1127 180.761 76.9774 180.658 76.9482 180.508L76.9155 180.514L76.9089 180.515Z" fill="#FFD601"/>
</g>
<path d="M60.5591 240.081C57.5686 240.769 52.8335 231.962 49.9795 220.42C47.1254 208.879 47.2218 198.966 50.2057 198.279L61.7868 195.594C64.7721 194.914 69.5058 203.714 72.3664 215.255C75.2217 226.803 75.1254 236.716 72.1402 237.396L60.5591 240.081Z" fill="#FCC203"/>
<g style="mix-blend-mode:multiply">
<path d="M59.9311 220.298L72.8757 217.43C74.4374 224.51 74.8325 230.755 74.0881 234.309L59.2829 237.598C59.0466 230.595 59.2833 224.525 59.9311 220.298Z" fill="#FCC203"/>
</g>
<g style="mix-blend-mode:screen">
<path d="M60.5677 240.127C60.8726 240.088 61.1612 239.93 61.3911 239.75C61.6262 239.562 61.8093 239.35 61.9754 239.121C62.2827 238.674 62.4948 238.192 62.6742 237.715C63.0317 236.757 63.2089 235.778 63.3599 234.805C63.6148 232.861 63.6605 230.924 63.5687 229.013C63.5031 227.097 63.2635 225.194 62.986 223.306C62.6887 221.421 62.2921 219.549 61.8574 217.691C61.3782 215.849 60.8585 214.007 60.2365 212.199C59.5949 210.395 58.9141 208.598 58.08 206.851C57.2524 205.103 56.3095 203.391 55.1739 201.771C54.5838 200.969 53.9688 200.178 53.1991 199.465C52.8141 199.125 52.4017 198.784 51.909 198.519C51.6588 198.384 51.3927 198.273 51.1028 198.214C50.8117 198.148 50.4835 198.137 50.1901 198.234L50.2091 198.333C50.7682 198.204 51.3016 198.433 51.7288 198.71C52.1559 198.988 52.5291 199.336 52.8643 199.699C53.528 200.426 54.0841 201.229 54.5956 202.046C55.6069 203.691 56.4241 205.42 57.1706 207.17C58.6387 210.682 59.7623 214.308 60.6567 217.978C61.5708 221.645 62.2714 225.366 62.6083 229.138C62.7642 231.029 62.8456 232.922 62.7126 234.829C62.6388 235.78 62.5193 236.74 62.2652 237.672C62.1382 238.138 61.9641 238.607 61.717 239.048C61.4594 239.472 61.0959 239.909 60.5316 240.046L60.5624 240.135L60.5677 240.127Z" fill="#FFD601"/>
</g>
<g style="mix-blend-mode:screen">
<path d="M70.3435 208.387L48.7305 214.428C47.9531 209.784 47.7201 205.707 48.0396 202.8L65.3305 197.97C67.0076 200.212 68.7859 203.887 70.3435 208.387Z" fill="#956419"/>
</g>
<path d="M60.5592 240.081C63.5444 239.401 63.6407 229.488 60.7854 217.94C57.9248 206.399 53.1976 197.597 50.2058 198.279C47.2219 198.966 47.1243 208.872 49.9796 220.42C52.8402 231.96 57.5752 240.768 60.5592 240.081Z" fill="#956419"/>
<path d="M65.9658 154.317L106.367 142.028L99.6092 117.24L58.4047 127.803L65.9658 154.317Z" fill="#FDD675"/>
<path d="M92.9381 146.042L93.2905 145.933L86.1307 120.089L85.7692 120.186L92.9381 146.042Z" fill="#4B4240"/>
<path d="M92.6239 146.137L92.971 146.036L85.8087 120.178L85.4447 120.262L92.6239 146.137Z" fill="#827372"/>
<path d="M80.1511 149.932L80.51 149.822L73.0921 123.417L72.7307 123.514L80.1511 149.932Z" fill="#4B4240"/>
<path d="M79.8382 150.033L80.1905 149.924L72.7701 123.506L72.4086 123.603L79.8382 150.033Z" fill="#827372"/>
<g style="mix-blend-mode:screen" opacity="0.51">
<path d="M65.9443 154.24L106.345 141.944L105.454 138.647L64.9405 150.706L65.9443 154.24Z" fill="#E6CDC7"/>
</g>
<g style="mix-blend-mode:multiply">
<path d="M56.9638 127.342L64.9897 155.484L107.763 142.396L100.63 116.2L56.9638 127.342ZM64.8896 140.842C63.398 135.596 63.6023 132.935 63.1802 130.301C63.0844 129.701 63.3769 129.108 63.9846 128.95L95.3107 120.782C95.9197 120.63 96.4799 120.963 96.6989 121.498C97.628 123.77 99.2652 126.121 100.473 130.532C101.672 134.931 101.401 137.53 101.729 139.857C101.812 140.425 101.508 140.993 100.904 141.171L70.079 150.417C69.4829 150.6 68.9333 150.252 68.6908 149.701C67.7352 147.502 66.2684 145.715 64.8909 140.848L64.8896 140.842Z" fill="#D7C0B7"/>
</g>
<g style="mix-blend-mode:multiply">
<path d="M66.0188 154.517L106.417 142.209L103.723 132.3C103.723 132.3 98.0744 137.917 85.2123 141.631C71.9725 145.534 63.0062 143.91 63.0062 143.91L66.0188 154.517Z" fill="#E6CDC7"/>
</g>
<g style="mix-blend-mode:multiply">
<path d="M59.8796 132.964L100.931 122.064L97.641 110.097L56.212 120.168L59.8796 132.964Z" fill="#E6CDC7"/>
</g>
<path d="M51.5914 119.799L64.1461 163.64L113.736 147.812L102.805 107.48L51.5914 119.799ZM60.1888 128.388L98.3399 118.538L104.634 141.562L67.1645 152.896L60.1888 128.388Z" fill="#302514"/>
<g style="mix-blend-mode:multiply">
<path d="M105.43 141.327L104.479 141.042L98.3316 118.533L60.6205 128.27L59.9925 127.693L98.9748 117.682L105.43 141.327Z" fill="#302514"/>
</g>
<path d="M67.4425 152.197L104.49 141.034L105.428 141.32L67.1624 152.89L59.9922 127.693L60.6255 128.263L67.4425 152.197Z" fill="#4C4241"/>
<g style="mix-blend-mode:multiply" opacity="0.49">
<path d="M113.147 145.611L63.4639 161.24L62.0453 156.231L111.91 141.015L113.147 145.611Z" fill="#302514"/>
</g>
<g style="mix-blend-mode:screen" opacity="0.49">
<path d="M104.286 112.884L53.2843 125.665L52.5235 123.035L103.627 110.465L104.286 112.884Z" fill="#302514"/>
</g>
<path d="M14.1102 159.855L36.4985 207.834L54.3244 213.161C54.3244 213.161 55.7653 214.464 56.5483 218.19C57.5664 223.025 56.5174 225.041 56.5174 225.041L33.7773 212.015L32.8278 211.39L32.5803 210.814L11.3438 161.104L14.1128 159.868L14.1102 159.855Z" fill="#774117"/>
<g style="mix-blend-mode:multiply">
<path d="M13.1232 160.297L33.9729 209.097L34.2217 209.681L35.1777 210.304L56.9784 222.792C56.8841 224.339 56.5242 225.04 56.5242 225.04L33.7841 212.013L32.8346 211.389L32.5871 210.812L11.3506 161.102L13.1245 160.304L13.1232 160.297Z" fill="#784131"/>
</g>
<g style="mix-blend-mode:screen" opacity="0.36">
<path d="M36.0883 208.484L13.3173 160.212L14.1118 159.861L36.5001 207.84L54.326 213.167C54.326 213.167 54.9111 213.699 55.5385 215.044L36.083 208.492L36.0883 208.484Z" fill="#D89170"/>
</g>
<path d="M7.00087 160.451C7.58672 163.475 10.5167 165.453 13.5471 164.866C16.5775 164.279 18.5565 161.349 17.9706 158.325C17.3848 155.302 14.4535 153.316 11.4231 153.903C8.39268 154.49 6.41376 157.42 7.00087 160.451Z" fill="#F5A604"/>
<g style="mix-blend-mode:screen">
<path d="M12.9796 155.103C12.6157 155.608 13.0402 156.537 13.9345 157.193C14.8276 157.841 15.8481 157.956 16.2132 157.457C16.5772 156.952 16.1513 156.016 15.2661 155.373C14.3783 154.716 13.3578 154.602 12.9861 155.101L12.9796 155.103Z" fill="#F5A604"/>
</g>
<g style="mix-blend-mode:multiply">
<path d="M9.15223 154.907C8.50085 156.032 8.23379 157.387 8.50009 158.762C9.0872 161.792 12.0172 163.771 15.0411 163.185C15.8985 163.019 16.6577 162.661 17.3104 162.175C16.5322 163.521 15.195 164.541 13.5456 164.86C10.5152 165.447 7.58523 163.468 6.99938 160.445C6.57712 158.265 7.48949 156.139 9.15096 154.901L9.15223 154.907Z" fill="#F5A604"/>
</g>
<path d="M151.323 195.659L159.925 192.77C159.925 192.77 165.61 214.262 165.493 215.201L164.813 216.637L157.03 220.589L150.643 197.651L151.323 195.659Z" fill="#8E432F"/>
<path d="M165.493 215.201C165.616 214.26 159.924 192.77 159.924 192.77L151.323 195.659L157.707 219.147L165.486 215.202L165.493 215.201Z" fill="#FDCE63"/>
<path d="M163.048 210.677C163.125 210.057 159.393 195.807 159.393 195.807L153.928 197.673L158.113 213.249L163.048 210.677Z" fill="#FDCE63"/>
<g style="mix-blend-mode:multiply">
<path d="M159.006 196.757L154.52 198.278L153.928 197.673L159.393 195.807C159.393 195.807 163.125 210.057 163.048 210.677L162.414 210.385C161.808 207.433 159.006 196.757 159.006 196.757Z" fill="#E0B75A"/>
</g>
<g style="mix-blend-mode:screen" opacity="0.77">
<path d="M154.519 198.272L158.358 212.515L162.418 210.371C162.688 210.502 162.916 210.593 163.046 210.67L158.112 213.242L153.926 197.667L154.519 198.272Z" fill="#FDCE63"/>
</g>
<path d="M158.189 199.197L156.224 199.816L159.258 209.835L160.99 209.031L158.189 199.197Z" fill="#3A3016"/>
<g style="mix-blend-mode:multiply">
<path d="M157.498 200.75L156.596 201.034L156.224 199.816L158.189 199.197L160.99 209.031L159.987 209.497L157.498 200.75Z" fill="#3A3016"/>
</g>
<path d="M135.114 206.88L99.6171 218.09L105.038 235.273L139.585 223.052L135.114 206.88Z" fill="#EAB601"/>
<g style="mix-blend-mode:multiply">
<path d="M101.747 218.601L106.203 232.698L137.923 221.48L139.586 223.052L105.038 235.273L99.6177 218.09L101.747 218.601Z" fill="#B9900F"/>
</g>
<g style="mix-blend-mode:screen">
<path d="M134.273 208.286L101.747 218.601L99.6171 218.09L135.114 206.88L139.585 223.052L137.922 221.48L134.273 208.286Z" fill="#EAB601"/>
</g>
<path d="M112.497 227.927L132.162 221.713L129.162 212.189L110.013 218.962L112.497 227.927Z" fill="#EAB601"/>
<g style="mix-blend-mode:multiply">
<path d="M130.985 221.425L128.515 213.618L110.935 219.829L110.013 218.962L129.162 212.189L132.162 221.713L130.985 221.425Z" fill="#B9900F"/>
</g>
<g style="mix-blend-mode:screen">
<path d="M112.957 227.145L130.985 221.425L132.162 221.713L112.497 227.927L110.013 218.962L110.935 219.829L112.957 227.145Z" fill="#EAB601"/>
</g>
<path d="M114.289 225.78L129.697 221.185L127.562 214.828L112.544 219.789L114.289 225.78Z" fill="#DA6313"/>
<path d="M115.109 224.337L128.226 220.119L127.066 216.479L113.964 220.634L115.109 224.337Z" fill="#462410"/>
<g style="mix-blend-mode:multiply">
<path d="M125.919 218.725L114.493 222.352L113.964 220.634L127.066 216.479L128.226 220.119L126.531 220.658L125.919 218.725Z" fill="#462410"/>
</g>
<path d="M65.7907 73.5668C59.4263 40.7165 34.7721 25.4871 8.83352 30.5124C-17.1051 35.5378 -25.1738 60.0677 -18.8094 92.918L65.7907 73.5668Z" fill="#EB6D4C"/>
<g style="mix-blend-mode:multiply">
<path d="M-11.0723 91.1404L-18.8103 92.9112C-25.1735 60.0674 -17.1061 35.5309 8.83254 30.5056C9.95831 30.2875 11.0917 30.1086 12.2131 29.9729C-10.2036 36.8081 -17.0081 60.2918 -11.0723 91.1404Z" fill="#B9877E"/>
</g>
<path d="M15.1005 36.0822C34.8866 32.2488 54.3516 45.8962 62.0379 74.4228L-6.74174 90.1521C-10.9953 60.9062 -4.57437 39.894 15.1005 36.0822Z" fill="#BF4228"/>
<path opacity="0.57" d="M-7.6168 82.6547C-7.70822 81.5519 -7.78401 80.4597 -7.8429 79.3846L13.0326 80.929C13.1797 80.3912 13.3437 79.8705 13.5298 79.3591L-7.99492 74.8845C-8.00084 73.6973 -7.99641 72.5284 -7.95418 71.3793L13.9785 78.24C14.1893 77.7509 14.4302 77.2764 14.6826 76.8269L-7.63563 66.4689C-7.50349 65.1531 -7.33882 63.8649 -7.13382 62.6096L15.2966 75.8251C15.5856 75.3888 15.8993 74.9749 16.2311 74.5847L-5.97565 57.2309C-5.57474 55.7951 -5.12716 54.4249 -4.61327 53.1166L17.0181 73.7395C17.3838 73.3835 17.7728 73.0432 18.1826 72.7397L-1.95281 47.7456C-1.13023 46.4183 -0.225921 45.1973 0.770675 44.067L19.1305 72.0943C19.5544 71.8288 20.0043 71.5923 20.4777 71.3715L5.37009 40.0114C6.62518 39.1638 7.97108 38.4345 9.41307 37.8156L21.5367 70.9491C22.0071 70.7832 22.4891 70.6423 22.9971 70.5303L15.2983 36.0506C16.8168 35.7564 18.3541 35.5944 19.8661 35.512L24.1267 70.3318C24.6266 70.2485 25.137 70.1836 25.6405 70.154L25.9616 35.7436C27.4667 35.9409 28.945 36.2453 30.4083 36.6477L26.794 70.1139C27.3223 70.1066 27.8438 70.1346 28.3691 70.1822L36.0128 38.7264C37.3283 39.3476 38.6185 40.0483 39.8794 40.843L29.5528 70.3332C30.0923 70.4188 30.6369 70.5306 31.1681 70.6789L44.5096 44.2718C45.5528 45.1698 46.5812 46.1318 47.5675 47.1563L32.3818 71.0549C32.9285 71.2478 33.4685 71.476 34.0004 71.7328L51.1068 51.2989C51.8956 52.3209 52.6618 53.4016 53.3885 54.5239L35.2008 72.3559C35.7429 72.6651 36.2782 73.0096 36.7977 73.3775L55.9966 58.942C56.5797 60.0242 57.1431 61.1442 57.6775 62.2902L37.9716 74.2842C39.5081 75.5552 40.9435 77.1106 42.223 78.9475L12.1611 85.8243C12.2787 84.5384 12.4691 83.3131 12.7219 82.1641L-7.61807 82.6482L-7.6168 82.6547Z" fill="url(#paint0_linear_1480_915)"/>
<path d="M11.7183 37.5864C10.226 37.8756 8.80764 38.2658 7.4619 38.7506C9.74307 37.5209 12.2863 36.6275 15.1008 36.0823C34.8869 32.2489 54.3519 45.8963 62.0382 74.4228L58.4611 75.2381C50.6426 47.1854 31.3408 33.7848 11.7183 37.5864Z" fill="#6E2418"/>
<path d="M0.176821 74.065C0.20421 74.0323 0.283806 73.955 0.474491 73.8552L0.632504 73.762L0.428083 72.9191L-3.46624 73.8765L-3.25396 74.7246L-3.07092 74.7216C-2.88002 74.7238 -2.77275 74.7498 -2.70866 74.764C-2.65109 74.7796 -2.59743 74.8095 -2.56204 74.85C-2.52401 74.9035 -2.48069 74.9832 -2.44517 75.0916C-2.39782 75.2249 -2.35826 75.387 -2.30555 75.5804L-0.553049 82.7012C-0.464747 83.037 -0.419757 83.2932 -0.399798 83.4592C-0.387696 83.62 -0.387412 83.756 -0.412017 83.8698C-0.432729 83.9692 -0.486115 84.0752 -0.56564 84.1865C-0.658234 84.3005 -0.81221 84.4472 -1.02889 84.6203L-1.21687 84.7671L-0.426188 85.852L-0.23161 85.7378C0.320771 85.4085 0.775063 85.065 1.12341 84.7021C1.4274 84.389 1.65158 84.0512 1.79859 83.7018C1.93004 83.4099 1.98558 83.079 1.98487 82.7391C1.9868 82.4122 1.93235 82.0083 1.80581 81.5169L0.195698 74.9658C0.135069 74.7332 0.105934 74.5555 0.0900094 74.4431C0.0715137 74.3516 0.0818004 74.2679 0.0960491 74.2038C0.106405 74.1541 0.131149 74.1083 0.1755 74.0585L0.176821 74.065Z" fill="#FDD675"/>
<path d="M10.6857 79.2454C10.5953 79.2025 10.4998 79.1334 10.4342 79.0446C10.3647 78.9702 10.248 78.7966 10.0459 78.4361L5.99784 71.5005L3.91737 72.0095L2.96801 80.0983C2.93076 80.4187 2.8803 80.6738 2.82574 80.8413C2.77771 81.0074 2.71 81.1436 2.62784 81.2418C2.55742 81.3308 2.46864 81.3964 2.35366 81.4332L2.15248 81.5147L2.36218 82.3838L5.61485 81.5833L5.40251 80.7012L5.17379 80.7475C4.78428 80.8058 4.66498 80.6531 4.60824 80.4061C4.56083 80.2388 4.54219 80.0794 4.5458 79.929C4.54544 79.759 4.55163 79.5877 4.56955 79.4072L4.61688 78.9012L7.06064 78.3051L7.30474 78.7386C7.43203 78.9646 7.5318 79.1553 7.60403 79.3107C7.66709 79.4544 7.71444 79.5877 7.74607 79.7105C7.78696 79.8791 7.7335 79.9511 7.71918 79.9812C7.66051 80.0611 7.54692 80.1385 7.3823 80.199L7.1798 80.2739L7.39604 81.1416L11.4655 80.1421L11.2519 79.2874L11.0571 79.2996C10.9015 79.3038 10.776 79.2884 10.6857 79.2454ZM6.43847 77.1453L4.72916 77.5725L5.01727 74.6575L6.43847 77.1453Z" fill="#FDD675"/>
<path d="M14.7926 69.3484C14.4279 69.3949 14.0006 69.4677 13.5536 69.5785C12.6402 69.804 11.9049 70.2043 11.3517 70.765C10.7867 71.335 10.4247 72.0339 10.2708 72.854C10.1143 73.6611 10.1619 74.5697 10.3993 75.542C10.6564 76.5783 11.0086 77.4117 11.4675 78.0331C11.9291 78.6676 12.5235 79.0848 13.2313 79.2886C13.9168 79.4833 14.7497 79.4645 15.6893 79.2337C15.8186 79.2008 15.9415 79.1692 16.0695 79.1297C16.3662 79.0493 16.6575 78.9428 16.9293 78.8402C17.3212 78.693 17.7431 78.492 18.2068 78.2623L18.3727 78.1743L17.7806 75.7841L16.4646 76.1046L16.4768 76.2994C16.4789 76.6799 16.4521 76.9846 16.3937 77.2004C16.3392 77.4019 16.2493 77.5629 16.111 77.6861C15.9779 77.8014 15.7924 77.8934 15.5676 77.9592L15.4762 77.9777C14.9469 78.1187 14.485 77.9536 14.0696 77.4799C13.6266 76.9709 13.2509 76.1218 12.97 74.9678C12.6614 73.7107 12.5979 72.7237 12.7755 72.0212C12.9324 71.3841 13.2899 70.999 13.8491 70.8383L13.9145 70.8251C14.2176 70.7434 14.4766 70.7794 14.7018 70.9176C14.9374 71.074 15.1721 71.3598 15.3743 71.7883L15.4571 71.962L16.7652 71.6363L16.2047 69.335L16.0269 69.3301C15.6019 69.314 15.1966 69.3279 14.8175 69.3706L14.7926 69.3484Z" fill="#FDD675"/>
<path d="M27.4941 75.1466C27.4235 75.1337 27.341 75.0959 27.2481 75.0399C27.1473 74.9786 27.0202 74.8887 26.8814 74.7739C26.7334 74.6474 26.5435 74.4818 26.309 74.2639L23.305 71.4499L24.6334 68.9367C24.8001 68.6174 24.9408 68.3713 25.0516 68.2128C25.1546 68.0492 25.2537 67.9339 25.3412 67.8618C25.4286 67.7897 25.537 67.7202 25.6741 67.6585L25.8544 67.5744L25.6447 66.7054L21.8419 67.6442L22.0634 68.5381L22.2921 68.4919C22.4267 68.451 22.53 68.4574 22.6059 68.4964C22.6439 68.516 22.6975 68.5459 22.72 68.657C22.7438 68.7746 22.7545 68.8949 22.7325 69.0218C22.7132 69.1617 22.6522 69.3645 22.5572 69.6014C22.4597 69.8591 22.2788 70.2426 22.0314 70.7347C21.7853 71.2334 21.6173 71.5463 21.5221 71.6811C21.4504 71.7976 21.3656 71.8828 21.2821 71.9405C21.2233 71.9864 21.1214 72.0206 20.9934 72.0601L20.4765 69.9744C20.4158 69.7418 20.3932 69.5627 20.3708 69.4516C20.3575 69.3523 20.3613 69.2699 20.3755 69.2058C20.3924 69.1548 20.4119 69.1168 20.4615 69.0592C20.4889 69.0265 20.5698 68.9557 20.7592 68.8494L20.925 68.7614L20.7193 67.912L16.8263 68.8759L17.0372 69.7175L17.2216 69.721C17.3772 69.7168 17.4962 69.7335 17.5839 69.7634C17.648 69.7777 17.7016 69.8076 17.7305 69.8494C17.775 69.9016 17.8184 69.9813 17.8539 70.0897C17.8999 70.2164 17.9408 70.385 17.987 70.5797L19.3755 76.203C19.4164 76.4056 19.4508 76.5755 19.4772 76.7061C19.4997 76.8172 19.4972 76.9062 19.4843 76.9768C19.4687 77.0343 19.4427 77.0736 19.397 77.1169C19.3344 77.1771 19.226 77.2467 19.0915 77.3215L18.9269 77.416L19.1379 78.2575L23.0322 77.3002L22.8199 76.4521L22.6369 76.4551C22.5205 76.4514 22.4172 76.4451 22.3387 76.4269C22.2746 76.4127 22.2236 76.3958 22.1843 76.3697C22.1516 76.3423 22.1175 76.3084 22.0873 76.2601C22.0585 76.2183 22.023 76.1438 21.9822 76.0093C21.9362 75.8825 21.9019 75.7466 21.865 75.5976L21.2874 73.2454C21.3724 73.2282 21.4273 73.2307 21.4574 73.245C21.528 73.2579 21.6118 73.3022 21.6995 73.3661C21.8043 73.447 21.9366 73.563 22.1016 73.7065L23.4785 74.9994C23.7824 75.2916 23.992 75.4873 24.0969 75.6021C24.2253 75.7326 24.2646 75.7927 24.2765 75.8175C24.2988 75.8606 24.3146 75.905 24.3356 75.9756C24.3356 75.9756 24.303 76.0162 24.1711 76.0701L23.9764 76.1502L24.1913 77.0114L28.1954 76.0251L27.9937 75.1952L27.8158 75.1904C27.6864 75.1893 27.5804 75.1699 27.5019 75.1518L27.4941 75.1466Z" fill="#FDD675"/>
<path d="M32.7405 65.6383C32.0509 65.356 31.1199 65.3606 29.9739 65.6467L25.9436 66.6383L26.1546 67.4799L26.339 67.4835C26.5233 67.487 26.6358 67.5051 26.6999 67.5193C26.7588 67.5414 26.8111 67.5648 26.8544 67.6105C26.8989 67.6627 26.9357 67.7437 26.9712 67.8522C27.0173 67.9789 27.0581 68.1475 27.1043 68.3422L28.4928 73.9654C28.5468 74.1654 28.5812 74.3353 28.5959 74.4751C28.617 74.5797 28.6159 74.6751 28.5964 74.7471C28.5861 74.7968 28.56 74.8361 28.5143 74.8793C28.4452 74.9409 28.3433 75.0091 28.2088 75.0839L28.0508 75.1771L28.2552 76.02L32.2332 75.0389L32.0248 74.1764L31.8235 74.1899C31.5947 74.2021 31.4835 74.1906 31.4273 74.1816C31.3619 74.1608 31.3095 74.1374 31.2689 74.1048C31.2362 74.0774 31.1981 74.0238 31.1522 73.9311C31.1246 73.8619 31.0667 73.7103 30.9823 73.3601L30.5287 71.5201C30.7574 71.4739 31.0306 71.4118 31.3351 71.3367C32.093 71.1494 32.7096 70.8683 33.1743 70.5091C33.6429 70.1355 33.9727 69.6811 34.1364 69.1447C34.2935 68.6096 34.3053 68.0291 34.1537 67.4136C33.9321 66.5197 33.4576 65.9219 32.7392 65.6318L32.7405 65.6383ZM29.4434 67.0939C29.5715 67.0544 29.7335 67.0148 29.9152 66.9713C30.2523 66.8895 30.5399 66.8654 30.7741 66.9133C30.986 66.9521 31.1666 67.072 31.3148 67.2665C31.4865 67.4766 31.6245 67.7888 31.7221 68.2044C31.8289 68.6317 31.8505 68.9743 31.8027 69.2424C31.7561 69.4831 31.6402 69.6834 31.4587 69.8289C31.2603 69.9914 30.9599 70.1202 30.5666 70.2269L30.2359 70.3074L29.4369 67.0952L29.4434 67.0939Z" fill="#FDD675"/>
<path d="M38.3362 63.4731C37.462 63.6907 36.7423 64.0674 36.1995 64.6125C35.6424 65.1536 35.2999 65.8486 35.1447 66.6622C35 67.4601 35.0503 68.3817 35.3008 69.3854C35.6806 70.9274 36.317 72.0231 37.1851 72.6502C38.0677 73.2811 39.2003 73.4331 40.5411 73.1008C40.6195 73.0849 40.6966 73.0625 40.7737 73.0401C41.3134 72.8834 41.8072 72.668 42.2184 72.3808C42.7041 72.0581 43.0903 71.6468 43.3717 71.1546C43.6531 70.6624 43.8244 70.0632 43.874 69.4002C43.9249 68.7437 43.8449 67.9777 43.6392 67.1282C43.2634 65.6058 42.623 64.5245 41.7431 63.9066C40.8488 63.2848 39.7097 63.1342 38.3427 63.4718L38.3362 63.4731ZM41.041 71.4353C40.8936 71.6147 40.7017 71.742 40.4456 71.8209L40.3868 71.8328C39.8301 71.9726 39.3525 71.7971 38.9461 71.3011C38.4979 70.7659 38.1089 69.8515 37.7977 68.5813C37.4971 67.3633 37.4232 66.426 37.567 65.7916C37.6966 65.2212 38.0083 64.8793 38.5101 64.7371L38.5755 64.7239C38.944 64.629 39.2592 64.6741 39.5577 64.8722C39.8785 65.0794 40.163 65.4436 40.4229 65.9556C40.6934 66.4859 40.9367 67.1849 41.1477 68.0265C41.273 68.5453 41.359 69.038 41.407 69.4772C41.4484 69.9178 41.4453 70.3061 41.3845 70.6449C41.3277 70.9692 41.2092 71.2244 41.0476 71.434L41.041 71.4353Z" fill="#FDD675"/>
<path d="M42.8468 62.4729L43.5259 65.2263L44.834 64.9006L44.831 64.7176C44.8306 64.5136 44.8419 64.3005 44.8636 64.0716C44.8828 63.8637 44.9151 63.6871 44.9763 63.5523C45.0284 63.4398 45.0975 63.3442 45.1928 63.2773C45.245 63.2327 45.3612 63.1684 45.5729 63.1052L45.9741 63.0037L47.5222 69.2817C47.5697 69.4829 47.5975 69.6541 47.6252 69.7914C47.6477 69.9025 47.64 69.9992 47.6258 70.0633C47.6037 70.1222 47.5737 70.1759 47.5137 70.2152C47.4379 70.2781 47.3217 70.3424 47.1663 70.4147L46.9782 70.4935L47.1931 71.3547L51.2677 70.3473L51.0528 69.4861L50.8397 69.5088C50.7012 69.53 50.5927 69.5315 50.5207 69.5121C50.4292 69.4966 50.3781 69.4797 50.3611 69.4627C50.3245 69.4497 50.2969 69.4145 50.255 69.3753C50.2353 69.3453 50.1895 69.2866 50.1526 69.1716C50.1092 69.0579 50.0631 68.8972 50.013 68.6829L48.4636 62.3984L48.6962 62.3377C48.8596 62.3047 48.9968 62.277 49.0974 62.2702C49.1903 62.2583 49.2609 62.2712 49.3237 62.2789C49.3812 62.2945 49.448 62.3218 49.503 62.3583C49.571 62.3921 49.6365 62.4469 49.7046 62.5148C49.7741 62.5891 49.8475 62.6831 49.9249 62.7967C50.0049 62.9234 50.1191 63.118 50.27 63.3935L50.3632 63.5515L51.6634 63.2206L50.9843 60.4672L42.8337 62.4755L42.8468 62.4729Z" fill="#FDD675"/>
<g style="mix-blend-mode:screen" opacity="0.59">
<path d="M163.254 161.443C159.89 162.448 156.536 163.505 153.187 164.548L148.16 166.12L143.149 167.736C136.464 169.893 129.773 172.018 123.118 174.265C116.461 176.498 109.788 178.681 103.145 180.953L83.2243 187.807L83.6271 187.783C80.5899 187.109 77.5458 186.503 74.5031 185.87L65.3698 183.979C62.3258 183.34 59.2711 182.75 56.2204 182.146C53.1762 181.541 50.1255 180.937 47.0615 180.369L47.0453 180.46L83.451 188.591L83.4706 188.588L83.4903 188.584L163.29 161.525L163.259 161.436L163.254 161.443Z" fill="#F4A790"/>
</g>
<g style="mix-blend-mode:screen" opacity="0.59">
<path d="M111.253 93.7423C107.839 94.4514 104.436 95.1853 101.036 95.9323L90.8265 98.1615L70.4475 102.755L50.1028 107.491C43.3216 109.083 36.5341 110.643 29.7734 112.306L28.9432 112.507L29.1554 113.322L33.4852 130.132L35.6561 138.533L37.8924 146.921C39.3832 152.513 40.8544 158.109 42.3715 163.696C43.9134 169.272 45.4108 174.862 46.9986 180.429L47.0902 180.411L30.0563 113.1L29.9902 113.214L111.277 93.8327L111.259 93.7411L111.253 93.7423Z" fill="#F4A790"/>
</g>
<g style="mix-blend-mode:screen" opacity="0.46">
<path d="M24.3957 306.982L9.41897 301.64L-38.7261 92.675L-21.4873 92.7985C-11.048 148.539 7.12552 241.116 24.3957 306.982Z" fill="#C35C40"/>
</g>
<path d="M92.7184 134.304C93.0241 134.314 93.3297 134.3 93.6352 134.296C93.7637 134.294 93.8922 134.273 94.0197 134.255C94.2652 134.22 94.5135 134.204 94.7572 134.157C95.3726 134.039 95.9495 133.826 96.46 133.453C96.4804 133.438 96.5002 133.422 96.5204 133.407C96.6785 133.286 96.8113 133.147 96.9104 132.969C97.0232 132.768 97.1327 132.567 97.1906 132.341C97.2485 132.116 97.2771 131.89 97.2334 131.658C97.21 131.535 97.1628 131.422 97.0942 131.316C96.961 131.112 96.7709 131.035 96.5338 131.062C96.3557 131.082 96.1902 131.145 96.0302 131.222C95.7024 131.38 95.4076 131.589 95.1287 131.821C95.041 131.893 94.9436 131.933 94.8281 131.919C94.8056 131.916 94.7829 131.912 94.7619 131.904C94.3349 131.746 93.9003 131.61 93.4711 131.459C93.1675 131.352 92.8598 131.262 92.5429 131.204C92.3337 131.166 92.1231 131.14 91.91 131.143C91.7754 131.145 91.6423 131.159 91.513 131.198C91.3968 131.234 91.2973 131.296 91.2132 131.383C91.0954 131.566 91.0575 131.771 91.058 131.983C91.0589 132.37 91.1726 132.73 91.3379 133.074C91.3826 133.168 91.4231 133.263 91.467 133.356C91.6366 133.718 91.8865 134.003 92.2527 134.176C92.4005 134.246 92.5581 134.28 92.7184 134.304L92.7184 134.304Z" fill="#FBFBFB"/>
<path d="M92.7183 134.304C92.8514 134.456 92.9837 134.608 93.1175 134.76C93.2296 134.886 93.3383 135.016 93.4568 135.136C93.4673 135.147 93.4778 135.158 93.4896 135.168C93.6008 135.255 93.7116 135.343 93.824 135.429C94.0464 135.599 94.2992 135.692 94.5766 135.721C94.6041 135.724 94.6317 135.725 94.6595 135.727C94.7214 135.759 94.7882 135.753 94.8531 135.747C95.1458 135.719 95.4229 135.637 95.687 135.506C96.1839 135.26 96.6074 134.917 96.9805 134.513C97.0915 134.393 97.2173 134.345 97.3666 134.319C97.704 134.259 98.0205 134.145 98.3049 133.948C98.7413 133.646 98.9338 133.222 98.9312 132.701C98.9299 132.441 98.8812 132.188 98.7918 131.944C98.6807 131.639 98.5747 131.333 98.4725 131.026C98.4111 130.841 98.31 130.678 98.2203 130.508C98.0569 130.2 97.8917 129.892 97.7248 129.585C97.7044 129.548 97.6996 129.509 97.7035 129.468C97.7347 129.135 97.7496 128.801 97.7415 128.467C97.7351 128.209 97.7157 127.952 97.6567 127.699C97.6375 127.661 97.6226 127.62 97.62 127.577C97.587 127.531 97.5757 127.475 97.5537 127.425C97.5082 127.32 97.4564 127.219 97.362 127.148C97.2342 127.052 97.0912 127.04 96.9445 127.084C96.7783 127.133 96.6448 127.236 96.5296 127.365C96.3477 127.567 96.205 127.795 96.0851 128.039C96.0171 128.177 95.9535 128.317 95.9011 128.462C95.8907 128.491 95.8781 128.503 95.8453 128.493C95.7388 128.462 95.6317 128.432 95.5238 128.405C95.4866 128.396 95.4847 128.372 95.4805 128.345C95.456 128.184 95.4321 128.024 95.407 127.864C95.4033 127.84 95.4064 127.813 95.3857 127.794C95.3574 127.825 95.3711 127.861 95.376 127.895C95.3946 128.025 95.4157 128.155 95.4348 128.285C95.4447 128.353 95.44 128.357 95.3738 128.342C95.3218 128.331 95.2725 128.309 95.2204 128.299C95.1597 128.286 95.1378 128.254 95.1419 128.192C95.1539 128.007 95.1551 127.823 95.1543 127.638C95.1535 127.423 95.139 127.207 95.1089 126.995C95.0806 126.797 95.0414 126.596 94.9399 126.417C94.9163 126.382 94.8937 126.346 94.8712 126.31C94.8628 126.298 94.8527 126.288 94.8433 126.276L94.8437 126.277C94.8391 126.274 94.837 126.271 94.8371 126.267C94.8373 126.264 94.838 126.262 94.8391 126.261C94.8242 126.252 94.807 126.245 94.7951 126.233C94.7196 126.156 94.635 126.175 94.5497 126.209C94.5022 126.228 94.4623 126.26 94.4247 126.294C94.3201 126.388 94.2439 126.504 94.1748 126.624C93.9521 127.012 93.8019 127.43 93.6692 127.855C93.6519 127.911 93.6326 127.966 93.6173 128.022C93.6081 128.055 93.5933 128.064 93.5578 128.058C93.4708 128.043 93.3832 128.036 93.2946 128.05C93.2282 128.059 93.1673 128.083 93.1114 128.118C92.8095 128.305 92.5366 128.528 92.2944 128.788C92.1927 128.898 92.095 129.01 92.0085 129.131C91.796 129.427 91.6207 129.744 91.4913 130.087C91.3872 130.362 91.3092 130.644 91.2581 130.933C91.2319 131.081 91.2111 131.231 91.2132 131.383C91.2448 131.386 91.2641 131.364 91.2853 131.346C91.4231 131.231 91.587 131.188 91.7615 131.174C92.2742 131.132 92.7647 131.247 93.2444 131.404C93.7467 131.569 94.2484 131.736 94.7446 131.919C94.9002 131.977 95.0334 131.927 95.1528 131.827C95.3731 131.644 95.605 131.477 95.8548 131.336C96.0608 131.22 96.2744 131.121 96.5104 131.085C96.7726 131.044 96.9692 131.142 97.104 131.37C97.2133 131.556 97.245 131.758 97.2306 131.97C97.2067 132.321 97.0789 132.633 96.9063 132.939C96.7168 133.274 96.4196 133.474 96.1032 133.657C95.7346 133.869 95.3358 134.004 94.9216 134.102C94.5751 134.183 94.2213 134.205 93.8713 134.253C93.5182 134.301 93.1596 134.282 92.8032 134.286C92.7743 134.287 92.7418 134.275 92.7186 134.304L92.7183 134.304Z" fill="#E78C19"/>
<path d="M97.6389 127.696C97.7114 128.055 97.727 128.418 97.7202 128.783C97.7157 129.02 97.7025 129.257 97.6784 129.494C97.6744 129.533 97.688 129.562 97.7045 129.593C97.8863 129.932 98.0634 130.273 98.2524 130.607C98.379 130.831 98.4639 131.07 98.547 131.312C98.6218 131.529 98.6993 131.746 98.7752 131.962C98.8997 132.318 98.9521 132.683 98.8767 133.059C98.8097 133.393 98.6398 133.663 98.3735 133.874C98.1684 134.036 97.9349 134.142 97.6871 134.221C97.5105 134.277 97.3287 134.308 97.1477 134.344C97.1124 134.35 97.0897 134.368 97.067 134.393C96.7963 134.696 96.4972 134.968 96.1636 135.201C95.9327 135.362 95.6887 135.499 95.4235 135.597C95.1766 135.688 94.9229 135.738 94.6588 135.728C94.6651 135.736 94.6703 135.745 94.6781 135.751C95.0463 136.02 95.4543 136.171 95.9148 136.162C96.2257 136.155 96.5191 136.074 96.8004 135.945C97.2531 135.738 97.638 135.438 97.9767 135.076C98.01 135.041 98.0449 135.023 98.0916 135.013C98.3789 134.956 98.6417 134.843 98.8665 134.652C99.1612 134.401 99.3102 134.075 99.3549 133.696C99.3831 133.457 99.3561 133.222 99.3143 132.987C99.2316 132.524 99.0752 132.084 98.8974 131.65C98.71 131.194 98.494 130.751 98.2547 130.32C98.2357 130.286 98.2251 130.251 98.2213 130.212C98.1791 129.787 98.1237 129.363 98.0439 128.942C97.969 128.547 97.8753 128.156 97.7163 127.784C97.6944 127.733 97.6688 127.684 97.645 127.634C97.6087 127.651 97.6337 127.674 97.6387 127.696L97.6389 127.696Z" fill="#3C2D0C"/>
<path d="M90.5301 128.365C90.5375 128.364 90.5451 128.363 90.5526 128.362C90.6732 128.339 90.7096 128.27 90.6593 128.159C90.6006 128.029 90.5028 127.929 90.4008 127.835C90.0427 127.503 89.6326 127.251 89.1851 127.059C89.1315 127.036 89.0756 127.021 89.0176 127.012C88.8989 126.995 88.8024 127.035 88.731 127.13C88.6582 127.226 88.6094 127.335 88.5912 127.454C88.5764 127.55 88.6019 127.639 88.6748 127.711C88.7296 127.765 88.793 127.807 88.8604 127.841C89.1757 128.004 89.4998 128.146 89.8388 128.251C90.0346 128.312 90.2323 128.366 90.4394 128.37C90.4696 128.371 90.4999 128.368 90.5301 128.367C90.53 128.367 90.53 128.366 90.53 128.365L90.5301 128.365Z" fill="#FF000C"/>
<path d="M92.2163 125.391C92.2777 125.755 92.3361 126.048 92.4389 126.329C92.4779 126.436 92.5218 126.541 92.5903 126.634C92.6949 126.775 92.7952 126.769 92.8769 126.613C92.9314 126.509 92.9622 126.397 92.986 126.282C93.0434 126.007 93.0619 125.727 93.0585 125.446C93.0559 125.228 93.0404 125.012 93.0034 124.797C92.9943 124.744 92.9764 124.694 92.9535 124.646C92.902 124.537 92.8139 124.481 92.6964 124.473C92.5815 124.465 92.4688 124.482 92.3615 124.524C92.2616 124.564 92.2061 124.642 92.1828 124.744C92.1652 124.822 92.1645 124.901 92.1734 124.978C92.1919 125.139 92.1976 125.301 92.2161 125.391L92.2163 125.391Z" fill="#FF000C"/>
<path d="M91.4577 126.853C91.4208 126.617 91.3409 126.394 91.2475 126.175C91.1322 125.905 90.9944 125.647 90.8265 125.405C90.7844 125.344 90.738 125.288 90.6767 125.246C90.589 125.185 90.4951 125.174 90.3956 125.211C90.3191 125.24 90.2518 125.285 90.1869 125.333C90.0265 125.454 89.9949 125.583 90.0727 125.773C90.113 125.871 90.1722 125.96 90.2286 126.05C90.4178 126.353 90.6237 126.643 90.8687 126.904C90.9604 127.002 91.0572 127.095 91.1689 127.17C91.2111 127.199 91.2546 127.225 91.3041 127.238C91.3884 127.26 91.4421 127.229 91.4662 127.146C91.4819 127.092 91.4823 127.036 91.4769 126.98C91.4729 126.938 91.4645 126.895 91.458 126.853L91.4577 126.853Z" fill="#FF000C"/>
<path d="M94.9213 126.406C95.0083 126.596 95.0578 126.797 95.0861 127.003C95.1231 127.271 95.1369 127.541 95.1323 127.811C95.1299 127.955 95.1233 128.098 95.1174 128.242C95.1161 128.273 95.1189 128.296 95.1548 128.305C95.2571 128.331 95.3587 128.36 95.4724 128.391C95.4425 128.186 95.4139 127.99 95.3853 127.794C95.3515 127.61 95.3138 127.426 95.2672 127.245C95.1977 126.976 95.1186 126.709 94.9832 126.464C94.9686 126.437 94.9512 126.412 94.935 126.387C94.9205 126.386 94.9133 126.391 94.9211 126.406L94.9213 126.406Z" fill="#3C2D0C"/>
<path d="M92.457 127.268C92.485 127.446 92.6465 127.564 92.8247 127.537C93.0033 127.51 93.129 127.341 93.1017 127.165C93.0745 126.988 92.9025 126.864 92.7257 126.892C92.5449 126.921 92.4282 127.084 92.4572 127.268L92.457 127.268Z" fill="#FF000C"/>
<path d="M91.4013 128.491C91.3735 128.312 91.2051 128.186 91.0276 128.218C90.8358 128.253 90.7333 128.423 90.756 128.588C90.7803 128.765 90.9514 128.892 91.1284 128.864C91.3093 128.837 91.4293 128.673 91.4013 128.491L91.4013 128.491Z" fill="#FF000C"/>
<path d="M91.3517 127.688C91.3782 127.87 91.5417 127.994 91.7202 127.966C91.8883 127.94 92.0262 127.788 91.9953 127.593C91.9632 127.391 91.7903 127.3 91.6294 127.319C91.4481 127.341 91.3179 127.525 91.3517 127.688Z" fill="#FF000C"/>
<path d="M97.0002 129.512C97.1062 129.498 97.1445 129.465 97.1574 129.361C97.1956 129.053 97.2312 128.745 97.2301 128.434C97.2297 128.305 97.2128 128.177 97.1897 128.05C97.1773 127.982 97.1481 127.921 97.1133 127.862C97.0726 127.793 97.0077 127.754 96.9376 127.724C96.8602 127.691 96.7889 127.717 96.7238 127.761C96.6498 127.812 96.595 127.882 96.5441 127.954C96.4519 128.085 96.3911 128.232 96.3206 128.375C96.2444 128.529 96.172 128.684 96.0911 128.836C96.031 128.949 96.0633 129.057 96.1381 129.153C96.2143 129.251 96.3192 129.313 96.4283 129.367C96.583 129.444 96.7424 129.506 96.9175 129.517C96.9301 129.517 96.9427 129.519 96.9552 129.518C96.9703 129.517 96.9851 129.514 97.0002 129.511L97.0002 129.512Z" fill="#EFB99D"/>
<path d="M94.3855 128.393C94.5995 128.372 94.6971 128.19 94.6916 128.007C94.6873 127.869 94.671 127.731 94.6608 127.592C94.6484 127.424 94.636 127.256 94.6251 127.087C94.62 127.008 94.5974 126.933 94.5745 126.858C94.5391 126.743 94.4525 126.761 94.3846 126.813C94.3283 126.856 94.291 126.919 94.2596 126.983C94.2058 127.091 94.1594 127.203 94.121 127.319C94.054 127.52 93.9985 127.725 93.919 127.923C93.901 127.967 93.8898 128.014 93.8857 128.062C93.874 128.197 93.9395 128.304 94.0662 128.354C94.1691 128.394 94.275 128.412 94.3855 128.393L94.3855 128.393Z" fill="#EFB99D"/>
<path d="M95.9097 130.429C95.8496 130.177 95.7096 129.986 95.4722 129.873C95.4311 129.854 95.3868 129.843 95.341 129.838C95.1884 129.822 95.0735 129.911 95.0536 130.063C95.0418 130.153 95.0576 130.239 95.0914 130.323C95.1673 130.51 95.2908 130.655 95.4734 130.746C95.5467 130.782 95.6245 130.802 95.7081 130.788C95.8015 130.772 95.8637 130.72 95.8959 130.632C95.9199 130.566 95.9218 130.499 95.9097 130.429Z" fill="#FBFBFB"/>
<path d="M92.7285 129.983C92.8457 129.969 92.9504 129.933 93.0443 129.869C93.2249 129.748 93.2316 129.59 93.0595 129.457C92.7963 129.254 92.4522 129.306 92.2652 129.573C92.2388 129.61 92.2185 129.651 92.2066 129.695C92.182 129.787 92.205 129.852 92.2805 129.909C92.3366 129.951 92.4016 129.972 92.4693 129.984C92.5571 129.999 92.6454 130 92.7285 129.983Z" fill="#FBFBFB"/>
<path d="M92.7948 130.782C92.7037 130.794 92.617 130.819 92.5389 130.869C92.4821 130.906 92.4297 130.949 92.4343 131.024C92.4391 131.1 92.4975 131.137 92.5595 131.162C92.722 131.229 92.8891 131.226 93.0568 131.183C93.1281 131.165 93.1959 131.138 93.2544 131.092C93.2888 131.065 93.3166 131.032 93.3264 130.988C93.3347 130.95 93.3258 130.938 93.2871 130.938C93.2266 130.937 93.1659 130.94 93.1067 130.923C93.0348 130.902 92.9652 130.879 92.9491 130.791C92.9448 130.767 92.9251 130.769 92.9075 130.77C92.8697 130.773 92.8322 130.778 92.7945 130.782L92.7948 130.782Z" fill="black"/>
<path d="M94.5566 130.942C94.4634 130.956 94.3737 130.981 94.2942 131.034C94.2403 131.069 94.1909 131.112 94.1949 131.184C94.1989 131.257 94.2531 131.294 94.3124 131.32C94.4741 131.389 94.6413 131.388 94.8093 131.347C94.8856 131.328 94.9584 131.3 95.0203 131.249C95.0566 131.219 95.0837 131.184 95.0891 131.135C95.0916 131.112 95.0851 131.097 95.0566 131.098C95.0087 131.099 94.9608 131.101 94.9131 131.093C94.8704 131.087 94.8288 131.077 94.7906 131.056C94.7541 131.037 94.7203 131.012 94.7144 130.968C94.7096 130.933 94.6907 130.928 94.6622 130.932C94.6271 130.936 94.5918 130.939 94.5566 130.942L94.5566 130.942Z" fill="black"/>
<path d="M91.9947 131.367C91.8923 131.38 91.8036 131.4 91.7214 131.442C91.6214 131.493 91.5708 131.568 91.5836 131.686C91.6032 131.866 91.6608 132.03 91.756 132.183C91.8232 132.291 91.9032 132.389 91.9876 132.483C92.071 132.576 92.1846 132.604 92.298 132.558C92.5003 132.476 92.6913 132.373 92.8619 132.236C92.933 132.178 92.9976 132.114 93.0463 132.036C93.1436 131.879 93.1228 131.725 92.988 131.598C92.9433 131.556 92.8929 131.522 92.8382 131.495C92.645 131.399 92.4423 131.343 92.2249 131.35C92.144 131.353 92.0629 131.353 91.9947 131.367Z" fill="black"/>
<path d="M80.5362 138.022C80.842 138.032 81.1476 138.018 81.4531 138.014C81.5815 138.013 81.71 137.991 81.8376 137.973C82.0831 137.938 82.3313 137.923 82.5751 137.876C83.1904 137.757 83.7674 137.544 84.2778 137.171C84.2982 137.156 84.3181 137.14 84.3383 137.125C84.4963 137.004 84.6291 136.865 84.7283 136.688C84.8411 136.486 84.9505 136.285 85.0085 136.06C85.0664 135.834 85.095 135.608 85.0512 135.376C85.0278 135.253 84.9806 135.14 84.912 135.035C84.7789 134.83 84.5888 134.753 84.3517 134.78C84.1736 134.8 84.0081 134.863 83.848 134.94C83.5203 135.099 83.2254 135.307 82.9465 135.539C82.8589 135.612 82.7614 135.652 82.646 135.637C82.6235 135.635 82.6007 135.63 82.5798 135.622C82.1528 135.464 81.7182 135.328 81.2889 135.177C80.9854 135.07 80.6776 134.98 80.3608 134.923C80.1516 134.884 79.941 134.859 79.7279 134.861C79.5933 134.863 79.4602 134.877 79.3309 134.916C79.2147 134.952 79.1152 135.014 79.031 135.102C78.9132 135.284 78.8754 135.489 78.8759 135.701C78.8768 136.088 78.9905 136.448 79.1558 136.793C79.2005 136.886 79.241 136.981 79.2849 137.075C79.4545 137.436 79.7043 137.721 80.0706 137.894C80.2184 137.964 80.3759 137.998 80.5363 138.023L80.5362 138.022Z" fill="#FBFBFB"/>
<path d="M80.5361 138.023C80.6692 138.174 80.8016 138.327 80.9354 138.478C81.0474 138.605 81.1562 138.734 81.2746 138.855C81.2852 138.866 81.2956 138.877 81.3075 138.886C81.4187 138.974 81.5295 139.061 81.6418 139.147C81.8643 139.317 82.1171 139.41 82.3944 139.439C82.422 139.442 82.4496 139.444 82.4773 139.446C82.5392 139.478 82.6061 139.472 82.6709 139.465C82.9636 139.437 83.2408 139.355 83.5049 139.225C84.0018 138.979 84.4253 138.636 84.7984 138.232C84.9094 138.112 85.0352 138.064 85.1845 138.037C85.5219 137.977 85.8383 137.864 86.1227 137.667C86.5592 137.365 86.7517 136.94 86.7491 136.42C86.7478 136.16 86.699 135.906 86.6097 135.662C86.4986 135.358 86.3925 135.052 86.2904 134.744C86.229 134.56 86.1279 134.396 86.0382 134.227C85.8747 133.918 85.7096 133.61 85.5426 133.303C85.5223 133.266 85.5174 133.228 85.5213 133.186C85.5525 132.853 85.5674 132.52 85.5594 132.186C85.553 131.927 85.5336 131.67 85.4746 131.418C85.4554 131.379 85.4405 131.339 85.4378 131.295C85.4049 131.249 85.3935 131.194 85.3716 131.143C85.326 131.038 85.2742 130.938 85.1799 130.867C85.052 130.77 84.909 130.758 84.7624 130.802C84.5962 130.852 84.4626 130.955 84.3475 131.083C84.1655 131.286 84.0229 131.514 83.903 131.758C83.835 131.896 83.7714 132.036 83.719 132.181C83.7086 132.209 83.696 132.221 83.6632 132.212C83.5566 132.18 83.4496 132.15 83.3417 132.124C83.3045 132.115 83.3026 132.091 83.2984 132.063C83.2739 131.903 83.25 131.743 83.2249 131.583C83.2212 131.559 83.2243 131.531 83.2035 131.512C83.1752 131.543 83.189 131.579 83.1939 131.613C83.2125 131.744 83.2336 131.874 83.2526 132.004C83.2625 132.072 83.2579 132.075 83.1916 132.061C83.1397 132.049 83.0904 132.028 83.0383 132.017C82.9776 132.005 82.9557 131.972 82.9597 131.91C82.9718 131.726 82.9729 131.541 82.9721 131.356C82.9714 131.141 82.9568 130.926 82.9267 130.714C82.8985 130.515 82.8593 130.315 82.7578 130.135C82.7342 130.1 82.7115 130.065 82.6891 130.029C82.6807 130.017 82.6705 130.006 82.6612 129.995L82.6616 129.995C82.657 129.993 82.6549 129.99 82.655 129.986C82.6552 129.982 82.6558 129.98 82.657 129.98C82.6421 129.971 82.6248 129.964 82.6129 129.952C82.5375 129.875 82.4529 129.894 82.3676 129.928C82.3201 129.947 82.2802 129.978 82.2426 130.012C82.1379 130.106 82.0618 130.222 81.9927 130.343C81.77 130.731 81.6198 131.149 81.4871 131.574C81.4698 131.629 81.4504 131.684 81.4352 131.74C81.426 131.774 81.4112 131.783 81.3757 131.777C81.2887 131.762 81.2011 131.755 81.1124 131.768C81.046 131.778 80.9851 131.802 80.9293 131.836C80.6274 132.024 80.3545 132.246 80.1123 132.507C80.0106 132.616 79.9129 132.729 79.8264 132.849C79.6139 133.146 79.4386 133.463 79.3092 133.805C79.2051 134.08 79.127 134.362 79.076 134.651C79.0497 134.8 79.029 134.95 79.0311 135.102C79.0626 135.104 79.082 135.083 79.1031 135.065C79.241 134.949 79.4049 134.907 79.5793 134.892C80.0921 134.85 80.5826 134.966 81.0622 135.123C81.5646 135.287 82.0663 135.454 82.5625 135.638C82.7181 135.695 82.8513 135.645 82.9707 135.546C83.191 135.362 83.4228 135.196 83.6727 135.055C83.8786 134.939 84.0923 134.84 84.3282 134.803C84.5905 134.763 84.787 134.86 84.9218 135.089C85.0312 135.275 85.0629 135.477 85.0485 135.688C85.0246 136.039 84.8968 136.352 84.7242 136.657C84.5346 136.992 84.2375 137.193 83.921 137.375C83.5524 137.588 83.1536 137.722 82.7394 137.82C82.393 137.902 82.0392 137.923 81.6891 137.971C81.336 138.02 80.9774 138.001 80.6211 138.005C80.5922 138.005 80.5597 137.993 80.5365 138.023L80.5361 138.023Z" fill="#E78C19"/>
<path d="M85.4568 131.414C85.5292 131.773 85.5449 132.136 85.5381 132.501C85.5336 132.738 85.5204 132.975 85.4963 133.212C85.4923 133.251 85.5058 133.28 85.5224 133.311C85.7042 133.65 85.8813 133.991 86.0702 134.325C86.1969 134.549 86.2818 134.789 86.3649 135.03C86.4397 135.247 86.5171 135.464 86.593 135.68C86.7175 136.036 86.77 136.401 86.6946 136.777C86.6275 137.111 86.4576 137.381 86.1913 137.592C85.9862 137.754 85.7528 137.86 85.505 137.939C85.3284 137.995 85.1466 138.026 84.9656 138.062C84.9303 138.068 84.9075 138.086 84.8848 138.111C84.6142 138.414 84.3151 138.686 83.9815 138.919C83.7506 139.08 83.5066 139.217 83.2414 139.315C82.9944 139.406 82.7408 139.456 82.4767 139.446C82.483 139.454 82.4882 139.463 82.496 139.469C82.8642 139.738 83.2722 139.889 83.7327 139.88C84.0435 139.873 84.337 139.792 84.6182 139.663C85.071 139.456 85.4559 139.156 85.7946 138.794C85.8279 138.759 85.8627 138.741 85.9095 138.731C86.1968 138.674 86.4596 138.561 86.6844 138.37C86.9791 138.119 87.128 137.793 87.1728 137.414C87.201 137.175 87.1739 136.94 87.1321 136.705C87.0494 136.242 86.8931 135.802 86.7153 135.368C86.5279 134.912 86.3118 134.469 86.0725 134.038C86.0536 134.004 86.043 133.969 86.0392 133.93C85.997 133.505 85.9415 133.081 85.8618 132.66C85.7869 132.265 85.6932 131.874 85.5341 131.502C85.5122 131.451 85.4867 131.402 85.4628 131.352C85.4266 131.369 85.4515 131.392 85.4566 131.414L85.4568 131.414Z" fill="#3C2D0C"/>
<path d="M78.3482 132.084C78.3556 132.083 78.3633 132.082 78.3707 132.08C78.4914 132.057 78.5278 131.989 78.4774 131.878C78.4187 131.748 78.3209 131.648 78.2189 131.553C77.8608 131.222 77.4507 130.97 77.0033 130.778C76.9496 130.754 76.8937 130.739 76.8357 130.731C76.717 130.714 76.6205 130.754 76.5491 130.848C76.4763 130.944 76.4275 131.054 76.4093 131.173C76.3945 131.269 76.42 131.357 76.493 131.43C76.5478 131.484 76.6111 131.525 76.6785 131.56C76.9938 131.722 77.318 131.864 77.657 131.97C77.8527 132.031 78.0505 132.084 78.2575 132.088C78.2877 132.089 78.318 132.087 78.3482 132.086C78.3481 132.085 78.3481 132.084 78.3482 132.084L78.3482 132.084Z" fill="#FF000C"/>
<path d="M80.0346 129.109C80.0961 129.473 80.1545 129.766 80.2573 130.047C80.2963 130.154 80.3402 130.259 80.4086 130.352C80.5133 130.493 80.6135 130.487 80.6953 130.331C80.7498 130.227 80.7806 130.115 80.8044 130C80.8618 129.725 80.8803 129.445 80.8769 129.164C80.8742 128.946 80.8587 128.73 80.8217 128.515C80.8127 128.462 80.7947 128.413 80.7718 128.364C80.7204 128.255 80.6322 128.2 80.5148 128.191C80.3999 128.183 80.2872 128.2 80.1798 128.242C80.08 128.282 80.0245 128.36 80.0011 128.462C79.9836 128.54 79.9828 128.619 79.9917 128.696C80.0103 128.857 80.0159 129.019 80.0345 129.109L80.0346 129.109Z" fill="#FF000C"/>
<path d="M79.275 130.571C79.2382 130.335 79.1582 130.112 79.0649 129.893C78.9496 129.623 78.8118 129.365 78.6439 129.123C78.6018 129.063 78.5554 129.006 78.4941 128.964C78.4064 128.903 78.3125 128.892 78.213 128.93C78.1365 128.958 78.0692 129.003 78.0043 129.051C77.8439 129.172 77.8123 129.301 77.89 129.491C77.9304 129.59 77.9896 129.678 78.046 129.768C78.2352 130.071 78.4411 130.361 78.686 130.623C78.7778 130.721 78.8746 130.813 78.9863 130.889C79.0285 130.917 79.072 130.943 79.1214 130.956C79.2058 130.978 79.2595 130.947 79.2836 130.864C79.2993 130.81 79.2997 130.754 79.2943 130.699C79.2903 130.656 79.2818 130.614 79.2753 130.571L79.275 130.571Z" fill="#FF000C"/>
<path d="M82.7392 130.125C82.8262 130.315 82.8757 130.516 82.904 130.721C82.941 130.989 82.9548 131.259 82.9502 131.53C82.9478 131.673 82.9412 131.817 82.9352 131.961C82.9339 131.991 82.9368 132.014 82.9727 132.023C83.075 132.05 83.1766 132.079 83.2903 132.11C83.2604 131.904 83.2318 131.708 83.2032 131.512C83.1694 131.328 83.1317 131.145 83.0851 130.964C83.0155 130.694 82.9365 130.428 82.8011 130.182C82.7865 130.156 82.7691 130.131 82.7529 130.105C82.7384 130.105 82.7311 130.11 82.739 130.125L82.7392 130.125Z" fill="#3C2D0C"/>
<path d="M80.2749 130.986C80.3029 131.164 80.4644 131.283 80.6425 131.256C80.8212 131.229 80.9469 131.06 80.9196 130.883C80.8924 130.707 80.7204 130.582 80.5436 130.611C80.3628 130.64 80.2461 130.803 80.2751 130.986L80.2749 130.986Z" fill="#FF000C"/>
<path d="M79.2189 132.209C79.1912 132.03 79.0228 131.904 78.8453 131.937C78.6534 131.972 78.551 132.141 78.5736 132.306C78.5979 132.484 78.769 132.61 78.946 132.583C79.1269 132.555 79.2469 132.391 79.2189 132.21L79.2189 132.209Z" fill="#FF000C"/>
<path d="M79.1693 131.406C79.1958 131.588 79.3593 131.712 79.5378 131.685C79.706 131.659 79.8438 131.507 79.8129 131.312C79.7808 131.109 79.6079 131.019 79.447 131.038C79.2657 131.059 79.1356 131.243 79.1693 131.406Z" fill="#FF000C"/>
<path d="M84.8183 133.23C84.9243 133.216 84.9626 133.184 84.9756 133.079C85.0137 132.771 85.0493 132.463 85.0482 132.152C85.0478 132.023 85.0309 131.896 85.0078 131.769C84.9955 131.701 84.9662 131.64 84.9314 131.581C84.8907 131.511 84.8258 131.473 84.7558 131.443C84.6783 131.41 84.6071 131.435 84.5419 131.48C84.4679 131.53 84.4131 131.6 84.3622 131.672C84.27 131.803 84.2092 131.951 84.1387 132.093C84.0625 132.247 83.9901 132.403 83.9092 132.554C83.8491 132.667 83.8814 132.776 83.9562 132.872C84.0324 132.97 84.1373 133.031 84.2464 133.085C84.4011 133.162 84.5605 133.224 84.7356 133.235C84.7482 133.236 84.7608 133.237 84.7733 133.237C84.7884 133.236 84.8033 133.232 84.8183 133.23L84.8183 133.23Z" fill="#EFB99D"/>
<path d="M82.2034 132.111C82.4174 132.09 82.5149 131.909 82.5094 131.726C82.5052 131.588 82.4889 131.449 82.4787 131.311C82.4663 131.142 82.4538 130.974 82.443 130.805C82.4379 130.726 82.4152 130.651 82.3923 130.577C82.357 130.462 82.2703 130.479 82.2024 130.531C82.1462 130.575 82.1089 130.637 82.0774 130.701C82.0237 130.81 81.9772 130.922 81.9389 131.037C81.8719 131.239 81.8164 131.444 81.7369 131.641C81.7189 131.686 81.7077 131.732 81.7036 131.781C81.6919 131.916 81.7573 132.023 81.8841 132.072C81.987 132.112 82.0929 132.131 82.2033 132.111L82.2034 132.111Z" fill="#EFB99D"/>
<path d="M83.7276 134.147C83.6675 133.895 83.5275 133.704 83.29 133.591C83.249 133.572 83.2047 133.561 83.1589 133.556C83.0063 133.54 82.8914 133.629 82.8714 133.781C82.8597 133.871 82.8755 133.957 82.9093 134.041C82.9852 134.228 83.1087 134.373 83.2913 134.464C83.3646 134.5 83.4423 134.52 83.5259 134.506C83.6193 134.49 83.6816 134.438 83.7138 134.35C83.7378 134.284 83.7397 134.217 83.7276 134.147Z" fill="#FBFBFB"/>
<path d="M80.5461 133.701C80.6633 133.687 80.768 133.651 80.8619 133.588C81.0426 133.466 81.0493 133.308 80.8772 133.176C80.6139 132.973 80.2698 133.024 80.0828 133.291C80.0564 133.329 80.0361 133.369 80.0242 133.414C79.9996 133.505 80.0226 133.57 80.0981 133.627C80.1542 133.669 80.2193 133.69 80.2869 133.702C80.3747 133.718 80.463 133.719 80.5461 133.701Z" fill="#FBFBFB"/>
<path d="M80.6129 134.5C80.5218 134.513 80.4352 134.538 80.357 134.588C80.3002 134.624 80.2478 134.667 80.2525 134.742C80.2572 134.818 80.3157 134.855 80.3776 134.88C80.5402 134.947 80.7072 134.945 80.8749 134.902C80.9462 134.884 81.014 134.856 81.0725 134.81C81.1069 134.783 81.1347 134.751 81.1445 134.706C81.1528 134.669 81.1439 134.657 81.1052 134.656C81.0447 134.655 80.984 134.658 80.9248 134.641C80.853 134.621 80.7833 134.598 80.7673 134.51C80.7629 134.485 80.7432 134.487 80.7256 134.488C80.6878 134.492 80.6503 134.496 80.6126 134.5L80.6129 134.5Z" fill="black"/>
<path d="M82.3747 134.661C82.2816 134.675 82.1918 134.699 82.1123 134.752C82.0584 134.788 82.009 134.83 82.013 134.902C82.017 134.975 82.0712 135.012 82.1305 135.038C82.2922 135.108 82.4595 135.106 82.6275 135.065C82.7037 135.047 82.7765 135.018 82.8384 134.967C82.8747 134.937 82.9018 134.902 82.9072 134.854C82.9097 134.83 82.9032 134.816 82.8747 134.816C82.8269 134.817 82.7789 134.819 82.7312 134.812C82.6885 134.805 82.647 134.795 82.6087 134.775C82.5722 134.755 82.5384 134.73 82.5325 134.686C82.5277 134.651 82.5088 134.647 82.4803 134.65C82.4452 134.654 82.4099 134.657 82.3748 134.661L82.3747 134.661Z" fill="black"/>
<path d="M79.8123 135.085C79.7099 135.099 79.6212 135.118 79.539 135.16C79.439 135.211 79.3884 135.286 79.4012 135.404C79.4208 135.584 79.4784 135.749 79.5737 135.901C79.6408 136.009 79.7208 136.107 79.8052 136.201C79.8886 136.294 80.0022 136.322 80.1156 136.276C80.3179 136.194 80.5089 136.092 80.6795 135.954C80.7506 135.896 80.8153 135.833 80.8639 135.754C80.9612 135.597 80.9404 135.443 80.8056 135.316C80.7609 135.274 80.7106 135.24 80.6559 135.213C80.4627 135.118 80.2599 135.062 80.0425 135.069C79.9617 135.071 79.8805 135.072 79.8123 135.085Z" fill="black"/>
<path d="M68.3539 141.741C68.6596 141.751 68.9652 141.737 69.2707 141.733C69.3992 141.731 69.5277 141.709 69.6552 141.691C69.9007 141.656 70.149 141.641 70.3927 141.594C71.0081 141.475 71.585 141.262 72.0955 140.889C72.1159 140.874 72.1357 140.859 72.1559 140.843C72.314 140.722 72.4468 140.583 72.5459 140.406C72.6587 140.204 72.7682 140.003 72.8261 139.778C72.884 139.553 72.9126 139.326 72.8689 139.095C72.8455 138.971 72.7983 138.858 72.7297 138.753C72.5965 138.549 72.4064 138.471 72.1693 138.498C71.9912 138.519 71.8257 138.581 71.6657 138.659C71.3379 138.817 71.0431 139.025 70.7642 139.257C70.6765 139.33 70.5791 139.37 70.4636 139.356C70.4411 139.353 70.4184 139.348 70.3974 139.34C69.9704 139.182 69.5358 139.046 69.1066 138.895C68.803 138.788 68.4953 138.699 68.1784 138.641C67.9692 138.603 67.7586 138.577 67.5455 138.58C67.4109 138.581 67.2778 138.595 67.1485 138.635C67.0323 138.67 66.9328 138.733 66.8487 138.82C66.7309 139.003 66.693 139.207 66.6935 139.42C66.6944 139.807 66.8081 140.166 66.9734 140.511C67.0181 140.604 67.0586 140.699 67.1025 140.793C67.2721 141.154 67.522 141.439 67.8882 141.613C68.036 141.683 68.1936 141.716 68.3539 141.741L68.3539 141.741Z" fill="#FBFBFB"/>
<path d="M68.3543 141.741C68.4873 141.892 68.6197 142.045 68.7535 142.196C68.8655 142.323 68.9743 142.452 69.0927 142.573C69.1033 142.584 69.1138 142.595 69.1256 142.604C69.2368 142.692 69.3476 142.779 69.46 142.865C69.6824 143.035 69.9352 143.128 70.2126 143.157C70.2401 143.16 70.2677 143.162 70.2954 143.164C70.3573 143.196 70.4242 143.19 70.4891 143.183C70.7817 143.155 71.0589 143.073 71.323 142.943C71.8199 142.697 72.2434 142.354 72.6165 141.95C72.7275 141.83 72.8533 141.782 73.0026 141.755C73.34 141.695 73.6564 141.582 73.9409 141.385C74.3773 141.083 74.5698 140.658 74.5672 140.138C74.5659 139.878 74.5172 139.624 74.4278 139.38C74.3167 139.076 74.2107 138.77 74.1085 138.462C74.0471 138.278 73.946 138.114 73.8563 137.945C73.6928 137.636 73.5277 137.328 73.3607 137.022C73.3404 136.984 73.3356 136.946 73.3394 136.904C73.3707 136.571 73.3855 136.238 73.3775 135.904C73.3711 135.645 73.3517 135.388 73.2927 135.136C73.2735 135.097 73.2586 135.057 73.256 135.013C73.223 134.967 73.2117 134.912 73.1897 134.861C73.1442 134.756 73.0923 134.656 72.998 134.585C72.8702 134.488 72.7271 134.476 72.5805 134.52C72.4143 134.57 72.2807 134.673 72.1656 134.801C71.9837 135.004 71.841 135.232 71.7211 135.476C71.6531 135.614 71.5895 135.754 71.5371 135.899C71.5267 135.928 71.5141 135.939 71.4813 135.93C71.3748 135.899 71.2677 135.868 71.1598 135.842C71.1226 135.833 71.1207 135.809 71.1165 135.781C71.092 135.621 71.0681 135.461 71.043 135.301C71.0393 135.277 71.0424 135.249 71.0217 135.23C70.9933 135.261 71.0071 135.297 71.012 135.331C71.0306 135.462 71.0517 135.592 71.0708 135.722C71.0806 135.79 71.076 135.793 71.0098 135.779C70.9578 135.767 70.9085 135.746 70.8564 135.735C70.7957 135.723 70.7738 135.69 70.7778 135.628C70.7899 135.444 70.7911 135.259 70.7902 135.074C70.7895 134.859 70.7749 134.644 70.7448 134.432C70.7166 134.233 70.6774 134.033 70.5759 133.853C70.5523 133.818 70.5297 133.783 70.5072 133.747C70.4988 133.735 70.4886 133.724 70.4793 133.713L70.4797 133.713C70.4751 133.711 70.473 133.708 70.4731 133.704C70.4733 133.7 70.474 133.698 70.4751 133.698C70.4602 133.689 70.443 133.682 70.4311 133.67C70.3556 133.593 70.271 133.612 70.1857 133.646C70.1382 133.665 70.0983 133.696 70.0607 133.73C69.956 133.824 69.8799 133.94 69.8108 134.061C69.5881 134.449 69.4379 134.867 69.3052 135.292C69.2879 135.347 69.2685 135.402 69.2533 135.458C69.2441 135.492 69.2293 135.501 69.1938 135.495C69.1068 135.48 69.0192 135.473 68.9306 135.486C68.8641 135.496 68.8033 135.52 68.7474 135.554C68.4455 135.742 68.1726 135.964 67.9304 136.225C67.8287 136.334 67.731 136.447 67.6445 136.567C67.432 136.864 67.2567 137.181 67.1273 137.523C67.0232 137.798 66.9451 138.08 66.8941 138.369C66.8678 138.518 66.8471 138.668 66.8492 138.82C66.8808 138.822 66.9001 138.801 66.9213 138.783C67.0591 138.667 67.223 138.625 67.3975 138.61C67.9102 138.568 68.4007 138.684 68.8803 138.841C69.3827 139.005 69.8844 139.172 70.3806 139.356C70.5362 139.413 70.6694 139.363 70.7888 139.264C71.0091 139.08 71.241 138.914 71.4908 138.773C71.6968 138.657 71.9104 138.558 72.1464 138.521C72.4086 138.481 72.6052 138.578 72.7399 138.807C72.8493 138.993 72.881 139.195 72.8666 139.406C72.8427 139.757 72.7149 140.07 72.5423 140.375C72.3528 140.71 72.0556 140.911 71.7392 141.093C71.3706 141.306 70.9717 141.44 70.5576 141.538C70.2111 141.62 69.8573 141.641 69.5072 141.689C69.1541 141.738 68.7955 141.719 68.4392 141.723C68.4103 141.723 68.3778 141.711 68.3546 141.741L68.3543 141.741Z" fill="#E78C19"/>
<path d="M73.2746 135.132C73.3471 135.491 73.3628 135.854 73.3559 136.219C73.3515 136.457 73.3382 136.694 73.3142 136.93C73.3101 136.97 73.3237 136.999 73.3402 137.03C73.5221 137.368 73.6991 137.709 73.8881 138.044C74.0147 138.268 74.0997 138.507 74.1827 138.748C74.2575 138.966 74.335 139.182 74.4109 139.399C74.5354 139.755 74.5879 140.12 74.5125 140.495C74.4454 140.829 74.2755 141.1 74.0092 141.31C73.8041 141.473 73.5706 141.579 73.3228 141.657C73.1463 141.713 72.9645 141.745 72.7835 141.78C72.7482 141.787 72.7254 141.804 72.7027 141.83C72.4321 142.133 72.133 142.405 71.7994 142.637C71.5685 142.798 71.3244 142.936 71.0592 143.033C70.8123 143.124 70.5587 143.175 70.2945 143.165C70.3009 143.172 70.306 143.182 70.3139 143.187C70.6821 143.456 71.09 143.608 71.5505 143.598C71.8614 143.592 72.1549 143.51 72.4361 143.382C72.8889 143.175 73.2737 142.874 73.6125 142.513C73.6458 142.477 73.6806 142.459 73.7273 142.45C74.0147 142.392 74.2775 142.28 74.5023 142.088C74.7969 141.838 74.9459 141.512 74.9907 141.133C75.0189 140.894 74.9918 140.658 74.95 140.423C74.8673 139.96 74.711 139.52 74.5331 139.087C74.3458 138.63 74.1297 138.188 73.8904 137.756C73.8714 137.722 73.8608 137.688 73.857 137.649C73.8149 137.223 73.7594 136.799 73.6797 136.379C73.6047 135.983 73.511 135.593 73.352 135.221C73.3301 135.17 73.3046 135.12 73.2807 135.07C73.2444 135.087 73.2694 135.111 73.2745 135.132L73.2746 135.132Z" fill="#3C2D0C"/>
<path d="M66.1661 135.802C66.1735 135.801 66.1811 135.8 66.1886 135.798C66.3092 135.775 66.3456 135.707 66.2952 135.596C66.2365 135.466 66.1387 135.366 66.0368 135.271C65.6787 134.94 65.2685 134.688 64.8211 134.496C64.7675 134.472 64.7115 134.457 64.6535 134.449C64.5349 134.432 64.4384 134.472 64.367 134.566C64.2942 134.662 64.2454 134.772 64.2272 134.891C64.2123 134.987 64.2379 135.075 64.3108 135.148C64.3656 135.202 64.429 135.243 64.4964 135.278C64.8116 135.44 65.1358 135.582 65.4748 135.688C65.6705 135.749 65.8683 135.802 66.0754 135.806C66.1056 135.807 66.1359 135.805 66.1661 135.804C66.166 135.803 66.166 135.802 66.166 135.802L66.1661 135.802Z" fill="#FF000C"/>
<path d="M67.8523 132.827C67.9137 133.191 67.9721 133.484 68.0749 133.765C68.1139 133.872 68.1578 133.977 68.2263 134.07C68.3309 134.211 68.4312 134.205 68.5129 134.049C68.5674 133.945 68.5982 133.833 68.622 133.718C68.6794 133.443 68.6979 133.163 68.6945 132.882C68.6919 132.664 68.6763 132.448 68.6393 132.233C68.6303 132.18 68.6124 132.131 68.5894 132.082C68.538 131.973 68.4499 131.918 68.3324 131.909C68.2175 131.901 68.1048 131.918 67.9975 131.96C67.8976 132 67.8421 132.078 67.8187 132.181C67.8012 132.258 67.8005 132.337 67.8094 132.414C67.8279 132.575 67.8336 132.738 67.8521 132.827L67.8523 132.827Z" fill="#FF000C"/>
<path d="M67.0927 134.289C67.0558 134.053 66.9759 133.83 66.8825 133.611C66.7672 133.341 66.6294 133.083 66.4615 132.841C66.4194 132.781 66.373 132.724 66.3117 132.682C66.224 132.621 66.1301 132.61 66.0306 132.648C65.9541 132.676 65.8868 132.721 65.822 132.77C65.6615 132.89 65.6299 133.019 65.7077 133.209C65.748 133.308 65.8073 133.396 65.8636 133.486C66.0528 133.789 66.2587 134.079 66.5037 134.341C66.5955 134.439 66.6922 134.531 66.8039 134.607C66.8461 134.635 66.8896 134.661 66.9391 134.674C67.0235 134.696 67.0771 134.665 67.1012 134.582C67.1169 134.528 67.1173 134.472 67.112 134.417C67.1079 134.374 67.0995 134.332 67.093 134.289L67.0927 134.289Z" fill="#FF000C"/>
<path d="M70.5573 133.843C70.6443 134.033 70.6938 134.234 70.7221 134.439C70.7591 134.707 70.7729 134.977 70.7683 135.248C70.7659 135.391 70.7593 135.535 70.7534 135.679C70.752 135.709 70.7549 135.732 70.7908 135.741C70.8931 135.768 70.9947 135.797 71.1084 135.828C71.0785 135.622 71.0499 135.426 71.0213 135.23C70.9875 135.046 70.9498 134.863 70.9032 134.682C70.8337 134.412 70.7546 134.146 70.6192 133.9C70.6046 133.874 70.5872 133.849 70.571 133.823C70.5565 133.823 70.5493 133.828 70.5571 133.843L70.5573 133.843Z" fill="#3C2D0C"/>
<path d="M68.0925 134.705C68.1205 134.883 68.282 135.001 68.4602 134.974C68.6388 134.947 68.7645 134.778 68.7372 134.602C68.71 134.425 68.538 134.301 68.3612 134.329C68.1804 134.358 68.0637 134.521 68.0927 134.705L68.0925 134.705Z" fill="#FF000C"/>
<path d="M67.0368 135.928C67.009 135.748 66.8406 135.622 66.6631 135.655C66.4713 135.69 66.3688 135.859 66.3915 136.024C66.4158 136.202 66.5869 136.328 66.7639 136.301C66.9448 136.273 67.0648 136.109 67.0368 135.928L67.0368 135.928Z" fill="#FF000C"/>
<path d="M66.9872 135.125C67.0137 135.307 67.1772 135.431 67.3557 135.403C67.5238 135.377 67.6616 135.225 67.6308 135.03C67.5987 134.828 67.4258 134.737 67.2649 134.756C67.0836 134.778 66.9534 134.962 66.9872 135.125Z" fill="#FF000C"/>
<path d="M72.6357 136.948C72.7417 136.935 72.78 136.902 72.7929 136.797C72.831 136.49 72.8667 136.182 72.8656 135.871C72.8652 135.741 72.8483 135.614 72.8252 135.487C72.8128 135.419 72.7836 135.358 72.7488 135.299C72.7081 135.229 72.6432 135.191 72.5731 135.161C72.4957 135.128 72.4244 135.153 72.3593 135.198C72.2853 135.249 72.2305 135.318 72.1796 135.391C72.0874 135.522 72.0266 135.669 71.9561 135.812C71.8799 135.965 71.8075 136.121 71.7266 136.273C71.6665 136.386 71.6988 136.494 71.7736 136.59C71.8498 136.688 71.9547 136.75 72.0638 136.804C72.2185 136.881 72.3779 136.943 72.553 136.953C72.5656 136.954 72.5782 136.956 72.5907 136.955C72.6058 136.954 72.6206 136.951 72.6357 136.948L72.6357 136.948Z" fill="#EFB99D"/>
<path d="M70.021 135.829C70.235 135.808 70.3326 135.627 70.3271 135.444C70.3228 135.306 70.3065 135.167 70.2963 135.029C70.2839 134.861 70.2715 134.692 70.2606 134.523C70.2555 134.444 70.2329 134.369 70.21 134.295C70.1746 134.18 70.088 134.197 70.0201 134.249C69.9638 134.293 69.9265 134.355 69.8951 134.419C69.8413 134.528 69.7949 134.64 69.7565 134.755C69.6895 134.957 69.634 135.162 69.5545 135.359C69.5365 135.404 69.5253 135.45 69.5212 135.499C69.5095 135.634 69.575 135.741 69.7017 135.79C69.8046 135.83 69.9105 135.849 70.021 135.829L70.021 135.829Z" fill="#EFB99D"/>
<path d="M71.5455 137.865C71.4854 137.613 71.3453 137.423 71.1079 137.31C71.0668 137.29 71.0225 137.279 70.9767 137.274C70.8241 137.258 70.7092 137.347 70.6893 137.499C70.6776 137.589 70.6934 137.676 70.7271 137.759C70.803 137.946 70.9266 138.091 71.1091 138.182C71.1825 138.219 71.2602 138.238 71.3438 138.224C71.4372 138.209 71.4995 138.157 71.5317 138.068C71.5557 138.002 71.5575 137.935 71.5455 137.865Z" fill="#FBFBFB"/>
<path d="M68.3645 137.419C68.4816 137.405 68.5864 137.369 68.6803 137.306C68.8609 137.184 68.8676 137.026 68.6955 136.894C68.4323 136.691 68.0882 136.742 67.9012 137.009C67.8748 137.047 67.8545 137.088 67.8426 137.132C67.818 137.223 67.841 137.288 67.9165 137.345C67.9726 137.388 68.0376 137.408 68.1053 137.42C68.1931 137.436 68.2814 137.437 68.3645 137.419Z" fill="#FBFBFB"/>
<path d="M68.4306 138.218C68.3395 138.231 68.2528 138.256 68.1747 138.306C68.1178 138.342 68.0655 138.385 68.0701 138.46C68.0748 138.536 68.1333 138.573 68.1952 138.598C68.3578 138.665 68.5249 138.663 68.6926 138.62C68.7639 138.602 68.8317 138.574 68.8901 138.528C68.9245 138.501 68.9524 138.469 68.9621 138.424C68.9705 138.387 68.9615 138.375 68.9228 138.374C68.8624 138.373 68.8016 138.376 68.7425 138.359C68.6706 138.339 68.6009 138.316 68.5849 138.228C68.5805 138.203 68.5609 138.205 68.5432 138.206C68.5055 138.21 68.4679 138.214 68.4302 138.218L68.4306 138.218Z" fill="black"/>
<path d="M70.1921 138.379C70.0989 138.393 70.0091 138.417 69.9297 138.47C69.8758 138.506 69.8264 138.548 69.8304 138.62C69.8344 138.693 69.8886 138.731 69.9479 138.756C70.1096 138.826 70.2768 138.825 70.4448 138.783C70.5211 138.765 70.5939 138.736 70.6558 138.685C70.6921 138.655 70.7192 138.62 70.7246 138.572C70.7271 138.548 70.7206 138.534 70.6921 138.534C70.6442 138.535 70.5963 138.537 70.5486 138.53C70.5059 138.523 70.4643 138.513 70.4261 138.493C70.3896 138.473 70.3558 138.448 70.3499 138.405C70.3451 138.369 70.3262 138.365 70.2977 138.368C70.2626 138.372 70.2273 138.375 70.1921 138.379L70.1921 138.379Z" fill="black"/>
<path d="M67.6302 138.803C67.5278 138.817 67.4391 138.836 67.3568 138.878C67.2569 138.929 67.2063 139.005 67.2191 139.123C67.2387 139.302 67.2963 139.467 67.3915 139.619C67.4587 139.727 67.5387 139.825 67.6231 139.919C67.7065 140.012 67.8201 140.041 67.9335 139.995C68.1358 139.913 68.3268 139.81 68.4974 139.672C68.5685 139.615 68.6331 139.551 68.6818 139.472C68.7791 139.316 68.7583 139.161 68.6235 139.034C68.5788 138.992 68.5284 138.958 68.4737 138.931C68.2805 138.836 68.0778 138.78 67.8604 138.787C67.7795 138.79 67.6984 138.79 67.6302 138.803Z" fill="black"/>
<g style="mix-blend-mode:screen" opacity="0.51">
<path d="M98.7171 125.819L99.6371 129.166L66.2938 138.349L65.2913 134.822L98.7171 125.819Z" fill="#E6CDC7"/>
</g>
<defs>
<linearGradient id="paint0_linear_1480_915" x1="29.5741" y1="95.9225" x2="15.4871" y2="23.2121" gradientUnits="userSpaceOnUse">
<stop stop-color="#F6C067"/>
<stop offset="0.1247" stop-color="#F3BD62"/>
<stop offset="0.2621" stop-color="#EBB355"/>
<stop offset="0.4052" stop-color="#DEA23F"/>
<stop offset="0.4787" stop-color="#D69731"/>
<stop offset="0.4889" stop-color="#D89A35"/>
<stop offset="0.6046" stop-color="#E8B761"/>
<stop offset="0.7086" stop-color="#F4CC80"/>
<stop offset="0.7963" stop-color="#FBD993"/>
<stop offset="0.857" stop-color="#FEDE9A"/>
<stop offset="0.9925" stop-color="#FFFAEF"/>
</linearGradient>
</defs>
</svg>
