<svg width="105" height="81" viewBox="0 0 105 81" fill="none" xmlns="http://www.w3.org/2000/svg">
<path d="M63.9577 62.1265C64.0278 61.9552 64.1391 61.7924 64.2746 61.6487C64.3459 61.5919 64.3662 61.5675 64.4716 61.4892C64.5429 61.4324 64.6247 61.392 64.6895 61.3624C64.9859 61.2089 65.2908 61.2 65.5308 61.2206C65.7709 61.2412 65.9704 61.3106 66.132 61.358C66.2903 61.4189 66.4041 61.4851 66.48 61.5292L66.5937 61.5953C66.5937 61.5953 66.4047 61.5424 66.0992 61.4941C65.7904 61.4594 65.3037 61.4454 64.9058 61.7209C64.8548 61.7533 64.8175 61.7885 64.7632 61.8345L64.6414 61.9809C64.591 62.0705 64.5236 62.171 64.4908 62.3071C64.4285 62.5656 64.4179 62.8491 64.476 63.1466C64.5922 63.7416 64.9177 64.3652 65.3584 64.8696C65.4486 64.9738 65.5944 65.1464 65.7154 65.2426C65.8331 65.3524 65.9645 65.465 66.0855 65.5612C66.355 65.7592 66.6309 65.9299 66.92 66.0463C67.2092 66.1626 67.4976 66.2217 67.7717 66.2207C68.0321 66.2169 68.2951 66.1423 68.4718 66.0071C68.8593 65.7151 68.974 65.2388 69.0016 64.9446C69.0358 64.6231 69.0064 64.4457 69.0064 64.4457L69.0489 64.5687C69.0737 64.6452 69.1162 64.7681 69.1455 64.9455C69.1644 65.1065 69.1872 65.311 69.142 65.5588C69.1 65.793 68.9867 66.084 68.7563 66.3224C68.5226 66.5744 68.168 66.7303 67.795 66.7824C67.4221 66.8346 67.0447 66.7858 66.6698 66.6662C66.3088 66.5494 65.9471 66.3754 65.6397 66.1553C65.4808 66.0371 65.3356 65.9217 65.18 65.7899C65.0139 65.6416 64.9204 65.551 64.7746 65.3784C64.2711 64.7754 63.8966 64.0561 63.823 63.2842C63.7846 62.905 63.8214 62.5127 63.9649 62.1565L63.9577 62.1265Z" fill="white"/>
<path d="M57.2268 58.4327C57.0114 57.5318 56.758 56.6088 56.5419 55.6506C56.4844 55.4103 56.427 55.1701 56.3695 54.9298L56.2833 54.5694C56.2435 54.3756 56.2429 54.3184 56.224 54.1574C56.1628 53.5737 56.2049 53.0396 56.3223 52.4925C56.5845 51.4037 57.2143 50.4045 58.0769 49.6958C58.8818 49.0467 59.643 48.46 60.4041 47.8733C61.9126 46.6971 63.3399 45.6185 64.567 44.7131C67.0244 42.8886 68.7148 41.7354 68.7148 41.7354C69.0308 41.5002 69.3508 41.3087 69.7022 41.1665C70.5378 40.8092 71.4446 40.6951 72.327 40.8615L86.0142 43.8218C87.7824 44.1411 89.1131 45.499 89.3962 47.2563L91.7007 61.509C91.9473 63.0589 91.3414 64.677 90.1057 65.7378L80.9775 74.193C80.5973 74.515 80.1889 74.7741 79.7387 74.9675C79.4829 75.0722 79.2166 75.1605 78.9568 75.2215L76.064 59.8202C76.064 59.8202 76.0562 59.7329 76.0386 59.6865C75.5876 57.3092 77.2121 55.7712 78.1722 54.8968L87.987 45.9252L76.8305 53.4653C75.8305 54.1459 74.0618 55.026 71.1221 54.424L57.7933 51.6513C57.5949 51.9962 57.4515 52.3524 57.3597 52.7335C57.2581 53.1554 57.2186 53.6186 57.2642 54.0277C57.2721 54.115 57.2981 54.306 57.302 54.3497L57.3882 54.71L57.5469 55.428C57.7662 56.3726 57.9411 57.3223 58.1428 58.2205C58.526 60.0412 58.8529 61.7361 59.1192 63.2044C59.6549 66.1274 59.93 68.0973 59.93 68.0973C59.93 68.0973 59.3166 66.2152 58.5349 63.3561C58.1424 61.9333 57.6957 60.2567 57.251 58.452L57.2268 58.4327ZM80.4351 68.7839C80.1414 70.1232 80.4424 71.3273 81.1325 71.4544C81.8194 71.595 82.6206 70.6024 82.9176 69.2495C83.2146 67.8965 82.9103 66.7061 82.2202 66.579C81.5333 66.4383 80.7321 67.4309 80.4351 68.7839ZM80.7306 55.4065C80.0438 55.2658 79.2425 56.2584 78.9456 57.6114C78.6518 58.9507 78.9528 60.1548 79.643 60.2819C80.3298 60.4225 81.131 59.4299 81.428 58.077C81.7218 56.7376 81.4207 55.5335 80.7306 55.4065ZM85.1833 57.7465C84.4965 57.6058 83.6953 58.5984 83.3983 59.9514C83.1013 61.3043 83.4056 62.4948 84.0957 62.6219C84.7825 62.7625 85.5838 61.7699 85.8808 60.417C86.1745 59.0776 85.8735 57.8735 85.1833 57.7465ZM87.8255 62.1576C87.5318 63.497 87.8328 64.7011 88.523 64.8281C89.2098 64.9688 90.011 63.9762 90.308 62.6232C90.605 61.2703 90.3007 60.0798 89.6106 59.9527C88.9205 59.8257 88.1225 60.8047 87.8255 62.1576ZM88.0528 49.1233C87.366 48.9826 86.5648 49.9752 86.2678 51.3282C85.9741 52.6675 86.2751 53.8716 86.9652 53.9987C87.6521 54.1393 88.4533 53.1467 88.7503 51.7938C89.0473 50.4408 88.743 49.2503 88.0528 49.1233ZM73.9066 43.0415C73.7649 42.3127 72.4763 41.9774 71.0304 42.2953C69.574 42.5968 68.5072 43.4351 68.6488 44.1638C68.7905 44.8926 70.0791 45.2279 71.525 44.91C72.9814 44.6085 74.0482 43.7702 73.9066 43.0415ZM75.0783 47.0943C74.9367 46.3656 73.648 46.0303 72.2021 46.3482C70.7457 46.6497 69.6789 47.488 69.8206 48.2167C69.9622 48.9455 71.2508 49.2808 72.6968 48.9629C74.1532 48.6614 75.2199 47.8231 75.0783 47.0943ZM73.8685 53.0157C75.3249 52.7142 76.3916 51.8759 76.25 51.1472C76.1084 50.4185 74.8198 50.0831 73.3738 50.4011C71.9174 50.7026 70.8507 51.5408 70.9923 52.2696C71.1339 52.9983 72.4225 53.3336 73.8685 53.0157Z" fill="white"/>
<path d="M55.2607 54.8445L55.2464 54.7844C54.8243 52.5279 55.7713 50.1521 57.6635 48.6979L67.7419 40.5396L67.7929 40.5072C68.1972 40.2045 68.65 39.9403 69.1171 39.7362C70.2593 39.242 71.4739 39.1052 72.6616 39.3199C72.6753 39.3227 72.7028 39.3283 72.7165 39.3311L86.3867 42.2876C88.7862 42.7361 90.5944 44.5627 90.9667 46.966L93.2704 61.2148C93.6082 63.2827 92.7994 65.4441 91.157 66.8781L82.051 75.3069L82.0137 75.3421C81.5217 75.7695 80.9603 76.1257 80.35 76.3862C79.143 76.91 77.7845 77.0458 76.5308 76.7462C76.5033 76.7406 76.4759 76.735 76.4621 76.7322L62.6518 72.8619C60.4708 72.3439 58.7973 70.6163 58.3725 68.4307L55.2607 54.8445ZM64.7772 65.4735C64.9229 65.6461 65.0164 65.7366 65.1825 65.8849C65.3348 66.0303 65.4799 66.1457 65.6421 66.2503C65.9598 66.4866 66.311 66.6442 66.672 66.7609C67.0329 66.8777 67.4273 66.9156 67.7969 66.8771C68.1697 66.825 68.5243 66.6691 68.7579 66.4172C68.985 66.1924 69.0983 65.9015 69.1435 65.6538C69.2025 65.4089 69.1797 65.2044 69.1471 65.0406C69.1282 64.8797 69.0858 64.7568 69.0505 64.6639L69.008 64.541C69.008 64.541 69.0341 64.732 69.0032 65.0397C68.9723 65.3475 68.8609 65.8101 68.4736 66.102C68.2969 66.2371 68.0339 66.3117 67.7736 66.3155C67.4996 66.3165 67.2144 66.2439 66.9221 66.1412C66.6331 66.0249 66.3572 65.8542 66.0878 65.6562C65.9531 65.5573 65.8217 65.4447 65.7178 65.3377C65.6105 65.2444 65.451 65.069 65.3608 64.9649C64.9202 64.4606 64.5948 63.8372 64.4787 63.2423C64.4206 62.9449 64.4208 62.6451 64.4935 62.403C64.5263 62.267 64.5937 62.1666 64.6441 62.077L64.7658 61.9306C64.7658 61.9306 64.8574 61.8494 64.9085 61.817C65.3063 61.5416 65.7929 61.5555 66.1016 61.5902C66.424 61.6277 66.596 61.6914 66.596 61.6914L66.4822 61.6253C66.4064 61.5812 66.2926 61.5151 66.1343 61.4541C65.9761 61.3932 65.7734 61.3374 65.5333 61.3168C65.2933 61.2962 64.999 61.3216 64.6922 61.4586C64.6104 61.499 64.5423 61.5421 64.4743 61.5853C64.369 61.6637 64.3487 61.6881 64.2773 61.7449C64.1419 61.8884 64.0306 62.0513 63.9605 62.2225C63.8171 62.5786 63.7803 62.9708 63.8187 63.3499C63.8922 64.1216 64.2804 64.8435 64.77 65.4435L64.7772 65.4735ZM59.1168 63.1865C58.8507 61.7186 58.5239 60.0242 58.1408 58.204C57.9424 57.2925 57.7644 56.3565 57.5451 55.4122L57.3865 54.6945L57.3003 54.3342C57.3003 54.3342 57.2704 54.0996 57.2625 54.0123C57.2307 53.6061 57.2564 53.1402 57.358 52.7184C57.4498 52.3375 57.5932 51.9814 57.7915 51.6365L71.1171 54.4082C74.0699 55.0129 75.8245 54.1301 76.8242 53.4497L87.9782 45.9114L78.1656 54.8808C77.2057 55.7549 75.5953 57.2954 76.0323 59.6692C76.0362 59.7128 76.0539 59.7593 76.0578 59.8029L78.9496 75.2C79.223 75.1418 79.4892 75.0535 79.7313 74.9461C80.1676 74.7499 80.5896 74.4937 80.9698 74.1718L90.096 65.7186C91.3314 64.6581 91.9372 63.0404 91.6907 61.4909L89.387 47.2421C89.104 45.4852 87.76 44.125 86.0059 43.8086L72.322 40.8494C71.4398 40.683 70.5299 40.8107 69.6978 41.1543C69.3603 41.2993 69.0233 41.5016 68.7106 41.7231C68.7106 41.7231 67.0206 42.8761 64.5637 44.7C63.3369 45.6052 61.9099 46.6836 60.4018 47.8595C59.6545 48.4489 58.8766 49.0462 58.075 49.6816C57.2127 50.3901 56.583 51.389 56.3208 52.4775C56.1897 53.0217 56.1581 53.572 56.2225 54.142C56.2414 54.3029 56.2591 54.3494 56.2818 54.5539L56.368 54.9142C56.4254 55.1544 56.4829 55.3946 56.5403 55.6348C56.7596 56.5791 56.9959 57.5126 57.225 58.4162C57.6728 60.2068 58.1194 61.883 58.5085 63.3189C59.29 66.1773 59.9032 68.0589 59.9032 68.0589C59.9032 68.0589 59.6282 66.0895 59.0926 63.1673L59.1168 63.1865Z" fill="url(#paint0_linear_1290_48239)"/>
<path d="M73.3002 50.452C74.7592 50.15 76.0535 50.4724 76.1816 51.2C76.3235 51.9303 75.2582 52.7567 73.7959 53.0724C72.3336 53.3881 71.0426 53.052 70.9144 52.3244C70.7725 51.5941 71.8516 50.7705 73.3002 50.452Z" fill="url(#paint1_linear_1290_48239)"/>
<path d="M72.5793 49.0365C71.1203 49.3386 69.826 49.0161 69.6978 48.2886C69.5559 47.5582 70.6213 46.7318 72.0836 46.4161C73.5426 46.1141 74.8369 46.4366 74.9651 47.1641C75.107 47.8944 74.0416 48.7208 72.5793 49.0365Z" fill="url(#paint2_linear_1290_48239)"/>
<path d="M71.3461 45.0116C69.8871 45.3137 68.5928 44.9912 68.4647 44.2637C68.3228 43.5333 69.3881 42.7069 70.8504 42.3912C72.3095 42.0892 73.6038 42.4116 73.7319 43.1392C73.8738 43.8695 72.8085 44.6959 71.3461 45.0116Z" fill="url(#paint3_linear_1290_48239)"/>
<path d="M87.0194 54.1312C86.3367 53.9911 86.0307 52.8201 86.3257 51.474C86.6174 50.1414 87.4135 49.1539 88.0995 49.2805C88.7822 49.4206 89.0882 50.5916 88.7932 51.9377C88.4983 53.2838 87.7053 54.2578 87.0194 54.1312Z" fill="url(#paint4_linear_1290_48239)"/>
<path d="M79.7045 60.3065C79.0217 60.1664 78.7158 58.9954 79.0108 57.6493C79.3024 56.3167 80.0986 55.3292 80.7846 55.4558C81.4673 55.5959 81.7732 56.7669 81.4783 58.113C81.1866 59.4455 80.3904 60.433 79.7045 60.3065Z" fill="url(#paint5_linear_1290_48239)"/>
<path d="M84.2032 62.6572C83.5205 62.5171 83.2146 61.3461 83.5095 60C83.8044 58.6539 84.5974 57.6799 85.2833 57.8065C85.9693 57.933 86.272 59.1176 85.977 60.4637C85.6853 61.7963 84.8892 62.7837 84.2032 62.6572Z" fill="url(#paint6_linear_1290_48239)"/>
<path d="M89.7687 60.0278C90.4514 60.1679 90.7573 61.3389 90.4624 62.685C90.1675 64.0311 89.3745 65.005 88.6886 64.8785C88.0059 64.7384 87.6999 63.5674 87.9949 62.2213C88.2866 60.8887 89.0827 59.9012 89.7687 60.0278Z" fill="url(#paint7_linear_1290_48239)"/>
<path d="M83.0852 69.186C82.7935 70.5185 81.9973 71.506 81.3114 71.3795C80.6287 71.2394 80.3227 70.0684 80.6177 68.7223C80.9094 67.3897 81.7055 66.4022 82.3915 66.5288C83.0742 66.6689 83.3801 67.8399 83.0852 69.186Z" fill="url(#paint8_linear_1290_48239)"/>
<path d="M18.9822 20.7709C18.9315 20.5043 18.9159 20.3303 18.9128 20.0451C18.8917 19.0588 19.0785 18.0439 19.595 17.2105C19.8396 16.791 20.1871 16.4211 20.5906 16.1765C20.7908 16.0609 21.0287 15.9674 21.2705 15.9173C21.3728 15.9098 21.4204 15.8911 21.5775 15.8948C21.6935 15.8902 21.7893 15.9098 21.8851 15.9294C22.2819 16.0107 22.5947 16.2029 22.8188 16.4054C23.0429 16.6079 23.1921 16.8234 23.2963 16.9871C23.3972 17.1643 23.4636 17.306 23.5092 17.415L23.5724 17.5703C23.5724 17.5703 23.4336 17.371 23.1542 17.1003C22.8884 16.8324 22.4167 16.4653 21.819 16.4424C21.7473 16.442 21.6756 16.4415 21.6007 16.4546L21.3556 16.5182C21.2266 16.5772 21.0975 16.6361 20.9586 16.7357C20.6946 16.9378 20.4794 17.2352 20.2955 17.5818C19.955 18.2805 19.7904 19.1433 19.8441 19.994C19.846 20.1652 19.8628 20.4532 19.8921 20.63C19.9181 20.8203 19.9649 21.0434 20.0183 21.2394C20.125 21.6312 20.2624 22.0152 20.4538 22.3533C20.6486 22.6778 20.8805 22.9673 21.1489 23.1646C21.4173 23.3619 21.7223 23.4671 21.9954 23.4662C22.5995 23.4619 23.0696 23.0601 23.3258 22.7711C23.599 22.4713 23.7197 22.2683 23.7197 22.2683L23.6805 22.4311C23.627 22.534 23.5742 22.6939 23.4737 22.8725C23.3733 23.0512 23.2324 23.2785 22.9925 23.4997C22.7695 23.7102 22.4305 23.9254 22.0421 23.9881C21.6197 24.0723 21.1544 23.9769 20.7661 23.7408C20.3608 23.5154 20.026 23.1764 19.7589 22.7944C19.4951 22.3987 19.2822 21.9708 19.1507 21.5027C19.0765 21.2741 19.033 21.0374 18.9926 20.7872L18.9822 20.7709Z" fill="white"/>
<path d="M27.9412 9.02599C30.309 8.94029 32.5371 8.89726 34.4265 8.88476C38.2257 8.83538 40.7667 8.9278 40.7667 8.9278C42.2999 8.89942 43.7336 9.46407 44.765 10.5027C44.8343 10.574 44.8898 10.6424 44.9623 10.7001L56.0508 23.913C57.5303 25.5427 57.7893 27.9354 56.7158 29.9411L48.0281 46.2227C47.0822 47.9976 45.2536 49.1924 43.2255 49.362L27.8313 51.2167C26.8601 51.3032 25.9203 51.1392 25.0742 50.7662L34.1098 32.8011C34.1098 32.8011 34.1366 32.7495 34.1569 32.7252C35.5575 29.9591 38.3091 29.5953 39.9091 29.4094L56.3745 27.5315L39.6973 26.9408C38.1974 26.8904 35.8036 26.4858 33.4005 23.6683L22.5157 10.925C22.0627 11.1318 21.641 11.3879 21.2611 11.7095C20.8303 12.0635 20.4451 12.5268 20.1691 12.9553C20.1017 13.0556 19.9945 13.2619 19.9676 13.3135L19.7635 13.7425L19.3723 14.5896C18.8541 15.7246 18.3183 16.8133 17.7995 17.8911C16.7822 20.0224 15.7977 22.0177 14.9296 23.7088C13.2208 27.0966 11.9682 29.3081 11.9682 29.3081C11.9682 29.3081 12.8151 26.9279 14.2487 23.4267C14.9586 21.6747 15.8093 19.6377 16.7508 17.4623C17.2284 16.3761 17.7021 15.2462 18.217 14.1248L18.5945 13.2748L18.7849 12.843C18.9125 12.6123 18.9426 12.5472 19.04 12.3817C19.4233 11.7469 19.8798 11.2269 20.412 10.751C21.4973 9.83198 22.8812 9.28796 24.27 9.20147C25.5393 9.13329 26.7543 9.11104 27.9451 9.06959L27.9412 9.02599ZM42.3906 47.208C42.9557 47.8516 44.495 47.4393 45.8242 46.2849C47.1535 45.1305 47.7607 43.6856 47.1819 43.0392C46.6032 42.3929 45.0776 42.808 43.7483 43.9624C42.4191 45.1168 41.8119 46.5617 42.3906 47.208ZM45.7306 41.1728C46.2956 41.8163 47.835 41.404 49.1642 40.2496C50.4934 39.0952 51.1006 37.6503 50.5219 37.0039C49.9432 36.3576 48.4176 36.7727 47.0883 37.9271C45.7591 39.0815 45.1519 40.5264 45.7306 41.1728ZM41.9961 31.8055C41.4311 31.162 39.8918 31.5743 38.5625 32.7287C37.2333 33.8831 36.6261 35.328 37.2048 35.9743C37.7698 36.6179 39.3092 36.2056 40.6384 35.0512C41.9676 33.8968 42.5748 32.4519 41.9961 31.8055ZM38.5482 37.9899C37.9832 37.3463 36.4439 37.7587 35.1146 38.9131C33.7854 40.0674 33.1782 41.5123 33.7569 42.1587C34.3357 42.8051 35.8613 42.3899 37.1905 41.2356C38.5198 40.0812 39.127 38.6363 38.5482 37.9899ZM34.8761 44.3281C34.3111 43.6845 32.7717 44.0968 31.4425 45.2512C30.1133 46.4056 29.5061 47.8505 30.0848 48.4969C30.6498 49.1405 32.1892 48.7281 33.5184 47.5737C34.8476 46.4194 35.4548 44.9745 34.8761 44.3281ZM50.5395 31.7291C49.2102 32.8835 48.603 34.3284 49.1818 34.9748C49.7468 35.6183 51.2861 35.206 52.6154 34.0516C53.9446 32.8972 54.5518 31.4523 53.9731 30.806C53.4081 30.1624 51.8687 30.5747 50.5395 31.7291ZM47.859 21.3937C47.4403 22.2352 48.437 23.5378 50.0986 24.2918C51.7603 25.0458 53.4439 24.9912 53.8625 24.1496C54.2812 23.3081 53.2845 22.0055 51.6229 21.2515C49.9645 20.4839 48.2777 20.5521 47.859 21.3937ZM34.8983 21.3358C34.4796 22.1773 35.4763 23.4799 37.1379 24.2339C38.7963 25.0016 40.4832 24.9333 40.9018 24.0918C41.3205 23.2502 40.3238 21.9476 38.6622 21.1936C37.0005 20.4396 35.3169 20.4942 34.8983 21.3358ZM38.831 11.2847C38.4123 12.1263 39.409 13.4289 41.0707 14.1829C42.7323 14.9369 44.4159 14.8822 44.8346 14.0407C45.2532 13.1992 44.2565 11.8965 42.5949 11.1425C40.9365 10.3749 39.2497 10.4432 38.831 11.2847ZM26.2453 11.4035C25.8267 12.2451 26.8234 13.5477 28.485 14.3017C30.1466 15.0557 31.8302 15.001 32.2489 14.1595C32.6676 13.3179 31.6709 12.0153 30.0093 11.2613C28.3476 10.5073 26.664 10.562 26.2453 11.4035Z" fill="white"/>
<path d="M21.8751 37.5184C21.9774 37.5109 22.025 37.4922 22.182 37.4959C22.298 37.4912 22.3938 37.5109 22.4896 37.5305C22.8865 37.6118 23.1992 37.804 23.4233 38.0065C23.6474 38.2089 23.7966 38.4245 23.9008 38.5882C24.0018 38.7654 24.0682 38.9071 24.1137 39.0161L24.1769 39.1713C24.1769 39.1713 24.0382 38.9721 23.7587 38.7014C23.4929 38.4334 23.0212 38.0664 22.4236 38.0435C22.3519 38.043 22.2802 38.0426 22.2053 38.0557L21.9602 38.1193C21.8311 38.1782 21.7021 38.2372 21.5632 38.3368C21.2992 38.5389 21.084 38.8363 20.9001 39.1828C20.5596 39.8815 20.395 40.7444 20.4487 41.595C20.4506 41.7662 20.4674 42.0543 20.4967 42.231C20.5227 42.4214 20.5695 42.6444 20.6229 42.8404C20.7296 43.2322 20.867 43.6162 21.0584 43.9543C21.2532 44.2788 21.485 44.5682 21.7535 44.7656C22.0219 44.9629 22.3269 45.0681 22.5999 45.0671C23.2041 45.0629 23.6741 44.6611 23.9304 44.3721C24.2036 44.0723 24.3242 43.8693 24.3242 43.8693L24.285 44.0321C24.2316 44.1349 24.1787 44.2949 24.0783 44.4735C23.9778 44.6522 23.837 44.8795 23.597 45.1007C23.3741 45.3112 23.0351 45.5263 22.6466 45.589C22.2243 45.6732 21.759 45.5779 21.3707 45.3417C20.9654 45.1164 20.6306 44.7774 20.3635 44.3953C20.0997 43.9997 19.8868 43.5718 19.7553 43.1037C19.6811 42.8751 19.6376 42.6384 19.5973 42.3882C19.5465 42.1217 19.531 41.9477 19.5278 41.6625C19.5067 40.6762 19.6935 39.6614 20.21 38.828C20.4546 38.4085 20.8021 38.0385 21.2056 37.7939C21.4058 37.6784 21.6437 37.5848 21.8855 37.5348L21.8751 37.5184Z" fill="white"/>
<path d="M40.718 6.97723C40.718 6.97723 40.7592 6.98565 40.7899 6.97767C42.8298 6.93886 44.8032 7.7139 46.1946 9.11161C46.288 9.20207 46.3677 9.28973 46.4579 9.39378L46.5029 9.44581L57.5707 22.626C59.5669 24.8609 59.917 28.0711 58.4647 30.8125L49.7763 47.0945C48.515 49.4613 46.0678 51.0716 43.3763 51.3051L28.0259 53.1549L27.9508 53.1681C25.7037 53.3499 23.5387 52.5927 22.0055 51.0661C21.8291 50.9016 21.6698 50.7263 21.5274 50.5402C21.5032 50.521 21.4823 50.4882 21.4718 50.4718L10.9575 36.2493C9.22596 34.1115 8.9157 31.0948 10.1784 28.5429L17.5667 12.337L17.5831 12.269C18.9066 9.64397 21.6708 7.91313 24.6244 7.84743L40.7147 6.99082L40.718 6.97723ZM20.2103 39.0286C19.7059 39.8669 19.5185 40.8842 19.5258 41.8701C19.5427 42.1589 19.5616 42.3197 19.5954 42.5977C19.6358 42.8485 19.6932 43.0885 19.7539 43.3149C19.8857 43.7842 20.0992 44.2131 20.3637 44.6096C20.6282 45.0062 20.9672 45.3324 21.3736 45.5583C21.7663 45.7814 22.2329 45.8769 22.6532 45.8061C23.0565 45.746 23.3828 45.5275 23.6064 45.3165C23.83 45.1055 23.985 44.8804 24.0891 44.6877C24.1898 44.5086 24.2428 44.3483 24.2827 44.2423L24.322 44.0792C24.322 44.0792 24.2147 44.2854 23.9407 44.586C23.67 44.8729 23.2123 45.2786 22.6064 45.2829C22.3326 45.2839 22.03 45.1649 21.7576 44.9807C21.4884 44.7829 21.2559 44.4927 21.0606 44.1674C20.8653 43.8421 20.7276 43.4573 20.6239 43.0508C20.5704 42.8544 20.5202 42.6444 20.4974 42.44C20.4681 42.2628 20.4513 41.974 20.4494 41.8024C20.4093 40.9525 20.5607 40.0847 20.9022 39.3843C21.0867 39.0369 21.3025 38.7387 21.5673 38.5361C21.7099 38.4226 21.836 38.3771 21.9655 38.318L22.2113 38.2542C22.2113 38.2542 22.3583 38.2415 22.4302 38.242C23.0295 38.2649 23.5025 38.6328 23.7691 38.9014C24.0493 39.1727 24.1884 39.3724 24.1884 39.3724L24.1251 39.2168C24.0761 39.1212 24.0266 38.9683 23.9116 38.7879C23.8104 38.6102 23.6576 38.4077 23.4328 38.2048C23.2081 38.0018 22.9115 37.7984 22.4965 37.7277C22.4004 37.7081 22.2906 37.6856 22.188 37.6931C22.0305 37.6894 21.9828 37.7081 21.8802 37.7156C21.6376 37.7659 21.4023 37.8461 21.1983 37.9755C20.7799 38.2179 20.4451 38.5916 20.1998 39.0122L20.2103 39.0286ZM20.978 23.7638C21.3707 23.9869 21.8373 24.0825 22.2576 24.0116C22.6609 23.9515 22.9871 23.733 23.2107 23.522C23.4344 23.311 23.5894 23.086 23.6934 22.8933C23.7941 22.7142 23.8471 22.5538 23.8871 22.4479L23.9264 22.2847C23.9264 22.2847 23.8191 22.491 23.5451 22.7915C23.2743 23.0785 22.8166 23.4841 22.2108 23.4884C21.9369 23.4894 21.6344 23.3704 21.3619 23.1862C21.0927 22.9884 20.8602 22.6983 20.6649 22.373C20.4697 22.0477 20.332 21.6628 20.2283 21.2564C20.1748 21.06 20.1245 20.8499 20.1018 20.6455C20.0724 20.4683 20.0556 20.1796 20.0537 20.008C20.0136 19.1581 20.165 18.2903 20.5065 17.5898C20.691 17.2424 20.9069 16.9442 21.1717 16.7417C21.3142 16.6282 21.4404 16.5827 21.5698 16.5236L21.8156 16.4598C21.8156 16.4598 21.9626 16.4471 22.0345 16.4476C22.6339 16.4704 23.1069 16.8383 23.3734 17.1069C23.6537 17.3783 23.7928 17.578 23.7928 17.578L23.7294 17.4224C23.6805 17.3267 23.6309 17.1739 23.5159 16.9934C23.4147 16.8158 23.2619 16.6133 23.0372 16.4103C22.8124 16.2074 22.5158 16.004 22.1008 15.9333C22.0047 15.9136 21.8949 15.8911 21.7923 15.8987C21.6315 15.9085 21.5871 15.9137 21.4845 15.9212C21.242 15.9714 21.0066 16.0516 20.8027 16.181C20.3842 16.4235 20.0494 16.7972 19.8041 17.2177C19.2998 18.056 19.1091 19.087 19.1197 20.0592C19.1366 20.348 19.1554 20.5088 19.1893 20.7868C19.2297 21.0376 19.2871 21.2776 19.3478 21.5041C19.4795 21.9733 19.6931 22.4022 19.9576 22.7988C20.2221 23.1953 20.5611 23.5216 20.9675 23.7474L20.978 23.7638ZM19.0425 12.3681C18.945 12.5336 18.9117 12.6124 18.7874 12.8295L18.597 13.2613L18.2194 14.1113C17.7012 15.2463 17.2275 16.3762 16.7531 17.4489C15.8115 19.6243 14.9608 21.6614 14.2508 23.4135C12.8171 26.9147 11.9701 29.295 11.9701 29.295C11.9701 29.295 13.2229 27.0834 14.9317 23.6956C15.7998 22.0044 16.7812 20.0226 17.8019 17.8777C18.3037 16.8106 18.8565 15.7112 19.3747 14.5761L19.766 13.7289L19.9701 13.2999C19.9701 13.2999 20.1042 13.0421 20.1716 12.9417C20.4509 12.4996 20.8328 12.05 21.2637 11.6959C21.6436 11.3743 22.0653 11.1182 22.5183 10.9114L33.4033 23.6547C35.8064 26.4722 38.2173 26.866 39.7003 26.9272L56.3781 27.5177L39.9121 29.3959C38.2983 29.579 35.5433 29.9564 34.1596 32.7118C34.153 32.739 34.1327 32.7634 34.1125 32.7877L25.0762 50.7533C25.9224 51.1263 26.8622 51.2902 27.8335 51.2038L43.2282 49.3488C45.2564 49.1792 47.085 47.9844 48.031 46.2093L56.7194 29.9272C57.7929 27.9215 57.5307 25.5424 56.0544 23.8991L44.9658 10.6861C44.8965 10.6148 44.841 10.5464 44.7685 10.4887C43.7337 9.46365 42.2863 8.8962 40.77 8.91382C40.77 8.91382 38.2289 8.82147 34.4296 8.87091C32.5264 8.88063 30.3087 8.9401 27.944 9.01226C26.7532 9.05373 25.5486 9.09238 24.2689 9.14418C22.8937 9.2335 21.5065 9.79116 20.4106 10.6938C19.8647 11.1669 19.4219 11.6897 19.0386 12.3245L19.0425 12.3681Z" fill="url(#paint9_linear_1290_48239)"/>
<path d="M38.6231 21.3107C40.2879 22.0821 41.2885 23.3907 40.8717 24.2224C40.4515 25.0677 38.7615 25.1224 37.0935 24.3648C35.4287 23.5934 34.428 22.2848 34.8449 21.4531C35.2618 20.6214 36.9551 20.5531 38.6231 21.3107Z" fill="url(#paint10_linear_1290_48239)"/>
<path d="M51.7085 21.4764C53.3733 22.2478 54.374 23.5564 53.9571 24.3881C53.5369 25.2334 51.847 25.2881 50.1789 24.5305C48.5109 23.7728 47.5135 22.4505 47.9304 21.6188C48.3505 20.7735 50.0405 20.7188 51.7085 21.4764Z" fill="url(#paint11_linear_1290_48239)"/>
<path d="M29.7921 11.4084C31.4568 12.1797 32.4575 13.4884 32.0406 14.3201C31.6204 15.1654 29.9305 15.2201 28.2624 14.4624C26.5944 13.7048 25.597 12.3824 26.0139 11.5507C26.4307 10.7191 28.124 10.6507 29.7921 11.4084Z" fill="url(#paint12_linear_1290_48239)"/>
<path d="M42.4993 11.3825C44.1641 12.1538 45.1648 13.4625 44.7479 14.2942C44.3277 15.1395 42.6377 15.1942 40.9697 14.4365C39.3016 13.6789 38.3043 12.3565 38.7211 11.5249C39.138 10.6932 40.8313 10.6248 42.4993 11.3825Z" fill="url(#paint13_linear_1290_48239)"/>
<path d="M52.8049 34.1704C51.4774 35.3234 49.9537 35.7381 49.3756 35.0924C48.8113 34.4496 49.4177 33.0064 50.7316 31.8505C52.0591 30.6975 53.5829 30.2829 54.1609 30.9285C54.7252 31.5713 54.1188 33.0146 52.8049 34.1704Z" fill="url(#paint14_linear_1290_48239)"/>
<path d="M37.2936 35.9826C36.7293 35.3397 37.3357 33.8965 38.6495 32.7407C39.9634 31.5848 41.5008 31.173 42.0789 31.8186C42.6432 32.4615 42.0368 33.9047 40.7229 35.0605C39.409 36.2164 37.8716 36.6282 37.2936 35.9826Z" fill="url(#paint15_linear_1290_48239)"/>
<path d="M50.7354 37.0418C51.2997 37.6846 50.6933 39.1279 49.3794 40.2837C48.0518 41.4367 46.5281 41.8514 45.9501 41.2057C45.3858 40.5629 45.9922 39.1196 47.306 37.9638C48.6336 36.8108 50.1573 36.3961 50.7354 37.0418Z" fill="url(#paint16_linear_1290_48239)"/>
<path d="M33.8847 42.0851C33.3203 41.4423 33.9267 39.9991 35.2406 38.8432C36.5682 37.6902 38.0919 37.2755 38.6699 37.9212C39.2343 38.564 38.6278 40.0072 37.314 41.1631C36.0001 42.3189 34.4627 42.7307 33.8847 42.0851Z" fill="url(#paint17_linear_1290_48239)"/>
<path d="M47.4202 42.9947C47.9845 43.6375 47.3781 45.0807 46.0642 46.2366C44.7366 47.3896 43.2129 47.8042 42.6349 47.1586C42.0706 46.5158 42.677 45.0725 43.9908 43.9167C45.3184 42.7637 46.8421 42.349 47.4202 42.9947Z" fill="url(#paint18_linear_1290_48239)"/>
<path d="M30.2372 48.3356C29.6729 47.6928 30.2793 46.2495 31.5931 45.0937C32.9207 43.9407 34.4444 43.526 35.0225 44.1717C35.5868 44.8145 34.9804 46.2577 33.6665 47.4136C32.3389 48.5666 30.8152 48.9812 30.2372 48.3356Z" fill="url(#paint19_linear_1290_48239)"/>
<path d="M62.0612 60.99C62.1313 60.8187 62.2426 60.6559 62.3781 60.5123C62.4494 60.4555 62.4697 60.4311 62.5751 60.3527C62.6464 60.2959 62.7282 60.2555 62.793 60.2259C63.0894 60.0724 63.3943 60.0635 63.6344 60.0841C63.8744 60.1047 64.0739 60.1741 64.2355 60.2215C64.3938 60.2825 64.5076 60.3486 64.5835 60.3927L64.6973 60.4589C64.6973 60.4589 64.5082 60.4059 64.2027 60.3576C63.894 60.3229 63.4072 60.3089 63.0094 60.5844C62.9583 60.6168 62.921 60.652 62.8667 60.698L62.7449 60.8444C62.6945 60.9341 62.6271 61.0345 62.5943 61.1706C62.532 61.4292 62.5214 61.7126 62.5795 62.0101C62.6957 62.6051 63.0212 63.2287 63.4619 63.7331C63.5521 63.8373 63.6979 64.01 63.8189 64.1061C63.9366 64.2159 64.068 64.3285 64.189 64.4247C64.4585 64.6227 64.7345 64.7935 65.0236 64.9098C65.3127 65.0261 65.6011 65.0852 65.8753 65.0842C66.1356 65.0804 66.3987 65.0058 66.5754 64.8706C66.9628 64.5787 67.0775 64.1023 67.1051 63.8081C67.1393 63.4867 67.1099 63.3093 67.1099 63.3093L67.1524 63.4322C67.1772 63.5087 67.2197 63.6316 67.249 63.809C67.2679 63.97 67.2907 64.1746 67.2455 64.4223C67.2035 64.6565 67.0902 64.9475 66.8598 65.1859C66.6261 65.4379 66.2715 65.5938 65.8985 65.6459C65.5256 65.6981 65.1482 65.6493 64.7734 65.5297C64.4123 65.4129 64.0506 65.2389 63.7432 65.0189C63.5843 64.9006 63.4391 64.7852 63.2835 64.6534C63.1174 64.5051 63.0239 64.4146 62.8781 64.2419C62.3746 63.639 62.0001 62.9196 61.9266 62.1477C61.8881 61.7686 61.925 61.3762 62.0684 61.02L62.0612 60.99Z" fill="white"/>
<path d="M54.1882 54.2747L54.1739 54.2146C53.7518 51.9581 54.6987 49.5822 56.591 48.128L66.6694 39.9698L66.7204 39.9374C67.1247 39.6347 67.5775 39.3705 68.0446 39.1664C69.1868 38.6722 70.4014 38.5354 71.5891 38.7501C71.6028 38.7529 71.6303 38.7585 71.644 38.7613L85.3142 41.7178C87.7137 42.1663 89.5219 43.9928 89.8942 46.3962L92.1979 60.6449C92.5357 62.7128 91.7268 64.8743 90.0845 66.3083L80.9785 74.7371L80.9412 74.7722C80.4492 75.1997 79.8878 75.5559 79.2775 75.8164C78.0705 76.3402 76.7119 76.476 75.4583 76.1764C75.4308 76.1708 75.4034 76.1652 75.3896 76.1624L61.5793 72.2921C59.3983 71.7741 57.7247 70.0465 57.3 67.8609L54.1882 54.2747ZM63.7047 64.9037C63.8504 65.0763 63.9439 65.1668 64.11 65.315C64.2623 65.4604 64.4074 65.5758 64.5696 65.6804C64.8873 65.9168 65.2385 66.0744 65.5995 66.1911C65.9604 66.3079 66.3548 66.3458 66.7244 66.3073C67.0972 66.2551 67.4518 66.0993 67.6854 65.8474C67.9125 65.6226 68.0258 65.3317 68.071 65.084C68.13 64.8391 68.1072 64.6345 68.0746 64.4708C68.0557 64.3099 68.0132 64.187 67.978 64.0941L67.9355 63.9712C67.9355 63.9712 67.9616 64.1622 67.9307 64.4699C67.8998 64.7777 67.7884 65.2403 67.401 65.5321C67.2244 65.6673 66.9614 65.7419 66.7011 65.7457C66.4271 65.7467 66.1419 65.674 65.8496 65.5713C65.5606 65.455 65.2847 65.2843 65.0153 65.0864C64.8806 64.9874 64.7492 64.8749 64.6453 64.7679C64.538 64.6746 64.3785 64.4992 64.2883 64.395C63.8477 63.8908 63.5223 63.2674 63.4062 62.6725C63.3481 62.3751 63.3483 62.0753 63.421 61.8332C63.4538 61.6972 63.5212 61.5968 63.5716 61.5071L63.6933 61.3607C63.6933 61.3607 63.7849 61.2796 63.836 61.2472C64.2338 60.9717 64.7204 60.9857 65.0291 61.0204C65.3515 61.0579 65.5235 61.1216 65.5235 61.1216L65.4097 61.0555C65.3339 61.0114 65.2201 60.9453 65.0618 60.8843C64.9036 60.8234 64.7009 60.7676 64.4608 60.747C64.2208 60.7264 63.9265 60.7518 63.6197 60.8888C63.5379 60.9292 63.4698 60.9723 63.4018 61.0155C63.2964 61.0939 63.2762 61.1183 63.2048 61.175C63.0694 61.3186 62.9581 61.4814 62.888 61.6527C62.7446 62.0088 62.7078 62.401 62.7462 62.7801C62.8197 63.5518 63.2079 64.2737 63.6975 64.8737L63.7047 64.9037ZM58.0443 62.6167C57.7782 61.1488 57.4513 59.4543 57.0683 57.6341C56.8699 56.7226 56.6918 55.7867 56.4725 54.8424L56.314 54.1246L56.2278 53.7643C56.2278 53.7643 56.1978 53.5298 56.19 53.4425C56.1582 53.0362 56.1839 52.5704 56.2855 52.1486C56.3773 51.7677 56.5207 51.4116 56.719 51.0667L70.0446 53.8384C72.9974 54.443 74.752 53.5603 75.7517 52.8798L86.9057 45.3416L77.0931 54.3109C76.1332 55.1851 74.5228 56.7256 74.9598 59.0994C74.9637 59.143 74.9814 59.1894 74.9853 59.2331L77.8771 74.6302C78.1505 74.572 78.4167 74.4837 78.6588 74.3762C79.0951 74.1801 79.5171 73.9238 79.8973 73.6019L89.0235 65.1488C90.2589 64.0883 90.8647 62.4706 90.6182 60.9211L88.3145 46.6723C88.0315 44.9154 86.6874 43.5552 84.9334 43.2388L71.2495 40.2795C70.3673 40.1132 69.4574 40.2409 68.6253 40.5845C68.2878 40.7295 67.9508 40.9318 67.6381 41.1532C67.6381 41.1532 65.9481 42.3062 63.4912 44.1302C62.2644 45.0354 60.8374 46.1137 59.3293 47.2897C58.582 47.879 57.8041 48.4764 57.0025 49.1117C56.1401 49.8203 55.5105 50.8192 55.2483 51.9077C55.1172 52.4519 55.0856 53.0022 55.15 53.5722C55.1689 53.7331 55.1865 53.7795 55.2093 53.9841L55.2955 54.3444C55.3529 54.5846 55.4104 54.8247 55.4678 55.0649C55.6871 56.0093 55.9234 56.9428 56.1525 57.8463C56.6003 59.637 57.0469 61.3131 57.436 62.7491C58.2175 65.6074 58.8307 67.489 58.8307 67.489C58.8307 67.489 58.5557 65.5196 58.0201 62.5975L58.0443 62.6167Z" fill="black"/>
<path d="M72.2277 49.8822C73.6867 49.5801 74.981 49.9026 75.1091 50.6301C75.251 51.3605 74.1857 52.1868 72.7234 52.5025C71.2611 52.8182 69.9701 52.4821 69.8419 51.7546C69.7 51.0243 70.7791 50.2007 72.2277 49.8822Z" fill="black"/>
<path d="M71.5068 48.4669C70.0478 48.769 68.7535 48.4465 68.6253 47.719C68.4834 46.9886 69.5488 46.1623 71.0111 45.8466C72.4701 45.5445 73.7644 45.867 73.8926 46.5945C74.0345 47.3248 72.9691 48.1512 71.5068 48.4669Z" fill="black"/>
<path d="M70.2736 44.4415C68.8146 44.7436 67.5203 44.4211 67.3922 43.6936C67.2502 42.9633 68.3156 42.1369 69.7779 41.8212C71.237 41.5191 72.5312 41.8416 72.6594 42.5691C72.8013 43.2994 71.736 44.1258 70.2736 44.4415Z" fill="black"/>
<path d="M85.9466 53.5614C85.2639 53.4213 84.958 52.2503 85.2529 50.9042C85.5446 49.5716 86.3408 48.5841 87.0268 48.7107C87.7095 48.8507 88.0154 50.0218 87.7205 51.3679C87.4255 52.714 86.6326 53.6879 85.9466 53.5614Z" fill="black"/>
<path d="M78.6319 59.7366C77.9492 59.5966 77.6433 58.4255 77.9382 57.0794C78.2299 55.7469 79.0261 54.7594 79.7121 54.8859C80.3948 55.026 80.7007 56.1971 80.4058 57.5432C80.1141 58.8757 79.3179 59.8632 78.6319 59.7366Z" fill="black"/>
<path d="M83.1307 62.0874C82.448 61.9473 82.1421 60.7763 82.437 59.4302C82.7319 58.0841 83.5248 57.1101 84.2108 57.2367C84.8968 57.3632 85.1995 58.5478 84.9045 59.8939C84.6128 61.2264 83.8167 62.2139 83.1307 62.0874Z" fill="black"/>
<path d="M88.6962 59.458C89.3789 59.5981 89.6848 60.7691 89.3899 62.1152C89.095 63.4613 88.302 64.4352 87.6161 64.3087C86.9334 64.1686 86.6274 62.9976 86.9224 61.6515C87.214 60.3189 88.0102 59.3314 88.6962 59.458Z" fill="black"/>
<path d="M82.0127 68.6162C81.721 69.9487 80.9248 70.9362 80.2389 70.8096C79.5562 70.6696 79.2502 69.4985 79.5452 68.1524C79.8369 66.8199 80.633 65.8324 81.319 65.9589C82.0017 66.099 82.3076 67.2701 82.0127 68.6162Z" fill="black"/>
<path d="M17.91 20.2008C17.8592 19.9342 17.8437 19.7603 17.8405 19.475C17.8194 18.4887 18.0062 17.4739 18.5228 16.6405C18.7673 16.221 19.1148 15.851 19.5184 15.6064C19.7185 15.4909 19.9564 15.3973 20.1982 15.3472C20.3005 15.3398 20.3481 15.321 20.5052 15.3248C20.6212 15.3201 20.717 15.3397 20.8128 15.3593C21.2097 15.4407 21.5224 15.6328 21.7465 15.8353C21.9707 16.0378 22.1198 16.2534 22.224 16.417C22.325 16.5943 22.3914 16.736 22.437 16.8449L22.5001 17.0002C22.5001 17.0002 22.3614 16.801 22.0819 16.5302C21.8161 16.2623 21.3444 15.8952 20.7468 15.8724C20.6751 15.8719 20.6034 15.8714 20.5284 15.8846L20.2834 15.9482C20.1543 16.0071 20.0252 16.066 19.8864 16.1657C19.6223 16.3677 19.4071 16.6652 19.2232 17.0117C18.8827 17.7104 18.7181 18.5733 18.7719 19.4239C18.7738 19.5951 18.7906 19.8832 18.8198 20.0599C18.8458 20.2503 18.8927 20.4734 18.946 20.6693C19.0527 21.0612 19.1901 21.4451 19.3816 21.7832C19.5763 22.1077 19.8082 22.3972 20.0766 22.5945C20.3451 22.7919 20.65 22.897 20.9231 22.8961C21.5273 22.8918 21.9973 22.49 22.2536 22.201C22.5268 21.9012 22.6474 21.6983 22.6474 21.6983L22.6083 21.861C22.5548 21.9639 22.5019 22.1238 22.4015 22.3025C22.301 22.4811 22.1602 22.7084 21.9202 22.9297C21.6973 23.1401 21.3583 23.3553 20.9698 23.418C20.5475 23.5022 20.0822 23.4068 19.6938 23.1707C19.2886 22.9453 18.9537 22.6063 18.6866 22.2243C18.4229 21.8287 18.2099 21.4008 18.0785 20.9327C18.0043 20.704 17.9607 20.4674 17.9204 20.2172L17.91 20.2008Z" fill="white"/>
<path d="M20.8028 36.9483C20.9051 36.9408 20.9527 36.9221 21.1098 36.9259C21.2258 36.9212 21.3216 36.9408 21.4174 36.9604C21.8142 37.0418 22.127 37.2339 22.3511 37.4364C22.5752 37.6389 22.7243 37.8544 22.8285 38.0181C22.9295 38.1953 22.9959 38.337 23.0415 38.446L23.1046 38.6013C23.1046 38.6013 22.9659 38.402 22.6864 38.1313C22.4206 37.8634 21.949 37.4963 21.3513 37.4734C21.2796 37.473 21.208 37.4725 21.133 37.4856L20.8879 37.5492C20.7589 37.6082 20.6298 37.6671 20.4909 37.7667C20.2269 37.9688 20.0117 38.2662 19.8278 38.6128C19.4873 39.3115 19.3227 40.1743 19.3765 41.025C19.3784 41.1961 19.3952 41.4842 19.4244 41.661C19.4504 41.8513 19.4973 42.0744 19.5506 42.2703C19.6573 42.6622 19.7947 43.0461 19.9862 43.3842C20.1809 43.7087 20.4128 43.9982 20.6812 44.1955C20.9496 44.3928 21.2546 44.498 21.5277 44.4971C22.1318 44.4928 22.6019 44.091 22.8581 43.802C23.1313 43.5022 23.2519 43.2992 23.2519 43.2992L23.2128 43.462C23.1593 43.5649 23.1064 43.7248 23.006 43.9035C22.9056 44.0821 22.7647 44.3094 22.5248 44.5306C22.3018 44.7411 21.9628 44.9562 21.5744 45.0189C21.152 45.1032 20.6867 45.0078 20.2984 44.7717C19.8931 44.5463 19.5583 44.2073 19.2913 43.8252C19.0275 43.4296 18.8145 43.0018 18.6831 42.5337C18.6089 42.305 18.5653 42.0684 18.525 41.8182C18.4743 41.5516 18.4587 41.3777 18.4556 41.0924C18.4345 40.1061 18.6213 39.0913 19.1378 38.2579C19.3823 37.8384 19.7299 37.4684 20.1334 37.2238C20.3335 37.1083 20.5714 37.0147 20.8132 36.9647L20.8028 36.9483Z" fill="white"/>
<path d="M39.6457 6.40716C39.6457 6.40716 39.6869 6.41558 39.7176 6.4076C41.7575 6.36879 43.7309 7.14383 45.1224 8.54154C45.2158 8.632 45.2955 8.71966 45.3856 8.82371L45.4307 8.87574L56.4984 22.0559C58.4947 24.2908 58.8447 27.5011 57.3924 30.2424L48.704 46.5245C47.4427 48.8912 44.9956 50.5015 42.304 50.735L26.9537 52.5849L26.8785 52.598C24.6314 52.7798 22.4665 52.0226 20.9333 50.496C20.7569 50.3315 20.5975 50.1562 20.4551 49.9701C20.4309 49.9509 20.41 49.9181 20.3996 49.9017L9.88528 35.6793C8.1537 33.5414 7.84343 30.5247 9.10612 27.9728L16.4945 11.7669L16.5108 11.699C17.8343 9.0739 20.5986 7.34306 23.5521 7.27736L39.6425 6.42075L39.6457 6.40716ZM19.138 38.4585C18.6337 39.2968 18.4462 40.3142 18.4536 41.3C18.4704 41.5888 18.4893 41.7496 18.5231 42.0276C18.5635 42.2784 18.6209 42.5184 18.6816 42.7448C18.8134 43.2141 19.0269 43.643 19.2914 44.0395C19.5559 44.4361 19.895 44.7623 20.3014 44.9882C20.6941 45.2113 21.1607 45.3069 21.581 45.236C21.9843 45.1759 22.3105 44.9574 22.5341 44.7464C22.7578 44.5354 22.9128 44.3103 23.0168 44.1176C23.1175 43.9385 23.1706 43.7782 23.2105 43.6722L23.2498 43.5091C23.2498 43.5091 23.1425 43.7154 22.8685 44.0159C22.5978 44.3029 22.14 44.7085 21.5342 44.7128C21.2603 44.7138 20.9578 44.5948 20.6853 44.4106C20.4161 44.2128 20.1836 43.9227 19.9883 43.5974C19.7931 43.272 19.6554 42.8872 19.5517 42.4808C19.4982 42.2843 19.4479 42.0743 19.4252 41.8699C19.3958 41.6927 19.379 41.4039 19.3771 41.2324C19.337 40.3824 19.4884 39.5147 19.83 38.8142C20.0144 38.4668 20.2303 38.1686 20.4951 37.966C20.6376 37.8526 20.7638 37.8071 20.8932 37.748L21.139 37.6842C21.139 37.6842 21.2861 37.6715 21.3579 37.6719C21.9573 37.6948 22.4303 38.0627 22.6968 38.3313C22.9771 38.6027 23.1162 38.8024 23.1162 38.8024L23.0529 38.6467C23.0039 38.5511 22.9543 38.3983 22.8393 38.2178C22.7381 38.0402 22.5853 37.8377 22.3606 37.6347C22.1358 37.4318 21.8392 37.2284 21.4242 37.1577C21.3281 37.138 21.2184 37.1155 21.1157 37.123C20.9582 37.1193 20.9105 37.1381 20.8079 37.1456C20.5654 37.1958 20.3301 37.276 20.1261 37.4054C19.7077 37.6479 19.3728 38.0216 19.1275 38.4421L19.138 38.4585ZM19.9057 23.1938C20.2984 23.4169 20.765 23.5124 21.1853 23.4415C21.5886 23.3815 21.9148 23.163 22.1385 22.9519C22.3621 22.7409 22.5171 22.5159 22.6211 22.3232C22.7219 22.1441 22.7749 21.9838 22.8148 21.8778L22.8541 21.7147C22.8541 21.7147 22.7468 21.9209 22.4728 22.2215C22.2021 22.5084 21.7444 22.914 21.1385 22.9184C20.8646 22.9194 20.5621 22.8003 20.2896 22.6162C20.0205 22.4184 19.7879 22.1282 19.5927 21.8029C19.3974 21.4776 19.2597 21.0927 19.156 20.6863C19.1025 20.4899 19.0523 20.2799 19.0295 20.0755C19.0002 19.8983 18.9833 19.6095 18.9814 19.4379C18.9413 18.588 19.0928 17.7202 19.4343 17.0198C19.6188 16.6724 19.8346 16.3742 20.0994 16.1716C20.2419 16.0581 20.3681 16.0126 20.4975 15.9535L20.7433 15.8897C20.7433 15.8897 20.8904 15.877 20.9623 15.8775C21.5616 15.9004 22.0346 16.2683 22.3011 16.5369C22.5814 16.8082 22.7205 17.0079 22.7205 17.0079L22.6572 16.8523C22.6082 16.7567 22.5586 16.6038 22.4437 16.4234C22.3425 16.2457 22.1896 16.0432 21.9649 15.8403C21.7402 15.6373 21.4435 15.4339 21.0285 15.3632C20.9325 15.3435 20.8227 15.3211 20.7201 15.3286C20.5593 15.3385 20.5148 15.3436 20.4122 15.3511C20.1697 15.4013 19.9344 15.4815 19.7304 15.611C19.312 15.8534 18.9772 16.2271 18.7319 16.6477C18.2275 17.486 18.0368 18.5169 18.0475 19.4892C18.0643 19.778 18.0832 19.9388 18.117 20.2167C18.1574 20.4675 18.2148 20.7076 18.2755 20.934C18.4073 21.4032 18.6208 21.8321 18.8853 22.2287C19.1498 22.6253 19.4888 22.9515 19.8953 23.1774L19.9057 23.1938ZM17.9702 11.7981C17.8728 11.9636 17.8394 12.0423 17.7151 12.2594L17.5247 12.6912L17.1472 13.5412C16.629 14.6763 16.1552 15.8062 15.6808 16.8789C14.7392 19.0543 13.8886 21.0914 13.1785 22.8434C11.7448 26.3447 10.8979 28.7249 10.8979 28.7249C10.8979 28.7249 12.1506 26.5134 13.8594 23.1255C14.7276 21.4344 15.709 19.4526 16.7296 17.3076C17.2314 16.2406 17.7843 15.1411 18.3025 14.0061L18.6937 13.1589L18.8979 12.7299C18.8979 12.7299 19.032 12.472 19.0993 12.3717C19.3786 11.9295 19.7606 11.4799 20.1915 11.1259C20.5713 10.8042 20.993 10.5482 21.4461 10.3413L32.331 23.0846C34.7342 25.9022 37.145 26.296 38.628 26.3571L55.3058 26.9476L38.8398 28.8258C37.226 29.0089 34.471 29.3863 33.0873 32.1417C33.0807 32.1689 33.0605 32.1933 33.0402 32.2177L24.0039 50.1833C24.8502 50.5563 25.7899 50.7202 26.7612 50.6337L42.156 48.7787C44.1841 48.6091 46.0128 47.4143 46.9588 45.6392L55.6471 29.3572C56.7206 27.3514 56.4584 24.9723 54.9821 23.329L43.8935 10.116C43.8242 10.0447 43.7687 9.97631 43.6962 9.91866C42.6614 8.89358 41.214 8.32613 39.6977 8.34375C39.6977 8.34375 37.1566 8.2514 33.3573 8.30084C31.4541 8.31056 29.2365 8.37003 26.8718 8.44219C25.6809 8.48366 24.4763 8.52231 23.1966 8.57411C21.8214 8.66343 20.4342 9.22109 19.3384 10.1237C18.7924 10.5968 18.3497 11.1197 17.9663 11.7545L17.9702 11.7981Z" fill="black"/>
<path d="M37.5508 20.7407C39.2156 21.512 40.2163 22.8207 39.7994 23.6523C39.3792 24.4977 37.6892 24.5524 36.0212 23.7947C34.3564 23.0234 33.3558 21.7147 33.7726 20.883C34.1895 20.0513 35.8828 19.983 37.5508 20.7407Z" fill="black"/>
<path d="M50.6363 20.9064C52.301 21.6777 53.3017 22.9864 52.8848 23.818C52.4647 24.6634 50.7747 24.7181 49.1066 23.9604C47.4386 23.2027 46.4412 21.8804 46.8581 21.0487C47.2783 20.2034 48.9682 20.1487 50.6363 20.9064Z" fill="black"/>
<path d="M28.7198 10.8383C30.3846 11.6097 31.3852 12.9183 30.9683 13.75C30.5482 14.5953 28.8582 14.65 27.1901 13.8924C25.5221 13.1347 24.5247 11.8124 24.9416 10.9807C25.3585 10.149 27.0517 10.0807 28.7198 10.8383Z" fill="black"/>
<path d="M41.4271 10.8124C43.0918 11.5838 44.0925 12.8924 43.6756 13.7241C43.2555 14.5694 41.5655 14.6241 39.8974 13.8665C38.2294 13.1088 37.232 11.7865 37.6489 10.9548C38.0657 10.1231 39.759 10.0548 41.4271 10.8124Z" fill="black"/>
<path d="M51.7327 33.6003C50.4051 34.7534 48.8814 35.168 48.3034 34.5224C47.739 33.8795 48.3454 32.4363 49.6593 31.2805C50.9869 30.1274 52.5106 29.7128 53.0886 30.3584C53.653 31.0013 53.0465 32.4445 51.7327 33.6003Z" fill="black"/>
<path d="M36.2213 35.4125C35.657 34.7697 36.2634 33.3264 37.5773 32.1706C38.8912 31.0148 40.4286 30.6029 41.0066 31.2486C41.5709 31.8914 40.9645 33.3346 39.6506 34.4905C38.3368 35.6463 36.7994 36.0581 36.2213 35.4125Z" fill="black"/>
<path d="M49.6631 36.4717C50.2274 37.1145 49.621 38.5578 48.3071 39.7136C46.9796 40.8667 45.4559 41.2813 44.8778 40.6357C44.3135 39.9928 44.9199 38.5496 46.2338 37.3937C47.5614 36.2407 49.0851 35.8261 49.6631 36.4717Z" fill="black"/>
<path d="M32.8124 41.515C32.2481 40.8722 32.8545 39.429 34.1683 38.2731C35.4959 37.1201 37.0196 36.7055 37.5977 37.3511C38.162 37.9939 37.5556 39.4372 36.2417 40.593C34.9278 41.7489 33.3904 42.1607 32.8124 41.515Z" fill="black"/>
<path d="M46.3479 42.4246C46.9122 43.0674 46.3058 44.5107 44.9919 45.6665C43.6644 46.8195 42.1407 47.2342 41.5626 46.5885C40.9983 45.9457 41.6047 44.5025 42.9186 43.3466C44.2462 42.1936 45.7699 41.779 46.3479 42.4246Z" fill="black"/>
<path d="M29.1649 47.7655C28.6006 47.1227 29.207 45.6795 30.5209 44.5236C31.8485 43.3706 33.3722 42.956 33.9502 43.6016C34.5145 44.2444 33.9081 45.6877 32.5942 46.8435C31.2667 47.9965 29.743 48.4112 29.1649 47.7655Z" fill="black"/>
<defs>
<linearGradient id="paint0_linear_1290_48239" x1="91.0819" y1="16.3775" x2="86.6989" y2="76.8843" gradientUnits="userSpaceOnUse">
<stop offset="0.195" stop-color="#FFFCE8"/>
<stop offset="0.35" stop-color="#EEDBAB"/>
<stop offset="0.475" stop-color="#EEC173"/>
<stop offset="0.615" stop-color="#D6B35A"/>
<stop offset="0.77" stop-color="#FEE492"/>
<stop offset="0.91" stop-color="#EEBD57"/>
<stop offset="1" stop-color="#B48024"/>
</linearGradient>
<linearGradient id="paint1_linear_1290_48239" x1="75.3145" y1="48.0088" x2="74.7138" y2="53.5533" gradientUnits="userSpaceOnUse">
<stop offset="0.195" stop-color="#FFFCE8"/>
<stop offset="0.35" stop-color="#EEDBAB"/>
<stop offset="0.475" stop-color="#EEC173"/>
<stop offset="0.615" stop-color="#D6B35A"/>
<stop offset="0.77" stop-color="#FEE492"/>
<stop offset="0.91" stop-color="#EEBD57"/>
<stop offset="1" stop-color="#B48024"/>
</linearGradient>
<linearGradient id="paint2_linear_1290_48239" x1="74.0968" y1="43.9769" x2="73.4961" y2="49.5119" gradientUnits="userSpaceOnUse">
<stop offset="0.195" stop-color="#FFFCE8"/>
<stop offset="0.35" stop-color="#EEDBAB"/>
<stop offset="0.475" stop-color="#EEC173"/>
<stop offset="0.615" stop-color="#D6B35A"/>
<stop offset="0.77" stop-color="#FEE492"/>
<stop offset="0.91" stop-color="#EEBD57"/>
<stop offset="1" stop-color="#B48024"/>
</linearGradient>
<linearGradient id="paint3_linear_1290_48239" x1="72.8636" y1="39.9519" x2="72.263" y2="45.487" gradientUnits="userSpaceOnUse">
<stop offset="0.195" stop-color="#FFFCE8"/>
<stop offset="0.35" stop-color="#EEDBAB"/>
<stop offset="0.475" stop-color="#EEC173"/>
<stop offset="0.615" stop-color="#D6B35A"/>
<stop offset="0.77" stop-color="#FEE492"/>
<stop offset="0.91" stop-color="#EEBD57"/>
<stop offset="1" stop-color="#B48024"/>
</linearGradient>
<linearGradient id="paint4_linear_1290_48239" x1="89.4017" y1="45.8491" x2="89.9916" y2="53.9376" gradientUnits="userSpaceOnUse">
<stop offset="0.195" stop-color="#FFFCE8"/>
<stop offset="0.35" stop-color="#EEDBAB"/>
<stop offset="0.475" stop-color="#EEC173"/>
<stop offset="0.615" stop-color="#D6B35A"/>
<stop offset="0.77" stop-color="#FEE492"/>
<stop offset="0.91" stop-color="#EEBD57"/>
<stop offset="1" stop-color="#B48024"/>
</linearGradient>
<linearGradient id="paint5_linear_1290_48239" x1="82.0868" y1="52.0244" x2="82.6767" y2="60.1129" gradientUnits="userSpaceOnUse">
<stop offset="0.195" stop-color="#FFFCE8"/>
<stop offset="0.35" stop-color="#EEDBAB"/>
<stop offset="0.475" stop-color="#EEC173"/>
<stop offset="0.615" stop-color="#D6B35A"/>
<stop offset="0.77" stop-color="#FEE492"/>
<stop offset="0.91" stop-color="#EEBD57"/>
<stop offset="1" stop-color="#B48024"/>
</linearGradient>
<linearGradient id="paint6_linear_1290_48239" x1="86.5856" y1="54.3749" x2="87.1755" y2="62.4635" gradientUnits="userSpaceOnUse">
<stop offset="0.195" stop-color="#FFFCE8"/>
<stop offset="0.35" stop-color="#EEDBAB"/>
<stop offset="0.475" stop-color="#EEC173"/>
<stop offset="0.615" stop-color="#D6B35A"/>
<stop offset="0.77" stop-color="#FEE492"/>
<stop offset="0.91" stop-color="#EEBD57"/>
<stop offset="1" stop-color="#B48024"/>
</linearGradient>
<linearGradient id="paint7_linear_1290_48239" x1="91.0709" y1="56.5964" x2="91.6608" y2="64.6849" gradientUnits="userSpaceOnUse">
<stop offset="0.195" stop-color="#FFFCE8"/>
<stop offset="0.35" stop-color="#EEDBAB"/>
<stop offset="0.475" stop-color="#EEC173"/>
<stop offset="0.615" stop-color="#D6B35A"/>
<stop offset="0.77" stop-color="#FEE492"/>
<stop offset="0.91" stop-color="#EEBD57"/>
<stop offset="1" stop-color="#B48024"/>
</linearGradient>
<linearGradient id="paint8_linear_1290_48239" x1="83.6937" y1="63.0974" x2="84.2836" y2="71.1859" gradientUnits="userSpaceOnUse">
<stop offset="0.195" stop-color="#FFFCE8"/>
<stop offset="0.35" stop-color="#EEDBAB"/>
<stop offset="0.475" stop-color="#EEC173"/>
<stop offset="0.615" stop-color="#D6B35A"/>
<stop offset="0.77" stop-color="#FEE492"/>
<stop offset="0.91" stop-color="#EEBD57"/>
<stop offset="1" stop-color="#B48024"/>
</linearGradient>
<linearGradient id="paint9_linear_1290_48239" x1="56.0674" y1="-26.0587" x2="51.3074" y2="55.2995" gradientUnits="userSpaceOnUse">
<stop offset="0.195" stop-color="#FFFCE8"/>
<stop offset="0.35" stop-color="#EEDBAB"/>
<stop offset="0.475" stop-color="#EEC173"/>
<stop offset="0.615" stop-color="#D6B35A"/>
<stop offset="0.77" stop-color="#FEE492"/>
<stop offset="0.91" stop-color="#EEBD57"/>
<stop offset="1" stop-color="#B48024"/>
</linearGradient>
<linearGradient id="paint10_linear_1290_48239" x1="39.9793" y1="18.7348" x2="39.2227" y2="24.8461" gradientUnits="userSpaceOnUse">
<stop offset="0.195" stop-color="#FFFCE8"/>
<stop offset="0.35" stop-color="#EEDBAB"/>
<stop offset="0.475" stop-color="#EEC173"/>
<stop offset="0.615" stop-color="#D6B35A"/>
<stop offset="0.77" stop-color="#FEE492"/>
<stop offset="0.91" stop-color="#EEBD57"/>
<stop offset="1" stop-color="#B48024"/>
</linearGradient>
<linearGradient id="paint11_linear_1290_48239" x1="53.0656" y1="18.8968" x2="52.3089" y2="25.0118" gradientUnits="userSpaceOnUse">
<stop offset="0.195" stop-color="#FFFCE8"/>
<stop offset="0.35" stop-color="#EEDBAB"/>
<stop offset="0.475" stop-color="#EEC173"/>
<stop offset="0.615" stop-color="#D6B35A"/>
<stop offset="0.77" stop-color="#FEE492"/>
<stop offset="0.91" stop-color="#EEBD57"/>
<stop offset="1" stop-color="#B48024"/>
</linearGradient>
<linearGradient id="paint12_linear_1290_48239" x1="31.1482" y1="8.83242" x2="30.3917" y2="14.9438" gradientUnits="userSpaceOnUse">
<stop offset="0.195" stop-color="#FFFCE8"/>
<stop offset="0.35" stop-color="#EEDBAB"/>
<stop offset="0.475" stop-color="#EEC173"/>
<stop offset="0.615" stop-color="#D6B35A"/>
<stop offset="0.77" stop-color="#FEE492"/>
<stop offset="0.91" stop-color="#EEBD57"/>
<stop offset="1" stop-color="#B48024"/>
</linearGradient>
<linearGradient id="paint13_linear_1290_48239" x1="43.8555" y1="8.80656" x2="43.0989" y2="14.9179" gradientUnits="userSpaceOnUse">
<stop offset="0.195" stop-color="#FFFCE8"/>
<stop offset="0.35" stop-color="#EEDBAB"/>
<stop offset="0.475" stop-color="#EEC173"/>
<stop offset="0.615" stop-color="#D6B35A"/>
<stop offset="0.77" stop-color="#FEE492"/>
<stop offset="0.91" stop-color="#EEBD57"/>
<stop offset="1" stop-color="#B48024"/>
</linearGradient>
<linearGradient id="paint14_linear_1290_48239" x1="54.0534" y1="26.7332" x2="53.769" y2="35.7467" gradientUnits="userSpaceOnUse">
<stop offset="0.195" stop-color="#FFFCE8"/>
<stop offset="0.35" stop-color="#EEDBAB"/>
<stop offset="0.475" stop-color="#EEC173"/>
<stop offset="0.615" stop-color="#D6B35A"/>
<stop offset="0.77" stop-color="#FEE492"/>
<stop offset="0.91" stop-color="#EEBD57"/>
<stop offset="1" stop-color="#B48024"/>
</linearGradient>
<linearGradient id="paint15_linear_1290_48239" x1="41.9713" y1="27.6233" x2="41.6869" y2="36.6368" gradientUnits="userSpaceOnUse">
<stop offset="0.195" stop-color="#FFFCE8"/>
<stop offset="0.35" stop-color="#EEDBAB"/>
<stop offset="0.475" stop-color="#EEC173"/>
<stop offset="0.615" stop-color="#D6B35A"/>
<stop offset="0.77" stop-color="#FEE492"/>
<stop offset="0.91" stop-color="#EEBD57"/>
<stop offset="1" stop-color="#B48024"/>
</linearGradient>
<linearGradient id="paint16_linear_1290_48239" x1="50.6278" y1="32.8464" x2="50.3434" y2="41.86" gradientUnits="userSpaceOnUse">
<stop offset="0.195" stop-color="#FFFCE8"/>
<stop offset="0.35" stop-color="#EEDBAB"/>
<stop offset="0.475" stop-color="#EEC173"/>
<stop offset="0.615" stop-color="#D6B35A"/>
<stop offset="0.77" stop-color="#FEE492"/>
<stop offset="0.91" stop-color="#EEBD57"/>
<stop offset="1" stop-color="#B48024"/>
</linearGradient>
<linearGradient id="paint17_linear_1290_48239" x1="38.5624" y1="33.7258" x2="38.278" y2="42.7394" gradientUnits="userSpaceOnUse">
<stop offset="0.195" stop-color="#FFFCE8"/>
<stop offset="0.35" stop-color="#EEDBAB"/>
<stop offset="0.475" stop-color="#EEC173"/>
<stop offset="0.615" stop-color="#D6B35A"/>
<stop offset="0.77" stop-color="#FEE492"/>
<stop offset="0.91" stop-color="#EEBD57"/>
<stop offset="1" stop-color="#B48024"/>
</linearGradient>
<linearGradient id="paint18_linear_1290_48239" x1="47.3126" y1="38.7993" x2="47.0282" y2="47.8129" gradientUnits="userSpaceOnUse">
<stop offset="0.195" stop-color="#FFFCE8"/>
<stop offset="0.35" stop-color="#EEDBAB"/>
<stop offset="0.475" stop-color="#EEC173"/>
<stop offset="0.615" stop-color="#D6B35A"/>
<stop offset="0.77" stop-color="#FEE492"/>
<stop offset="0.91" stop-color="#EEBD57"/>
<stop offset="1" stop-color="#B48024"/>
</linearGradient>
<linearGradient id="paint19_linear_1290_48239" x1="34.9149" y1="39.9763" x2="34.6305" y2="48.9899" gradientUnits="userSpaceOnUse">
<stop offset="0.195" stop-color="#FFFCE8"/>
<stop offset="0.35" stop-color="#EEDBAB"/>
<stop offset="0.475" stop-color="#EEC173"/>
<stop offset="0.615" stop-color="#D6B35A"/>
<stop offset="0.77" stop-color="#FEE492"/>
<stop offset="0.91" stop-color="#EEBD57"/>
<stop offset="1" stop-color="#B48024"/>
</linearGradient>
</defs>
</svg>
