<svg width="106" height="94" viewBox="0 0 106 94" fill="none" xmlns="http://www.w3.org/2000/svg">
<path d="M30.9593 58.3256C30.9986 58.1447 30.9992 57.9475 30.9689 57.7524C30.9423 57.6651 30.9394 57.6335 30.897 57.5093C30.8704 57.422 30.8259 57.3424 30.7892 57.2813C30.632 56.9869 30.3858 56.8068 30.1763 56.6878C29.9668 56.5687 29.7631 56.5129 29.6031 56.4604C29.4381 56.4209 29.3069 56.4109 29.2194 56.4043L29.0881 56.3943C29.0881 56.3943 29.2739 56.4578 29.553 56.5911C29.8271 56.7375 30.2361 57.0017 30.4078 57.4541C30.4315 57.5097 30.4423 57.5599 30.461 57.6286L30.4784 57.8182C30.4692 57.9206 30.4678 58.0416 30.4177 58.1723C30.3225 58.4207 30.1707 58.6602 29.9542 58.8725C29.5214 59.2969 28.8998 59.6263 28.2509 59.7923C28.1176 59.827 27.8996 59.8866 27.7454 59.8974C27.5862 59.9211 27.4141 59.9394 27.2599 59.9501C26.9257 59.9606 26.6015 59.945 26.2974 59.877C25.9933 59.8091 25.7221 59.6943 25.4968 59.5382C25.2844 59.3875 25.1099 59.177 25.0409 58.9655C24.8871 58.5054 25.0625 58.0479 25.2064 57.7898C25.3604 57.5056 25.4851 57.3761 25.4851 57.3761L25.3804 57.4533C25.3166 57.5023 25.212 57.5795 25.0873 57.709C24.9805 57.831 24.8458 57.9866 24.7427 58.2164C24.6447 58.4332 24.5732 58.7371 24.6279 59.0641C24.6777 59.4042 24.8816 59.7336 25.1593 59.9878C25.4371 60.2421 25.7757 60.4158 26.1523 60.5296C26.516 60.6379 26.9127 60.6995 27.2906 60.6923C27.4885 60.6849 27.6736 60.6721 27.8765 60.6516C28.0974 60.6236 28.2257 60.6019 28.4437 60.5423C29.2002 60.3307 29.9163 59.9502 30.4143 59.3558C30.6608 59.0651 30.8527 58.721 30.9364 58.3462L30.9593 58.3256Z" fill="white"/>
<path d="M38.5983 59.0955C39.2863 58.4752 40.0181 57.8582 40.739 57.1911C40.9225 57.0257 41.106 56.8603 41.2894 56.6949L41.5646 56.4467C41.7073 56.3096 41.7402 56.2628 41.847 56.1409C42.2282 55.6945 42.496 55.2306 42.7094 54.7133C43.1102 53.6676 43.1573 52.4874 42.8481 51.4147C42.5526 50.4237 42.2579 49.509 41.9631 48.5943C41.3866 46.7704 40.8216 45.073 40.3235 43.6317C39.3323 40.736 38.5928 38.828 38.5928 38.828C38.4656 38.4551 38.3104 38.116 38.1015 37.7997C37.6154 37.0319 36.9329 36.424 36.1114 36.0612L23.1559 30.7455C21.518 30.0067 19.6522 30.3716 18.4233 31.6593L8.44888 42.0977C7.36753 43.2352 6.94999 44.9118 7.36715 46.486L10.0981 58.6251C10.229 59.1058 10.4187 59.5507 10.68 59.9651C10.8315 60.1963 11.001 60.42 11.1804 60.6174L22.2903 49.5658C22.2903 49.5658 22.3462 49.4983 22.3871 49.47C24.1056 47.7667 23.6384 45.5789 23.3427 44.3144L20.3386 31.3609L25.2594 43.8951C25.6977 45.0225 26.6565 46.7498 29.4199 47.9193L41.9738 53.1867C41.9418 53.5833 41.8582 53.9581 41.7179 54.3241C41.5626 54.7293 41.3327 55.1333 41.0633 55.4446C41.0074 55.5121 40.8777 55.6547 40.8498 55.6885L40.5746 55.9366L40.037 56.4383C39.3211 57.0923 38.6389 57.7759 37.9638 58.4016C36.6165 59.6848 35.3867 60.8962 34.3354 61.9552C32.2379 64.0602 30.895 65.5275 30.895 65.5275C30.895 65.5275 32.4669 64.3242 34.7309 62.4112C35.8605 61.4613 37.1785 60.3328 38.5674 59.0977L38.5983 59.0955ZM13.6098 54.4752C13.093 55.7453 12.1627 56.5669 11.5221 56.2806C10.8764 56.0073 10.7786 54.7354 11.3004 53.4523C11.8223 52.1692 12.7475 51.3607 13.3882 51.647C14.0339 51.9203 14.1317 53.1922 13.6098 54.4752ZM20.9458 43.2849C21.5915 43.5581 21.6893 44.83 21.1675 46.1131C20.6506 47.3831 19.7204 48.2047 19.0797 47.9184C18.434 47.6452 18.3363 46.3733 18.8581 45.0902C19.3749 43.8201 20.3052 42.9985 20.9458 43.2849ZM15.951 42.6901C16.5967 42.9634 16.6944 44.2353 16.1726 45.5184C15.6508 46.8015 14.7255 47.61 14.0849 47.3237C13.4392 47.0504 13.3414 45.7785 13.8632 44.4954C14.3801 43.2254 15.3103 42.4038 15.951 42.6901ZM11.2745 44.8279C10.7577 46.0979 9.82739 46.9195 9.18673 46.6332C8.54107 46.3599 8.44328 45.088 8.96512 43.805C9.48696 42.5219 10.4122 41.7133 11.0529 41.9996C11.6935 42.2859 11.7963 43.5448 11.2745 44.8279ZM18.4724 33.9588C19.118 34.232 19.2158 35.5039 18.694 36.787C18.1771 38.057 17.2469 38.8787 16.6062 38.5923C15.9605 38.3191 15.8628 37.0472 16.3846 35.7641C16.9064 34.481 17.8317 33.6725 18.4724 33.9588ZM33.5748 36.9626C34.1044 36.4423 35.3562 36.8961 36.3675 37.9774C37.3967 39.051 37.8008 40.3461 37.2712 40.8664C36.7416 41.3866 35.4898 40.9328 34.4785 39.8516C33.4492 38.7779 33.0452 37.4828 33.5748 36.9626ZM30.3129 39.6382C30.8425 39.118 32.0944 39.5718 33.1057 40.653C34.1349 41.7266 34.539 43.0218 34.0094 43.542C33.4798 44.0623 32.228 43.6085 31.2166 42.5272C30.1874 41.4536 29.7833 40.1585 30.3129 39.6382ZM27.9548 45.2029C26.9256 44.1293 26.5215 42.8341 27.0511 42.3139C27.5807 41.7936 28.8325 42.2474 29.8439 43.3287C30.8731 44.4023 31.2772 45.6975 30.7476 46.2177C30.218 46.738 28.9662 46.2841 27.9548 45.2029Z" fill="white"/>
<path d="M42.2514 57.2529L42.2973 57.2116C43.9236 55.5913 44.4895 53.0971 43.7542 50.8267L40.072 38.394L40.0483 38.3384C39.8866 37.8599 39.6633 37.3857 39.3941 36.9528C38.7329 35.8984 37.8095 35.0975 36.7093 34.6015C36.6964 34.596 36.6705 34.5851 36.6576 34.5796L23.7183 29.2703C21.487 28.2804 18.9621 28.7609 17.2937 30.5304L7.32218 40.966C5.87219 42.4786 5.31399 44.7179 5.85482 46.8301L8.58244 58.9347L8.59324 58.9849C8.75649 59.6159 9.01723 60.2274 9.37258 60.7879C10.0704 61.9034 11.1128 62.785 12.3156 63.2485C12.3414 63.2594 12.3672 63.2704 12.3801 63.2758L25.9527 67.9115C28.0434 68.7204 30.4012 68.2451 31.9895 66.6848L42.2514 57.2529ZM28.3876 60.6193C28.1697 60.6789 28.0414 60.7005 27.8206 60.7286C27.6127 60.7621 27.4277 60.7749 27.2348 60.7693C26.839 60.784 26.4604 60.7149 26.0968 60.6065C25.7332 60.4982 25.3868 60.306 25.1041 60.0649C24.8264 59.8107 24.6225 59.4814 24.5728 59.1414C24.513 58.8276 24.5845 58.5237 24.6876 58.2939C24.7777 58.0587 24.9124 57.9031 25.032 57.7866C25.1388 57.6647 25.2434 57.5875 25.3251 57.531L25.4297 57.4537C25.4297 57.4537 25.3 57.5963 25.1511 57.8674C25.0022 58.1385 24.8319 58.5828 24.9857 59.0428C25.0547 59.2542 25.2291 59.4647 25.4414 59.6153C25.6667 59.7714 25.9428 59.8731 26.2419 59.9541C26.5459 60.0221 26.87 60.0377 27.2041 60.0272C27.3712 60.022 27.5432 60.0037 27.6895 59.9745C27.8307 59.9583 28.0615 59.9041 28.1949 59.8695C28.8436 59.7036 29.465 59.3742 29.8977 58.9499C30.1141 58.7377 30.2838 58.4906 30.361 58.2499C30.4111 58.1193 30.4125 57.9983 30.4217 57.8959L30.4043 57.7063C30.4043 57.7063 30.3748 57.5875 30.3511 57.5319C30.1794 57.0796 29.7705 56.8154 29.4965 56.669C29.2096 56.5172 29.0318 56.4723 29.0318 56.4723L29.163 56.4823C29.2505 56.489 29.3817 56.4989 29.5466 56.5384C29.7116 56.5778 29.9102 56.6467 30.1197 56.7657C30.3291 56.8847 30.5573 57.0724 30.7324 57.3592C30.777 57.4388 30.8086 57.5129 30.8402 57.587C30.8826 57.7113 30.8855 57.7429 30.9121 57.8301C30.9423 58.0251 30.9418 58.2223 30.9025 58.4031C30.8189 58.7778 30.627 59.1219 30.3806 59.4125C29.8828 60.0067 29.1539 60.3816 28.4105 60.5986L28.3876 60.6193ZM34.3475 61.9419C35.3985 60.8831 36.6279 59.6721 37.9748 58.3893C38.6547 57.7506 39.3317 57.0803 40.0475 56.4264L40.5848 55.9249L40.86 55.6768C40.86 55.6768 41.0176 55.5005 41.0734 55.433C41.3299 55.1163 41.5726 54.7178 41.7279 54.3127C41.8681 53.9468 41.9517 53.5722 41.9837 53.1756L29.433 47.9093C26.6573 46.7345 25.7117 45.013 25.2735 43.8859L20.3537 31.3546L23.3573 44.3051C23.653 45.5693 24.1071 47.7511 22.402 49.4594C22.3741 49.4932 22.3333 49.5214 22.3053 49.5552L11.1986 60.6039C11.0063 60.401 10.8369 60.1775 10.6983 59.9518C10.4499 59.5429 10.2474 59.0927 10.1165 58.612L7.38603 46.4758C6.96894 44.902 7.38634 43.2258 8.46737 42.0886L18.4389 31.6529C19.6675 30.3656 21.5457 30.0063 23.1703 30.7394L36.1225 36.0542C36.9437 36.4169 37.621 37.0377 38.112 37.7923C38.308 38.103 38.4711 38.4606 38.6033 38.8203C38.6033 38.8203 39.3425 40.7279 40.3335 43.6229C40.8315 45.0638 41.3964 46.7609 41.9729 48.5844C42.2547 49.4934 42.5572 50.4264 42.8577 51.4041C43.1669 52.4766 43.1198 53.6565 42.7191 54.7019C42.5187 55.2246 42.233 55.696 41.8569 56.1291C41.7502 56.251 41.7094 56.2793 41.5747 56.4349L41.2996 56.683C41.1161 56.8483 40.9327 57.0137 40.7493 57.1791C40.0336 57.833 39.3099 58.4683 38.6092 59.083C37.2256 60.3048 35.908 61.4329 34.7738 62.3957C32.5103 64.3082 30.9389 65.5111 30.9389 65.5111C30.9389 65.5111 32.2814 64.0442 34.3783 61.9398L34.3475 61.9419Z" fill="url(#paint0_linear_1_33758)"/>
<path d="M29.8756 43.4126C28.8445 42.337 27.5953 41.8694 27.0775 42.3963C26.5468 42.9177 26.9564 44.2022 27.9825 45.2909C29.0086 46.3795 30.2628 46.8341 30.7806 46.3072C31.3113 45.7858 30.8888 44.4958 29.8756 43.4126Z" fill="url(#paint1_linear_1_33758)"/>
<path d="M31.2717 42.6547C32.3028 43.7303 33.552 44.1979 34.0698 43.671C34.6005 43.1496 34.1909 41.8651 33.1648 40.7764C32.1337 39.7008 30.8845 39.2332 30.3667 39.7601C29.836 40.2814 30.2456 41.566 31.2717 42.6547Z" fill="url(#paint2_linear_1_33758)"/>
<path d="M34.5683 40.0365C35.5994 41.1121 36.8486 41.5797 37.3664 41.0529C37.8972 40.5315 37.4875 39.2469 36.4615 38.1582C35.4304 37.0826 34.1812 36.615 33.6634 37.1419C33.1326 37.6633 33.5422 38.9479 34.5683 40.0365Z" fill="url(#paint3_linear_1_33758)"/>
<path d="M16.4866 38.671C17.1285 38.9424 18.0441 38.1508 18.5638 36.8745C19.0784 35.6112 18.9819 34.3464 18.345 34.0621C17.703 33.7907 16.7874 34.5823 16.2678 35.8586C15.7481 37.1348 15.8497 38.3867 16.4866 38.671Z" fill="url(#paint4_linear_1_33758)"/>
<path d="M19.0151 47.9039C19.657 48.1753 20.5726 47.3837 21.0923 46.1074C21.6069 44.8441 21.5104 43.5793 20.8735 43.295C20.2315 43.0236 19.316 43.8152 18.7963 45.0915C18.2816 46.3548 18.3782 47.6195 19.0151 47.9039Z" fill="url(#paint5_linear_1_33758)"/>
<path d="M13.9763 47.292C14.6182 47.5634 15.5337 46.7718 16.0534 45.4955C16.5731 44.2192 16.4715 42.9674 15.8346 42.683C15.1977 42.3986 14.2771 43.2032 13.7574 44.4795C13.2428 45.7428 13.3393 47.0076 13.9763 47.292Z" fill="url(#paint6_linear_1_33758)"/>
<path d="M10.8801 41.972C10.2381 41.7006 9.32255 42.4922 8.8029 43.7684C8.28324 45.0447 8.38477 46.2965 9.02171 46.5809C9.66364 46.8523 10.5792 46.0607 11.0989 44.7844C11.6135 43.5212 11.517 42.2563 10.8801 41.972Z" fill="url(#paint7_linear_1_33758)"/>
<path d="M11.1983 53.3051C10.6836 54.5684 10.7802 55.8332 11.4171 56.1175C12.059 56.3889 12.9746 55.5974 13.4943 54.3211C14.0089 53.0578 13.9124 51.793 13.2754 51.5086C12.6335 51.2372 11.7179 52.0288 11.1983 53.3051Z" fill="url(#paint8_linear_1_33758)"/>
<path d="M91.4508 49.7312C91.6436 49.5403 91.755 49.4058 91.9193 49.1725C92.4955 48.3717 92.9165 47.4297 92.9631 46.4503C92.9993 45.966 92.9225 45.4643 92.7287 45.0341C92.6292 44.8255 92.4862 44.6136 92.3153 44.4354C92.2352 44.3712 92.2066 44.3288 92.0751 44.2429C91.9821 44.1733 91.8921 44.1352 91.802 44.0971C91.4289 43.9393 91.0623 43.9204 90.7629 43.9603C90.4635 44.0001 90.2185 44.0933 90.0399 44.1691C89.8563 44.2579 89.7213 44.3371 89.622 44.401L89.482 44.4932C89.482 44.4932 89.7092 44.4076 90.0929 44.3429C90.4637 44.2727 91.0604 44.2375 91.5657 44.5573C91.6251 44.5975 91.6844 44.6378 91.7388 44.691L91.9046 44.8823C91.9776 45.004 92.0506 45.1257 92.1085 45.2864C92.2116 45.6025 92.2204 45.9696 92.1756 46.3593C92.0603 47.128 91.707 47.9322 91.1808 48.6027C91.0822 48.7427 90.9052 48.9705 90.7809 49.0996C90.6516 49.2417 90.4866 49.399 90.3317 49.5302C90.0217 49.7927 89.691 50.0312 89.3416 50.2013C88.9973 50.3584 88.6422 50.4655 88.3092 50.476C87.9762 50.4865 87.6653 50.4004 87.4409 50.2449C86.9455 49.8991 86.7858 49.3017 86.7384 48.9183C86.6831 48.5165 86.6987 48.2809 86.6987 48.2809L86.6388 48.4372C86.6245 48.5523 86.5775 48.714 86.559 48.9181C86.5406 49.1223 86.5278 49.3894 86.6002 49.7076C86.6647 50.0074 86.8221 50.3767 87.1067 50.6485C87.407 50.9572 87.8444 51.1422 88.2982 51.1677C88.7598 51.2116 89.2278 51.122 89.6643 50.9585C90.1059 50.782 90.5238 50.55 90.8973 50.2388C91.088 50.0924 91.258 49.9221 91.433 49.7388L91.4508 49.7312Z" fill="white"/>
<path d="M90.7231 34.9774C88.8206 33.5652 87.0091 32.2673 85.4592 31.1865C82.3567 28.9932 80.2106 27.6297 80.2106 27.6297C78.9632 26.7376 77.462 26.3905 76.0236 26.662C75.9261 26.6815 75.8416 26.7064 75.7492 26.7128L59.126 31.3176C56.9835 31.8222 55.4144 33.647 55.1625 35.9079L53.0962 54.2463C52.87 56.2449 53.6998 58.2654 55.2748 59.5542L66.9087 69.8048C67.66 70.4263 68.5273 70.8236 69.4359 70.9957L72.1694 51.073C72.1694 51.073 72.1765 51.0153 72.1736 50.9837C72.5868 47.9109 70.5255 46.0521 69.3125 44.9924L56.809 34.1158L70.8857 43.0783C72.1502 43.8866 74.352 44.9095 77.9285 43.9494L94.1177 39.6162C94.3738 40.0433 94.5762 40.4932 94.707 40.9735C94.8614 41.5093 94.9164 42.1092 94.901 42.6187C94.8997 42.7396 94.8712 42.9703 94.8641 43.028L94.7892 43.4971L94.6316 44.4169C94.4154 45.6457 94.2401 46.8463 94.0569 48.0284C93.6876 50.361 93.3684 52.563 93.1255 54.4483C92.614 58.2079 92.3932 60.7399 92.3932 60.7399C92.3932 60.7399 93.044 58.2988 93.8464 54.6016C94.254 52.7557 94.7073 50.5952 95.164 48.2693C95.3859 47.1036 95.6358 45.9042 95.8469 44.6884L96.0174 43.7741L96.1052 43.3105C96.1308 43.0481 96.1429 42.9774 96.1564 42.7858C96.2002 42.0455 96.1187 41.3585 95.9498 40.6648C95.5762 39.2926 94.7441 38.0602 93.6487 37.202C92.6415 36.4267 91.6529 35.72 90.6952 35.0111L90.7231 34.9774ZM57.1832 58.2524C56.3529 58.4626 55.3181 57.2506 54.8769 55.5463C54.4357 53.8419 54.754 52.3073 55.5971 52.1026C56.4403 51.8979 57.4621 53.1044 57.9034 54.8087C58.3446 56.5131 58.0263 58.0477 57.1832 58.2524ZM57.8506 51.3869C57.0203 51.5971 55.9856 50.3852 55.5443 48.6808C55.1031 46.9765 55.4214 45.4418 56.2645 45.2371C57.1077 45.0325 58.1295 46.2389 58.5708 47.9433C59.012 49.6476 58.6937 51.1822 57.8506 51.3869ZM66.2352 45.7843C67.0654 45.5741 68.1002 46.7861 68.5414 48.4904C68.9826 50.1948 68.6643 51.7294 67.8212 51.9341C66.991 52.1442 65.9562 50.9323 65.515 49.228C65.0737 47.5236 65.3921 45.989 66.2352 45.7843ZM65.5722 52.8338C66.4024 52.6236 67.4372 53.8355 67.8784 55.5399C68.3197 57.2442 68.0013 58.7789 67.1582 58.9835C66.3151 59.1882 65.2932 57.9818 64.852 56.2774C64.4108 54.5731 64.7291 53.0384 65.5722 52.8338ZM65.0069 60.137C65.8371 59.9269 66.8719 61.1388 67.3131 62.8431C67.7544 64.5475 67.436 66.0821 66.5929 66.2868C65.7627 66.497 64.7279 65.285 64.2867 63.5807C63.8454 61.8763 64.1638 60.3417 65.0069 60.137ZM59.2388 40.8807C59.68 42.5851 59.3616 44.1197 58.5185 44.3244C57.6883 44.5346 56.6535 43.3226 56.2123 41.6183C55.7711 39.9139 56.0894 38.3793 56.9325 38.1746C57.7627 37.9644 58.7975 39.1764 59.2388 40.8807ZM67.3035 33.8831C67.1716 34.8137 65.6123 35.3223 63.8159 35.0022C62.0195 34.682 60.6632 33.6831 60.795 32.7524C60.9268 31.8218 62.4862 31.3131 64.2826 31.6333C66.084 31.9404 67.4353 32.9524 67.3035 33.8831ZM78.0159 41.1788C77.8841 42.1095 76.3247 42.6181 74.5283 42.2979C72.7269 41.9908 71.3756 40.9788 71.5074 40.0482C71.6392 39.1175 73.1986 38.6089 74.995 38.929C76.7914 39.2492 78.1477 40.2482 78.0159 41.1788ZM80.4701 30.6685C80.3383 31.5992 78.779 32.1078 76.9826 31.7876C75.1862 31.4675 73.8299 30.4685 73.9617 29.5379C74.0935 28.6072 75.6528 28.0986 77.4493 28.4187C79.2507 28.7258 80.602 29.7378 80.4701 30.6685ZM90.7734 37.8973C90.6416 38.828 89.0822 39.3366 87.2858 39.0164C85.4894 38.6963 84.1331 37.6973 84.2649 36.7667C84.3968 35.836 85.9561 35.3274 87.7525 35.6475C89.5489 35.9677 90.9052 36.9667 90.7734 37.8973Z" fill="white"/>
<path d="M79.5782 61.8921C79.4982 61.828 79.4696 61.7856 79.338 61.6997C79.2451 61.6301 79.155 61.592 79.065 61.5539C78.6919 61.396 78.3253 61.3772 78.0259 61.417C77.7265 61.4569 77.4815 61.55 77.3029 61.6258C77.1193 61.7147 76.9843 61.7938 76.885 61.8578L76.745 61.9499C76.745 61.9499 76.9722 61.8644 77.3559 61.7996C77.7267 61.7295 78.3233 61.6942 78.8287 62.014C78.888 62.0543 78.9474 62.0945 79.0017 62.1478L79.1676 62.339C79.2406 62.4607 79.3135 62.5824 79.3715 62.7432C79.4746 63.0593 79.4834 63.4263 79.4386 63.8161C79.3232 64.5847 78.97 65.3889 78.4437 66.0594C78.3452 66.1994 78.1681 66.4272 78.0439 66.5563C77.9146 66.6984 77.7496 66.8557 77.5946 66.9869C77.2847 67.2493 76.954 67.4879 76.6046 67.658C76.2603 67.8151 75.9052 67.9222 75.5722 67.9327C75.2392 67.9432 74.9284 67.8571 74.7039 67.7016C74.2085 67.3557 74.0488 66.7584 74.0014 66.375C73.9462 65.9732 73.9618 65.7376 73.9618 65.7376L73.9018 65.8939C73.8876 66.009 73.8405 66.1707 73.8221 66.3748C73.8036 66.5789 73.7909 66.846 73.8632 67.1643C73.9277 67.464 74.0852 67.8334 74.3697 68.1051C74.67 68.4138 75.1074 68.5989 75.5612 68.6243C76.0228 68.6682 76.4908 68.5786 76.9273 68.4151C77.3688 68.2386 77.7867 68.0067 78.1603 67.6954C78.351 67.5491 78.521 67.3788 78.6959 67.1955C78.8887 67.0045 79.0001 66.87 79.1644 66.6367C79.7406 65.836 80.1616 64.8939 80.2082 63.9146C80.2444 63.4303 80.1676 62.9286 79.9737 62.4984C79.8743 62.2898 79.7313 62.078 79.5604 61.8997L79.5782 61.8921Z" fill="white"/>
<path d="M81.356 26.0501C81.356 26.0501 81.3173 26.0337 81.2965 26.0097C79.6376 24.822 77.5724 24.3425 75.6339 24.7058C75.5057 24.7274 75.3904 24.7545 75.2571 24.7892L75.1905 24.8065L58.6029 29.3961C55.6918 30.1065 53.5844 32.5535 53.2279 35.6352L51.1618 53.9744C50.8601 56.6392 51.9642 59.3526 54.0498 61.07L65.6503 71.2917L65.7048 71.3451C67.4534 72.7681 69.6663 73.3708 71.7946 72.9816C72.0332 72.946 72.2639 72.8918 72.4866 72.8192C72.5174 72.817 72.5532 72.8019 72.5711 72.7943L89.2932 67.0323C91.9314 66.2518 93.8962 63.9419 94.3017 61.1237L97.3958 43.5839L97.4208 43.5186C97.8176 40.6056 96.5206 37.6132 94.124 35.8856L81.351 26.0631L81.356 26.0501ZM80.0943 64.0799C80.0349 65.0564 79.6129 66.0009 79.0483 66.8091C78.8708 67.0375 78.7641 67.1593 78.5787 67.3692C78.4033 67.553 78.22 67.7182 78.0418 67.8704C77.6673 68.1824 77.2484 68.4148 76.8057 68.5917C76.3631 68.7686 75.8989 68.8453 75.436 68.8012C74.986 68.7625 74.5474 68.5769 74.2412 68.2803C73.943 68.0023 73.7979 67.6374 73.7332 67.3369C73.6685 67.0363 73.6683 66.763 73.6918 66.5453C73.7102 66.3406 73.7574 66.1785 73.7845 66.0686L73.8446 65.9119C73.8446 65.9119 73.8161 66.1426 73.8716 66.5455C73.9321 66.9354 74.0794 67.5289 74.5762 67.8758C74.8013 68.0317 75.1181 68.1051 75.4469 68.1077C75.7808 68.0972 76.1368 67.9899 76.482 67.8325C76.8272 67.6751 77.1587 67.436 77.4745 67.1598C77.6299 67.0283 77.7902 66.8837 77.9248 66.7282C78.0494 66.5988 78.2269 66.3704 78.3256 66.23C78.8402 65.5524 79.2071 64.7516 79.3226 63.9809C79.3674 63.5901 79.3585 63.2221 79.2551 62.9052C79.202 62.7309 79.1238 62.6219 79.0506 62.4999L78.8842 62.3081C78.8842 62.3081 78.7702 62.2143 78.7107 62.1739C78.2039 61.8532 77.6057 61.8884 77.2339 61.9587C76.8492 62.0235 76.6215 62.1092 76.6215 62.1092L76.7618 62.0169C76.8564 61.9658 76.9838 61.868 77.1808 61.7844C77.3648 61.6954 77.6055 61.6151 77.9057 61.5752C78.2058 61.5353 78.5655 61.5358 78.9475 61.7126C79.0378 61.7508 79.141 61.7945 79.2213 61.8589C79.3532 61.945 79.3819 61.9875 79.4622 62.0519C79.6336 62.2306 79.7821 62.4301 79.8768 62.6523C80.0842 63.0891 80.1484 63.5868 80.1122 64.0723L80.0943 64.0799ZM88.1106 51.0668C87.6606 51.0281 87.222 50.8425 86.9158 50.5459C86.6175 50.2679 86.4725 49.903 86.4078 49.6025C86.3431 49.3019 86.3429 49.0286 86.3663 48.8109C86.3848 48.6062 86.432 48.4441 86.4591 48.3341L86.5192 48.1774C86.5192 48.1774 86.4907 48.4082 86.5462 48.8111C86.6067 49.201 86.754 49.7945 87.2508 50.1414C87.4759 50.2973 87.7926 50.3707 88.1215 50.3733C88.4554 50.3628 88.8114 50.2555 89.1566 50.0981C89.5018 49.9406 89.8333 49.7015 90.1491 49.4254C90.3044 49.2939 90.4648 49.1493 90.5994 48.9938C90.7239 48.8644 90.9014 48.6359 91.0002 48.4956C91.5148 47.818 91.8817 47.0172 91.9972 46.2465C92.042 45.8557 92.0331 45.4877 91.9297 45.1708C91.8765 44.9965 91.7984 44.8875 91.7252 44.7655L91.5588 44.5737C91.5588 44.5737 91.4448 44.4799 91.3853 44.4395C90.8785 44.1188 90.2803 44.154 89.9085 44.2243C89.5238 44.2891 89.296 44.3748 89.296 44.3748L89.4364 44.2824C89.5309 44.2314 89.6584 44.1336 89.8554 44.05C90.0394 43.9609 90.2801 43.8807 90.5803 43.8408C90.8804 43.8009 91.2401 43.8014 91.6221 43.9782C91.7124 44.0164 91.8156 44.0601 91.8959 44.1245C92.0228 44.2237 92.0565 44.2531 92.1368 44.3175C92.3082 44.4962 92.4566 44.6957 92.5514 44.9179C92.7588 45.3547 92.823 45.8524 92.7868 46.3379C92.7274 47.3144 92.3004 48.2719 91.7408 49.0671C91.5633 49.2955 91.4566 49.4173 91.2712 49.6272C91.0958 49.8109 90.9125 49.9762 90.7343 50.1284C90.3598 50.4404 89.9408 50.6728 89.4982 50.8497C89.0556 51.0266 88.5914 51.1033 88.1285 51.0592L88.1106 51.0668ZM96.1621 42.7734C96.1487 42.965 96.1315 43.0488 96.1109 43.2981L96.0232 43.7617L95.8527 44.6761C95.6366 45.9049 95.3868 47.1044 95.1699 48.2571C94.7132 50.5831 94.2599 52.7437 93.8523 54.5896C93.0499 58.287 92.3991 60.7282 92.3991 60.7282C92.3991 60.7282 92.6199 58.1961 93.1314 54.4363C93.3742 52.5509 93.6884 50.3619 94.0627 48.0162C94.2538 46.8525 94.4212 45.6334 94.6373 44.4045L94.7949 43.4847L94.8698 43.0156C94.8698 43.0156 94.9054 42.7271 94.9067 42.6063C94.9271 42.0837 94.8672 41.4968 94.7127 40.9609C94.5819 40.4806 94.3795 40.0307 94.1234 39.6036L77.934 43.9368C74.3574 44.8968 72.1477 43.8553 70.8911 43.0655L56.814 34.1025L69.3178 44.9797C70.5438 46.0449 72.6002 47.9169 72.1791 50.9713C72.1691 50.9974 72.172 51.029 72.1749 51.0606L69.4416 70.984C68.533 70.812 67.6658 70.4145 66.9144 69.793L55.2802 59.5419C53.7051 58.253 52.8752 56.2324 53.1015 54.2338L55.1676 35.8946C55.4194 33.6337 56.9835 31.8218 59.131 31.3042L75.7544 26.6994C75.8519 26.6799 75.9364 26.655 76.0288 26.6486C77.4622 26.3902 78.9764 26.7427 80.2159 27.6164C80.2159 27.6164 82.3621 28.98 85.4647 31.1734C87.0274 32.2598 88.8211 33.5653 90.7287 34.9646C91.6865 35.6735 92.6571 36.3878 93.6823 37.1556C94.7648 38.0084 95.5919 39.2538 95.9834 40.6185C96.1653 41.3177 96.2339 41.9994 96.19 42.7396L96.1621 42.7734Z" fill="url(#paint9_linear_1_33758)"/>
<path d="M74.9609 39.0477C73.1521 38.74 71.5861 39.2514 71.4584 40.1729C71.3256 41.1075 72.6872 42.1101 74.491 42.4309C76.2998 42.7385 77.8658 42.2272 77.9935 41.3057C78.1212 40.3842 76.7647 39.3684 74.9609 39.0477Z" fill="url(#paint10_linear_1_33758)"/>
<path d="M64.0847 31.7704C62.2759 31.4627 60.7099 31.9741 60.5821 32.8956C60.4494 33.8302 61.811 34.8328 63.6147 35.1536C65.4185 35.4744 66.9895 34.9499 67.1172 34.0284C67.25 33.0938 65.8884 32.0912 64.0847 31.7704Z" fill="url(#paint11_linear_1_33758)"/>
<path d="M87.8484 35.8919C86.0396 35.5842 84.4736 36.0956 84.3459 37.0171C84.2131 37.9517 85.5747 38.9543 87.3784 39.2751C89.1822 39.5959 90.7533 39.0714 90.881 38.1499C91.0087 37.2284 89.6522 36.2127 87.8484 35.8919Z" fill="url(#paint12_linear_1_33758)"/>
<path d="M77.3921 28.6707C75.5833 28.363 74.0173 28.8744 73.8896 29.7959C73.7568 30.7305 75.1184 31.7331 76.9221 32.0539C78.7259 32.3747 80.297 31.8502 80.4247 30.9287C80.5524 30.0072 79.1959 28.9915 77.3921 28.6707Z" fill="url(#paint13_linear_1_33758)"/>
<path d="M55.9889 41.6087C56.4296 43.311 57.4502 44.5159 58.2923 44.3114C59.1215 44.1015 59.4395 42.5687 59.0118 40.8719C58.5712 39.1696 57.5506 37.9646 56.7085 38.1691C55.8792 38.379 55.5612 39.9118 55.9889 41.6087Z" fill="url(#paint14_linear_1_33758)"/>
<path d="M67.7435 51.8908C68.5727 51.6808 68.8908 50.148 68.463 48.4512C68.0353 46.7543 67.0018 45.5439 66.1597 45.7484C65.3305 45.9584 65.0124 47.4912 65.4402 49.188C65.8679 50.8849 66.9014 52.0953 67.7435 51.8908Z" fill="url(#paint15_linear_1_33758)"/>
<path d="M56.0675 45.1476C55.2382 45.3575 54.9202 46.8903 55.3479 48.5872C55.7886 50.2895 56.8092 51.4944 57.6513 51.29C58.4805 51.08 58.7985 49.5472 58.3708 47.8503C57.9302 46.1481 56.9096 44.9431 56.0675 45.1476Z" fill="url(#paint16_linear_1_33758)"/>
<path d="M67.0948 58.8507C67.924 58.6408 68.242 57.108 67.8143 55.4112C67.3737 53.7089 66.3531 52.5039 65.511 52.7084C64.6817 52.9183 64.3637 54.4511 64.7914 56.148C65.2192 57.8448 66.2527 59.0552 67.0948 58.8507Z" fill="url(#paint17_linear_1_33758)"/>
<path d="M55.4262 51.931C54.597 52.141 54.2789 53.6738 54.7067 55.3706C55.1473 57.0729 56.1679 58.2779 57.01 58.0734C57.8393 57.8635 58.1573 56.3306 57.7296 54.6338C57.2889 52.9315 56.2683 51.7265 55.4262 51.931Z" fill="url(#paint18_linear_1_33758)"/>
<path d="M66.5588 66.0678C67.3881 65.8578 67.7061 64.325 67.2784 62.6282C66.8377 60.9259 65.8171 59.7209 64.975 59.9254C64.1458 60.1354 63.8277 61.6682 64.2555 63.365C64.6961 65.0673 65.7167 66.2723 66.5588 66.0678Z" fill="url(#paint19_linear_1_33758)"/>
<path d="M33.1658 58.4638C33.2051 58.2829 33.2057 58.0857 33.1754 57.8905C33.1488 57.8033 33.1459 57.7717 33.1035 57.6474C33.0769 57.5602 33.0324 57.4806 32.9958 57.4195C32.8385 57.1251 32.5924 56.945 32.3829 56.8259C32.1734 56.7069 31.9696 56.6511 31.8097 56.5985C31.6447 56.5591 31.5134 56.5491 31.4259 56.5425L31.2947 56.5325C31.2947 56.5325 31.4805 56.596 31.7596 56.7293C32.0336 56.8756 32.4426 57.1399 32.6144 57.5923C32.6381 57.6479 32.6489 57.6981 32.6676 57.7668L32.6849 57.9564C32.6757 58.0588 32.6744 58.1798 32.6243 58.3105C32.5291 58.5588 32.3772 58.7984 32.1608 59.0107C31.7279 59.4351 31.1064 59.7645 30.4575 59.9305C30.3241 59.9652 30.1061 60.0248 29.9519 60.0355C29.7928 60.0593 29.6206 60.0776 29.4665 60.0883C29.1323 60.0988 28.8081 60.0831 28.504 60.0152C28.1998 59.9473 27.9286 59.8325 27.7033 59.6764C27.4909 59.5257 27.3165 59.3152 27.2475 59.1037C27.0937 58.6436 27.269 58.1861 27.413 57.928C27.5669 57.6438 27.6916 57.5143 27.6916 57.5143L27.587 57.5915C27.5232 57.6405 27.4185 57.7177 27.2939 57.8472C27.1871 57.9691 27.0524 58.1248 26.9493 58.3546C26.8512 58.5714 26.7797 58.8753 26.8345 59.2023C26.8842 59.5424 27.0881 59.8718 27.3659 60.126C27.6436 60.3803 27.9823 60.554 28.3589 60.6678C28.7226 60.7761 29.1192 60.8376 29.4971 60.8305C29.6951 60.8231 29.8801 60.8103 30.083 60.7898C30.3039 60.7618 30.4323 60.7401 30.6502 60.6805C31.4067 60.4689 32.1229 60.0884 32.6209 59.494C32.8673 59.2033 33.0593 58.8592 33.1429 58.4844L33.1658 58.4638Z" fill="white"/>
<path d="M43.458 57.3911L43.5038 57.3497C45.1301 55.7295 45.696 53.2353 44.9608 50.9649L41.2786 38.5322L41.2549 38.4766C41.0932 37.9981 40.8698 37.5239 40.6006 37.091C39.9394 36.0366 39.0161 35.2357 37.9158 34.7397C37.9029 34.7342 37.8771 34.7233 37.8642 34.7178L24.9249 29.4085C22.6935 28.4186 20.1687 28.8991 18.5002 30.6685L8.52872 41.1042C7.07874 42.6168 6.52053 44.8561 7.06137 46.9683L9.78898 59.0729L9.79978 59.123C9.96303 59.7541 10.2238 60.3656 10.5791 60.9261C11.2769 62.0415 12.3194 62.9232 13.5221 63.3867C13.548 63.3976 13.5738 63.4085 13.5867 63.414L27.1593 68.0497C29.2499 68.8586 31.6077 68.3833 33.196 66.823L43.458 57.3911ZM29.5941 60.7575C29.3762 60.8171 29.2479 60.8387 29.0271 60.8668C28.8192 60.9003 28.6342 60.9131 28.4413 60.9074C28.0456 60.9222 27.667 60.8531 27.3034 60.7447C26.9398 60.6364 26.5933 60.4442 26.3106 60.2031C26.033 59.9489 25.8291 59.6196 25.7793 59.2796C25.7196 58.9657 25.791 58.6619 25.8941 58.4321C25.9843 58.1969 26.1189 58.0412 26.2386 57.9248C26.3453 57.8029 26.4499 57.7257 26.5316 57.6692L26.6363 57.5919C26.6363 57.5919 26.5066 57.7345 26.3577 58.0056C26.2087 58.2767 26.0385 58.721 26.1923 59.181C26.2613 59.3924 26.4356 59.6029 26.648 59.7535C26.8732 59.9096 27.1494 60.0113 27.4484 60.0923C27.7525 60.1602 28.0766 60.1759 28.4107 60.1654C28.5777 60.1602 28.7498 60.1419 28.896 60.1127C29.0372 60.0965 29.2681 60.0423 29.4014 60.0076C30.0501 59.8418 30.6715 59.5124 31.1042 59.0881C31.3206 58.8759 31.4903 58.6288 31.5676 58.3881C31.6177 58.2574 31.619 58.1365 31.6282 58.0341L31.6109 57.8445C31.6109 57.8445 31.5814 57.7257 31.5577 57.6701C31.386 57.2177 30.9771 56.9536 30.7031 56.8072C30.4162 56.6554 30.2383 56.6105 30.2383 56.6105L30.3695 56.6205C30.457 56.6271 30.5882 56.6371 30.7532 56.6765C30.9181 56.716 31.1168 56.7849 31.3262 56.9039C31.5357 57.0229 31.7638 57.2106 31.939 57.4974C31.9835 57.577 32.0151 57.6511 32.0467 57.7252C32.0891 57.8495 32.092 57.8811 32.1186 57.9683C32.1489 58.1633 32.1483 58.3605 32.109 58.5413C32.0254 58.916 31.8335 59.2601 31.5871 59.5506C31.0893 60.1449 30.3604 60.5198 29.6171 60.7368L29.5941 60.7575ZM35.554 62.0801C36.605 61.0213 37.8344 59.8103 39.1813 58.5275C39.8613 57.8888 40.5383 57.2185 41.254 56.5646L41.7914 56.063L42.0665 55.815C42.0665 55.815 42.2241 55.6387 42.28 55.5712C42.5364 55.2545 42.7792 54.856 42.9344 54.4509C43.0747 54.085 43.1583 53.7103 43.1902 53.3138L30.6395 48.0475C27.8639 46.8727 26.9183 45.1512 26.48 44.0241L21.5603 31.4928L24.5638 44.4433C24.8595 45.7075 25.3137 47.8893 23.6086 49.5976C23.5806 49.6314 23.5398 49.6596 23.5119 49.6934L12.4051 60.7421C12.2128 60.5392 12.0434 60.3157 11.9049 60.0899C11.6565 59.6811 11.4539 59.2308 11.3231 58.7502L8.59257 46.614C8.17548 45.0402 8.59288 43.3639 9.67392 42.2268L19.6454 31.7911C20.874 30.5038 22.7523 30.1444 24.3768 30.8776L37.329 36.1923C38.1502 36.5551 38.8276 37.1759 39.3186 37.9305C39.5146 38.2412 39.6776 38.5988 39.8098 38.9585C39.8098 38.9585 40.5491 40.8661 41.5401 43.7611C42.0381 45.202 42.603 46.8991 43.1794 48.7226C43.4612 49.6316 43.7638 50.5646 44.0643 51.5423C44.3734 52.6148 44.3263 53.7946 43.9256 54.8401C43.7253 55.3628 43.4396 55.8342 43.0635 56.2673C42.9567 56.3892 42.9159 56.4175 42.7812 56.5731L42.5061 56.8212C42.3227 56.9865 42.1393 57.1519 41.9558 57.3173C41.2401 57.9712 40.5164 58.6065 39.8157 59.2212C38.4322 60.4429 37.1145 61.5711 35.9803 62.5339C33.7168 64.4463 32.1454 65.6493 32.1454 65.6493C32.1454 65.6493 33.4879 64.1824 35.5849 62.0779L35.554 62.0801Z" fill="black"/>
<path d="M31.0822 43.5508C30.0511 42.4752 28.8019 42.0076 28.2841 42.5345C27.7534 43.0558 28.163 44.3404 29.1891 45.4291C30.2151 46.5177 31.4693 46.9722 31.9871 46.4454C32.5179 45.924 32.0953 44.634 31.0822 43.5508Z" fill="black"/>
<path d="M32.4781 42.7929C33.5092 43.8685 34.7584 44.3361 35.2762 43.8092C35.807 43.2878 35.3973 42.0032 34.3713 40.9146C33.3402 39.839 32.091 39.3714 31.5732 39.8982C31.0424 40.4196 31.452 41.7042 32.4781 42.7929Z" fill="black"/>
<path d="M35.775 40.1747C36.8061 41.2503 38.0553 41.7179 38.5731 41.191C39.1038 40.6696 38.6942 39.3851 37.6681 38.2964C36.637 37.2208 35.3878 36.7532 34.87 37.2801C34.3393 37.8015 34.7489 39.086 35.775 40.1747Z" fill="black"/>
<path d="M17.6932 38.8092C18.3351 39.0806 19.2507 38.289 19.7704 37.0127C20.285 35.7494 20.1885 34.4846 19.5516 34.2002C18.9096 33.9289 17.9941 34.7204 17.4744 35.9967C16.9547 37.273 17.0563 38.5248 17.6932 38.8092Z" fill="black"/>
<path d="M20.2218 48.0421C20.8637 48.3135 21.7793 47.5219 22.2989 46.2456C22.8136 44.9823 22.7171 43.7175 22.0801 43.4331C21.4382 43.1618 20.5226 43.9534 20.003 45.2296C19.4883 46.4929 19.5848 47.7577 20.2218 48.0421Z" fill="black"/>
<path d="M15.1829 47.4302C15.8248 47.7015 16.7404 46.91 17.2601 45.6337C17.7797 44.3574 17.6782 43.1056 17.0413 42.8212C16.4043 42.5368 15.4838 43.3414 14.9641 44.6177C14.4494 45.881 14.546 47.1458 15.1829 47.4302Z" fill="black"/>
<path d="M12.0867 42.1101C11.4448 41.8388 10.5292 42.6303 10.0096 43.9066C9.4899 45.1829 9.59144 46.4347 10.2284 46.7191C10.8703 46.9905 11.7859 46.1989 12.3055 44.9226C12.8202 43.6593 12.7237 42.3945 12.0867 42.1101Z" fill="black"/>
<path d="M12.4048 53.4433C11.8902 54.7066 11.9867 55.9713 12.6236 56.2557C13.2656 56.5271 14.1811 55.7355 14.7008 54.4592C15.2155 53.196 15.1189 51.9312 14.482 51.6468C13.8401 51.3754 12.9245 52.167 12.4048 53.4433Z" fill="black"/>
<path d="M92.6573 49.8691C92.8501 49.6782 92.9615 49.5437 93.1257 49.3104C93.7019 48.5097 94.123 47.5676 94.1696 46.5882C94.2057 46.104 94.129 45.6023 93.9351 45.172C93.8357 44.9635 93.6926 44.7516 93.5217 44.5733C93.4417 44.5092 93.413 44.4668 93.2815 44.3809C93.1886 44.3113 93.0985 44.2732 93.0085 44.2351C92.6354 44.0772 92.2688 44.0584 91.9694 44.0982C91.67 44.1381 91.4249 44.2312 91.2463 44.307C91.0627 44.3959 90.9277 44.475 90.8284 44.539L90.6884 44.6311C90.6884 44.6311 90.9156 44.5456 91.2993 44.4808C91.6701 44.4106 92.2668 44.3754 92.7722 44.6952C92.8315 44.7354 92.8909 44.7757 92.9452 44.829L93.1111 45.0202C93.184 45.1419 93.257 45.2636 93.315 45.4244C93.4181 45.7405 93.4268 46.1075 93.3821 46.4973C93.2667 47.2659 92.9135 48.0702 92.3872 48.7407C92.2887 48.8806 92.1116 49.1085 91.9873 49.2376C91.8581 49.3797 91.6931 49.5369 91.5381 49.6682C91.2281 49.9306 90.8974 50.1691 90.5481 50.3393C90.2037 50.4963 89.8487 50.6035 89.5157 50.614C89.1827 50.6245 88.8718 50.5384 88.6473 50.3828C88.1519 50.037 87.9922 49.4396 87.9448 49.0563C87.8896 48.6544 87.9052 48.4188 87.9052 48.4188L87.8452 48.5751C87.831 48.6902 87.7839 48.852 87.7655 49.0561C87.747 49.2602 87.7343 49.5273 87.8067 49.8455C87.8711 50.1453 88.0286 50.5147 88.3131 50.7864C88.6134 51.0951 89.0509 51.2802 89.5046 51.3056C89.9663 51.3495 90.4343 51.2599 90.8708 51.0964C91.3123 50.9199 91.7302 50.688 92.1038 50.3767C92.2945 50.2303 92.4644 50.0601 92.6394 49.8767L92.6573 49.8691Z" fill="white"/>
<path d="M80.7847 62.0301C80.7046 61.9659 80.676 61.9235 80.5445 61.8376C80.4515 61.768 80.3615 61.7299 80.2714 61.6918C79.8983 61.534 79.5317 61.5151 79.2324 61.555C78.933 61.5948 78.6879 61.688 78.5093 61.7638C78.3257 61.8526 78.1907 61.9318 78.0914 61.9957L77.9514 62.0879C77.9514 62.0879 78.1786 62.0023 78.5623 61.9376C78.9331 61.8674 79.5298 61.8322 80.0352 62.152C80.0945 62.1922 80.1538 62.2324 80.2082 62.2857L80.3741 62.477C80.447 62.5987 80.52 62.7204 80.5779 62.8811C80.681 63.1972 80.6898 63.5642 80.645 63.954C80.5297 64.7226 80.1765 65.5269 79.6502 66.1973C79.5517 66.3373 79.3746 66.5651 79.2503 66.6942C79.1211 66.8363 78.9561 66.9936 78.8011 67.1248C78.4911 67.3873 78.1604 67.6258 77.8111 67.7959C77.4668 67.953 77.1117 68.0601 76.7787 68.0706C76.4457 68.0811 76.1348 67.995 75.9104 67.8395C75.415 67.4937 75.2553 66.8963 75.2079 66.5129C75.1526 66.1111 75.1682 65.8755 75.1682 65.8755L75.1083 66.0318C75.0941 66.1469 75.047 66.3086 75.0285 66.5128C75.0101 66.7169 74.9973 66.984 75.0697 67.3022C75.1342 67.602 75.2916 67.9713 75.5762 68.2431C75.8765 68.5518 76.3139 68.7368 76.7676 68.7623C77.2293 68.8062 77.6973 68.7166 78.1338 68.5531C78.5753 68.3765 78.9932 68.1446 79.3667 67.8334C79.5574 67.687 79.7274 67.5167 79.9024 67.3334C80.0952 67.1425 80.2066 67.008 80.3708 66.7747C80.947 65.974 81.3681 65.0319 81.4147 64.0525C81.4508 63.5683 81.3741 63.0666 81.1802 62.6364C81.0808 62.4278 80.9377 62.2159 80.7668 62.0376L80.7847 62.0301Z" fill="white"/>
<path d="M82.5624 26.188C82.5624 26.188 82.5237 26.1716 82.5029 26.1477C80.8441 24.9599 78.7788 24.4804 76.8404 24.8437C76.7121 24.8654 76.5968 24.8924 76.4636 24.9271L76.397 24.9444L59.8094 29.534C56.8982 30.2445 54.7909 32.6914 54.4344 35.7731L52.3683 54.1123C52.0666 56.7771 53.1707 59.4906 55.2562 61.208L66.8568 71.4296L66.9113 71.483C68.6599 72.906 70.8728 73.5088 73.0011 73.1195C73.2397 73.0839 73.4703 73.0298 73.6931 72.9571C73.7239 72.955 73.7597 72.9398 73.7776 72.9322L90.4997 67.1702C93.1378 66.3897 95.1027 64.0798 95.5081 61.2616L98.6023 43.7218L98.6273 43.6565C99.024 40.7436 97.727 37.7512 95.3305 36.0236L82.5574 26.2011L82.5624 26.188ZM81.3008 64.2178C81.2414 65.1943 80.8194 66.1388 80.2547 66.947C80.0772 67.1754 79.9706 67.2972 79.7852 67.5071C79.6098 67.6909 79.4265 67.8561 79.2482 68.0083C78.8738 68.3203 78.4548 68.5528 78.0122 68.7297C77.5695 68.9066 77.1053 68.9833 76.6425 68.9391C76.1925 68.9004 75.7539 68.7148 75.4477 68.4183C75.1494 68.1403 75.0044 67.7754 74.9397 67.4748C74.875 67.1742 74.8747 66.9009 74.8982 66.6832C74.9167 66.4786 74.9638 66.3164 74.991 66.2065L75.051 66.0498C75.051 66.0498 75.0226 66.2806 75.0781 66.6835C75.1386 67.0733 75.2859 67.6669 75.7827 68.0137C76.0078 68.1697 76.3245 68.243 76.6534 68.2456C76.9872 68.2352 77.3432 68.1278 77.6884 67.9704C78.0337 67.813 78.3652 67.5739 78.6809 67.2978C78.8363 67.1662 78.9967 67.0216 79.1313 66.8661C79.2558 66.7367 79.4333 66.5083 79.5321 66.368C80.0467 65.6904 80.4136 64.8895 80.529 64.1189C80.5739 63.7281 80.565 63.3601 80.4616 63.0431C80.4084 62.8688 80.3302 62.7599 80.2571 62.6378L80.0907 62.446C80.0907 62.446 79.9767 62.3522 79.9172 62.3119C79.4104 61.9911 78.8122 62.0263 78.4404 62.0966C78.0557 62.1614 77.8279 62.2472 77.8279 62.2472L77.9683 62.1548C78.0628 62.1037 78.1903 62.0059 78.3872 61.9223C78.5713 61.8333 78.812 61.753 79.1121 61.7131C79.4123 61.6732 79.772 61.6737 80.154 61.8506C80.2443 61.8888 80.3475 61.9325 80.4278 61.9968C80.5597 62.083 80.5884 62.1255 80.6687 62.1898C80.84 62.3686 80.9885 62.568 81.0833 62.7902C81.2907 63.2271 81.3548 63.7247 81.3187 64.2102L81.3008 64.2178ZM89.317 51.2047C88.8671 51.166 88.4284 50.9804 88.1223 50.6839C87.824 50.4059 87.679 50.041 87.6143 49.7404C87.5495 49.4398 87.5493 49.1665 87.5728 48.9488C87.5913 48.7442 87.6384 48.582 87.6656 48.4721L87.7256 48.3154C87.7256 48.3154 87.6972 48.5461 87.7526 48.949C87.8131 49.3389 87.9605 49.9324 88.4573 50.2793C88.6824 50.4353 88.9991 50.5086 89.3279 50.5112C89.6618 50.5008 90.0178 50.3934 90.363 50.236C90.7082 50.0786 91.0398 49.8395 91.3555 49.5634C91.5109 49.4318 91.6713 49.2872 91.8058 49.1317C91.9304 49.0023 92.1079 48.7739 92.2067 48.6336C92.7213 47.956 93.0882 47.1551 93.2036 46.3844C93.2485 45.9937 93.2396 45.6256 93.1361 45.3087C93.083 45.1344 93.0048 45.0255 92.9316 44.9034L92.7653 44.7116C92.7653 44.7116 92.6513 44.6178 92.5918 44.5775C92.085 44.2567 91.4868 44.2919 91.115 44.3622C90.7303 44.427 90.5025 44.5127 90.5025 44.5127L90.6429 44.4204C90.7374 44.3693 90.8648 44.2715 91.0618 44.1879C91.2459 44.0989 91.4865 44.0186 91.7867 43.9787C92.0869 43.9388 92.4465 43.9393 92.8286 44.1162C92.9189 44.1544 93.0221 44.1981 93.1024 44.2624C93.2292 44.3616 93.263 44.3911 93.3433 44.4554C93.5146 44.6342 93.6631 44.8336 93.7578 45.0558C93.9652 45.4927 94.0294 45.9903 93.9933 46.4758C93.9338 47.4523 93.5069 48.4099 92.9472 49.205C92.7697 49.4334 92.6631 49.5552 92.4777 49.7651C92.3023 49.9489 92.119 50.1141 91.9407 50.2663C91.5662 50.5783 91.1473 50.8108 90.7047 50.9877C90.262 51.1646 89.7978 51.2413 89.3349 51.1971L89.317 51.2047ZM97.3686 42.9113C97.3551 43.1029 97.338 43.1867 97.3174 43.436L97.2296 43.8997L97.0591 44.814C96.843 46.0429 96.5932 47.2423 96.3763 48.395C95.9196 50.7211 95.4664 52.8816 95.0587 54.7276C94.2563 58.4249 93.6056 60.8661 93.6056 60.8661C93.6056 60.8661 93.8264 58.334 94.3378 54.5742C94.5807 52.6889 94.8949 50.4998 95.2692 48.1541C95.4603 46.9905 95.6277 45.7713 95.8438 44.5424L96.0014 43.6227L96.0763 43.1535C96.0763 43.1535 96.1119 42.865 96.1132 42.7442C96.1336 42.2216 96.0736 41.6347 95.9192 41.0989C95.7884 40.6186 95.586 40.1687 95.3299 39.7416L79.1404 44.0747C75.5639 45.0347 73.3542 43.9933 72.0976 43.2034L58.0205 34.2405L70.5243 45.1176C71.7503 46.1828 73.8066 48.0548 73.3856 51.1092C73.3756 51.1354 73.3785 51.1669 73.3814 51.1985L70.6481 71.122C69.7395 70.9499 68.8722 70.5525 68.1209 69.931L56.4866 59.6799C54.9115 58.391 54.0817 56.3703 54.3079 54.3717L56.374 36.0326C56.6259 33.7716 58.1899 31.9598 60.3375 31.4421L76.9609 26.8374C77.0583 26.8179 77.1428 26.793 77.2353 26.7865C78.6687 26.5282 80.1829 26.8807 81.4223 27.7543C81.4223 27.7543 83.5685 29.118 86.6711 31.3114C88.2339 32.3978 90.0275 33.7032 91.9351 35.1025C92.8929 35.8114 93.8636 36.5258 94.8887 37.2935C95.9713 38.1463 96.7983 39.3918 97.1899 40.7565C97.3717 41.4557 97.4403 42.1373 97.3965 42.8776L97.3686 42.9113Z" fill="black"/>
<path d="M76.1674 39.1856C74.3586 38.8779 72.7926 39.3893 72.6648 40.3108C72.5321 41.2454 73.8937 42.248 75.6974 42.5688C77.5062 42.8765 79.0722 42.3651 79.2 41.4436C79.3277 40.5221 77.9711 39.5064 76.1674 39.1856Z" fill="black"/>
<path d="M65.2911 31.9083C63.4823 31.6007 61.9163 32.112 61.7886 33.0335C61.6559 33.9682 63.0174 34.9707 64.8212 35.2915C66.6249 35.6123 68.196 35.0878 68.3237 34.1663C68.4564 33.2317 67.0949 32.2291 65.2911 31.9083Z" fill="black"/>
<path d="M89.0548 36.0298C87.2461 35.7222 85.68 36.2336 85.5523 37.1551C85.4196 38.0897 86.7811 39.0923 88.5849 39.413C90.3886 39.7338 91.9597 39.2093 92.0874 38.2878C92.2151 37.3663 90.8586 36.3506 89.0548 36.0298Z" fill="black"/>
<path d="M78.5986 28.8086C76.7898 28.501 75.2237 29.0123 75.096 29.9338C74.9633 30.8685 76.3248 31.871 78.1286 32.1918C79.9324 32.5126 81.5034 31.9881 81.6311 31.0666C81.7588 30.1451 80.4023 29.1294 78.5986 28.8086Z" fill="black"/>
<path d="M57.1954 41.7466C57.636 43.4489 58.6566 44.6539 59.4987 44.4494C60.328 44.2394 60.646 42.7066 60.2183 41.0098C59.7776 39.3075 58.757 38.1025 57.9149 38.307C57.0857 38.5169 56.7677 40.0498 57.1954 41.7466Z" fill="black"/>
<path d="M68.95 52.0287C69.7792 51.8188 70.0972 50.286 69.6695 48.5891C69.2418 46.8923 68.2083 45.6819 67.3662 45.8863C66.5369 46.0963 66.2189 47.6291 66.6466 49.326C67.0744 51.0228 68.1078 52.2332 68.95 52.0287Z" fill="black"/>
<path d="M57.2739 45.2855C56.4447 45.4955 56.1267 47.0283 56.5544 48.7251C56.995 50.4274 58.0156 51.6324 58.8577 51.4279C59.687 51.218 60.005 49.6851 59.5773 47.9883C59.1366 46.286 58.116 45.081 57.2739 45.2855Z" fill="black"/>
<path d="M68.3012 58.9887C69.1304 58.7787 69.4485 57.2459 69.0207 55.5491C68.5801 53.8468 67.5595 52.6418 66.7174 52.8463C65.8882 53.0562 65.5701 54.5891 65.9979 56.2859C66.4256 57.9828 67.4591 59.1932 68.3012 58.9887Z" fill="black"/>
<path d="M56.6327 52.069C55.8034 52.2789 55.4854 53.8117 55.9131 55.5086C56.3538 57.2109 57.3744 58.4158 58.2165 58.2113C59.0457 58.0014 59.3637 56.4686 58.936 54.7717C58.4954 53.0694 57.4748 51.8645 56.6327 52.069Z" fill="black"/>
<path d="M67.7653 66.2057C68.5945 65.9958 68.9125 64.463 68.4848 62.7661C68.0442 61.0638 67.0236 59.8589 66.1815 60.0633C65.3522 60.2733 65.0342 61.8061 65.4619 63.503C65.9025 65.2052 66.9232 66.4102 67.7653 66.2057Z" fill="black"/>
<defs>
<linearGradient id="paint0_linear_1_33758" x1="34.5299" y1="5.26022" x2="3.85886" y2="57.6011" gradientUnits="userSpaceOnUse">
<stop offset="0.195" stop-color="#FFFCE8"/>
<stop offset="0.35" stop-color="#EEDBAB"/>
<stop offset="0.475" stop-color="#EEC173"/>
<stop offset="0.615" stop-color="#D6B35A"/>
<stop offset="0.77" stop-color="#FEE492"/>
<stop offset="0.91" stop-color="#EEBD57"/>
<stop offset="1" stop-color="#B48024"/>
</linearGradient>
<linearGradient id="paint1_linear_1_33758" x1="29.6001" y1="40.2581" x2="26.9536" y2="45.1671" gradientUnits="userSpaceOnUse">
<stop offset="0.195" stop-color="#FFFCE8"/>
<stop offset="0.35" stop-color="#EEDBAB"/>
<stop offset="0.475" stop-color="#EEC173"/>
<stop offset="0.615" stop-color="#D6B35A"/>
<stop offset="0.77" stop-color="#FEE492"/>
<stop offset="0.91" stop-color="#EEBD57"/>
<stop offset="1" stop-color="#B48024"/>
</linearGradient>
<linearGradient id="paint2_linear_1_33758" x1="32.888" y1="37.6258" x2="30.2469" y2="42.5269" gradientUnits="userSpaceOnUse">
<stop offset="0.195" stop-color="#FFFCE8"/>
<stop offset="0.35" stop-color="#EEDBAB"/>
<stop offset="0.475" stop-color="#EEC173"/>
<stop offset="0.615" stop-color="#D6B35A"/>
<stop offset="0.77" stop-color="#FEE492"/>
<stop offset="0.91" stop-color="#EEBD57"/>
<stop offset="1" stop-color="#B48024"/>
</linearGradient>
<linearGradient id="paint3_linear_1_33758" x1="36.1847" y1="35.0076" x2="33.5435" y2="39.9088" gradientUnits="userSpaceOnUse">
<stop offset="0.195" stop-color="#FFFCE8"/>
<stop offset="0.35" stop-color="#EEDBAB"/>
<stop offset="0.475" stop-color="#EEC173"/>
<stop offset="0.615" stop-color="#D6B35A"/>
<stop offset="0.77" stop-color="#FEE492"/>
<stop offset="0.91" stop-color="#EEBD57"/>
<stop offset="1" stop-color="#B48024"/>
</linearGradient>
<linearGradient id="paint4_linear_1_33758" x1="19.2161" y1="30.4968" x2="14.1472" y2="36.8275" gradientUnits="userSpaceOnUse">
<stop offset="0.195" stop-color="#FFFCE8"/>
<stop offset="0.35" stop-color="#EEDBAB"/>
<stop offset="0.475" stop-color="#EEC173"/>
<stop offset="0.615" stop-color="#D6B35A"/>
<stop offset="0.77" stop-color="#FEE492"/>
<stop offset="0.91" stop-color="#EEBD57"/>
<stop offset="1" stop-color="#B48024"/>
</linearGradient>
<linearGradient id="paint5_linear_1_33758" x1="21.7446" y1="39.7297" x2="16.6757" y2="46.0604" gradientUnits="userSpaceOnUse">
<stop offset="0.195" stop-color="#FFFCE8"/>
<stop offset="0.35" stop-color="#EEDBAB"/>
<stop offset="0.475" stop-color="#EEC173"/>
<stop offset="0.615" stop-color="#D6B35A"/>
<stop offset="0.77" stop-color="#FEE492"/>
<stop offset="0.91" stop-color="#EEBD57"/>
<stop offset="1" stop-color="#B48024"/>
</linearGradient>
<linearGradient id="paint6_linear_1_33758" x1="16.7059" y1="39.1176" x2="11.6368" y2="45.4483" gradientUnits="userSpaceOnUse">
<stop offset="0.195" stop-color="#FFFCE8"/>
<stop offset="0.35" stop-color="#EEDBAB"/>
<stop offset="0.475" stop-color="#EEC173"/>
<stop offset="0.615" stop-color="#D6B35A"/>
<stop offset="0.77" stop-color="#FEE492"/>
<stop offset="0.91" stop-color="#EEBD57"/>
<stop offset="1" stop-color="#B48024"/>
</linearGradient>
<linearGradient id="paint7_linear_1_33758" x1="11.7512" y1="38.4067" x2="6.68233" y2="44.7374" gradientUnits="userSpaceOnUse">
<stop offset="0.195" stop-color="#FFFCE8"/>
<stop offset="0.35" stop-color="#EEDBAB"/>
<stop offset="0.475" stop-color="#EEC173"/>
<stop offset="0.615" stop-color="#D6B35A"/>
<stop offset="0.77" stop-color="#FEE492"/>
<stop offset="0.91" stop-color="#EEBD57"/>
<stop offset="1" stop-color="#B48024"/>
</linearGradient>
<linearGradient id="paint8_linear_1_33758" x1="14.1466" y1="47.9433" x2="9.07771" y2="54.274" gradientUnits="userSpaceOnUse">
<stop offset="0.195" stop-color="#FFFCE8"/>
<stop offset="0.35" stop-color="#EEDBAB"/>
<stop offset="0.475" stop-color="#EEC173"/>
<stop offset="0.615" stop-color="#D6B35A"/>
<stop offset="0.77" stop-color="#FEE492"/>
<stop offset="0.91" stop-color="#EEBD57"/>
<stop offset="1" stop-color="#B48024"/>
</linearGradient>
<linearGradient id="paint9_linear_1_33758" x1="87.426" y1="-9.86828" x2="45.2513" y2="59.8677" gradientUnits="userSpaceOnUse">
<stop offset="0.195" stop-color="#FFFCE8"/>
<stop offset="0.35" stop-color="#EEDBAB"/>
<stop offset="0.475" stop-color="#EEC173"/>
<stop offset="0.615" stop-color="#D6B35A"/>
<stop offset="0.77" stop-color="#FEE492"/>
<stop offset="0.91" stop-color="#EEBD57"/>
<stop offset="1" stop-color="#B48024"/>
</linearGradient>
<linearGradient id="paint10_linear_1_33758" x1="75.303" y1="36.1567" x2="72.4637" y2="41.6211" gradientUnits="userSpaceOnUse">
<stop offset="0.195" stop-color="#FFFCE8"/>
<stop offset="0.35" stop-color="#EEDBAB"/>
<stop offset="0.475" stop-color="#EEC173"/>
<stop offset="0.615" stop-color="#D6B35A"/>
<stop offset="0.77" stop-color="#FEE492"/>
<stop offset="0.91" stop-color="#EEBD57"/>
<stop offset="1" stop-color="#B48024"/>
</linearGradient>
<linearGradient id="paint11_linear_1_33758" x1="64.4281" y1="28.8759" x2="61.5869" y2="34.3434" gradientUnits="userSpaceOnUse">
<stop offset="0.195" stop-color="#FFFCE8"/>
<stop offset="0.35" stop-color="#EEDBAB"/>
<stop offset="0.475" stop-color="#EEC173"/>
<stop offset="0.615" stop-color="#D6B35A"/>
<stop offset="0.77" stop-color="#FEE492"/>
<stop offset="0.91" stop-color="#EEBD57"/>
<stop offset="1" stop-color="#B48024"/>
</linearGradient>
<linearGradient id="paint12_linear_1_33758" x1="88.1905" y1="33.0009" x2="85.3512" y2="38.4653" gradientUnits="userSpaceOnUse">
<stop offset="0.195" stop-color="#FFFCE8"/>
<stop offset="0.35" stop-color="#EEDBAB"/>
<stop offset="0.475" stop-color="#EEC173"/>
<stop offset="0.615" stop-color="#D6B35A"/>
<stop offset="0.77" stop-color="#FEE492"/>
<stop offset="0.91" stop-color="#EEBD57"/>
<stop offset="1" stop-color="#B48024"/>
</linearGradient>
<linearGradient id="paint13_linear_1_33758" x1="77.7341" y1="25.7797" x2="74.8949" y2="31.2441" gradientUnits="userSpaceOnUse">
<stop offset="0.195" stop-color="#FFFCE8"/>
<stop offset="0.35" stop-color="#EEDBAB"/>
<stop offset="0.475" stop-color="#EEC173"/>
<stop offset="0.615" stop-color="#D6B35A"/>
<stop offset="0.77" stop-color="#FEE492"/>
<stop offset="0.91" stop-color="#EEBD57"/>
<stop offset="1" stop-color="#B48024"/>
</linearGradient>
<linearGradient id="paint14_linear_1_33758" x1="59.1741" y1="34.773" x2="54.3015" y2="42.3613" gradientUnits="userSpaceOnUse">
<stop offset="0.195" stop-color="#FFFCE8"/>
<stop offset="0.35" stop-color="#EEDBAB"/>
<stop offset="0.475" stop-color="#EEC173"/>
<stop offset="0.615" stop-color="#D6B35A"/>
<stop offset="0.77" stop-color="#FEE492"/>
<stop offset="0.91" stop-color="#EEBD57"/>
<stop offset="1" stop-color="#B48024"/>
</linearGradient>
<linearGradient id="paint15_linear_1_33758" x1="68.6253" y1="42.3524" x2="63.7527" y2="49.9407" gradientUnits="userSpaceOnUse">
<stop offset="0.195" stop-color="#FFFCE8"/>
<stop offset="0.35" stop-color="#EEDBAB"/>
<stop offset="0.475" stop-color="#EEC173"/>
<stop offset="0.615" stop-color="#D6B35A"/>
<stop offset="0.77" stop-color="#FEE492"/>
<stop offset="0.91" stop-color="#EEBD57"/>
<stop offset="1" stop-color="#B48024"/>
</linearGradient>
<linearGradient id="paint16_linear_1_33758" x1="58.5331" y1="41.7515" x2="53.6605" y2="49.3398" gradientUnits="userSpaceOnUse">
<stop offset="0.195" stop-color="#FFFCE8"/>
<stop offset="0.35" stop-color="#EEDBAB"/>
<stop offset="0.475" stop-color="#EEC173"/>
<stop offset="0.615" stop-color="#D6B35A"/>
<stop offset="0.77" stop-color="#FEE492"/>
<stop offset="0.91" stop-color="#EEBD57"/>
<stop offset="1" stop-color="#B48024"/>
</linearGradient>
<linearGradient id="paint17_linear_1_33758" x1="67.9766" y1="49.3123" x2="63.104" y2="56.9006" gradientUnits="userSpaceOnUse">
<stop offset="0.195" stop-color="#FFFCE8"/>
<stop offset="0.35" stop-color="#EEDBAB"/>
<stop offset="0.475" stop-color="#EEC173"/>
<stop offset="0.615" stop-color="#D6B35A"/>
<stop offset="0.77" stop-color="#FEE492"/>
<stop offset="0.91" stop-color="#EEBD57"/>
<stop offset="1" stop-color="#B48024"/>
</linearGradient>
<linearGradient id="paint18_linear_1_33758" x1="57.8919" y1="48.535" x2="53.0192" y2="56.1233" gradientUnits="userSpaceOnUse">
<stop offset="0.195" stop-color="#FFFCE8"/>
<stop offset="0.35" stop-color="#EEDBAB"/>
<stop offset="0.475" stop-color="#EEC173"/>
<stop offset="0.615" stop-color="#D6B35A"/>
<stop offset="0.77" stop-color="#FEE492"/>
<stop offset="0.91" stop-color="#EEBD57"/>
<stop offset="1" stop-color="#B48024"/>
</linearGradient>
<linearGradient id="paint19_linear_1_33758" x1="67.4406" y1="56.5294" x2="62.568" y2="64.1177" gradientUnits="userSpaceOnUse">
<stop offset="0.195" stop-color="#FFFCE8"/>
<stop offset="0.35" stop-color="#EEDBAB"/>
<stop offset="0.475" stop-color="#EEC173"/>
<stop offset="0.615" stop-color="#D6B35A"/>
<stop offset="0.77" stop-color="#FEE492"/>
<stop offset="0.91" stop-color="#EEBD57"/>
<stop offset="1" stop-color="#B48024"/>
</linearGradient>
</defs>
</svg>
