<svg width="310" height="575" viewBox="0 0 310 575" fill="none" xmlns="http://www.w3.org/2000/svg">
<path d="M250.368 106.421L250.457 106.353L250.515 106.258L250.863 105.686C251.399 104.861 251.879 104.279 252.301 103.911C252.521 103.723 252.831 103.524 253.245 103.317C253.565 103.161 254.187 103.061 255.207 103.102L255.21 103.102L257.194 103.168L257.194 103.168L257.199 103.168C257.943 103.186 258.724 103.168 259.54 103.114L259.54 103.114L259.544 103.114C262.623 102.887 264.977 101.597 266.519 99.2184C268.223 96.5905 268.682 94.0438 267.727 91.647C267.289 90.5418 266.601 89.5271 265.677 88.602C264.777 87.6972 263.673 86.8284 262.374 85.9933C261.046 85.1405 259.511 84.523 257.776 84.1332C256.933 83.9345 256.083 83.8174 255.227 83.7821L255.227 83.782L255.222 83.7819C254.366 83.7533 253.541 83.8273 252.75 84.0061L252.749 84.0062C251.964 84.1838 251.236 84.4827 250.568 84.9036C249.881 85.3297 249.301 85.9198 248.823 86.6574C248.328 87.4207 248.098 88.2463 248.157 89.1187C248.186 89.5555 248.298 89.9695 248.495 90.355L248.494 90.355L248.499 90.3643C248.731 90.7995 249.109 91.16 249.579 91.4616C250.099 91.7958 250.771 91.9861 251.55 92.0719L252.028 92.1246L252.184 91.6695C252.207 91.6004 252.296 91.4245 252.502 91.1079L252.84 90.5866C252.969 90.387 253.365 89.9427 254.095 89.2163L254.098 89.213C254.898 88.4047 255.759 88.0227 256.698 88.0052C257.656 87.9873 258.768 88.3475 260.049 89.1708C261.369 90.0188 262.154 91.1236 262.452 92.4973C262.745 93.8453 262.512 95.1001 261.737 96.2965C261.002 97.4293 259.953 98.1851 258.555 98.5665C257.89 98.7479 256.746 98.8086 255.064 98.7075L255.064 98.7075L255.06 98.7073L253.123 98.604L253.123 98.6039L253.115 98.6036C252.434 98.5763 251.785 98.6126 251.169 98.715C250.533 98.8205 249.938 99.0232 249.387 99.3246C248.793 99.6502 248.293 100.152 247.876 100.795C247.466 101.427 247.2 102.095 247.09 102.797L247.09 102.797L247.089 102.808C247.001 103.446 246.948 104.091 246.929 104.742L246.929 104.764L246.929 104.785C246.947 105.189 247.098 105.551 247.375 105.845L247.381 105.851L247.386 105.856C247.49 105.961 247.601 106.056 247.722 106.134L247.992 106.307L248.02 106.325L248.05 106.34C248.159 106.394 248.301 106.437 248.432 106.473C248.577 106.512 248.758 106.555 248.974 106.602C249.426 106.7 249.964 106.732 250.368 106.421ZM249.16 111.664L249.16 111.664L249.161 111.659C249.291 110.887 249.221 110.16 248.917 109.502C248.614 108.847 248.1 108.307 247.422 107.871C246.544 107.307 245.596 107.123 244.612 107.355C243.626 107.577 242.842 108.142 242.277 109.013C241.717 109.876 241.525 110.82 241.72 111.814L241.72 111.814L241.721 111.82C241.923 112.8 242.487 113.578 243.363 114.141C244.264 114.72 245.229 114.93 246.227 114.728L246.227 114.728L246.239 114.725C247.239 114.501 248.032 113.943 248.593 113.077C248.88 112.635 249.071 112.164 249.16 111.664Z" fill="#E72D36"/>
<path d="M250.368 106.421L250.457 106.353L250.515 106.258L250.863 105.686C251.399 104.861 251.879 104.279 252.301 103.911C252.521 103.723 252.831 103.524 253.245 103.317C253.565 103.161 254.187 103.061 255.207 103.102L255.21 103.102L257.194 103.168L257.194 103.168L257.199 103.168C257.943 103.186 258.724 103.168 259.54 103.114L259.54 103.114L259.544 103.114C262.623 102.887 264.977 101.597 266.519 99.2184C268.223 96.5905 268.682 94.0438 267.727 91.647C267.289 90.5418 266.601 89.5271 265.677 88.602C264.777 87.6972 263.673 86.8284 262.374 85.9933C261.046 85.1405 259.511 84.523 257.776 84.1332C256.933 83.9345 256.083 83.8174 255.227 83.7821L255.227 83.782L255.222 83.7819C254.366 83.7533 253.541 83.8273 252.75 84.0061L252.749 84.0062C251.964 84.1838 251.236 84.4827 250.568 84.9036C249.881 85.3297 249.301 85.9198 248.823 86.6574C248.328 87.4207 248.098 88.2463 248.157 89.1187C248.186 89.5555 248.298 89.9695 248.495 90.355L248.494 90.355L248.499 90.3643C248.731 90.7995 249.109 91.16 249.579 91.4616C250.099 91.7958 250.771 91.9861 251.55 92.0719L252.028 92.1246L252.184 91.6695C252.207 91.6004 252.296 91.4245 252.502 91.1079L252.84 90.5866C252.969 90.387 253.365 89.9427 254.095 89.2163L254.098 89.213C254.898 88.4047 255.759 88.0227 256.698 88.0052C257.656 87.9873 258.768 88.3475 260.049 89.1708C261.369 90.0188 262.154 91.1236 262.452 92.4973C262.745 93.8453 262.512 95.1001 261.737 96.2965C261.002 97.4293 259.953 98.1851 258.555 98.5665C257.89 98.7479 256.746 98.8086 255.064 98.7075L255.064 98.7075L255.06 98.7073L253.123 98.604L253.123 98.6039L253.115 98.6036C252.434 98.5763 251.785 98.6126 251.169 98.715C250.533 98.8205 249.938 99.0232 249.387 99.3246C248.793 99.6502 248.293 100.152 247.876 100.795C247.466 101.427 247.2 102.095 247.09 102.797L247.09 102.797L247.089 102.808C247.001 103.446 246.948 104.091 246.929 104.742L246.929 104.764L246.929 104.785C246.947 105.189 247.098 105.551 247.375 105.845L247.381 105.851L247.386 105.856C247.49 105.961 247.601 106.056 247.722 106.134L247.992 106.307L248.02 106.325L248.05 106.34C248.159 106.394 248.301 106.437 248.432 106.473C248.577 106.512 248.758 106.555 248.974 106.602C249.426 106.7 249.964 106.732 250.368 106.421ZM249.16 111.664L249.16 111.664L249.161 111.659C249.291 110.887 249.221 110.16 248.917 109.502C248.614 108.847 248.1 108.307 247.422 107.871C246.544 107.307 245.596 107.123 244.612 107.355C243.626 107.577 242.842 108.142 242.277 109.013C241.717 109.876 241.525 110.82 241.72 111.814L241.72 111.814L241.721 111.82C241.923 112.8 242.487 113.578 243.363 114.141C244.264 114.72 245.229 114.93 246.227 114.728L246.227 114.728L246.239 114.725C247.239 114.501 248.032 113.943 248.593 113.077C248.88 112.635 249.071 112.164 249.16 111.664Z" stroke="#E72D36" stroke-width="1.2"/>
<path d="M250.368 106.421L250.457 106.353L250.515 106.258L250.863 105.686C251.399 104.861 251.879 104.279 252.301 103.911C252.521 103.723 252.831 103.524 253.245 103.317C253.565 103.161 254.187 103.061 255.207 103.102L255.21 103.102L257.194 103.168L257.194 103.168L257.199 103.168C257.943 103.186 258.724 103.168 259.54 103.114L259.54 103.114L259.544 103.114C262.623 102.887 264.977 101.597 266.519 99.2184C268.223 96.5905 268.682 94.0438 267.727 91.647C267.289 90.5418 266.601 89.5271 265.677 88.602C264.777 87.6972 263.673 86.8284 262.374 85.9933C261.046 85.1405 259.511 84.523 257.776 84.1332C256.933 83.9345 256.083 83.8174 255.227 83.7821L255.227 83.782L255.222 83.7819C254.366 83.7533 253.541 83.8273 252.75 84.0061L252.749 84.0062C251.964 84.1838 251.236 84.4827 250.568 84.9036C249.881 85.3297 249.301 85.9198 248.823 86.6574C248.328 87.4207 248.098 88.2463 248.157 89.1187C248.186 89.5555 248.298 89.9695 248.495 90.355L248.494 90.355L248.499 90.3643C248.731 90.7995 249.109 91.16 249.579 91.4616C250.099 91.7958 250.771 91.9861 251.55 92.0719L252.028 92.1246L252.184 91.6695C252.207 91.6004 252.296 91.4245 252.502 91.1079L252.84 90.5866C252.969 90.387 253.365 89.9427 254.095 89.2163L254.098 89.213C254.898 88.4047 255.759 88.0227 256.698 88.0052C257.656 87.9873 258.768 88.3475 260.049 89.1708C261.369 90.0188 262.154 91.1236 262.452 92.4973C262.745 93.8453 262.512 95.1001 261.737 96.2965C261.002 97.4293 259.953 98.1851 258.555 98.5665C257.89 98.7479 256.746 98.8086 255.064 98.7075L255.064 98.7075L255.06 98.7073L253.123 98.604L253.123 98.6039L253.115 98.6036C252.434 98.5763 251.785 98.6126 251.169 98.715C250.533 98.8205 249.938 99.0232 249.387 99.3246C248.793 99.6502 248.293 100.152 247.876 100.795C247.466 101.427 247.2 102.095 247.09 102.797L247.09 102.797L247.089 102.808C247.001 103.446 246.948 104.091 246.929 104.742L246.929 104.764L246.929 104.785C246.947 105.189 247.098 105.551 247.375 105.845L247.381 105.851L247.386 105.856C247.49 105.961 247.601 106.056 247.722 106.134L247.992 106.307L248.02 106.325L248.05 106.34C248.159 106.394 248.301 106.437 248.432 106.473C248.577 106.512 248.758 106.555 248.974 106.602C249.426 106.7 249.964 106.732 250.368 106.421ZM249.16 111.664L249.16 111.664L249.161 111.659C249.291 110.887 249.221 110.16 248.917 109.502C248.614 108.847 248.1 108.307 247.422 107.871C246.544 107.307 245.596 107.123 244.612 107.355C243.626 107.577 242.842 108.142 242.277 109.013C241.717 109.876 241.525 110.82 241.72 111.814L241.72 111.814L241.721 111.82C241.923 112.8 242.487 113.578 243.363 114.141C244.264 114.72 245.229 114.93 246.227 114.728L246.227 114.728L246.239 114.725C247.239 114.501 248.032 113.943 248.593 113.077C248.88 112.635 249.071 112.164 249.16 111.664Z" stroke="#E72D36" stroke-width="1.2"/>
<path d="M265.222 120.841L265.241 120.868L265.263 120.893C265.344 120.983 265.459 121.075 265.567 121.156C265.685 121.245 265.836 121.352 266.017 121.473C266.396 121.729 266.882 121.957 267.371 121.818L267.478 121.787L267.567 121.72L268.097 121.321C268.892 120.757 269.547 120.396 270.069 120.212C270.339 120.12 270.696 120.049 271.152 120.01C271.501 119.984 272.107 120.118 273.028 120.528L273.032 120.529L274.829 121.315L274.829 121.315L274.834 121.317C275.511 121.606 276.234 121.875 277.004 122.123L277.004 122.123L277.008 122.124C279.921 123.042 282.559 122.713 284.851 121.085C287.382 119.287 288.74 117.108 288.744 114.55C288.748 113.371 288.489 112.185 287.98 110.994C287.486 109.832 286.792 108.628 285.905 107.384C284.999 106.112 283.815 104.982 282.365 103.988C281.663 103.497 280.925 103.078 280.151 102.733L280.151 102.733L280.147 102.731C279.371 102.392 278.586 102.158 277.792 102.033L277.792 102.033C277.005 101.91 276.225 101.919 275.456 102.063C274.668 102.204 273.918 102.536 273.207 103.041C272.472 103.564 271.957 104.241 271.69 105.066C271.556 105.479 271.506 105.902 271.545 106.33L271.545 106.33L271.546 106.34C271.6 106.827 271.814 107.298 272.135 107.748C272.491 108.248 273.04 108.669 273.724 109.033L274.149 109.259L274.462 108.894C274.509 108.839 274.655 108.71 274.96 108.493L275.462 108.137C275.654 108 276.18 107.736 277.117 107.334L277.122 107.332C278.152 106.88 279.081 106.844 279.947 107.17C280.831 107.502 281.718 108.239 282.592 109.464C283.491 110.726 283.805 112.029 283.575 113.402C283.349 114.75 282.674 115.819 281.523 116.637C280.433 117.412 279.193 117.724 277.771 117.564C277.095 117.489 276.023 117.127 274.516 116.419L274.512 116.418L272.771 115.615L272.771 115.615L272.764 115.611C272.149 115.337 271.539 115.133 270.935 115.002C270.311 114.867 269.689 114.836 269.072 114.913C268.405 114.996 267.761 115.275 267.141 115.715C266.532 116.148 266.042 116.667 265.683 117.273L265.683 117.273L265.678 117.283C265.362 117.839 265.076 118.413 264.82 119.006L264.811 119.026L264.804 119.046C264.672 119.425 264.678 119.814 264.825 120.188L264.827 120.196L264.831 120.203C264.887 120.337 264.955 120.467 265.037 120.582L265.526 120.234L265.037 120.582L265.222 120.841ZM264.337 126.203L264.337 126.203L264.34 126.199C264.743 125.535 264.946 124.839 264.908 124.121C264.871 123.405 264.597 122.72 264.134 122.07C263.534 121.227 262.729 120.71 261.737 120.563C260.748 120.407 259.819 120.642 258.98 121.238C258.148 121.829 257.624 122.629 257.437 123.616L257.437 123.616L257.436 123.622C257.261 124.6 257.493 125.524 258.092 126.364C258.707 127.228 259.518 127.776 260.512 127.955L260.512 127.955L260.524 127.957C261.526 128.116 262.461 127.891 263.296 127.298C263.722 126.996 264.071 126.631 264.337 126.203Z" fill="#E72D36"/>
<path d="M265.222 120.841L265.241 120.868L265.263 120.893C265.344 120.983 265.459 121.075 265.567 121.156C265.685 121.245 265.836 121.352 266.017 121.473C266.396 121.729 266.882 121.957 267.371 121.818L267.478 121.787L267.567 121.72L268.097 121.321C268.892 120.757 269.547 120.396 270.069 120.212C270.339 120.12 270.696 120.049 271.152 120.01C271.501 119.984 272.107 120.118 273.028 120.528L273.032 120.529L274.829 121.315L274.829 121.315L274.834 121.317C275.511 121.606 276.234 121.875 277.004 122.123L277.004 122.123L277.008 122.124C279.921 123.042 282.559 122.713 284.851 121.085C287.382 119.287 288.74 117.108 288.744 114.55C288.748 113.371 288.489 112.185 287.98 110.994C287.486 109.832 286.792 108.628 285.905 107.384C284.999 106.112 283.815 104.982 282.365 103.988C281.663 103.497 280.925 103.078 280.151 102.733L280.151 102.733L280.147 102.731C279.371 102.392 278.586 102.158 277.792 102.033L277.792 102.033C277.005 101.91 276.225 101.919 275.456 102.063C274.668 102.204 273.918 102.536 273.207 103.041C272.472 103.564 271.957 104.241 271.69 105.066C271.556 105.479 271.506 105.902 271.545 106.33L271.545 106.33L271.546 106.34C271.6 106.827 271.814 107.298 272.135 107.748C272.491 108.248 273.04 108.669 273.724 109.033L274.149 109.259L274.462 108.894C274.509 108.839 274.655 108.71 274.96 108.493L275.462 108.137C275.654 108 276.18 107.736 277.117 107.334L277.122 107.332C278.152 106.88 279.081 106.844 279.947 107.17C280.831 107.502 281.718 108.239 282.592 109.464C283.491 110.726 283.805 112.029 283.575 113.402C283.349 114.75 282.674 115.819 281.523 116.637C280.433 117.412 279.193 117.724 277.771 117.564C277.095 117.489 276.023 117.127 274.516 116.419L274.512 116.418L272.771 115.615L272.771 115.615L272.764 115.611C272.149 115.337 271.539 115.133 270.935 115.002C270.311 114.867 269.689 114.836 269.072 114.913C268.405 114.996 267.761 115.275 267.141 115.715C266.532 116.148 266.042 116.667 265.683 117.273L265.683 117.273L265.678 117.283C265.362 117.839 265.076 118.413 264.82 119.006L264.811 119.026L264.804 119.046C264.672 119.425 264.678 119.814 264.825 120.188L264.827 120.196L264.831 120.203C264.887 120.337 264.955 120.467 265.037 120.582L265.526 120.234L265.037 120.582L265.222 120.841ZM264.337 126.203L264.337 126.203L264.34 126.199C264.743 125.535 264.946 124.839 264.908 124.121C264.871 123.405 264.597 122.72 264.134 122.07C263.534 121.227 262.729 120.71 261.737 120.563C260.748 120.407 259.819 120.642 258.98 121.238C258.148 121.829 257.624 122.629 257.437 123.616L257.437 123.616L257.436 123.622C257.261 124.6 257.493 125.524 258.092 126.364C258.707 127.228 259.518 127.776 260.512 127.955L260.512 127.955L260.524 127.957C261.526 128.116 262.461 127.891 263.296 127.298C263.722 126.996 264.071 126.631 264.337 126.203Z" stroke="#E72D36" stroke-width="1.2"/>
<path d="M265.222 120.841L265.241 120.868L265.263 120.893C265.344 120.983 265.459 121.075 265.567 121.156C265.685 121.245 265.836 121.352 266.017 121.473C266.396 121.729 266.882 121.957 267.371 121.818L267.478 121.787L267.567 121.72L268.097 121.321C268.892 120.757 269.547 120.396 270.069 120.212C270.339 120.12 270.696 120.049 271.152 120.01C271.501 119.984 272.107 120.118 273.028 120.528L273.032 120.529L274.829 121.315L274.829 121.315L274.834 121.317C275.511 121.606 276.234 121.875 277.004 122.123L277.004 122.123L277.008 122.124C279.921 123.042 282.559 122.713 284.851 121.085C287.382 119.287 288.74 117.108 288.744 114.55C288.748 113.371 288.489 112.185 287.98 110.994C287.486 109.832 286.792 108.628 285.905 107.384C284.999 106.112 283.815 104.982 282.365 103.988C281.663 103.497 280.925 103.078 280.151 102.733L280.151 102.733L280.147 102.731C279.371 102.392 278.586 102.158 277.792 102.033L277.792 102.033C277.005 101.91 276.225 101.919 275.456 102.063C274.668 102.204 273.918 102.536 273.207 103.041C272.472 103.564 271.957 104.241 271.69 105.066C271.556 105.479 271.506 105.902 271.545 106.33L271.545 106.33L271.546 106.34C271.6 106.827 271.814 107.298 272.135 107.748C272.491 108.248 273.04 108.669 273.724 109.033L274.149 109.259L274.462 108.894C274.509 108.839 274.655 108.71 274.96 108.493L275.462 108.137C275.654 108 276.18 107.736 277.117 107.334L277.122 107.332C278.152 106.88 279.081 106.844 279.947 107.17C280.831 107.502 281.718 108.239 282.592 109.464C283.491 110.726 283.805 112.029 283.575 113.402C283.349 114.75 282.674 115.819 281.523 116.637C280.433 117.412 279.193 117.724 277.771 117.564C277.095 117.489 276.023 117.127 274.516 116.419L274.512 116.418L272.771 115.615L272.771 115.615L272.764 115.611C272.149 115.337 271.539 115.133 270.935 115.002C270.311 114.867 269.689 114.836 269.072 114.913C268.405 114.996 267.761 115.275 267.141 115.715C266.532 116.148 266.042 116.667 265.683 117.273L265.683 117.273L265.678 117.283C265.362 117.839 265.076 118.413 264.82 119.006L264.811 119.026L264.804 119.046C264.672 119.425 264.678 119.814 264.825 120.188L264.827 120.196L264.831 120.203C264.887 120.337 264.955 120.467 265.037 120.582L265.526 120.234L265.037 120.582L265.222 120.841ZM264.337 126.203L264.337 126.203L264.34 126.199C264.743 125.535 264.946 124.839 264.908 124.121C264.871 123.405 264.597 122.72 264.134 122.07C263.534 121.227 262.729 120.71 261.737 120.563C260.748 120.407 259.819 120.642 258.98 121.238C258.148 121.829 257.624 122.629 257.437 123.616L257.437 123.616L257.436 123.622C257.261 124.6 257.493 125.524 258.092 126.364C258.707 127.228 259.518 127.776 260.512 127.955L260.512 127.955L260.524 127.957C261.526 128.116 262.461 127.891 263.296 127.298C263.722 126.996 264.071 126.631 264.337 126.203Z" stroke="#E72D36" stroke-width="1.2"/>
<path d="M273.489 140.527L273.497 140.559L273.509 140.59C273.55 140.704 273.623 140.832 273.693 140.947C273.77 141.074 273.871 141.229 273.994 141.409C274.251 141.787 274.618 142.179 275.123 142.23L275.234 142.241L275.342 142.212L275.982 142.038C276.929 141.808 277.671 141.716 278.224 141.738C278.51 141.752 278.868 141.819 279.305 141.951C279.64 142.057 280.153 142.406 280.857 143.128L280.859 143.13L282.238 144.526L282.238 144.526L282.242 144.53C282.763 145.049 283.336 145.566 283.958 146.082L283.958 146.082L283.962 146.085C286.328 148.016 288.9 148.687 291.632 148.024C294.649 147.291 296.717 145.77 297.669 143.396C298.109 142.303 298.308 141.104 298.276 139.81C298.247 138.547 298.049 137.172 297.686 135.688C297.315 134.171 296.634 132.683 295.655 131.223C295.185 130.507 294.655 129.844 294.064 129.237L294.064 129.237L294.061 129.233C293.466 128.631 292.823 128.123 292.132 127.713L292.132 127.713C291.446 127.306 290.718 127.026 289.951 126.875C289.167 126.715 288.347 126.745 287.5 126.951C286.623 127.164 285.894 127.602 285.341 128.27C285.062 128.604 284.86 128.978 284.738 129.39L284.738 129.39L284.735 129.4C284.604 129.872 284.629 130.389 284.76 130.926C284.906 131.522 285.259 132.117 285.761 132.708L286.071 133.076L286.497 132.852C286.561 132.818 286.745 132.753 287.108 132.664L287.707 132.519C287.935 132.464 288.522 132.413 289.542 132.386L289.546 132.386C290.671 132.348 291.548 132.659 292.231 133.282C292.929 133.918 293.48 134.931 293.838 136.393C294.206 137.898 294.015 139.225 293.292 140.415C292.583 141.583 291.56 142.327 290.188 142.66C288.888 142.975 287.621 142.806 286.359 142.131C285.76 141.811 284.898 141.078 283.76 139.862L283.757 139.859L282.438 138.469L282.438 138.469L282.432 138.463C281.962 137.981 281.471 137.565 280.958 137.219C280.429 136.863 279.863 136.604 279.262 136.447C278.612 136.276 277.909 136.297 277.171 136.477C276.444 136.653 275.797 136.953 275.239 137.384L275.239 137.383L275.231 137.39C274.732 137.79 274.253 138.218 273.796 138.674L273.78 138.689L273.766 138.705C273.503 139.007 273.364 139.372 273.362 139.774L273.362 139.782L273.362 139.789C273.365 139.935 273.38 140.08 273.414 140.218L273.997 140.076L273.414 140.218L273.489 140.527ZM270.681 145.18L270.681 145.18L270.685 145.177C271.306 144.71 271.752 144.138 271.983 143.457C272.213 142.779 272.214 142.041 272.024 141.265C271.778 140.261 271.222 139.482 270.356 138.978C269.494 138.467 268.544 138.341 267.544 138.583C266.552 138.824 265.77 139.374 265.23 140.221L265.23 140.221L265.227 140.227C264.702 141.07 264.576 142.015 264.821 143.016C265.072 144.047 265.622 144.856 266.479 145.39L266.479 145.39L266.49 145.397C267.362 145.916 268.314 146.053 269.309 145.811C269.816 145.688 270.276 145.479 270.681 145.18Z" fill="#E72D36"/>
<path d="M273.489 140.527L273.497 140.559L273.509 140.59C273.55 140.704 273.623 140.832 273.693 140.947C273.77 141.074 273.871 141.229 273.994 141.409C274.251 141.787 274.618 142.179 275.123 142.23L275.234 142.241L275.342 142.212L275.982 142.038C276.929 141.808 277.671 141.716 278.224 141.738C278.51 141.752 278.868 141.819 279.305 141.951C279.64 142.057 280.153 142.406 280.857 143.128L280.859 143.13L282.238 144.526L282.238 144.526L282.242 144.53C282.763 145.049 283.336 145.566 283.958 146.082L283.958 146.082L283.962 146.085C286.328 148.016 288.9 148.687 291.632 148.024C294.649 147.291 296.717 145.77 297.669 143.396C298.109 142.303 298.308 141.104 298.276 139.81C298.247 138.547 298.049 137.172 297.686 135.688C297.315 134.171 296.634 132.683 295.655 131.223C295.185 130.507 294.655 129.844 294.064 129.237L294.064 129.237L294.061 129.233C293.466 128.631 292.823 128.123 292.132 127.713L292.132 127.713C291.446 127.306 290.718 127.026 289.951 126.875C289.167 126.715 288.347 126.745 287.5 126.951C286.623 127.164 285.894 127.602 285.341 128.27C285.062 128.604 284.86 128.978 284.738 129.39L284.738 129.39L284.735 129.4C284.604 129.872 284.629 130.389 284.76 130.926C284.906 131.522 285.259 132.117 285.761 132.708L286.071 133.076L286.497 132.852C286.561 132.818 286.745 132.753 287.108 132.664L287.707 132.519C287.935 132.464 288.522 132.413 289.542 132.386L289.546 132.386C290.671 132.348 291.548 132.659 292.231 133.282C292.929 133.918 293.48 134.931 293.838 136.393C294.206 137.898 294.015 139.225 293.292 140.415C292.583 141.583 291.56 142.327 290.188 142.66C288.888 142.975 287.621 142.806 286.359 142.131C285.76 141.811 284.898 141.078 283.76 139.862L283.757 139.859L282.438 138.469L282.438 138.469L282.432 138.463C281.962 137.981 281.471 137.565 280.958 137.219C280.429 136.863 279.863 136.604 279.262 136.447C278.612 136.276 277.909 136.297 277.171 136.477C276.444 136.653 275.797 136.953 275.239 137.384L275.239 137.383L275.231 137.39C274.732 137.79 274.253 138.218 273.796 138.674L273.78 138.689L273.766 138.705C273.503 139.007 273.364 139.372 273.362 139.774L273.362 139.782L273.362 139.789C273.365 139.935 273.38 140.08 273.414 140.218L273.997 140.076L273.414 140.218L273.489 140.527ZM270.681 145.18L270.681 145.18L270.685 145.177C271.306 144.71 271.752 144.138 271.983 143.457C272.213 142.779 272.214 142.041 272.024 141.265C271.778 140.261 271.222 139.482 270.356 138.978C269.494 138.467 268.544 138.341 267.544 138.583C266.552 138.824 265.77 139.374 265.23 140.221L265.23 140.221L265.227 140.227C264.702 141.07 264.576 142.015 264.821 143.016C265.072 144.047 265.622 144.856 266.479 145.39L266.479 145.39L266.49 145.397C267.362 145.916 268.314 146.053 269.309 145.811C269.816 145.688 270.276 145.479 270.681 145.18Z" stroke="#E72D36" stroke-width="1.2"/>
<path d="M273.489 140.527L273.497 140.559L273.509 140.59C273.55 140.704 273.623 140.832 273.693 140.947C273.77 141.074 273.871 141.229 273.994 141.409C274.251 141.787 274.618 142.179 275.123 142.23L275.234 142.241L275.342 142.212L275.982 142.038C276.929 141.808 277.671 141.716 278.224 141.738C278.51 141.752 278.868 141.819 279.305 141.951C279.64 142.057 280.153 142.406 280.857 143.128L280.859 143.13L282.238 144.526L282.238 144.526L282.242 144.53C282.763 145.049 283.336 145.566 283.958 146.082L283.958 146.082L283.962 146.085C286.328 148.016 288.9 148.687 291.632 148.024C294.649 147.291 296.717 145.77 297.669 143.396C298.109 142.303 298.308 141.104 298.276 139.81C298.247 138.547 298.049 137.172 297.686 135.688C297.315 134.171 296.634 132.683 295.655 131.223C295.185 130.507 294.655 129.844 294.064 129.237L294.064 129.237L294.061 129.233C293.466 128.631 292.823 128.123 292.132 127.713L292.132 127.713C291.446 127.306 290.718 127.026 289.951 126.875C289.167 126.715 288.347 126.745 287.5 126.951C286.623 127.164 285.894 127.602 285.341 128.27C285.062 128.604 284.86 128.978 284.738 129.39L284.738 129.39L284.735 129.4C284.604 129.872 284.629 130.389 284.76 130.926C284.906 131.522 285.259 132.117 285.761 132.708L286.071 133.076L286.497 132.852C286.561 132.818 286.745 132.753 287.108 132.664L287.707 132.519C287.935 132.464 288.522 132.413 289.542 132.386L289.546 132.386C290.671 132.348 291.548 132.659 292.231 133.282C292.929 133.918 293.48 134.931 293.838 136.393C294.206 137.898 294.015 139.225 293.292 140.415C292.583 141.583 291.56 142.327 290.188 142.66C288.888 142.975 287.621 142.806 286.359 142.131C285.76 141.811 284.898 141.078 283.76 139.862L283.757 139.859L282.438 138.469L282.438 138.469L282.432 138.463C281.962 137.981 281.471 137.565 280.958 137.219C280.429 136.863 279.863 136.604 279.262 136.447C278.612 136.276 277.909 136.297 277.171 136.477C276.444 136.653 275.797 136.953 275.239 137.384L275.239 137.383L275.231 137.39C274.732 137.79 274.253 138.218 273.796 138.674L273.78 138.689L273.766 138.705C273.503 139.007 273.364 139.372 273.362 139.774L273.362 139.782L273.362 139.789C273.365 139.935 273.38 140.08 273.414 140.218L273.997 140.076L273.414 140.218L273.489 140.527ZM270.681 145.18L270.681 145.18L270.685 145.177C271.306 144.71 271.752 144.138 271.983 143.457C272.213 142.779 272.214 142.041 272.024 141.265C271.778 140.261 271.222 139.482 270.356 138.978C269.494 138.467 268.544 138.341 267.544 138.583C266.552 138.824 265.77 139.374 265.23 140.221L265.23 140.221L265.227 140.227C264.702 141.07 264.576 142.015 264.821 143.016C265.072 144.047 265.622 144.856 266.479 145.39L266.479 145.39L266.49 145.397C267.362 145.916 268.314 146.053 269.309 145.811C269.816 145.688 270.276 145.479 270.681 145.18Z" stroke="#E72D36" stroke-width="1.2"/>
<path d="M240.77 206.178C236.785 206.768 232.768 207.046 228.765 207.452C227.082 207.622 225.369 207.531 223.673 207.488C220.41 207.403 217.14 207.576 213.881 207.327C205.653 206.7 197.785 204.782 190.547 200.672C190.258 200.507 189.975 200.332 189.688 200.161C187.438 198.82 185.492 197.203 183.928 195.029C182.149 192.559 180.415 190.099 179.317 187.235C178.222 184.379 177.506 181.457 177.73 178.364C177.85 176.714 178.298 175.166 179.036 173.685C180.47 170.812 182.841 169.517 185.982 169.512C188.343 169.509 190.602 170.08 192.812 170.85C197.337 172.425 201.507 174.707 205.504 177.321C206.76 178.14 208.095 178.516 209.584 178.157C209.874 178.088 210.164 177.991 210.427 177.857C215.774 175.147 221.254 172.712 226.641 170.09C230.451 168.238 234.341 166.6 238.398 165.366C241.078 164.553 243.794 163.9 246.585 163.614C248.348 163.435 250.109 163.415 251.86 163.737C253.433 164.026 254.829 164.694 256.061 165.706C257.877 167.92 258.68 170.538 258.993 173.32C259.564 178.381 258.618 183.254 256.975 188.014C256.531 189.302 256.145 190.607 255.711 191.896C254.036 196.876 251.197 200.981 246.668 203.801C244.84 204.939 242.83 205.619 240.77 206.181L240.77 206.178Z" fill="#FBFBFB"/>
<path d="M244.844 206.329C243.332 208.515 241.83 210.708 240.307 212.888C239.032 214.711 237.805 216.57 236.437 218.327C236.315 218.483 236.195 218.646 236.055 218.786C234.731 220.097 233.414 221.412 232.074 222.705C229.421 225.263 226.254 226.861 222.669 227.655C222.314 227.735 221.955 227.798 221.595 227.867C220.833 228.375 219.95 228.398 219.092 228.414C215.222 228.489 211.473 227.833 207.822 226.523C200.953 224.054 194.896 220.204 189.408 215.481C187.775 214.076 186.058 213.641 184.065 213.519C179.561 213.242 175.251 212.233 171.235 210.085C165.071 206.788 161.915 201.528 161.165 194.717C160.791 191.315 161.047 187.925 161.847 184.595C162.843 180.448 163.769 176.285 164.643 172.111C165.168 169.605 166.243 167.31 167.162 164.958C168.836 160.677 170.533 156.403 172.255 152.139C172.464 151.619 172.47 151.11 172.357 150.574C171.447 146.267 170.75 141.926 170.353 137.541C170.047 134.153 169.915 130.764 170.306 127.373C170.499 126.836 170.633 126.287 170.602 125.71C170.963 125.06 171.029 124.32 171.24 123.624C171.678 122.184 172.204 120.791 173.331 119.718C174.858 118.266 176.711 117.896 178.695 118.248C180.944 118.647 182.846 119.794 184.545 121.297C187.229 123.672 189.439 126.441 191.374 129.449C192.472 131.156 193.514 132.891 194.418 134.709C194.597 135.068 194.78 135.204 195.194 135.029C196.541 134.46 197.896 133.902 199.268 133.397C199.741 133.223 199.729 132.903 199.743 132.537C199.821 130.405 199.894 128.275 199.981 126.144C199.993 125.821 199.911 125.47 200.153 125.186C200.571 125.551 200.445 126.045 200.432 126.496C200.385 128.228 200.305 129.958 200.251 131.69C200.224 132.595 200.29 132.633 201.135 132.345C201.798 132.118 202.41 131.763 203.075 131.545C203.851 131.293 204.087 130.831 203.942 130.027C203.507 127.634 203.213 125.22 202.946 122.802C202.632 119.984 202.498 117.148 202.573 114.33C202.643 111.687 202.853 109.005 203.911 106.504C204.167 106.011 204.41 105.512 204.65 105.009C204.741 104.837 204.858 104.686 204.963 104.523L204.959 104.529C205.015 104.491 205.038 104.447 205.031 104.399C205.023 104.347 205.011 104.322 204.996 104.321C205.177 104.178 205.392 104.063 205.529 103.887C206.4 102.764 207.536 102.891 208.703 103.206C209.353 103.382 209.922 103.734 210.465 104.122C211.975 105.193 213.146 106.598 214.232 108.07C217.729 112.808 220.322 118.048 222.698 123.408C223.008 124.108 223.343 124.798 223.627 125.507C223.798 125.929 224.005 126.026 224.46 125.895C225.576 125.571 226.711 125.349 227.89 125.386C228.774 125.414 229.606 125.633 230.388 126.002C234.619 127.999 238.524 130.499 242.085 133.544C243.579 134.822 245.027 136.148 246.34 137.594C249.565 141.153 252.336 145.036 254.544 149.319C256.319 152.761 257.765 156.329 258.867 160.033C259.435 161.937 259.932 163.868 260.133 165.856C259.724 165.938 259.438 165.683 259.135 165.484C257.158 164.18 254.951 163.872 252.647 163.946C245.877 164.162 239.635 166.417 233.597 169.192C227.274 172.1 220.963 175.041 214.75 178.187C212.8 179.173 210.983 178.717 209.271 177.597C206.113 175.529 202.83 173.7 199.35 172.233C196.481 171.023 193.538 170.053 190.397 169.931C186.905 169.793 184.481 171.361 183.062 174.558C181.911 177.15 181.801 179.845 182.308 182.589C183.149 187.145 185.292 191.041 188.008 194.773C190.992 198.873 195.181 201.048 199.595 202.959C204.736 205.184 210.155 206.343 215.719 206.996C220.374 207.543 225.034 207.293 229.685 207.395C234.377 207.498 239.039 206.706 243.705 206.223C244.085 206.185 244.491 205.978 244.839 206.331L244.844 206.329Z" fill="#E78C19"/>
<path d="M170.527 127.296C170.119 132.098 170.46 136.87 171.099 141.633C171.515 144.733 172.045 147.814 172.716 150.868C172.828 151.379 172.695 151.784 172.525 152.21C170.656 156.911 168.854 161.641 166.885 166.3C165.566 169.422 164.815 172.678 164.092 175.959C163.44 178.914 162.753 181.862 162.087 184.812C160.994 189.655 160.857 194.508 162.409 199.307C163.789 203.572 166.418 206.857 170.218 209.21C173.145 211.022 176.358 212.057 179.719 212.715C182.112 213.183 184.537 213.317 186.958 213.508C187.43 213.544 187.754 213.738 188.089 214.037C192.086 217.594 196.407 220.697 201.121 223.238C204.383 224.996 207.782 226.427 211.398 227.305C214.765 228.124 218.158 228.4 221.598 227.87C221.526 227.979 221.473 228.11 221.379 228.195C216.968 232.272 211.86 234.868 205.822 235.433C201.746 235.814 197.785 235.193 193.913 233.933C187.679 231.907 182.193 228.561 177.218 224.342C176.729 223.927 176.246 223.743 175.621 223.69C171.776 223.367 168.169 222.294 164.94 220.129C160.709 217.291 158.269 213.251 157.113 208.363C156.385 205.281 156.384 202.157 156.578 199.024C156.962 192.842 158.344 186.848 160.018 180.912C161.782 174.66 163.941 168.545 166.422 162.542C166.619 162.067 166.706 161.6 166.697 161.089C166.607 155.457 166.695 149.827 167.105 144.209C167.49 138.924 168.127 133.672 169.648 128.568C169.857 127.868 170.117 127.183 170.354 126.491C170.854 126.661 170.563 127.005 170.529 127.293L170.527 127.296Z" fill="#3C2D0C"/>
<path d="M204.139 106.34C203.286 108.956 202.941 111.66 202.881 114.39C202.8 117.949 203.026 121.5 203.493 125.03C203.74 126.906 204.043 128.775 204.337 130.646C204.4 131.045 204.398 131.349 203.942 131.524C202.644 132.023 201.358 132.552 199.917 133.13C199.999 130.399 200.078 127.792 200.158 125.186C200.322 122.728 200.54 120.272 200.877 117.831C201.38 114.201 202.014 110.6 203.415 107.183C203.566 106.815 203.756 106.463 203.93 106.104C204.119 106.075 204.22 106.127 204.141 106.34L204.139 106.34Z" fill="#3C2D0C"/>
<path d="M181.622 150.088C180.215 150.066 179.664 149.697 179.338 148.351C178.376 144.382 177.446 140.406 176.993 136.337C176.804 134.646 176.832 132.953 176.944 131.258C177.003 130.348 177.293 129.508 177.659 128.681C178.088 127.711 178.879 127.111 179.75 126.615C180.714 126.068 181.683 126.29 182.603 126.776C183.646 127.327 184.469 128.156 185.243 129.025C186.646 130.598 187.663 132.439 188.8 134.195C190.028 136.092 191.209 138.019 192.496 139.88C193.452 141.267 193.193 142.733 192.359 144.1C191.51 145.498 190.23 146.462 188.885 147.335C186.977 148.573 184.985 149.625 182.711 150.027C182.548 150.055 182.386 150.097 182.221 150.104C182.022 150.113 181.822 150.093 181.622 150.086L181.622 150.088Z" fill="#EFB99D"/>
<path d="M214.139 131.518C211.308 131.566 209.759 129.336 209.556 126.939C209.403 125.122 209.408 123.289 209.334 121.464C209.242 119.242 209.151 117.02 209.039 114.797C208.987 113.754 209.17 112.739 209.357 111.728C209.647 110.172 210.807 110.27 211.773 110.852C212.575 111.334 213.157 112.096 213.664 112.884C214.531 114.227 215.307 115.621 215.982 117.071C217.161 119.604 218.197 122.205 219.533 124.666C219.836 125.222 220.052 125.817 220.179 126.442C220.535 128.188 219.84 129.687 218.257 130.526C216.972 131.207 215.614 131.607 214.139 131.516L214.139 131.518Z" fill="#EFB99D"/>
<path d="M197.263 160.441C197.669 157.05 199.215 154.352 202.15 152.514C202.658 152.197 203.22 151.988 203.812 151.855C205.784 151.413 207.421 152.409 207.911 154.365C208.199 155.522 208.123 156.678 207.806 157.817C207.095 160.379 205.699 162.469 203.447 163.929C202.543 164.516 201.556 164.891 200.441 164.833C199.196 164.768 198.303 164.182 197.748 163.075C197.336 162.248 197.21 161.37 197.263 160.441Z" fill="#FBFBFB"/>
<path d="M238.204 149.82C236.65 149.811 235.226 149.497 233.902 148.81C231.356 147.489 231.031 145.436 233.083 143.443C236.221 140.394 240.798 140.546 243.646 143.756C244.048 144.208 244.375 144.712 244.597 145.274C245.057 146.433 244.854 147.314 243.952 148.176C243.282 148.814 242.462 149.181 241.596 149.44C240.47 149.779 239.316 149.922 238.204 149.82Z" fill="#FBFBFB"/>
<path d="M238.538 160.367C239.749 160.397 240.92 160.59 242.017 161.127C242.816 161.517 243.566 162.007 243.618 162.993C243.67 163.99 242.961 164.561 242.189 164.989C240.163 166.107 237.974 166.325 235.716 166.016C234.756 165.886 233.828 165.63 232.994 165.114C232.503 164.811 232.09 164.43 231.896 163.868C231.73 163.384 231.829 163.217 232.334 163.149C233.123 163.043 233.923 162.996 234.671 162.686C235.58 162.308 236.457 161.899 236.534 160.724C236.554 160.402 236.814 160.394 237.047 160.386C237.546 160.371 238.044 160.372 238.542 160.367L238.538 160.367Z" fill="black"/>
<path d="M215.737 165.119C216.977 165.163 218.188 165.347 219.307 165.918C220.066 166.305 220.776 166.787 220.832 167.735C220.89 168.692 220.237 169.265 219.5 169.688C217.489 170.842 215.3 171.076 213.041 170.792C212.015 170.663 211.02 170.399 210.133 169.826C209.614 169.489 209.207 169.069 209.063 168.445C208.994 168.141 209.058 167.943 209.431 167.906C210.059 167.844 210.689 167.802 211.302 167.631C211.85 167.478 212.378 167.284 212.849 166.961C213.297 166.653 213.701 166.275 213.712 165.693C213.721 165.222 213.963 165.138 214.341 165.14C214.805 165.14 215.272 165.127 215.737 165.122L215.737 165.119Z" fill="black"/>
<path d="M249.889 166.816C251.25 166.84 252.438 166.958 253.577 167.384C254.962 167.902 255.737 168.811 255.747 170.374C255.761 172.752 255.256 174.994 254.239 177.133C253.523 178.642 252.625 180.044 251.662 181.402C250.711 182.746 249.268 183.288 247.715 182.857C244.946 182.09 242.294 181.033 239.855 179.489C238.838 178.843 237.896 178.105 237.142 177.153C235.633 175.247 235.672 173.195 237.245 171.331C237.766 170.715 238.374 170.197 239.049 169.762C241.432 168.224 243.999 167.185 246.854 166.95C247.915 166.863 248.977 166.744 249.889 166.816Z" fill="black"/>
<path d="M117.457 49.0743C117.64 48.8638 117.826 48.6617 117.987 48.4542L123.963 55.1271C123.801 55.3346 123.616 55.5367 123.433 55.7472C123.008 56.2299 122.586 56.707 122.16 57.1675C117.111 62.679 112.096 66.6566 107.45 69.2827C105.459 67.0611 103.471 64.834 101.475 62.6098C106.121 59.9837 111.136 56.0061 116.182 50.5002C116.603 50.037 117.027 49.5682 117.455 49.0799L117.457 49.0743Z" fill="#FFD575"/>
<path d="M80.9881 63.6793C84.5819 67.6986 92.3005 67.7955 101.482 62.6008C103.47 64.8277 105.461 67.049 107.457 69.2731C98.2783 74.4622 90.5596 74.3653 86.9659 70.3459C85.1727 68.3418 82.7842 65.6778 80.991 63.6737L80.9881 63.6793Z" fill="#FFD575"/>
<path d="M89.4709 68.5798L83.4958 61.9072C88.6934 67.711 102.853 64.9805 117.269 49.2469C117.505 48.9859 117.749 48.7219 117.988 48.4553L123.963 55.1279C123.724 55.3945 123.485 55.6612 123.244 55.9195C108.828 71.6531 94.6685 74.3836 89.4709 68.5798Z" fill="#FFD575"/>
<path d="M114.071 47.2761C114.071 47.2761 114.077 47.2649 114.08 47.2593C116.071 49.4805 118.059 51.7074 120.055 53.9314C120.052 53.937 120.049 53.9425 120.046 53.9481C118.253 51.944 115.864 49.2802 114.071 47.2761Z" fill="#FFD575"/>
<path d="M118.654 54.5588L112.679 47.8866C112.945 48.0752 113.584 47.7901 114.066 47.2734L120.041 53.9456C119.559 54.4623 118.919 54.7474 118.654 54.5588Z" fill="#FFD575"/>
<path d="M119.663 52.0964L113.689 45.4243L114.465 45.9792L120.439 52.6512L119.663 52.0964Z" fill="#FFD575"/>
<path d="M114.085 47.2615C114.526 46.7731 114.705 46.2405 114.513 46.0261L120.488 52.6983C120.68 52.9128 120.501 53.4454 120.06 53.9338C118.069 51.7125 116.081 49.4856 114.085 47.2615Z" fill="#FFD575"/>
<path d="M114.513 46.0258L120.488 52.6979C120.488 52.6979 120.457 52.6677 120.436 52.6568L114.461 45.9848C114.461 45.9848 114.5 46.0121 114.513 46.0258Z" fill="#FFD575"/>
<path d="M117.844 53.979L111.87 47.3069L112.679 47.8864L118.654 54.5584L117.844 53.979Z" fill="#FFD575"/>
<path d="M113.688 45.4237C115.117 43.8572 116.262 42.3134 117.09 40.8955C119.081 43.1169 121.069 45.3439 123.065 47.5681C122.237 48.986 121.092 50.5298 119.663 52.0963C117.87 50.0921 115.481 47.428 113.688 45.4237Z" fill="#FFD575"/>
<path d="M117.63 41.3833C119.456 43.426 121.279 45.4603 123.105 47.5029C123.094 47.5253 123.082 47.5476 123.07 47.57C121.079 45.3487 119.092 43.1219 117.095 40.8979C117.107 40.8755 117.119 40.8532 117.131 40.8308C117.148 40.8473 117.174 40.8748 117.189 40.8968C117.204 40.9189 117.232 40.9408 117.247 40.9628C117.29 41.0067 117.331 41.0563 117.369 41.0975C117.452 41.191 117.541 41.2872 117.625 41.3806L117.63 41.3833Z" fill="#FFD575"/>
<path d="M109.802 60.0483L103.827 53.3757C106.649 51.8041 109.071 50.0872 111.87 47.3076L117.845 53.9802C115.046 56.7598 112.63 58.4794 109.802 60.0483Z" fill="#FFD575"/>
<path d="M102.845 53.5965C103.046 53.7442 103.355 53.6351 103.828 53.3768L109.803 60.049C109.322 60.31 109.021 60.4163 108.82 60.2686C106.829 58.0473 104.836 55.8178 102.845 53.5965Z" fill="#FFD575"/>
<path d="M102.799 53.558C102.799 53.558 102.83 53.5882 102.845 53.5964C104.836 55.8177 106.824 58.0445 108.82 60.2685C108.799 60.2576 108.787 60.2439 108.774 60.2301C106.981 58.226 104.592 55.5622 102.799 53.558Z" fill="#FFD575"/>
<path d="M110.08 58.2642L104.105 51.5917C106.722 50.1975 108.915 48.5749 110.999 46.5536L116.974 53.2261C114.89 55.2474 112.697 56.87 110.08 58.2642Z" fill="#FFD575"/>
<path d="M108.769 60.2275L102.794 53.5552C102.587 53.3187 102.795 52.7441 103.272 52.2247C103.516 51.9608 103.721 51.7834 104.1 51.5902L110.075 58.2625C109.691 58.453 109.485 58.6304 109.247 58.897C108.77 59.4164 108.562 59.991 108.769 60.2275Z" fill="#FFD575"/>
<path d="M117.133 40.8244C118.095 39.1633 118.622 37.6739 118.655 36.5096C120.646 38.731 122.634 40.958 124.63 43.1821C124.589 44.3493 124.07 45.8358 123.108 47.4969C121.118 45.2755 119.13 43.0485 117.133 40.8244Z" fill="#FFD575"/>
<path d="M118.755 36.5973C120.71 38.7856 122.673 40.9711 124.628 43.1595C124.626 43.165 124.628 43.1733 124.63 43.1817C122.639 40.9604 120.646 38.7308 118.655 36.5096C118.658 36.504 118.656 36.4957 118.654 36.4874C118.687 36.5259 118.722 36.5588 118.75 36.5946L118.755 36.5973Z" fill="#FFD575"/>
<path d="M116.197 36.7136L122.173 43.3863C123.277 44.6181 122.027 47.8437 118.664 51.5244L112.689 44.8516C116.049 41.1765 117.294 37.9481 116.197 36.7136Z" fill="#FFD575"/>
<path d="M118.659 36.4897C118.683 35.7478 118.498 35.1389 118.111 34.7017L124.086 41.3739C124.478 41.8138 124.658 42.42 124.634 43.1619C123.363 41.7433 122.089 40.3165 120.817 38.8979C120.123 38.1227 119.429 37.3474 118.735 36.5721C118.71 36.5446 118.679 36.5283 118.659 36.4897Z" fill="#FFD575"/>
<path d="M118.664 51.5243L113.089 47.5442C118.515 42.8563 120.557 42.1938 121.945 43.1889C123.417 44.2358 122.226 47.6274 118.664 51.5243Z" fill="#FFD575"/>
<path d="M113.085 47.5419L107.11 40.8699L112.69 44.8523L118.665 51.5243L113.085 47.5419Z" fill="#FFD575"/>
<path d="M116.198 36.714L122.173 43.3865C122.107 43.3095 122.033 43.2492 121.948 43.1835C120.558 42.1941 118.514 42.8482 113.093 47.5387L107.118 40.8662C112.544 36.1785 114.586 35.516 115.973 36.5111C116.056 36.5684 116.132 36.637 116.198 36.714Z" fill="#FFD575"/>
<path d="M111.249 49.152L105.274 42.4801L110.997 46.558L116.971 53.23L111.249 49.152Z" fill="#FFD575"/>
<path d="M98.2861 47.7753C100.126 46.7651 102.416 45.022 105.275 42.4806L111.25 49.1531C108.391 51.6945 106.096 53.435 104.261 54.4479C102.27 52.2265 100.282 49.9995 98.2861 47.7753Z" fill="#FFD575"/>
<path d="M118.112 34.7021L124.087 41.3746C123.99 41.2674 123.885 41.177 123.767 41.0867C121.724 39.6353 118.293 41.2944 112.04 46.8028L106.065 40.1303C112.318 34.6219 115.744 32.9601 117.787 34.4115C117.908 34.4962 118.01 34.5922 118.106 34.6994L118.112 34.7021Z" fill="#FFD575"/>
<path d="M98.076 47.8871C98.1468 47.853 98.2154 47.8105 98.2892 47.7708C100.28 49.992 102.268 52.2189 104.264 54.4429C104.19 54.4826 104.125 54.5195 104.051 54.5592C102.06 52.3379 100.072 50.1111 98.076 47.8871Z" fill="#FFD575"/>
<path d="M100.596 50.7054C101.746 51.9892 102.896 53.2731 104.051 54.5596C103.273 54.9714 102.573 55.2461 101.953 55.3922C99.9626 53.1709 97.9746 50.944 95.9786 48.72C96.5981 48.5739 97.2982 48.2992 98.0765 47.8874C98.9175 48.8249 99.7584 49.7623 100.596 50.7054Z" fill="#FFD575"/>
<path d="M101.217 52.9497L95.2419 46.2772C96.655 47.2859 98.8178 46.4942 104.237 41.7316L110.212 48.4041C104.793 53.1667 102.625 53.9556 101.217 52.9497Z" fill="#FFD575"/>
<path d="M95.9786 48.7201C97.9694 50.9414 99.9573 53.1682 101.953 55.3922C100.906 55.6348 100.078 55.5082 99.4126 55.0326C99.281 54.9425 99.1685 54.841 99.0699 54.7255L93.0952 48.0534C93.1966 48.1634 93.3092 48.2648 93.4379 48.3606C94.1031 48.8362 94.9363 48.9654 95.9786 48.7201Z" fill="#FFD575"/>
<path d="M100.979 52.734L95.0045 46.0619C95.0754 46.1416 95.1573 46.2129 95.2422 46.2786L101.217 52.9507C101.129 52.8906 101.05 52.8137 100.979 52.734Z" fill="#FFD575"/>
<path d="M115.312 36.2055L109.337 29.5333C109.511 29.4536 109.818 29.2723 110.148 28.9185L116.123 35.5906C115.792 35.9444 115.489 36.1201 115.312 36.2055Z" fill="#FFD575"/>
<path d="M110.154 28.9206C110.614 28.4209 110.815 27.8214 110.615 27.5959L116.59 34.2682C116.79 34.4936 116.591 35.0875 116.139 35.5844C116.139 35.5844 116.137 35.59 116.134 35.5956C114.34 33.5914 111.952 30.9275 110.159 28.9233L110.154 28.9206Z" fill="#FFD575"/>
<path d="M100.98 52.7331L95.0044 46.0603C93.8469 44.7653 95.1337 41.4947 98.5861 37.7186L104.561 44.3914C101.106 48.1731 99.8222 51.4381 100.98 52.7331Z" fill="#FFD575"/>
<path d="M104.561 44.3903L98.5858 37.7184L104.242 41.7332L110.211 48.4025L104.561 44.3903Z" fill="#FFD575"/>
<path d="M106.222 42.6461L100.247 35.9742L106.066 40.1315L112.041 46.8035L106.222 42.6461Z" fill="#FFD575"/>
<path d="M106.221 42.6452L100.246 35.9726C103.3 32.9845 106.202 31.0065 109.345 29.5312L115.32 36.2038C112.177 37.6791 109.28 39.6598 106.221 42.6452Z" fill="#FFD575"/>
<path d="M99.068 54.7312L93.0926 48.0582C91.4866 46.2656 93.3071 41.886 97.6038 37.1416L103.579 43.8145C99.2878 48.5616 97.4672 52.9412 99.068 54.7312Z" fill="#FFD575"/>
<path d="M110.61 27.5941L116.585 34.2667C116.585 34.2667 116.56 34.2393 116.544 34.2311C116.359 34.0916 116.088 34.178 115.704 34.3686C112.031 36.1861 108.737 38.5576 105.371 41.916L99.3955 35.2434C102.762 31.8849 106.056 29.5135 109.729 27.696C110.113 27.5054 110.384 27.4189 110.569 27.5585C110.585 27.5666 110.597 27.5803 110.61 27.5941Z" fill="#FFD575"/>
<path d="M101.976 42.6839L96.0047 36.0063L97.6037 37.1405L103.578 43.8125L101.976 42.6839Z" fill="#FFD575"/>
<path d="M101.933 42.6398L95.9585 35.9677C95.9585 35.9677 95.9839 35.9952 95.9995 36.0034L101.974 42.6755C101.974 42.6755 101.946 42.6536 101.933 42.6398Z" fill="#FFD575"/>
<path d="M103.751 40.7715L97.7796 34.0939L99.4046 35.2417L105.374 41.911L103.751 40.7715Z" fill="#FFD575"/>
<path d="M101.933 42.6402L95.9585 35.968C95.7585 35.7425 95.9494 35.1876 96.3985 34.6963L102.373 41.3685C101.924 41.8598 101.733 42.4147 101.933 42.6402Z" fill="#FFD575"/>
<path d="M102.378 41.3706L96.4037 34.6984C96.8858 34.1817 97.5193 33.9078 97.7849 34.0964L103.76 40.7685C103.494 40.58 102.861 40.8539 102.378 41.3706Z" fill="#FFD575"/>
<path d="M82.2735 74.8037L76.2979 68.1306C71.1357 62.3593 73.0205 49.8782 87.3836 33.4748C87.8928 32.8939 88.4043 32.3213 88.9123 31.7681C107.029 11.9878 124.824 8.56526 131.349 15.8599L137.324 22.533C130.799 15.2384 113.005 18.6609 94.8908 38.4357C94.3829 38.9888 93.8714 39.5614 93.3622 40.1424C78.999 56.5457 77.1113 69.0324 82.2764 74.7981L82.2735 74.8037Z" fill="#FFD575"/>
<g opacity="0.1">
<path d="M82.2725 74.801L76.2959 68.128C71.1328 62.3567 73.0173 49.8764 87.3815 33.4746C87.8907 32.8937 88.4023 32.3211 88.9102 31.7681C107.028 11.9896 124.825 8.56803 131.351 15.8625L137.328 22.5355C130.802 15.241 113.005 18.6626 94.8898 38.4355C94.3818 38.9886 93.8703 39.5611 93.361 40.142C78.9969 56.5438 77.1094 69.0297 82.2755 74.7954L82.2725 74.801Z" fill="black"/>
</g>
<path d="M124.7 58.8982C92.2553 94.3174 60.8388 77.2793 93.3522 40.1452C93.8614 39.5643 94.3729 38.9917 94.8808 38.4386C127.339 3.01918 158.755 20.0573 126.236 57.1886C125.727 57.7696 125.216 58.3422 124.705 58.9009L124.7 58.8982ZM96.1489 41.5991C69.173 72.402 95.2433 86.5407 122.156 57.1636C122.577 56.7003 123.001 56.2315 123.429 55.7432C123.612 55.5328 123.797 55.3306 123.958 55.1232C123.719 55.3898 123.481 55.6565 123.24 55.9149C97.4135 84.1015 72.4032 70.5451 98.2989 40.9715C98.7038 40.514 99.1087 40.0565 99.5101 39.6185C109.763 28.4269 119.905 23.8038 126.757 24.1663C119.62 23.271 108.598 27.9681 97.4335 40.1564C97.0042 40.6225 96.5772 41.0969 96.1466 41.5908M116.121 35.5845C116.609 35.0566 116.801 34.4099 116.541 34.224C116.355 34.0845 116.085 34.171 115.7 34.3615C112.027 36.1791 108.733 38.5507 105.367 41.9093L103.747 40.764C103.481 40.5754 102.847 40.8494 102.365 41.3662C101.888 41.8856 101.7 42.485 101.966 42.6736L103.568 43.8024C99.007 48.85 97.2363 53.4763 99.3997 55.0264C101.406 56.4589 104.945 54.7345 111.242 49.1419L116.965 53.2205C114.881 55.242 112.687 56.8647 110.07 58.2589C109.685 58.4495 109.48 58.6269 109.258 58.8739C108.733 59.4467 108.529 60.0657 108.81 60.2625C109.011 60.4102 109.32 60.3011 109.793 60.0428C112.615 58.4712 115.037 56.7542 117.836 53.9744L118.645 54.554C118.911 54.7426 119.55 54.4574 120.033 53.9407C120.521 53.4128 120.697 52.8218 120.426 52.6444L119.65 52.0894C124.119 47.1791 125.813 42.548 123.747 41.0774C121.704 39.6259 118.273 41.2851 112.019 46.7939L106.199 42.6358C109.252 39.6475 112.155 37.6694 115.298 36.1941C115.473 36.1143 115.779 35.933 116.11 35.5791" fill="#FFD575"/>
<path d="M101.216 52.95C99.6664 51.8346 100.891 48.4036 104.56 44.3916L110.211 48.4041C104.792 53.167 102.624 53.956 101.216 52.95Z" fill="#FFD575"/>
<path d="M111.249 49.1526C104.952 54.745 101.414 56.4694 99.4073 55.037C97.2439 53.4869 99.0175 48.8551 103.576 43.8133L101.974 42.6846C101.708 42.496 101.896 41.8966 102.373 41.3772C102.855 40.8605 103.488 40.5865 103.754 40.7751L105.374 41.9203C108.74 38.5618 112.034 36.1902 115.708 34.3727C116.092 34.1821 116.362 34.0957 116.548 34.2352C116.808 34.4211 116.616 35.0678 116.142 35.5816C115.794 35.9551 115.49 36.1308 115.316 36.2106C112.173 37.6859 109.275 39.6667 106.217 42.6522L112.037 46.81C118.29 41.3014 121.716 39.6395 123.764 41.0936C125.83 42.5642 124.136 47.1951 119.667 52.1053L120.443 52.6602C120.714 52.8377 120.533 53.4259 120.067 53.9369C119.567 54.4732 118.928 54.7584 118.662 54.5698L117.853 53.9902C115.054 56.7699 112.638 58.4896 109.81 60.0585C109.329 60.3196 109.028 60.4259 108.827 60.2782C108.544 60.0731 108.751 59.4624 109.259 58.9093C109.503 58.6453 109.708 58.4679 110.087 58.2747C112.704 56.8805 114.898 55.2578 116.982 53.2364L111.259 49.158L111.249 49.1526ZM101.215 52.9493C102.628 53.958 104.791 53.1663 110.21 48.4034L104.559 44.3909C100.89 48.4029 99.6652 51.8339 101.215 52.9493ZM113.085 47.5424L118.66 51.5225C122.222 47.6256 123.408 44.2312 121.94 43.187C120.55 42.1975 118.506 42.8517 113.085 47.5424Z" fill="#FFD575"/>
<path d="M122.161 57.1666C95.2433 86.5411 69.1751 72.4107 96.154 41.6021C96.5817 41.1138 97.0116 40.6338 97.4409 40.1677C108.609 27.9738 119.628 23.2822 126.764 24.1776C119.912 23.8151 109.77 28.4382 99.5175 39.6297C99.1132 40.0733 98.706 40.5225 98.3063 40.9827C72.4053 70.5538 97.4209 84.1129 123.247 55.9262C123.483 55.6651 123.727 55.4012 123.966 55.1345C123.804 55.342 123.619 55.5441 123.436 55.7546C123.011 56.2373 122.59 56.7144 122.163 57.1749L122.161 57.1666Z" fill="#FFD575"/>
<g opacity="0.1">
<path d="M122.163 57.1667C95.2437 86.5383 69.1717 72.4075 96.1526 41.6018C96.5802 41.1136 97.0102 40.6336 97.4395 40.1675C108.608 27.9748 119.628 23.284 126.766 24.1796C119.913 23.8168 109.77 28.4392 99.5163 39.6297C99.112 40.0733 98.7048 40.5224 98.3051 40.9826C72.4022 70.5509 97.4215 84.1104 123.25 55.9264C123.485 55.6653 123.73 55.4014 123.968 55.1347C123.807 55.3421 123.622 55.5443 123.439 55.7547C123.014 56.2374 122.592 56.7145 122.166 57.175L122.163 57.1667Z" fill="black"/>
</g>
<path d="M254.468 360.768C254.768 360.782 255.061 360.796 255.361 360.818C256.618 360.897 257.989 360.775 258.275 359.408C258.453 358.556 258.003 357.332 257.418 356.616C256.546 355.55 255.289 355.185 253.911 356.051C252.854 356.717 250.583 355.815 249.611 354.326C248.704 352.938 249.968 352.272 250.768 351.571C252.397 350.139 254.361 349.967 256.311 350.583C258.982 351.42 261.203 353.009 262.774 355.378C264.131 357.418 264.374 359.601 263.267 361.82C262.174 364.01 260.267 364.926 257.889 365.012C256.025 365.076 254.039 364.669 252.604 366.444C252.447 366.637 251.825 366.58 251.482 366.465C251.104 366.336 250.74 366.057 250.475 365.749C249.825 364.998 248.583 363.731 248.747 363.495C249.483 362.45 250.532 361.505 251.661 360.904C252.418 360.503 253.518 360.725 254.461 360.675C254.461 360.71 254.461 360.739 254.461 360.775L254.468 360.768Z" fill="#2E2D2B"/>
<path d="M247.204 372.649C245.554 372.649 244.09 371.253 244.069 369.657C244.047 367.954 245.526 366.365 247.133 366.358C248.726 366.358 250.247 367.803 250.297 369.371C250.347 371.01 248.811 372.642 247.197 372.649H247.204Z" fill="#2E2D2B"/>
<path d="M42.6208 479.524C38.264 481.814 34.2501 483.997 30.1719 486.044C22.0797 490.109 13.6876 493.452 5.05984 496.207C3.45285 496.723 2.0744 496.615 1.07449 495.227C0.11743 493.896 0.553106 492.614 1.36732 491.276C11.445 474.606 21.5298 457.937 31.5289 441.225C40.9638 425.457 51.1486 410.212 62.7332 395.94C69.7326 387.323 77.1962 379.149 86.3883 372.765C91.6735 369.093 97.3159 366.266 103.794 365.393C108.529 364.756 113.014 365.536 117.364 367.475C118.121 367.812 119.228 367.919 119.985 367.633C133.441 362.594 147.397 360.232 161.703 359.688C174.566 359.201 187.272 360.282 199.664 363.968C212.12 367.676 223.119 373.81 231.654 383.844C234.996 387.774 237.796 392.089 239.039 397.171C240.289 402.296 239.71 407.163 235.925 411.192C233.489 413.783 230.19 414.714 226.869 415.472C225.019 415.895 223.133 416.26 221.24 416.396C219.648 416.51 219.333 417.183 219.341 418.657C219.412 433.566 219.419 448.482 219.441 463.391C219.441 465.638 219.605 467.621 220.776 469.883C224.576 477.219 229.583 483.596 234.832 489.859C239.346 495.248 243.881 500.645 246.567 507.273C251.245 518.839 250.252 530.126 244.188 540.826C236.318 554.712 225.997 566.414 212.327 574.924C211.663 575.339 211.127 576.327 210.97 577.136C210.62 578.946 210.527 580.8 210.384 582.647C210.313 583.584 209.97 584.042 208.949 583.985C207.592 583.914 206.228 583.971 204.578 583.971C204.692 582.432 204.756 581.029 204.899 579.641C205.478 573.829 206.128 568.024 206.649 562.205C207.999 547.218 209.292 532.23 210.606 517.236C212.441 496.257 213.734 475.251 213.884 454.187C213.97 442.556 213.727 430.925 213.705 419.295C213.705 417.555 213.241 416.961 211.384 416.99C194.429 417.283 177.466 417.247 160.51 417.756C149.34 418.085 138.384 419.967 128.163 424.935C122.771 427.554 117.928 430.982 113.257 434.69C112.515 435.284 111.772 435.892 110.957 436.386C109.558 437.245 108.065 436.966 107.144 435.749C106.251 434.575 106.372 432.951 107.665 431.927C110.65 429.565 113.664 427.225 116.771 425.035C127.263 417.648 139.105 414.113 151.732 412.788C167.395 411.149 183.115 411.479 198.821 411.45C207.085 411.436 215.377 411.736 223.576 410.312C224.919 410.076 226.261 409.775 227.561 409.367C233.111 407.642 235.211 403.412 233.347 397.808C231.14 391.18 226.697 386.185 221.533 381.761C212.713 374.21 202.306 370.002 191.086 367.661C175.88 364.484 160.603 364.612 145.29 366.946C138.034 368.055 130.941 369.78 124.056 372.321C123.242 372.621 122.464 373.266 121.885 373.938C120.978 374.983 120.085 375.499 118.635 375.141C117.864 374.955 116.871 375.141 116.121 375.47C95.3303 384.825 80.1174 399.948 69.8255 420.246C63.0047 433.695 58.0622 447.845 53.6055 462.203C52.9341 464.364 51.8271 466.526 51.7628 468.709C51.67 471.808 50.1772 474.313 49.3916 477.112C42.7636 500.702 37.5212 524.629 33.093 548.721C31.0575 559.793 29.5148 570.952 27.7792 582.081C27.5721 583.405 27.0864 584.021 25.608 583.999C21.9798 583.949 21.7369 583.684 22.2083 579.977C25.3366 555.406 30.4933 531.221 36.0714 507.122C38.0997 498.355 40.2995 489.63 42.4136 480.891C42.4922 480.554 42.5208 480.211 42.6279 479.524H42.6208ZM222.119 559.636C222.419 559.4 222.619 559.271 222.783 559.106C229.318 552.521 235.125 545.364 239.417 537.097C242.703 530.777 244.346 524.114 243.103 516.899C242.01 510.565 239.175 505.04 235.361 500.008C230.183 493.18 224.826 486.488 219.533 479.738C219.448 479.631 219.248 479.617 218.948 479.495C218.898 479.917 218.834 480.254 218.819 480.583C218.312 488.556 217.926 496.537 217.284 504.496C215.962 520.893 214.491 537.283 213.098 553.674C212.841 556.723 212.913 556.587 215.884 557.152C218.084 557.567 220.876 556.623 222.119 559.614V559.636ZM11.1664 487.239C11.2379 487.368 11.3164 487.497 11.3878 487.633C12.1449 487.361 12.902 487.096 13.6519 486.803C24.0439 482.759 33.9001 477.648 43.4421 471.901C44.6634 471.164 45.2991 470.255 45.6919 468.909C50.2129 453.349 55.2125 437.947 62.0476 423.217C69.5541 407.034 79.5746 392.812 94.0162 382.04C95.0518 381.267 95.3946 380.401 94.9875 379.285C94.5733 378.154 93.9947 377.088 93.4376 375.885C92.6306 376.365 92.0806 376.608 91.6235 376.973C87.5525 380.251 83.26 383.3 79.4746 386.893C65.1973 400.435 54.0126 416.46 43.6564 433.051C35.5 446.127 27.8221 459.512 19.9228 472.753C17.0302 477.598 14.0876 482.415 11.1736 487.239H11.1664ZM212.241 567.86C214.141 566.421 215.891 565.097 217.812 563.644C212.563 562.055 211.67 562.635 211.913 567.165C211.913 567.273 212.006 567.38 212.241 567.86ZM106.165 374.089C107.501 373.337 108.593 372.729 109.679 372.113C109.615 371.992 109.55 371.877 109.493 371.755H105.387C105.672 372.607 105.872 373.194 106.172 374.082L106.165 374.089Z" fill="#2E2D2B"/>
<path d="M204.206 387.974C204.178 391.109 201.757 393.499 198.621 393.485C195.55 393.471 193.114 390.944 193.172 387.845C193.229 384.775 195.764 382.363 198.857 382.42C201.835 382.477 204.235 384.968 204.206 387.981V387.974Z" fill="#2E2D2B"/>
<path d="M125.006 393.55C124.935 396.677 122.414 399.175 119.414 399.089C116.35 398.996 113.893 396.427 113.964 393.378C114.036 390.307 116.621 387.859 119.678 387.981C122.728 388.096 125.078 390.558 125.006 393.557V393.55Z" fill="#2E2D2B"/>
<path d="M212.241 567.86C212.013 567.38 211.92 567.273 211.913 567.165C211.67 562.635 212.563 562.055 217.812 563.644C215.891 565.097 214.141 566.421 212.241 567.86Z" fill="white"/>
<path d="M106.165 374.089C105.865 373.201 105.665 372.607 105.379 371.763H109.486C109.55 371.884 109.615 371.999 109.672 372.12C108.586 372.729 107.501 373.344 106.158 374.096L106.165 374.089Z" fill="white"/>
<path d="M104.909 246.007C108.702 246.115 112.151 247.031 115.265 249.128C120.808 252.864 120.708 261.718 114.287 264.545C113.201 265.024 112.123 265.532 111.051 266.048C109.566 266.763 108.273 267.658 107.93 269.455C107.723 270.543 107.002 270.9 105.945 270.65C104.552 270.321 103.166 269.991 101.767 269.698C100.602 269.455 100.217 268.732 100.359 267.608C100.688 264.996 101.881 262.977 104.352 261.896C105.766 261.281 107.252 260.823 108.673 260.214C110.137 259.592 111.251 258.575 111.173 256.865C111.094 255.09 109.88 254.124 108.316 253.572C105.83 252.699 104.223 253.329 102.645 255.462C102.259 255.985 101.288 256.357 100.617 256.321C99.3881 256.256 98.174 255.841 96.9527 255.562C95.0885 255.14 94.71 254.51 95.1885 252.642C96.1027 249.071 99.0525 246.537 102.852 246.115C103.559 246.036 104.273 246.029 104.909 246V246.007Z" fill="#2E2D2B"/>
<path d="M102.195 272.797C105.052 272.904 106.816 274.701 106.723 277.406C106.63 280.234 104.802 282.052 102.138 281.98C99.3882 281.901 97.5311 280.005 97.6026 277.342C97.674 274.529 99.531 272.697 102.195 272.797Z" fill="#2E2D2B"/>
<path d="M48.2865 309.721C48.342 311.508 44.3919 315.206 42.4168 314.79C41.7622 314.655 41.0187 313.879 40.7191 313.205C39.0659 309.597 39.3211 306.091 41.8065 302.944C44.8801 299.067 48.9856 296.729 53.779 295.998C60.7583 294.931 66.051 301.562 63.8429 308.372C63.2992 310.058 62.5225 311.665 61.9899 313.351C61.7236 314.216 61.7125 315.172 61.7014 316.093C61.6903 317.217 62.2673 318.903 61.7458 319.364C60.3255 320.611 58.5058 321.465 56.7416 322.185C56.3199 322.353 55.2658 321.578 54.8553 320.982C53.1354 318.532 53.3019 315.902 54.5113 313.272C55.1771 311.834 56.1757 310.485 56.4753 308.979C56.7194 307.777 56.5862 305.889 55.8317 305.225C54.944 304.45 53.091 304.236 51.8594 304.562C49.5736 305.169 48.0091 306.743 48.2976 309.71L48.2865 309.721Z" fill="#2E2D2B"/>
<path d="M67.9262 328.108C67.8929 330.67 65.6959 332.828 63.0995 332.85C60.5474 332.873 58.3061 330.445 58.3283 327.669C58.3505 325.073 60.7915 322.848 63.5322 322.949C66.0288 323.028 67.9706 325.309 67.9373 328.108H67.9262Z" fill="#2E2D2B"/>
<path d="M185.746 331.481H185.745V331.488C185.745 332.054 185.891 332.606 186.303 333.01C186.713 333.411 187.268 333.55 187.836 333.55H188.157C188.725 333.55 189.28 333.411 189.69 333.01C190.103 332.606 190.248 332.054 190.248 331.488L190.248 331.484L190.161 314.168C190.869 316.194 191.679 318.626 192.591 321.464L192.59 321.464L192.592 321.468C194.183 326.324 195.302 329.669 195.948 331.496C196.157 332.113 196.481 332.638 196.955 333.007C197.436 333.382 198.013 333.55 198.642 333.55H198.892C199.505 333.55 200.068 333.377 200.543 333.007C201.01 332.643 201.344 332.127 201.578 331.517L201.578 331.517L201.582 331.507C202.421 329.21 204.471 323.47 207.728 314.29L207.642 331.484V331.488C207.642 332.054 207.787 332.606 208.2 333.01C208.61 333.411 209.165 333.55 209.733 333.55H210.054C210.622 333.55 211.177 333.411 211.587 333.01C211.999 332.606 212.145 332.054 212.145 331.488L212.145 331.483L212.002 311.674V311.672V309.649C212.002 308.958 211.784 308.336 211.297 307.864C210.814 307.37 210.186 307.144 209.483 307.144H208.199C207.396 307.144 206.676 307.386 206.08 307.89C205.497 308.383 205.079 309.087 204.791 309.938C204.03 312.15 202.924 315.404 201.474 319.7L201.473 319.703C200.416 322.885 199.543 325.493 198.852 327.528C198.116 325.371 197.21 322.654 196.134 319.376C194.731 315.03 193.695 311.883 193.028 309.937L193.028 309.937L193.025 309.931C192.725 309.08 192.297 308.378 191.708 307.887C191.108 307.386 190.387 307.144 189.584 307.144H188.407C187.711 307.144 187.061 307.325 186.593 307.808C186.13 308.287 185.96 308.943 185.959 309.645L185.746 331.481ZM238.542 331.481H238.542V331.488C238.542 332.054 238.688 332.606 239.1 333.01C239.51 333.411 240.065 333.55 240.633 333.55H240.954C241.522 333.55 242.077 333.411 242.487 333.01C242.9 332.606 243.045 332.054 243.045 331.488L243.045 331.484L242.958 314.168C243.666 316.194 244.476 318.626 245.387 321.464L245.389 321.468C246.98 326.324 248.099 329.669 248.744 331.496C248.954 332.113 249.278 332.638 249.751 333.007C250.233 333.382 250.81 333.55 251.439 333.55H251.688C252.302 333.55 252.865 333.377 253.34 333.007C253.806 332.643 254.141 332.127 254.375 331.517L254.375 331.517L254.379 331.507C255.218 329.21 257.267 323.47 260.525 314.29L260.439 331.484V331.488C260.439 332.054 260.584 332.606 260.997 333.01C261.407 333.411 261.962 333.55 262.53 333.55H262.851C263.419 333.55 263.974 333.411 264.384 333.01C264.796 332.606 264.941 332.054 264.941 331.488L264.941 331.483L264.799 311.674V311.671V309.649C264.799 308.958 264.581 308.336 264.093 307.864C263.611 307.37 262.982 307.144 262.28 307.144H260.996C260.193 307.144 259.473 307.386 258.877 307.89C258.293 308.383 257.875 309.088 257.587 309.939C256.826 312.151 255.72 315.405 254.27 319.7L254.269 319.703C253.213 322.885 252.34 325.493 251.649 327.528C250.913 325.371 250.007 322.654 248.93 319.376C247.528 315.03 246.492 311.883 245.824 309.937L245.822 309.931C245.521 309.08 245.094 308.378 244.505 307.887C243.905 307.386 243.184 307.144 242.381 307.144H241.204C240.507 307.144 239.858 307.325 239.39 307.808C238.927 308.287 238.757 308.943 238.756 309.645C238.756 309.646 238.756 309.648 238.756 309.649L238.542 331.481ZM232.354 307.144H220.051C219.478 307.144 218.92 307.289 218.511 307.701C218.103 308.112 217.96 308.67 217.96 309.244V331.451C217.96 332.024 218.103 332.583 218.511 332.994C218.92 333.406 219.478 333.55 220.051 333.55H232.354C232.908 333.55 233.45 333.406 233.847 332.997C234.239 332.591 234.374 332.044 234.374 331.488C234.374 330.923 234.241 330.37 233.853 329.958C233.458 329.538 232.913 329.388 232.354 329.388H222.462V321.95H231.177C231.731 321.95 232.273 321.805 232.67 321.396C233.062 320.991 233.197 320.444 233.197 319.887C233.197 319.323 233.065 318.769 232.676 318.357C232.281 317.938 231.736 317.788 231.177 317.788H222.462V311.306H232.354C232.908 311.306 233.45 311.162 233.847 310.753C234.239 310.347 234.374 309.8 234.374 309.244C234.374 308.679 234.241 308.126 233.853 307.714C233.458 307.294 232.913 307.144 232.354 307.144ZM285.151 307.144H272.847C272.275 307.144 271.717 307.289 271.308 307.701C270.899 308.112 270.757 308.67 270.757 309.244V331.451C270.757 332.024 270.899 332.583 271.308 332.994C271.717 333.406 272.275 333.55 272.847 333.55H285.151C285.704 333.55 286.247 333.406 286.643 332.997C287.036 332.591 287.17 332.044 287.17 331.488C287.17 330.923 287.038 330.37 286.65 329.958C286.254 329.538 285.71 329.388 285.151 329.388H275.259V321.95H283.974C284.528 321.95 285.07 321.805 285.467 321.396C285.859 320.991 285.994 320.444 285.994 319.887C285.994 319.323 285.861 318.769 285.473 318.357C285.077 317.938 284.533 317.788 283.974 317.788H275.259V311.306H285.151C285.704 311.306 286.247 311.162 286.643 310.753C287.036 310.347 287.17 309.8 287.17 309.244C287.17 308.679 287.038 308.126 286.65 307.714C286.254 307.294 285.71 307.144 285.151 307.144Z" fill="#2E2D2B" stroke="#2E2D2B" stroke-width="1.4"/>
<path d="M148.348 327.489C149.622 327.489 150.889 327.489 152.163 327.489C153.609 327.489 155.05 327.489 156.497 327.489C157.597 327.489 158.094 327.968 158.141 329.099C158.291 332.85 158.315 332.85 154.518 332.85C150.136 332.85 145.747 332.85 141.365 332.85C139.458 332.85 139.41 332.667 139.248 330.844C139.081 328.939 139.781 327.601 141.162 326.317C144.061 323.619 146.841 320.79 149.616 317.956C150.405 317.151 151.057 316.198 151.648 315.239C152.276 314.233 152.282 313.121 151.469 312.204C150.441 311.05 149.066 310.902 147.625 311.245C146.417 311.535 145.425 312.239 145.401 313.511C145.371 315.109 144.57 315.447 143.218 315.328C142.722 315.287 142.22 315.328 141.724 315.322C139.266 315.322 139.027 315.08 139.29 312.695C139.613 309.7 141.323 307.718 144.067 306.6C146.686 305.534 149.406 305.452 152.133 306.156C157.753 307.611 159.989 313.008 156.802 317.837C155.541 319.749 153.795 321.37 152.192 323.045C150.895 324.394 149.478 325.631 148.109 326.915C148.193 327.104 148.27 327.3 148.354 327.489H148.348Z" fill="#2E2D2B"/>
<path d="M104.297 327.483C106.61 327.483 108.93 327.424 111.244 327.513C112.117 327.548 113.623 327.755 113.731 328.164C114.066 329.436 113.934 330.856 113.809 332.2C113.785 332.454 112.936 332.815 112.47 332.815C107.244 332.856 102.019 332.833 96.7932 332.845C95.6453 332.845 95.2985 332.3 95.1969 331.211C95.0175 329.205 95.5497 327.649 97.1161 326.246C99.7647 323.867 102.264 321.317 104.751 318.772C105.779 317.719 106.706 316.541 107.519 315.316C108.189 314.31 108.243 313.127 107.364 312.156C106.413 311.109 105.134 310.925 103.794 311.174C102.593 311.399 101.457 311.985 101.409 313.263C101.331 315.251 100.219 315.494 98.6467 315.316C98.4972 315.299 98.3477 315.316 98.1983 315.316C95.0594 315.31 94.7963 315.026 95.3464 311.908C95.741 309.665 97.0802 308.043 99.0831 307.032C102.312 305.398 105.702 305.256 109.074 306.487C113.749 308.191 115.555 312.89 113.067 317.192C112.021 318.997 110.491 320.548 109.044 322.092C107.465 323.779 105.731 325.329 104.069 326.939C104.147 327.122 104.225 327.306 104.303 327.483H104.297Z" fill="#2E2D2B"/>
<path d="M124.23 326.14C124.224 322.956 124.535 323.441 121.45 323.394C121.348 323.394 121.252 323.394 121.151 323.394C118.179 323.394 117.468 322.518 118.233 319.624C118.341 319.222 119.022 318.755 119.483 318.701C120.66 318.565 121.862 318.63 123.058 318.654C123.871 318.666 124.248 318.323 124.236 317.512C124.224 316.382 124.272 315.245 124.236 314.115C124.2 312.973 124.738 312.565 125.856 312.523C129.192 312.405 129.198 312.393 129.216 315.772C129.234 318.902 128.821 318.612 132.074 318.636C132.176 318.636 132.271 318.636 132.373 318.636C135.207 318.642 135.96 319.571 135.189 322.335C135.063 322.779 134.334 323.258 133.82 323.353C132.905 323.518 131.93 323.495 130.998 323.382C129.479 323.205 129.073 323.879 129.192 325.24C129.276 326.169 129.192 327.11 129.216 328.045C129.234 329.028 128.756 329.495 127.775 329.507C123.769 329.554 124.242 329.596 124.23 326.14Z" fill="#2E2D2B"/>
<path d="M171.157 319.056C168.921 319.056 166.685 319.039 164.443 319.062C163.241 319.074 162.703 318.524 162.739 317.358C162.751 316.967 162.787 316.571 162.751 316.18C162.631 314.754 163.307 314.293 164.7 314.31C169.124 314.364 173.549 314.322 177.973 314.334C179.755 314.334 179.928 314.594 179.922 316.956C179.922 318.678 179.605 319.039 178.021 319.056C175.737 319.074 173.447 319.056 171.157 319.056Z" fill="#2E2D2B"/>
<path d="M171.289 322.956C173.477 322.956 175.671 322.944 177.859 322.962C179.671 322.98 179.874 323.205 179.904 325.045C179.91 325.489 179.922 325.933 179.886 326.377C179.82 327.24 179.366 327.726 178.445 327.732C173.716 327.732 168.987 327.732 164.258 327.738C163.283 327.738 162.787 327.252 162.769 326.294C162.757 325.802 162.769 325.305 162.733 324.814C162.643 323.512 163.199 322.909 164.563 322.944C166.805 322.992 169.041 322.956 171.283 322.962L171.289 322.956Z" fill="#2E2D2B"/>
</svg>
