<svg width="430" height="583" viewBox="0 0 430 583" fill="none" xmlns="http://www.w3.org/2000/svg">
<g clip-path="url(#clip0_27_49611)">
<rect width="430" height="583" fill="#FFFBF5"/>
<path fill-rule="evenodd" clip-rule="evenodd" d="M233.8 91.1472C233.82 90.8833 233.8 90.6047 233.82 90.3409L1068 80.6222C1063.93 22.633 1067.39 51.5984 1057.51 -6.25894L233.555 88.23C233.494 87.9808 233.413 87.7024 233.352 87.4238C233.25 87.16 233.168 86.8961 233.067 86.6323L1037.77 -72.1638C1013.49 -128.071 1027 -100.513 997.282 -154.867L232.089 84.6241C231.926 84.3602 231.763 84.111 231.62 83.8765C231.437 83.642 231.254 83.3928 231.07 83.1582L955.303 -215.07C912.692 -264.513 935.199 -240.385 887.843 -287.483L229.461 81.3991C229.197 81.1939 228.973 80.974 228.708 80.7688C228.463 80.5636 228.219 80.3585 227.954 80.1679L826.739 -338.055C768.567 -378.293 798.59 -358.929 736.569 -396.147L225.714 78.746C225.408 78.5847 225.123 78.4381 224.817 78.2622C224.491 78.1156 224.166 77.969 223.86 77.8078L659.781 -434.362C589.083 -463.137 625.073 -449.695 551.849 -474.717L221.233 76.8404C220.866 76.7378 220.52 76.6351 220.173 76.5472C219.807 76.4446 219.461 76.3419 219.094 76.2833L463.737 -498.068C385.339 -513.196 424.813 -506.673 345.234 -517.696L216.263 75.8143C215.896 75.7703 215.55 75.7264 215.122 75.6971C214.776 75.6824 214.368 75.6677 214.022 75.6384L252.518 -524.453C171.595 -525.113 212.026 -525.817 131.592 -522.401L211.028 75.6824C210.662 75.7117 210.275 75.7263 209.888 75.7703C209.521 75.8142 209.175 75.8582 208.788 75.9169L38.7742 -512.375C-40.1119 -498.478 -1.00486 -506.438 -78.4448 -488.511L205.956 76.4739C205.61 76.5618 205.244 76.6645 204.897 76.7818C204.531 76.8697 204.184 77.0016 203.838 77.1042L-164.684 -462.096C-235.952 -434.552 -201.041 -449.226 -269.417 -418.135L201.292 78.1889C200.987 78.3648 200.681 78.5114 200.376 78.6727C200.09 78.8486 199.785 79.0245 199.5 79.1858L-343.435 -377.369C-402.849 -338.114 -374.13 -358.475 -429.552 -316.287L197.402 80.7102C197.157 80.9008 196.913 81.106 196.648 81.3405C196.445 81.5458 196.2 81.7656 195.956 82.0002L-487.377 -263.531C-531.576 -214.718 -510.699 -239.682 -550.071 -188.597L194.448 83.8178C194.285 84.0377 194.102 84.3016 193.96 84.5361C193.817 84.7853 193.654 85.0492 193.511 85.2984L-587.935 -126.913C-613.884 -71.5188 -602.295 -99.4873 -622.683 -42.8906L192.676 87.3213C192.615 87.5998 192.534 87.8636 192.473 88.1275C192.412 88.3913 192.371 88.6551 192.31 88.9337L-637.837 23.3074C-643.785 81.3846 -624.965 51.8916 -625.229 110.145L192.208 91.0738C192.228 91.3377 192.249 91.6162 192.269 91.88C192.31 92.1585 192.351 92.4371 192.391 92.701L-634.497 177.369C-620.219 234.947 -628.753 206.407 -608.813 263.063L193.002 94.7825C193.104 95.0316 193.247 95.2955 193.369 95.5594C193.491 95.7939 193.654 96.0431 193.776 96.3069L-577.67 326.71C-543.818 379.833 -562.007 353.74 -523.144 404.869L195.08 98.2125C195.304 98.4471 195.528 98.6963 195.691 98.9162C195.935 99.1361 196.139 99.3706 196.363 99.5758L-471.124 460.675C-420.386 505.779 -446.845 483.908 -391.789 526.345L198.318 101.188C198.583 101.364 198.868 101.555 199.153 101.731C199.439 101.906 199.724 102.082 200.009 102.273L-322.354 571.068C-257.543 605.838 -290.722 589.318 -222.631 620.716L202.453 103.475C202.779 103.621 203.125 103.739 203.472 103.885C203.797 104.003 204.144 104.12 204.49 104.237L-139.468 651.807C-64.1668 673.986 -102.296 663.871 -25.1412 682.092L207.26 104.97C207.647 105.058 207.973 105.117 208.34 105.175C208.747 105.234 209.114 105.293 209.48 105.337L66.3323 697.249C146.115 705.106 106.01 702.174 186.668 706L212.413 105.556C212.78 105.571 213.167 105.556 213.513 105.571C213.92 105.556 214.287 105.542 214.654 105.527L279.812 704.402C360.388 697.791 320.283 702.13 400.066 691.371L217.566 105.205C217.953 105.131 218.3 105.073 218.666 104.999C219.012 104.926 219.379 104.838 219.746 104.765L490.419 672.974C566.107 652.1 528.793 663.505 602.342 638.747L222.455 103.929C222.781 103.812 223.127 103.68 223.453 103.548C223.779 103.402 224.084 103.27 224.41 103.138L683 604.885C748.81 571.244 716.791 588.878 779.097 551.997L226.773 101.819C227.058 101.657 227.343 101.467 227.587 101.276C227.873 101.056 228.137 100.88 228.423 100.675L845.416 504.929C897.661 460.572 872.649 483.395 920.412 436.459L230.215 98.9894C230.439 98.7549 230.643 98.5203 230.846 98.3151C231.009 98.0806 231.213 97.8315 231.396 97.5969L968.705 378.733C1004.15 326.168 987.729 352.905 1017.91 298.507L232.598 95.6473C232.72 95.3834 232.842 95.1343 232.965 94.8558C233.026 94.6066 233.168 94.3427 233.25 94.0788L1044.66 233.921C1060.69 176.768 1054.13 205.44 1064.39 147.876L233.718 92.012C233.739 91.7188 233.779 91.455 233.8 91.1472Z" fill="url(#paint0_radial_27_49611)"/>
</g>
<defs>
<radialGradient id="paint0_radial_27_49611" cx="0" cy="0" r="1" gradientUnits="userSpaceOnUse" gradientTransform="translate(214.5 90.5) rotate(90) scale(615.5 853.5)">
<stop offset="0.345" stop-color="#FFEED4" stop-opacity="0.26"/>
<stop offset="0.945" stop-color="white" stop-opacity="0"/>
</radialGradient>
<clipPath id="clip0_27_49611">
<rect width="430" height="583" fill="white"/>
</clipPath>
</defs>
</svg>
