<svg width="430" height="828" viewBox="0 0 430 828" fill="none" xmlns="http://www.w3.org/2000/svg">
<g clip-path="url(#clip0_260_655)">
<path opacity="0.4" fill-rule="evenodd" clip-rule="evenodd" d="M253.14 92.6C253.18 92.2845 253.14 91.9515 253.18 91.6359L1880 80.014C1872.06 10.6691 1878.81 45.3067 1859.54 -23.8804L252.664 89.1116C252.544 88.8137 252.386 88.4806 252.266 88.1476C252.068 87.832 251.909 87.5165 251.71 87.201L1821.05 -102.691C1773.7 -169.547 1800.04 -136.592 1742.08 -201.59L249.804 84.7996C249.486 84.484 249.168 84.186 248.89 83.9056C248.533 83.6251 248.175 83.3271 247.818 83.0466L1660.22 -273.582C1577.12 -332.707 1621.01 -303.854 1528.66 -360.175L244.68 80.9432C244.163 80.6978 243.726 80.4348 243.21 80.1893C242.733 79.944 242.257 79.6986 241.74 79.4708L1409.49 -420.65C1296.04 -468.767 1354.59 -445.612 1233.64 -490.118L237.371 77.7704C236.775 77.5776 236.219 77.4024 235.623 77.192C234.987 77.0167 234.352 76.8414 233.756 76.6486L1083.89 -535.816C946.015 -570.225 1016.2 -554.151 873.402 -584.073L228.632 75.4916C227.917 75.369 227.242 75.2463 226.566 75.1411C225.851 75.0184 225.176 74.8956 224.461 74.8254L701.564 -611.997C548.674 -630.087 625.655 -622.287 470.461 -635.469L218.94 74.2645C218.225 74.212 217.549 74.1595 216.715 74.1245C216.04 74.107 215.245 74.0893 214.57 74.0543L289.645 -643.549C131.829 -644.338 210.677 -645.18 53.8143 -641.095L208.731 74.1069C208.016 74.142 207.261 74.1594 206.507 74.212C205.792 74.2646 205.116 74.3171 204.361 74.3873L-127.2 -629.106C-281.044 -612.488 -204.777 -622.006 -355.801 -600.568L198.84 75.0535C198.165 75.1586 197.45 75.2814 196.775 75.4216C196.06 75.5268 195.384 75.6843 194.709 75.8071L-523.985 -568.981C-662.972 -536.044 -594.889 -553.59 -728.236 -516.411L189.744 77.1042C189.148 77.3146 188.552 77.4899 187.956 77.6827C187.4 77.8931 186.804 78.1035 186.248 78.2963L-872.586 -467.663C-988.456 -420.72 -932.448 -445.068 -1040.53 -394.62L182.157 80.1193C181.68 80.3472 181.204 80.5925 180.687 80.873C180.29 81.1184 179.813 81.3815 179.337 81.6619L-1153.3 -331.533C-1239.5 -273.161 -1198.79 -303.013 -1275.57 -241.924L176.397 83.8354C176.079 84.0983 175.722 84.414 175.444 84.6945C175.166 84.9925 174.848 85.3079 174.57 85.6058L-1349.41 -168.162C-1400.02 -101.92 -1377.42 -135.365 -1417.18 -67.6854L172.941 88.025C172.822 88.358 172.663 88.6736 172.544 88.9891C172.425 89.3046 172.346 89.62 172.226 89.9531L-1446.73 11.4756C-1458.33 80.9258 -1421.63 45.6573 -1422.14 115.318L172.028 92.5123C172.067 92.8278 172.107 93.1609 172.147 93.4764C172.226 93.8095 172.306 94.1426 172.385 94.4581L-1440.22 195.706C-1412.37 264.56 -1429.02 230.431 -1390.13 298.181L173.577 96.9473C173.775 97.2452 174.054 97.5607 174.292 97.8762C174.53 98.1567 174.848 98.4546 175.086 98.7701L-1329.39 374.292C-1263.37 437.817 -1298.85 406.615 -1223.06 467.757L177.629 101.049C178.065 101.33 178.502 101.628 178.82 101.891C179.297 102.153 179.694 102.434 180.131 102.679L-1121.61 534.49C-1022.66 588.427 -1074.26 562.273 -966.887 613.02L183.944 104.608C184.461 104.818 185.017 105.046 185.573 105.256C186.129 105.467 186.685 105.677 187.241 105.905L-831.474 666.501C-705.078 708.08 -769.785 688.324 -636.994 725.872L192.008 107.342C192.644 107.517 193.319 107.658 193.994 107.833C194.63 107.973 195.305 108.113 195.98 108.254L-474.808 763.051C-327.956 789.572 -402.315 777.477 -251.848 799.266L201.382 109.13C202.137 109.235 202.773 109.305 203.488 109.375C204.282 109.446 204.997 109.516 205.712 109.568L-73.4557 817.391C82.136 826.787 3.92329 823.281 161.223 827.856L211.432 109.831C212.147 109.849 212.902 109.831 213.577 109.849C214.371 109.831 215.087 109.814 215.802 109.796L342.873 825.945C500.014 818.039 421.801 823.228 577.393 810.362L221.482 109.411C222.236 109.323 222.912 109.253 223.627 109.165C224.302 109.077 225.017 108.972 225.732 108.885L753.6 788.363C901.208 763.401 828.437 777.039 971.874 747.432L231.015 107.886C231.651 107.745 232.326 107.588 232.961 107.43C233.597 107.254 234.193 107.097 234.829 106.939L1129.17 706.94C1257.51 666.711 1195.07 687.799 1316.58 643.696L239.436 105.361C239.992 105.168 240.548 104.941 241.025 104.713C241.581 104.45 242.098 104.239 242.654 103.994L1445.92 587.41C1547.8 534.367 1499.02 561.66 1592.17 505.532L246.149 101.978C246.586 101.698 246.984 101.417 247.381 101.172C247.699 100.891 248.096 100.593 248.453 100.313L1686.35 436.502C1755.47 373.643 1723.46 405.616 1782.32 340.566L250.797 97.9814C251.035 97.6659 251.273 97.368 251.512 97.035C251.631 96.737 251.909 96.4213 252.068 96.1058L1834.48 263.333C1865.74 194.987 1852.95 229.274 1872.97 160.438L252.982 93.6343C253.021 93.2837 253.101 92.9681 253.14 92.6Z" fill="url(#paint0_radial_260_655)"/>
</g>
<defs>
<radialGradient id="paint0_radial_260_655" cx="0" cy="0" r="1" gradientUnits="userSpaceOnUse" gradientTransform="translate(215.502 91.8261) rotate(90) scale(736.029 1664.5)">
<stop offset="0.065" stop-color="#FFEED4" stop-opacity="0.07"/>
<stop offset="0.196868" stop-color="#FFF6E7" stop-opacity="0.0659542"/>
<stop offset="0.528361" stop-color="white" stop-opacity="0"/>
</radialGradient>
<clipPath id="clip0_260_655">
<rect width="430" height="828" fill="white"/>
</clipPath>
</defs>
</svg>
