<svg width="85" height="114" viewBox="0 0 85 114" fill="none" xmlns="http://www.w3.org/2000/svg">
<path d="M49.9858 108.3C50.0056 108.27 50.0245 108.241 50.0424 108.213C50.0343 108.21 50.0262 108.208 50.0182 108.205L49.9858 108.3ZM49.9858 108.3L50.0693 108.354C50.0742 108.347 50.0791 108.339 50.0838 108.332C50.0512 108.322 50.0185 108.311 49.9858 108.3ZM50.9477 100.35C50.237 101.68 49.514 103.034 48.7747 104.421L48.5334 104.425L48.7396 104.598L48.7608 104.615L48.8553 104.694L48.8951 104.62C49.0817 104.619 49.2314 104.626 49.3572 104.633C49.3997 104.635 49.4395 104.637 49.477 104.638C49.6371 104.645 49.7726 104.644 49.8898 104.585L49.8922 104.584C64.4725 96.7961 74.8051 85.0015 79.8142 68.3698L79.8142 68.3697C81.0863 64.1335 81.2934 59.6954 80.6239 55.2813C79.181 45.7452 72.4056 38.7337 63.3957 37.4739C58.7422 36.8253 54.1744 36.9832 49.8199 39.418L49.7806 39.44L49.7707 39.4838C49.608 40.2068 49.46 40.9275 49.3128 41.644C48.9916 43.2077 48.6744 44.7516 48.2175 46.2575C47.1709 49.6991 45.199 52.4182 42.0333 53.9819C39.6449 55.1612 37.503 55.0119 36.4082 53.6087C35.006 51.8117 35.2018 49.6631 36.286 47.9348L36.2862 47.9345C37.8124 45.4853 39.6929 43.2464 41.6285 41.1127C42.2488 40.4287 42.9589 39.8321 43.6942 39.2604C43.9787 39.0392 44.2682 38.8209 44.5576 38.6026C45.0127 38.2593 45.4676 37.9162 45.9029 37.5622L45.9428 37.5297L45.9398 37.4785C45.6752 32.8816 43.5978 29.4405 40.3188 27.535C37.0423 25.631 32.5811 25.2689 27.5615 26.7954L27.512 26.8105L27.4954 26.8594C27.3663 27.2401 27.2417 27.63 27.1158 28.0242C26.8281 28.9247 26.5332 29.848 26.1598 30.7369L26.252 30.7751L26.1598 30.7369C24.2305 35.331 21.212 38.7334 16.5496 40.0565L16.5495 40.0565C15.674 40.3057 14.7696 40.4469 13.9212 40.3138C13.0765 40.1813 12.2825 39.7761 11.6238 38.9221C10.6202 37.6156 10.7938 35.3892 12.1887 33.2702C14.4137 29.9024 17.5286 27.6505 20.9046 25.7507C21.7118 25.2982 22.5356 24.8858 23.3459 24.4803C23.7156 24.2952 24.0825 24.1116 24.4437 23.9262L24.4999 23.8974L24.4985 23.8345C24.3399 16.7364 21.4938 10.4628 17.1595 6.55334C12.8622 2.67719 7.10194 1.12643 1.06351 3.40526C1.11073 3.12622 1.14097 2.85599 1.16887 2.60666C1.18574 2.45594 1.20176 2.31285 1.22015 2.18009C1.27672 1.77164 1.3556 1.46015 1.53198 1.25368C1.73636 1.01625 2.03878 0.826518 2.37891 0.685329C2.71817 0.544504 3.08853 0.454649 3.42173 0.413214C9.87547 -0.362047 15.7287 0.869622 20.2207 6.17088C23.5744 10.136 25.729 14.8146 26.9336 20.0112L26.9336 20.0115C27.1079 20.7524 27.2972 21.4943 27.4947 22.2286L27.4947 22.2288C27.5165 22.3091 27.5717 22.3729 27.6337 22.4396C27.6499 22.4571 27.6674 22.4755 27.6861 22.4953C27.7437 22.5559 27.814 22.6301 27.9013 22.7326L27.9318 22.7685L27.9792 22.7675C28.1467 22.764 28.3262 22.7624 28.5146 22.7608C29.0638 22.7559 29.6879 22.7504 30.306 22.6951C35.4084 22.2413 39.1999 22.8397 42.1972 24.8307C45.1957 26.8226 47.4163 30.2192 49.351 35.4001L49.3822 35.4838L49.4691 35.4615C49.6942 35.4038 49.922 35.3458 50.1517 35.2873C50.9099 35.0942 51.69 34.8955 52.4711 34.6827L52.4713 34.6827C58.428 33.0491 64.2434 33.3594 69.8802 35.8342L69.8803 35.8342C79.1518 39.8967 84.5955 49.1134 84.3075 60.1771C84.1493 66.2037 82.7605 71.9184 80.2528 77.3386C74.1566 90.4832 65.1252 100.495 52.4125 106.519L52.4123 106.519C51.7401 106.839 51.0748 107.168 50.4163 107.505L50.4162 107.505L50.4124 107.507C50.3419 107.547 50.2945 107.621 50.2328 107.72C50.2183 107.743 50.2025 107.769 50.1848 107.798C50.1212 107.902 50.034 108.045 49.9023 108.245L49.8311 108.353L49.9535 108.394C52.1058 109.117 54.2254 109.168 56.3056 109.219C56.6538 109.228 57.0009 109.236 57.3469 109.248L57.347 109.248C58.9897 109.301 60.6375 109.305 62.3487 109.309C63.0754 109.311 63.8136 109.312 64.5676 109.318C64.3693 110.277 64.0136 110.928 63.5583 111.382C63.0843 111.855 62.494 112.123 61.8372 112.295C61.5952 112.358 61.3528 112.423 61.1101 112.489C59.8037 112.842 58.492 113.196 57.2136 113.145L57.2133 113.145C53.092 112.99 48.9653 112.761 44.9004 112.167L44.9002 112.167C43.2937 111.936 42.3421 111.344 41.9839 110.511C41.6249 109.676 41.8425 108.554 42.684 107.212C46.2906 101.493 49.9336 95.7931 53.5972 90.1186L53.5973 90.1185C53.8804 89.6789 54.2137 89.2755 54.5907 88.8465C54.7149 88.7053 54.844 88.561 54.9776 88.4118C55.2225 88.1382 55.4823 87.8479 55.7531 87.5297C56.3214 88.3922 56.4363 89.1072 56.3428 89.742C56.2515 90.3613 55.9616 90.9119 55.6701 91.4655C55.6469 91.5097 55.6236 91.5538 55.6004 91.5981C54.0818 94.4823 52.546 97.3575 50.9477 100.35ZM64.5875 109.218C64.6213 109.218 64.6552 109.219 64.6891 109.219C64.6827 109.253 64.6762 109.286 64.6695 109.319L64.5875 109.218ZM13.971 36.6794L13.8946 36.8343L14.0667 36.8229C16.7105 36.6478 18.9344 35.7341 20.5737 34.2339C22.2133 32.7335 23.2624 30.6517 23.565 28.1514L23.5893 27.9506L23.4149 28.0541C23.2493 28.1525 23.084 28.2504 22.9191 28.348C19.4096 30.4255 16.0842 32.3941 13.971 36.6794ZM38.3989 51.1176L38.3623 51.2642L38.5115 51.2399C40.8037 50.8664 42.5519 49.9049 43.7188 48.4054C44.8849 46.907 45.4618 44.8828 45.4344 42.3997L45.4323 42.2033L45.2746 42.3216C42.1996 44.6285 39.4522 46.8995 38.3989 51.1176Z" fill="#FFFBF5" stroke="#FFFBF5" stroke-width="0.2"/>
</svg>
