<svg width="188" height="9" viewBox="0 0 188 9" fill="none" xmlns="http://www.w3.org/2000/svg">
<path d="M186.262 2.85364C187.63 2.93024 187.402 2.33794 186.033 2.29904C185.053 2.27785 184.065 2.22214 183.085 2.13901C180.906 1.942 178.718 1.74486 176.538 1.56161C172.332 1.20424 168.125 0.915685 163.908 0.730229C160.04 0.556756 156.172 0.438351 152.294 0.381741C151.288 0.367059 150.291 0.352495 149.285 0.351577C145.45 0.329998 141.605 0.315183 137.769 0.341774C128.792 0.41033 119.815 0.478869 110.844 0.685181C102.078 0.887597 93.3118 1.11754 84.5529 1.42331C80.246 1.57381 75.9392 1.71055 71.632 1.88169C66.9751 2.06838 62.3186 2.22067 57.6697 2.44189C48.0734 2.89374 38.4685 3.35233 28.8721 3.81106C20.5382 4.2125 12.2347 4.87596 3.96249 5.73947C-1.22687 6.2853 -1.12607 8.27514 4.08993 8.43529C4.80057 8.45711 5.52268 8.47604 6.25988 8.49179C10.2481 8.57754 14.2376 8.57384 18.2281 8.50132C20.8031 8.45631 23.3786 8.3769 25.9459 8.26983C27.5239 8.20339 29.1025 8.08878 30.6808 7.99481C34.904 7.73296 39.1274 7.46422 43.3505 7.20926C48.1794 6.91495 53.0088 6.58625 57.8457 6.33336C62.8277 6.06882 67.8097 5.79739 72.8002 5.53297C77.2788 5.2955 81.7652 5.11322 86.2435 4.90327C90.6193 4.69872 94.9943 4.56297 99.3696 4.3997C103.779 4.23693 108.188 4.1292 112.605 4.00097C117.091 3.87373 121.592 3.83621 126.077 3.76402C134.279 3.62909 142.488 3.66631 150.687 3.74471C155.247 3.79063 159.817 3.71969 164.379 3.66238C168.872 3.60408 173.374 3.50462 177.869 3.34998C179.694 3.28714 181.536 3.25208 183.353 3.12718C184.24 3.07131 185.119 2.99466 185.991 2.86284C186.073 2.85001 186.164 2.84816 186.262 2.85364Z" fill="#FFE0A4"/>
</svg>
