<svg width="170" height="42" viewBox="0 0 170 42" fill="none" xmlns="http://www.w3.org/2000/svg">
<mask id="mask0_405_13997" style="mask-type:luminance" maskUnits="userSpaceOnUse" x="0" y="0" width="170" height="42">
<path d="M169.723 0.645264H0.723389V41.5953H169.723V0.645264Z" fill="white"/>
</mask>
<g mask="url(#mask0_405_13997)">
<path fill-rule="evenodd" clip-rule="evenodd" d="M10.6333 2.22028H30.3833L40.2933 12.1997H20.5433L20.4734 12.2705V12.1997L10.6341 2.22111L20.4734 12.2705H0.723389L10.6333 2.22028ZM20.4733 32.3001H40.2234L30.3833 42.2795L10.5635 42.2796L0.723389 32.3V12.2705H20.4036L10.5983 22.2146L10.6333 22.2499V22.3207L20.4733 32.3001ZM30.3833 22.25L30.3135 22.2499L20.4734 12.2705H40.2234L30.3833 22.25ZM30.3833 22.25H30.4531L40.2933 32.2294H20.5433L30.3833 22.25ZM52.8554 25.5056C52.5762 25.7887 52.1575 25.9302 51.6689 25.9302L51.5992 26.001C50.9013 26.001 50.343 25.7179 50.0638 25.1518C49.7847 24.5147 49.6451 23.6654 49.6451 22.6038V22.3206C49.5753 21.4714 49.7149 20.6221 50.0638 19.8435C50.343 19.2065 50.8315 18.9235 51.5992 18.9235C52.1575 18.9235 52.5065 19.1358 52.7856 19.4896C53.0647 19.9142 53.2043 20.4805 53.2043 20.9759L56.8333 20.9051C56.9031 19.5604 56.4145 18.1449 55.4375 17.2248C54.4605 16.3048 53.2043 15.88 51.5992 15.88C49.7149 15.88 48.2494 16.4463 47.2025 17.6495C46.1557 18.8527 45.6672 20.4097 45.6672 22.3206V22.6038C45.5276 24.3024 46.1557 25.9302 47.2025 27.275C48.2494 28.4074 49.7149 29.0444 51.6689 29.0444C53.0647 29.0444 54.3907 28.6197 55.4375 27.6997C56.4145 26.8503 56.9729 25.5764 56.9031 24.2316H53.2741C53.2741 24.7978 53.1345 25.2225 52.8554 25.5056ZM64.1611 19.4896H65.6266L66.0454 15.88C65.6266 15.7385 65.2777 15.7385 64.9287 15.7385C64.3705 15.7385 63.8122 15.9508 63.3934 16.3048C62.9049 16.7294 62.5559 17.2248 62.3465 17.8618L62.207 15.9508H58.5082V28.7612H62.4164V20.339C62.5559 20.0559 62.7653 19.8435 63.0444 19.7019C63.3237 19.5604 63.7423 19.4896 64.1611 19.4896ZM73.1638 23.17L73.094 23.0992L72.9544 23.0284L71.0003 15.88H66.813L71.2097 28.832L70.9306 29.6813C70.791 30.0352 70.5816 30.3184 70.3025 30.5307C70.0233 30.743 69.6046 30.8138 68.9764 30.8138L68.7672 30.743H68.5578L68.0693 33.574C68.5578 33.7155 68.9067 33.7863 69.1161 33.7863C69.3254 33.8571 69.6046 33.8571 69.9536 33.8571C71.2795 33.8571 72.2565 33.574 72.8846 32.9371C73.5128 32.3 74.0013 31.5216 74.4199 30.6015L79.4448 15.9508H75.2574L73.1638 23.17ZM87.7495 19.7727C88.0984 20.4097 88.2381 21.3299 88.2381 22.3914L88.1682 22.4622V22.6746C88.2381 23.5238 88.0984 24.3024 87.7495 25.081C87.4704 25.6471 86.9818 25.9302 86.284 25.9302C85.935 25.9302 85.5163 25.8594 85.1674 25.7179C84.8882 25.5764 84.4695 25.081 84.4695 25.081V19.7019C84.609 19.4189 84.8882 19.1358 85.1674 18.9942C85.4465 18.8527 85.8653 18.7819 86.284 18.7819C86.9121 18.7819 87.4704 19.1358 87.7495 19.7727ZM90.89 27.2042C91.7274 26.0718 92.1462 24.5147 92.1462 22.6038V22.4622C92.216 20.7636 91.7973 19.065 90.89 17.6495C90.0525 16.4463 88.7963 15.8093 87.261 15.8093C86.0746 15.7385 84.958 16.3755 84.3299 17.4371L84.1904 16.0216H80.4915V33.6448H84.3997V27.6289C85.0975 28.4781 86.1444 28.9736 87.261 28.9736C88.7266 28.9736 90.0525 28.3366 90.89 27.2042ZM98.5667 15.9508V12.766L98.4969 12.8367H94.519V16.0216H92.7743V18.7819H94.519V24.6563C94.519 26.2133 94.868 27.275 95.5658 27.9828C96.1939 28.6905 97.171 29.0444 98.4969 29.0444C99.3344 29.0444 100.172 28.9736 100.94 28.7612L100.66 25.7887C100.311 25.8594 99.9624 25.8594 99.5438 25.8594C99.3344 25.8594 99.0552 25.7887 98.8459 25.5764C98.6365 25.3641 98.5667 25.0101 98.5667 24.5855V18.7111H100.73V15.9508H98.5667ZM106.104 25.0101C105.755 24.3732 105.615 23.5238 105.615 22.4622V22.1791C105.615 21.1882 105.755 20.339 106.104 19.7019C106.453 19.065 107.011 18.7819 107.779 18.7819C108.546 18.7819 109.104 19.065 109.454 19.7019C109.803 20.4805 109.942 21.3299 109.942 22.1791V22.4622C109.942 23.5238 109.803 24.3732 109.454 25.0101C109.104 25.6471 108.546 25.9302 107.779 25.9302C107.011 25.9302 106.453 25.6471 106.104 25.0101ZM103.312 17.5787C102.196 18.8527 101.637 20.5513 101.707 22.2499H101.637V22.5329C101.568 24.2316 102.126 25.9302 103.243 27.2042C104.359 28.3366 105.894 28.9736 107.779 28.9736C109.664 28.9736 111.198 28.4074 112.245 27.2042C113.292 26.001 113.85 24.4439 113.85 22.5329V22.2499C113.92 20.5513 113.361 18.8527 112.245 17.5787C111.198 16.3755 109.664 15.7385 107.779 15.7385C105.894 15.7385 104.359 16.3755 103.312 17.5787ZM119.3 16.0216L119.293 15.9508L119.434 16.0216H119.3ZM119.3 16.0216H115.735V28.832H119.643V19.6312C120.062 19.1358 120.69 18.8527 121.318 18.8527C121.945 18.8527 122.364 18.9942 122.644 19.2773C122.923 19.5604 123.062 20.1267 123.062 20.8344V28.7612H126.971V20.8344C126.971 19.065 126.622 17.791 125.924 16.9417C125.225 16.1631 124.249 15.7385 122.992 15.7385C122.295 15.6677 121.597 15.88 120.968 16.2339C120.34 16.5878 119.852 17.0832 119.434 17.7203L119.3 16.0216ZM133.321 19.4189C133.6 18.9942 134.019 18.7819 134.578 18.7819C135.206 18.7819 135.555 18.9235 135.834 19.2773C136.113 19.6312 136.253 20.1267 136.253 20.7636V21.0467H132.833C132.903 20.339 133.042 19.8435 133.321 19.4189ZM130.39 27.2042C131.507 28.4074 132.973 28.9736 134.856 28.9736V29.0444C135.834 29.0444 136.741 28.9029 137.648 28.6197C138.416 28.3366 139.183 27.9828 139.811 27.558L138.905 25.1518C137.788 25.7179 136.602 25.9302 135.415 25.9302C134.717 25.9302 134.089 25.7179 133.67 25.2933C133.182 24.8686 132.973 24.3024 132.833 23.5946H140.091V21.4714C140.16 19.985 139.672 18.428 138.625 17.2955C137.648 16.2339 136.322 15.7385 134.578 15.7385C132.693 15.7385 131.298 16.3755 130.251 17.5787C129.204 18.7819 128.715 20.339 128.715 22.3206V22.7454C128.646 24.3732 129.274 26.001 130.39 27.2042ZM152.652 23.3823H152.583H152.513L150.35 15.9508H147.837L145.743 23.3823H145.673L144.278 15.9508H140.649L143.65 28.7612H147L149.094 21.9668H149.163L151.257 28.7612H154.607L157.607 15.9508H153.979L152.652 23.3823ZM165.144 24.3024C165.424 24.5855 165.633 25.1518 165.633 25.1518V25.2225C165.633 25.6471 165.494 25.9302 165.215 26.0718C164.935 26.2841 164.516 26.3549 164.028 26.3549C163.4 26.3549 162.911 26.2133 162.563 25.9302C162.214 25.7179 162.005 25.2933 162.005 24.6563L158.445 24.727C158.445 25.7887 158.934 26.8503 159.911 27.6997C160.888 28.6197 162.214 29.0444 163.958 29.0444C165.354 29.1152 166.749 28.6905 167.937 27.912C168.983 27.2042 169.471 26.2133 169.471 25.081C169.542 24.0193 169.123 23.0992 168.355 22.4622C167.309 21.7545 166.191 21.3299 164.935 21.1174C164.238 21.0467 163.61 20.8344 162.981 20.4805C162.702 20.2682 162.493 19.985 162.493 19.6312C162.493 19.2773 162.633 18.9942 162.911 18.7819C163.191 18.4987 163.539 18.428 163.958 18.428C164.516 18.428 164.866 18.5695 165.144 18.8527C165.424 19.1358 165.563 19.4896 165.563 19.985L169.401 19.9142C169.401 18.7111 168.843 17.5787 167.937 16.9417C166.89 16.1631 165.563 15.8093 163.888 15.8093C162.353 15.8093 161.027 16.1631 160.12 16.9417C159.212 17.5787 158.725 18.6403 158.725 19.7727C158.725 20.7636 159.073 21.6837 159.841 22.3206C160.817 23.0284 162.005 23.4531 163.191 23.6654C163.888 23.7361 164.516 23.9486 165.144 24.3024Z" fill="#999999" fill-opacity="0.72"/>
</g>
</svg>
