<svg width="190" height="27" viewBox="0 0 190 27" fill="none" xmlns="http://www.w3.org/2000/svg">
<mask id="mask0_405_14002" style="mask-type:luminance" maskUnits="userSpaceOnUse" x="0" y="0" width="190" height="27">
<path d="M189.503 0.120483H0.723389V26.1201H189.503V0.120483Z" fill="white"/>
</mask>
<g mask="url(#mask0_405_14002)">
<path fill-rule="evenodd" clip-rule="evenodd" d="M79.7483 17.7926C74.3346 17.7926 70.3975 14.0722 70.3975 8.95657C70.3975 3.84094 74.3346 0.120483 79.8186 0.120483C82.7715 0.120483 85.3025 1.18347 86.9196 3.17658L87.0602 3.37588L84.1776 6.03335L83.9667 5.83404C82.9121 4.57175 81.506 3.97381 79.9593 3.97381C76.9361 3.97381 74.8268 6.03335 74.8268 9.023C74.8268 12.0127 76.9361 14.0722 79.9593 14.0722C81.5763 14.0722 82.9121 13.4742 83.9667 12.212L84.1776 12.0127L87.0602 14.6701L86.9196 14.8695C85.3025 16.8625 82.7715 17.9256 79.7483 17.9256V17.7926ZM38.267 17.527H29.3381V0.386276H37.8451C41.9932 0.386276 44.454 2.11363 44.454 4.97041C44.454 6.49845 43.7509 7.76075 42.5557 8.55799C44.3134 9.2888 45.2976 10.8168 45.2976 12.7435C45.2976 15.7996 42.8369 17.527 38.3373 17.527H38.267ZM33.6971 14.1387H37.9858C40.5168 14.1387 40.798 13.1421 40.798 12.3449C40.798 11.1491 39.8841 10.5511 37.9858 10.5511H33.6971V14.1387ZM33.6971 7.22926H37.2826C39.0403 7.22926 39.9544 6.63133 39.9544 5.5019C39.9544 5.10328 39.9544 3.84099 37.2826 3.84099H33.6971V7.22926ZM52.1879 17.527H47.7586V0.386276H52.1879V17.527ZM59.9216 17.527H64.2807V4.04029H69.6943V0.386276H54.508V4.04029H59.9216V17.527ZM87.6929 8.95657C87.6929 14.0722 91.7003 17.7926 97.1843 17.7926C102.668 17.7926 106.676 14.0722 106.676 8.95657C106.676 3.84094 102.668 0.120483 97.1843 0.120483C91.7003 0.120483 87.6929 3.84094 87.6929 8.95657ZM92.1925 8.95657C92.1925 6.03335 94.3017 3.90738 97.1843 3.90738C100.067 3.90738 102.176 6.03335 102.176 8.95657C102.176 11.8798 100.067 14.0057 97.1843 14.0057C94.3017 14.0057 92.1925 11.8798 92.1925 8.95657ZM113.214 17.527H108.785V0.386276H113.214V17.527ZM128.33 17.527H131.916V0.386276H127.556V9.95316L119.612 0.386276H116.026V17.527H120.386V7.96006L128.33 17.527ZM138.806 17.527H134.376V0.386276H138.806V17.527ZM141.126 15.7996C142.743 16.9955 145.485 17.7926 148.157 17.7926V17.8591C153.57 17.8591 155.538 14.9358 155.538 12.4777C155.538 8.78982 152.085 7.9742 149.285 7.31312L149.212 7.29564C147.384 6.89703 145.766 6.49841 145.766 5.43542C145.766 4.37243 146.821 3.7745 148.719 3.7745C150.195 3.7745 151.743 4.23956 153.219 5.0368L153.5 5.16967L154.905 1.7814L154.695 1.64852C153.149 0.651977 150.969 0.120483 148.719 0.120483C144.22 0.120483 141.337 2.24646 141.407 5.50185C141.407 9.25617 144.862 10.0721 147.662 10.7332L147.735 10.7504C149.563 11.1489 151.18 11.5476 151.18 12.6106C151.18 13.9394 149.352 14.1387 148.227 14.1387C146.329 14.1387 144.22 13.5407 142.813 12.4777L142.532 12.2785L140.985 15.6667L141.126 15.7996ZM166.366 17.527H162.007V4.04029H156.593V0.386276H171.779V4.04029H166.366V17.527ZM173.748 3.64149C173.748 3.97368 174.38 4.23943 174.38 4.23943C174.732 4.23943 175.013 3.97368 175.013 3.64149C175.013 3.30931 174.732 3.04357 174.38 3.04357C174.029 3.04357 173.748 3.30931 173.748 3.64149ZM177.896 4.23961C176.631 4.23961 175.788 3.44237 175.788 2.31294C175.788 1.18352 176.701 0.386276 177.896 0.386276C178.599 0.386276 179.162 0.652023 179.513 1.05065L178.81 1.71502C178.81 1.71502 178.247 1.24995 177.967 1.24995C177.334 1.24995 176.841 1.71502 176.841 2.31294C176.841 2.91087 177.334 3.37593 177.967 3.37593C178.319 3.37593 178.599 3.24306 178.81 2.97731L179.513 3.50881C179.162 3.97386 178.599 4.23961 177.896 4.23961ZM179.865 2.31294C179.865 3.44237 180.778 4.23961 182.044 4.23961C183.309 4.23961 184.224 3.44237 184.224 2.31294C184.224 1.18352 183.309 0.386276 182.044 0.386276C180.778 0.386276 179.865 1.18352 179.865 2.31294ZM180.99 2.31294C180.99 1.71502 181.411 1.24995 182.044 1.24995C182.748 1.24995 183.169 1.71502 183.169 2.31294C183.169 2.91087 182.676 3.37593 182.044 3.37593C181.411 3.37593 180.99 2.91087 180.99 2.31294ZM184.927 4.04032V0.519173V0.452725H185.77L187.106 2.5787L188.443 0.452725H189.286V4.17319H188.373V2.24651L187.388 3.77456H186.895L185.912 2.31295V4.17319H184.927V4.04032ZM28.8462 22.7089C28.8462 22.6863 28.8465 22.6637 28.8471 22.6413C28.8829 23.8703 29.924 24.7684 31.2366 24.7684C31.9397 24.7684 32.5021 24.5691 32.924 24.1705L32.6427 23.9048C32.2912 24.3034 31.7991 24.4362 31.3069 24.4362C30.2524 24.4362 29.4086 23.7054 29.4086 22.6425C29.4086 21.5794 30.182 20.8487 31.3069 20.8487C31.7991 20.8487 32.2912 21.048 32.6427 21.3801L32.924 21.1144C32.5021 20.7158 31.8694 20.5165 31.2366 20.5165C29.8557 20.5165 28.8816 21.4136 28.8471 22.6413C28.8465 22.6196 28.8462 22.5979 28.8462 22.576V22.7089ZM35.9472 23.4397L37.0017 24.8349V24.7684H37.4938L36.3689 23.3068C37.072 23.1075 37.4235 22.6425 37.4235 21.9781C37.4235 21.048 36.7205 20.5165 35.5956 20.5165H33.9082V24.7684H34.4004V23.4397H35.5956H35.9472ZM35.5956 20.9815C36.5096 20.9815 37.0017 21.3801 37.0017 22.0445C37.0017 22.7089 36.5096 23.1075 35.5956 23.1075H34.4004V20.9815H35.5956ZM40.0951 23.3733V24.8349H39.6031V23.3733L37.7751 20.5829H38.2672L39.814 22.9747L41.3607 20.5829H41.8528L40.0248 23.3733H40.0951ZM43.1181 23.5061H44.3134C45.4383 23.5061 46.1413 22.9747 46.1413 22.0446C46.1413 21.1145 45.4383 20.5829 44.3134 20.5829H42.626V24.8349H43.1181V23.5061ZM44.2431 20.9815C45.157 20.9815 45.6492 21.3801 45.6492 22.0446C45.6492 22.7089 45.157 23.1075 44.2431 23.1075H43.0478V20.9815H44.2431ZM47.8289 20.9815H46.2821V20.5829H49.9381V20.9815H48.3211V24.8349H47.8289V20.9815ZM52.6799 20.5165C51.2738 20.5165 50.2896 21.4466 50.2896 22.7089C50.2896 23.9711 51.2738 24.9013 52.6799 24.9013C54.0861 24.9013 55.0704 23.9711 55.0704 22.7089C55.0704 21.4466 54.0861 20.5165 52.6799 20.5165ZM52.6799 20.9151C53.8048 20.9151 54.5782 21.7123 54.5782 22.7089C54.5782 23.7719 53.7346 24.5027 52.6799 24.5027C51.6254 24.5027 50.7816 23.7719 50.7816 22.7089C50.7816 21.6459 51.5551 20.9151 52.6799 20.9151ZM55.7733 22.7089C55.7733 22.6863 55.7737 22.6637 55.7742 22.6413C55.8099 23.8703 56.8511 24.7684 58.1638 24.7684C58.8668 24.7684 59.4293 24.5691 59.8511 24.1705L59.5699 23.9048C59.2184 24.3034 58.7262 24.4362 58.2341 24.4362C57.1795 24.4362 56.3358 23.7054 56.3358 22.6425C56.3358 21.5794 57.1091 20.8487 58.2341 20.8487C58.7262 20.8487 59.2184 21.048 59.5699 21.3801L59.8511 21.1144C59.4293 20.7158 58.7965 20.5165 58.1638 20.5165C56.7828 20.5165 55.8087 21.4136 55.7742 22.6413C55.7737 22.6196 55.7733 22.5979 55.7733 22.576V22.7089ZM60.7652 20.5829V23.041H60.9059C60.9059 24.2369 61.609 24.9014 62.7339 24.9014C63.8587 24.9014 64.5619 24.2369 64.5619 23.041V20.5829H64.0697V23.041C64.0697 24.0376 63.5776 24.5027 62.6636 24.5027C61.7496 24.5027 61.2574 24.0376 61.2574 23.041V20.5829H60.7652ZM69.0614 24.8349L68.0068 23.4397H67.6552H66.4601V24.7684H65.9679V20.5165H67.6552C68.7802 20.5165 69.4832 21.048 69.4832 21.9781C69.4832 22.6425 69.1317 23.1075 68.4287 23.3068L69.5536 24.7684H69.0614V24.8349ZM69.0614 22.0445C69.0614 21.3801 68.5693 20.9815 67.6552 20.9815H66.4601V23.1075H67.6552C68.5693 23.1075 69.0614 22.7089 69.0614 22.0445ZM72.7176 23.4397L73.7722 24.8349V24.7684H74.2643L73.1395 23.3068C73.8425 23.1075 74.194 22.6425 74.194 21.9781C74.194 21.048 73.4909 20.5165 72.366 20.5165H70.6787V24.7684H71.1708V23.4397H72.366H72.7176ZM72.366 20.9815C73.2801 20.9815 73.7722 21.3801 73.7722 22.0445C73.7722 22.7089 73.2801 23.1075 72.366 23.1075H71.1708V20.9815H72.366ZM78.5528 24.4362V24.5027H75.8812V22.9082H78.2014V22.5096H75.8812V20.9815H78.4825V20.5829H75.389V24.8349H78.5528V24.5027H78.6231L78.5528 24.4362ZM83.4742 24.8349V20.5829H82.982V24.0376L80.0994 20.5829H79.6777V24.8349H80.1697V21.3801L83.0523 24.8349H83.4742ZM84.5995 22.7089C84.5995 22.6862 84.5999 22.6637 84.6004 22.6413C84.6361 23.8702 85.6773 24.7684 86.9899 24.7684C87.693 24.7684 88.2554 24.5691 88.6773 24.1705L88.396 23.9048C88.0446 24.3034 87.5524 24.4362 87.0602 24.4362C86.0056 24.4362 85.162 23.7054 85.162 22.6425C85.162 21.5794 85.9353 20.8487 87.0602 20.8487C87.5524 20.8487 88.0446 21.048 88.396 21.3801L88.6773 21.1144C88.2554 20.7158 87.6227 20.5165 86.9899 20.5165C85.609 20.5165 84.6349 21.4136 84.6004 22.6413L84.5996 22.6042L84.5995 22.576V22.7089ZM91.1377 24.8349V23.3733H91.0674L92.8954 20.5829H92.4032L90.8565 22.9747L89.3097 20.5829H88.8176L90.6455 23.3733V24.8349H91.1377ZM99.6448 20.5829V24.8349H99.223L96.3405 21.3801V24.8349H95.8483V20.5829H96.2702L99.1527 24.0376V20.5829H99.6448ZM104.356 24.5027V24.4362L104.426 24.5027H104.356ZM101.684 24.5027H104.356V24.8349H101.192V20.5829H104.285V20.9815H101.684V22.5096H104.004V22.9082H101.684V24.5027ZM111.668 20.5829L110.121 24.8349H109.629L108.293 21.1808L106.957 24.8349H106.465L104.918 20.5829H105.41L106.746 24.2369L108.082 20.5829H108.504L109.84 24.3034L111.175 20.5829H111.668ZM112.3 23.9711L112.089 24.3034V24.3698C112.441 24.702 113.074 24.9013 113.776 24.9013C114.902 24.9013 115.464 24.3034 115.464 23.7054C115.464 22.8946 114.673 22.7198 113.929 22.5556C113.272 22.4105 112.652 22.2737 112.652 21.7123C112.652 21.2473 113.003 20.9151 113.848 20.9151C114.269 20.9151 114.691 20.9815 115.113 21.2473L115.253 20.9151C114.902 20.6493 114.339 20.5165 113.848 20.5165C112.652 20.5165 112.16 21.1144 112.16 21.7123C112.16 22.5668 112.967 22.7535 113.717 22.9268C114.366 23.0769 114.972 23.2168 114.972 23.7719C114.972 24.1706 114.621 24.5027 113.776 24.5027C113.214 24.5027 112.3 23.9711 112.3 23.9711ZM122.002 24.9014L121.369 24.3034C121.018 24.702 120.456 24.9014 119.893 24.9014C118.979 24.9014 118.347 24.4362 118.347 23.8383C118.347 23.3068 118.627 22.9747 119.471 22.5096C119.05 22.1109 118.908 21.8452 118.908 21.5131C118.908 20.9815 119.33 20.5829 120.033 20.5829C120.666 20.5829 121.088 20.9151 121.088 21.4466C121.088 21.8452 120.808 22.1774 120.104 22.576L121.369 23.7719C121.369 23.7719 121.581 23.2404 121.651 22.9747L122.002 23.1075C121.932 23.5061 121.791 23.8383 121.581 24.1041L122.213 24.702L122.002 24.9014ZM121.088 24.0376L119.753 22.7089C119.05 23.1075 118.838 23.3733 118.838 23.7719C118.838 24.2369 119.26 24.5691 119.963 24.5691C120.456 24.5691 120.878 24.4362 121.158 24.1041L121.088 24.0376ZM119.33 21.4466C119.33 21.4466 119.401 21.8452 119.823 22.2439C120.456 21.9116 120.666 21.6459 120.666 21.3801C120.666 21.1145 120.456 20.8487 120.033 20.8487C119.612 20.8487 119.33 21.1145 119.33 21.4466ZM124.533 20.9815H126.08V24.8349H126.573V20.9815H128.189V20.5829H124.533V20.9815ZM132.197 24.4362V24.5027H129.525V22.9082H131.845V22.5096H129.525V20.9815H132.126V20.5829H129.034V24.8349H132.197V24.5027H132.268L132.197 24.4362ZM132.901 22.6735L132.9 22.7089V22.576C132.9 22.5979 132.901 22.6196 132.901 22.6413V22.6735ZM132.901 22.6413C132.936 21.4136 133.909 20.5165 135.29 20.5165C135.923 20.5165 136.555 20.7158 136.978 21.1144L136.697 21.3801C136.345 21.048 135.852 20.8487 135.361 20.8487C134.236 20.8487 133.463 21.5794 133.463 22.6425C133.463 23.7054 134.306 24.4362 135.361 24.4362C135.852 24.4362 136.345 24.3034 136.697 23.9048L136.978 24.1705C136.555 24.5691 135.994 24.7684 135.29 24.7684C133.978 24.7684 132.937 23.8702 132.901 22.6413ZM141.759 24.8349H141.266V22.8417H138.454V24.8349H137.962V20.5829H138.454V22.5096H141.266V20.5829H141.759V24.8349ZM146.609 24.8349H147.032V20.5829H146.539V24.0376L143.657 20.5829H143.235V24.8349H143.727V21.3801L146.609 24.8349ZM148.157 22.7089C148.157 21.4466 149.14 20.5165 150.547 20.5165C151.953 20.5165 152.937 21.4466 152.937 22.7089C152.937 23.9711 151.953 24.9013 150.547 24.9013C149.14 24.9013 148.157 23.9711 148.157 22.7089ZM152.446 22.7089C152.446 21.7123 151.671 20.9151 150.547 20.9151C149.422 20.9151 148.649 21.6459 148.649 22.7089C148.649 23.7719 149.492 24.5027 150.547 24.5027C151.601 24.5027 152.446 23.7719 152.446 22.7089ZM154.484 20.5829H153.992V24.8349H157.015V24.4362H154.484V20.5829ZM157.367 22.7089C157.367 21.4466 158.351 20.5165 159.757 20.5165C161.163 20.5165 162.148 21.4466 162.148 22.7089C162.148 23.9711 161.163 24.9013 159.757 24.9013C158.351 24.9013 157.367 23.9711 157.367 22.7089ZM161.655 22.7089C161.655 21.7123 160.882 20.9151 159.757 20.9151C158.632 20.9151 157.859 21.6459 157.859 22.7089C157.859 23.7719 158.703 24.5027 159.757 24.5027C160.812 24.5027 161.655 23.7719 161.655 22.7089ZM166.858 22.7089H166.366V24.1041C166.014 24.3698 165.592 24.4362 165.171 24.4362C164.116 24.4362 163.273 23.7054 163.273 22.6425C163.273 21.5794 164.116 20.8487 165.241 20.8487C165.734 20.8487 166.225 21.048 166.577 21.3801L166.858 21.1144C166.436 20.7158 165.874 20.5165 165.171 20.5165C163.765 20.5165 162.78 21.4466 162.78 22.7089C162.78 23.9711 163.765 24.9013 165.171 24.9013C165.804 24.9013 166.436 24.702 166.858 24.3698V22.7089ZM169.741 23.3733V24.8349H169.248V23.3733L167.42 20.5829H167.913L169.46 22.9747L171.006 20.5829H171.499L169.671 23.3733H169.741ZM0.723389 19.52L6.76976 25.0343H26.8072V0.386276H0.723389V19.52ZM20.2686 11.0161C20.5499 9.22236 19.0734 8.29224 17.1048 7.62787H17.1751L17.8079 5.16972L16.2612 4.7711L15.6284 7.16282C15.4526 7.1296 15.2945 7.09639 15.1362 7.06316C14.9781 7.02995 14.8199 6.99673 14.6441 6.96351H14.3629L14.9957 4.57179L13.4489 4.17317L12.8161 6.63133H12.6052C12.3239 6.56489 11.8318 6.43202 11.8318 6.43202L9.65234 5.90052L9.2305 7.495L10.3554 7.76075C10.9882 7.89362 11.0585 8.62443 11.0585 8.62443L10.3554 11.4148L9.3008 15.2681C9.2305 15.401 9.01957 15.7331 8.59774 15.6003L7.47284 15.3345L6.69946 16.9955L8.73835 17.4605C8.88906 17.4605 9.01957 17.4987 9.14072 17.5341C9.24564 17.5647 9.34353 17.5933 9.44142 17.5933C9.58203 17.6598 9.86326 17.7263 9.86326 17.7263L9.2305 20.1844L10.7772 20.5831L11.41 18.1249C11.8318 18.2578 12.2536 18.3906 12.6755 18.4571L12.0428 20.8488L13.5896 21.2474L14.2223 18.7892C16.8939 19.2543 18.8625 19.055 19.7061 16.7962C20.4093 14.9359 19.7061 13.8729 18.3 13.2086C19.2844 12.9428 20.0577 12.3449 20.2686 11.0161ZM16.683 15.7331C16.2612 17.394 13.4489 16.7297 12.1833 16.3976H12.113C12.0428 16.3311 11.8318 16.3311 11.8318 16.3311L12.6755 13.0757C12.8161 13.1421 12.9568 13.1421 13.0974 13.1421C13.1781 13.1622 13.2638 13.183 13.3533 13.2047C14.7449 13.5429 17.0794 14.1102 16.683 15.7331ZM13.4039 11.6869L13.3786 11.6805V11.6141H13.0974L13.8707 8.69086C14.0113 8.75731 14.0816 8.75731 14.2223 8.75731C15.3471 8.95661 17.597 9.42167 17.1751 11.0161C16.7567 12.5321 14.4698 11.9556 13.4039 11.6869Z" fill="#999999" fill-opacity="0.72"/>
</g>
</svg>
