<svg width="189" height="31" viewBox="0 0 189 31" fill="none" xmlns="http://www.w3.org/2000/svg">
<mask id="mask0_17_96927" style="mask-type:luminance" maskUnits="userSpaceOnUse" x="0" y="0" width="189" height="31">
<path d="M188.723 0H0V30.97H188.723V0Z" fill="white"/>
</mask>
<g mask="url(#mask0_17_96927)">
<mask id="mask1_17_96927" style="mask-type:luminance" maskUnits="userSpaceOnUse" x="0" y="0" width="189" height="31">
<path d="M188.723 0H0V30.97H188.723V0Z" fill="white"/>
</mask>
<g mask="url(#mask1_17_96927)">
<path d="M8.13455 11.7809V27.0374H4.00549V11.7809H8.13455Z" fill="#999999" fill-opacity="0.72"/>
<path d="M14.6927 12.5875C15.8387 11.7137 17.0851 11.2769 18.4319 11.2769C19.377 11.2769 20.2927 11.4561 21.1787 11.8146C22.0648 12.173 22.815 12.6715 23.4293 13.3099C24.0554 13.9373 24.5044 14.6877 24.7761 15.5615C25.0596 16.4352 25.2014 17.5274 25.2014 18.8379V27.0375H21.0724V19.09C21.0724 17.3761 20.8066 16.2336 20.2749 15.6623C19.7551 15.1135 19.0403 14.839 18.1307 14.839C16.9374 14.839 16.0395 15.1919 15.437 15.8975C14.9408 16.48 14.6927 17.6506 14.6927 19.4092V27.0375H10.5637V11.781H14.6927V12.5875Z" fill="#999999" fill-opacity="0.72"/>
<path d="M38.5824 14.8894L35.3748 16.4016C34.9022 15.7743 34.4947 15.3486 34.1521 15.1246C33.8095 14.8894 33.4018 14.7718 32.9293 14.7718C32.4213 14.7718 32.0137 14.8838 31.7065 15.1078C31.4112 15.3319 31.2635 15.6287 31.2635 15.9983C31.2635 16.3344 31.3698 16.5809 31.5825 16.7376C31.807 16.8944 32.3799 17.1409 33.3014 17.477L34.7723 17.9978C35.812 18.3787 36.6448 18.8155 37.271 19.3084C38.2279 20.0589 38.7064 21.0671 38.7064 22.3329C38.7064 23.8674 38.0684 25.1444 36.7925 26.1637C35.6702 27.0823 34.2997 27.5415 32.6812 27.5415C30.531 27.5415 28.8534 26.763 27.6484 25.206C27.223 24.6572 26.8037 23.8562 26.3901 22.8033L29.7572 21.5263C30.2652 22.4784 30.7259 23.1337 31.1395 23.4922C31.5647 23.8394 32.0846 24.0131 32.6989 24.0131C33.266 24.0131 33.7208 23.8674 34.0634 23.5762C34.406 23.2849 34.5773 22.9041 34.5773 22.4336C34.5773 22.1088 34.4533 21.8568 34.2052 21.6775C33.9571 21.4871 33.3959 21.2351 32.5217 20.9214L30.8913 20.3334C28.4931 19.4596 27.2939 18.0483 27.2939 16.0992C27.2939 14.6318 27.8905 13.4388 29.0838 12.5203C30.1825 11.6914 31.4762 11.2769 32.9647 11.2769C34.2288 11.2769 35.3039 11.5626 36.19 12.1339C37.0879 12.7051 37.8853 13.6236 38.5824 14.8894Z" fill="#999999" fill-opacity="0.72"/>
<path d="M44.2193 11.7809V27.0374H40.0903V11.7809H44.2193Z" fill="#999999" fill-opacity="0.72"/>
<path d="M62.5267 27.0373H58.3976V26.0628C57.0272 27.0485 55.5858 27.5414 54.0736 27.5414C51.569 27.5414 49.478 26.6509 47.8004 24.8698C46.3472 23.3352 45.6207 21.5094 45.6207 19.3923C45.6207 16.9391 46.5598 14.9172 48.4383 13.3266C50.045 11.9601 51.9234 11.2767 54.0736 11.2767C55.5858 11.2767 57.0272 11.7696 58.3976 12.7553V4.10217H62.5267V27.0373ZM54.0736 14.8388C52.715 14.8388 51.6104 15.3541 50.7597 16.3846C50.1218 17.1688 49.8029 18.1713 49.8029 19.3923C49.8029 20.826 50.234 21.9574 51.0965 22.7863C51.9234 23.5817 52.9395 23.9793 54.1446 23.9793C55.5504 23.9793 56.661 23.464 57.4762 22.4335C58.1023 21.627 58.4153 20.6076 58.4153 19.3755C58.4153 17.9752 57.996 16.8551 57.1572 16.015C56.3656 15.2309 55.3378 14.8388 54.0736 14.8388Z" fill="#999999" fill-opacity="0.72"/>
<path d="M68.1635 20.871C68.3998 21.6999 68.7424 22.344 69.1913 22.8033C69.9828 23.5986 70.9811 23.9962 72.1862 23.9962C73.5921 23.9962 74.7322 23.5762 75.6064 22.736C75.7718 22.568 76.0435 22.2096 76.4216 21.6607L79.9304 23.0385C79.127 24.2931 78.3355 25.2172 77.5557 25.8109C76.0317 26.9646 74.2478 27.5415 72.2039 27.5415C69.6521 27.5415 67.5787 26.651 65.9837 24.87C64.6015 23.3353 63.9104 21.5095 63.9104 19.3924C63.9104 17.9474 64.2589 16.6088 64.9559 15.3767C65.6884 14.0661 66.7044 13.0467 68.004 12.3186C69.2445 11.6241 70.5854 11.2769 72.0267 11.2769C74.3777 11.2769 76.2975 12.0722 77.7861 13.6628C79.2747 15.2423 80.019 17.2809 80.019 19.7789C80.019 20.0028 80.0131 20.3669 80.0013 20.871H68.1635ZM75.8899 17.9474C75.1811 15.808 73.8933 14.7381 72.0267 14.7381C71.058 14.7381 70.2369 15.0182 69.5635 15.5783C68.9019 16.1271 68.4352 16.9169 68.1635 17.9474H75.8899Z" fill="#999999" fill-opacity="0.72"/>
<path d="M87.9982 27.5289V4.59375H92.1272V13.247C93.4977 12.2612 94.939 11.7684 96.4512 11.7684C98.9559 11.7684 101.047 12.6532 102.725 14.4231C104.177 15.9577 104.904 17.778 104.904 19.8839C104.904 22.3482 103.965 24.3813 102.087 25.9831C100.48 27.3497 98.6017 28.0329 96.4512 28.0329C94.939 28.0329 93.4977 27.5401 92.1272 26.5544V27.5289H87.9982ZM96.2917 15.3304C94.9449 15.3304 93.8639 15.8457 93.0487 16.8763C92.4226 17.6715 92.1095 18.6741 92.1095 19.8839C92.1095 21.3064 92.5289 22.4378 93.3677 23.2779C94.1711 24.0732 95.1753 24.4709 96.3803 24.4709C97.7859 24.4709 98.9143 23.95 99.765 22.9083C100.403 22.1241 100.722 21.116 100.722 19.8839C100.722 18.4613 100.291 17.3355 99.4282 16.5066C98.6133 15.7225 97.5681 15.3304 96.2917 15.3304Z" fill="#999999" fill-opacity="0.72"/>
<path d="M110.417 12.2723V27.5288H106.288V12.2723H110.417Z" fill="#999999" fill-opacity="0.72"/>
<path d="M117.153 15.8008V22.6058C117.153 23.1771 117.206 23.5692 117.311 23.782C117.431 23.9948 117.648 24.1012 117.968 24.1012C118.369 24.1012 119.001 23.9724 119.864 23.7147V27.428C118.978 27.6857 118.181 27.8145 117.471 27.8145C116.042 27.8145 114.943 27.3665 114.176 26.4703C113.407 25.563 113.023 24.2748 113.023 22.6058V15.8008H111.34V12.2724H113.023V8.99593L117.153 7.46692V12.2724H119.633V15.8008H117.153Z" fill="#999999" fill-opacity="0.72"/>
<path d="M132.571 17.4643C131.661 16.5682 130.953 15.9913 130.445 15.7336C129.937 15.4648 129.281 15.3303 128.478 15.3303C126.99 15.3303 125.831 15.8456 125.005 16.8762C124.367 17.6603 124.047 18.6628 124.047 19.8838C124.047 21.3176 124.479 22.449 125.341 23.2778C126.156 24.0732 127.207 24.4708 128.496 24.4708C129.299 24.4708 130.007 24.3085 130.622 23.9836C131.236 23.6475 131.916 23.0594 132.66 22.2193L135.424 24.7397C134.302 25.9158 133.203 26.7616 132.129 27.2768C131.053 27.7809 129.836 28.0329 128.478 28.0329C125.843 28.0329 123.693 27.148 122.028 25.3782C120.586 23.8324 119.866 22.0065 119.866 19.9006C119.866 17.4363 120.804 15.4032 122.683 13.8014C124.278 12.446 126.21 11.7683 128.478 11.7683C129.801 11.7683 130.989 12.0147 132.04 12.5076C133.103 12.9893 134.196 13.8014 135.319 14.9439L132.571 17.4643Z" fill="#999999" fill-opacity="0.72"/>
<path d="M143.489 11.7683C145.958 11.7683 148.032 12.6532 149.709 14.423C151.163 15.9577 151.888 17.7779 151.888 19.8838C151.888 22.3481 150.95 24.3812 149.071 25.9831C147.476 27.3496 145.569 28.0329 143.348 28.0329C140.76 28.0329 138.628 27.148 136.95 25.3782C135.508 23.8435 134.788 21.9953 134.788 19.8334C134.788 17.4251 135.727 15.42 137.606 13.8181C139.2 12.4516 141.161 11.7683 143.489 11.7683ZM143.259 15.3303C141.888 15.3303 140.778 15.8456 139.927 16.8762C139.29 17.6603 138.97 18.6628 138.97 19.8838C138.97 21.3176 139.402 22.449 140.264 23.2778C141.091 24.0732 142.118 24.4708 143.348 24.4708C144.777 24.4708 145.911 23.95 146.749 22.9082C147.388 22.1241 147.707 21.1159 147.707 19.8838C147.707 18.4612 147.276 17.3355 146.413 16.5065C145.598 15.7224 144.547 15.3303 143.259 15.3303Z" fill="#999999" fill-opacity="0.72"/>
<path d="M157.384 12.2723V27.5288H153.255V12.2723H157.384Z" fill="#999999" fill-opacity="0.72"/>
<path d="M163.943 13.0788C165.089 12.2052 166.335 11.7683 167.681 11.7683C168.627 11.7683 169.542 11.9475 170.428 12.3059C171.314 12.6644 172.065 13.1628 172.679 13.8014C173.305 14.4286 173.754 15.1792 174.025 16.0529C174.309 16.9266 174.451 18.0187 174.451 19.3293V27.5288H170.321V19.5814C170.321 17.8676 170.056 16.725 169.524 16.1537C169.004 15.6048 168.29 15.3303 167.38 15.3303C166.187 15.3303 165.289 15.6832 164.687 16.3889C164.19 16.9714 163.943 18.1419 163.943 19.9006V27.5288H159.813V12.2723H163.943V13.0788Z" fill="#999999" fill-opacity="0.72"/>
<path d="M187.832 15.3808L184.625 16.893C184.152 16.2657 183.744 15.8401 183.402 15.616C183.059 15.3808 182.651 15.2632 182.179 15.2632C181.671 15.2632 181.264 15.3752 180.956 15.5992C180.661 15.8233 180.513 16.1201 180.513 16.4897C180.513 16.8258 180.619 17.0722 180.832 17.229C181.056 17.3859 181.629 17.6323 182.551 17.9683L184.022 18.4892C185.061 18.87 185.895 19.3069 186.521 19.7998C187.478 20.5503 187.956 21.5584 187.956 22.8242C187.956 24.3588 187.318 25.6358 186.042 26.6551C184.92 27.5737 183.55 28.0329 181.93 28.0329C179.781 28.0329 178.103 27.2544 176.898 25.6974C176.473 25.1485 176.053 24.3476 175.64 23.2947L179.007 22.0177C179.515 22.9699 179.975 23.6251 180.389 23.9836C180.815 24.3308 181.334 24.5044 181.949 24.5044C182.516 24.5044 182.971 24.3588 183.313 24.0676C183.656 23.7763 183.827 23.3955 183.827 22.9251C183.827 22.6002 183.702 22.3481 183.455 22.1689C183.207 21.9784 182.646 21.7264 181.772 21.4129L180.141 20.8247C177.743 19.951 176.544 18.5396 176.544 16.5905C176.544 15.1231 177.14 13.9302 178.333 13.0117C179.433 12.1827 180.726 11.7683 182.214 11.7683C183.478 11.7683 184.553 12.0539 185.44 12.6252C186.338 13.1965 187.135 14.115 187.832 15.3808Z" fill="#999999" fill-opacity="0.72"/>
</g>
</g>
</svg>
