<svg width="159" height="39" viewBox="0 0 159 39" fill="none" xmlns="http://www.w3.org/2000/svg">
<mask id="mask0_405_13992" style="mask-type:luminance" maskUnits="userSpaceOnUse" x="0" y="0" width="159" height="39">
<path d="M158.723 0.133423H0.723389V38.1071H158.723V0.133423Z" fill="white"/>
</mask>
<g mask="url(#mask0_405_13992)">
<path fill-rule="evenodd" clip-rule="evenodd" d="M0.794251 26.8139C0.829683 27.3028 0.865115 27.7915 0.865115 28.2453V28.3152H1.43202C1.60917 28.0709 1.7509 27.8438 1.89262 27.6169C2.03435 27.39 2.17608 27.1631 2.35323 26.9187C4.84798 23.4 7.41026 19.848 9.94682 16.3318C11.0848 14.7541 12.2177 13.1837 13.3369 11.6267C13.5495 11.4173 14.0456 11.0681 14.0456 11.0681H20.565C15.6754 17.8413 10.8568 24.5445 6.10896 31.1781C6.10896 31.2479 6.25068 31.3876 6.25068 31.3876C7.5519 32.0916 8.86231 32.8136 10.1819 33.5407L10.1835 33.5415C12.5283 34.8336 14.9023 36.1417 17.3053 37.3927C17.6596 37.6022 18.3682 37.6022 18.7226 37.3927C21.7543 35.6428 24.8125 33.9191 27.8811 32.1897C29.8331 31.0895 31.7893 29.9869 33.7454 28.8739C34.3123 28.5247 34.6666 27.9661 34.6666 27.2678C34.6887 26.7037 34.7175 26.1262 34.7468 25.5393C34.8119 24.2374 34.8792 22.8897 34.8792 21.5421C34.8555 20.4198 34.8397 19.2896 34.8239 18.1569C34.7925 15.9069 34.7609 13.6466 34.6666 11.4173C34.6666 10.7189 34.5958 10.1603 34.454 9.32244C34.1707 9.67155 34.0998 9.74139 33.9581 9.88103C31.1944 13.8089 28.311 17.8546 25.4277 21.9002C24.4667 23.2486 23.5057 24.5971 22.5491 25.9412C22.1948 26.4299 21.8405 26.6394 21.2735 26.6394H16.0298C15.9234 26.6394 15.7995 26.6045 15.6754 26.5696C15.5514 26.5347 15.4274 26.4997 15.3212 26.4997C19.3704 20.7231 23.4712 14.9972 27.5356 9.32224L27.538 9.31889L27.5488 9.30381L27.5578 9.29114L27.5791 9.26147L27.5905 9.24563L27.5967 9.23688C28.2775 8.2864 28.9572 7.33736 29.6354 6.38973C29.5488 6.30448 29.4975 6.2308 29.4576 6.17339C29.3994 6.08972 29.3651 6.0406 29.2811 6.0406C28.0764 5.38889 26.8718 4.72166 25.6671 4.05443C23.2578 2.71997 20.8484 1.38551 18.4391 0.175184C17.943 0.105358 17.3053 0.105358 16.8092 0.314837C14.7138 1.45199 12.6182 2.62763 10.5228 3.80326C7.72877 5.37078 4.93466 6.93837 2.14065 8.41469C1.0777 9.04314 0.723389 9.81122 0.723389 10.8586V25.3825C0.723389 25.8364 0.75882 26.3252 0.794251 26.8139ZM130.047 22.729C130.118 20.6343 129.339 19.1679 127.355 18.33C127.377 18.3194 127.396 18.3105 127.415 18.3024C127.429 18.2961 127.443 18.2904 127.457 18.2848C127.54 18.2502 127.606 18.2227 127.709 18.1205C129.269 17.2825 129.835 15.8162 129.481 14.2102C129.126 12.6741 127.922 11.7663 126.434 11.5568C125.351 11.3343 124.18 11.3103 122.997 11.2861C122.324 11.2722 121.646 11.2584 120.978 11.2077H117.363C117.222 11.4869 117.222 11.6965 117.222 11.6965V25.5919C117.222 26.2902 117.576 26.2902 118.072 26.2902H124.237C125.159 26.2902 125.937 26.2902 126.788 26.0807C128.56 25.5919 129.906 24.1954 130.047 22.729ZM122.319 23.3191C121.83 23.3035 121.337 23.2876 120.835 23.2876C120.835 22.2635 120.838 21.2379 120.978 20.1454C122.395 20.1454 123.882 20.2152 125.3 20.3549C126.079 20.4247 126.576 20.9833 126.576 21.8213C126.434 22.5894 125.867 23.1479 125.159 23.2876C124.219 23.3802 123.279 23.35 122.319 23.3191ZM122.112 17.2437C121.686 17.2283 121.261 17.2128 120.835 17.2128H120.764V14.2102C121.192 14.2102 121.628 14.1945 122.061 14.1789C122.92 14.148 123.767 14.1174 124.52 14.2102C125.229 14.3498 125.937 14.699 125.937 15.6068C125.937 16.5144 125.583 17.0731 124.662 17.2128C123.812 17.3058 122.961 17.2748 122.112 17.2437ZM88.1683 11.3476C88.806 13.3725 89.4261 15.38 90.0461 17.3875C90.6662 19.395 91.2862 21.4026 91.9241 23.4275H92.1367C92.7744 21.4026 93.3944 19.395 94.0145 17.3875L94.0156 17.3836C94.6353 15.3775 95.255 13.3713 95.8923 11.3476H98.089C97.5978 12.7352 97.1368 14.1229 96.6781 15.5037C96.1443 17.1105 95.6137 18.7081 95.042 20.2853C94.834 20.9258 94.607 21.5567 94.3783 22.1921C93.9838 23.2887 93.5845 24.3984 93.2705 25.5921C93.088 26.4907 92.4361 26.4642 91.807 26.4385C91.703 26.4343 91.5994 26.43 91.4988 26.43C90.932 26.43 90.5776 26.2205 90.4359 25.5921C89.373 21.8913 88.2392 18.3302 86.9636 14.3501C86.4676 15.607 86.1133 16.794 85.8298 17.7716C85.4046 19.0983 84.9972 20.39 84.5897 21.6818C84.1823 22.9737 83.7748 24.2654 83.3496 25.5921C83.2079 26.1507 82.8536 26.43 82.2867 26.43C82.1107 26.3867 81.9074 26.4039 81.7043 26.4211C81.2532 26.4592 80.8034 26.4973 80.6568 25.8715C79.8422 23.4631 79.0629 21.0722 78.2836 18.6813L78.2829 18.6794L78.2823 18.6775C77.5031 16.2868 76.7236 13.8954 75.909 11.4872C75.992 11.4872 76.0265 11.4393 76.0549 11.3996C76.0751 11.3715 76.0923 11.3476 76.1216 11.3476C78.1057 11.2079 78.2475 11.2079 78.8144 13.0932C78.9412 13.4929 79.0679 13.8915 79.1944 14.2894L79.1951 14.2916C80.1293 17.2299 81.0504 20.1271 81.8615 23.0784C81.8615 23.145 81.8937 23.1958 81.9352 23.2609C81.9806 23.3324 82.0371 23.4211 82.0741 23.5672C82.662 21.5976 83.2715 19.6707 83.8788 17.7511C84.3695 16.2 84.8588 14.6534 85.3338 13.0932C85.4616 12.747 85.5556 12.4655 85.6321 12.237C85.8027 11.7269 85.885 11.4809 86.0553 11.3699C86.2139 11.2666 86.449 11.2804 86.9029 11.3073C87.1966 11.3248 87.5818 11.3476 88.0974 11.3476H88.1683ZM157.542 22.5896C157.223 22.2405 156.905 21.8913 156.55 21.5422C153.149 23.8464 151.023 23.8464 149.181 21.6818C147.764 20.006 147.906 17.213 149.393 15.607C150.102 14.769 151.023 14.35 152.086 14.2105C153.858 13.9311 155.275 14.769 156.55 16.0259C156.714 15.8335 156.876 15.6447 157.037 15.458C157.577 14.8315 158.099 14.2274 158.535 13.582C155.558 10.2303 149.961 10.1605 146.843 13.2328C143.795 16.3751 143.795 21.6818 147.551 24.7542C150.811 27.4076 155.771 26.9886 158.535 23.637C158.181 23.2878 157.862 22.9387 157.542 22.5896ZM48.7684 15.1182V26.2905H46.6425V11.4175C48.0598 11.0683 48.981 11.4175 49.7605 12.5347C51.2421 14.7012 52.8528 16.8676 54.5271 19.1198C55.3352 20.2066 56.1581 21.3136 56.9885 22.45V11.2778H59.1143V26.0809C57.6263 26.5698 57.2719 26.2905 56.4216 25.1733C56.0301 24.6442 55.6404 24.1186 55.2524 23.5954C53.1826 20.8041 51.1629 18.0805 49.1936 15.2579C49.126 15.2579 49.0745 15.2261 49.0084 15.1853C48.9359 15.1405 48.8458 15.0849 48.6975 15.0485L48.7684 15.1182ZM65.421 19.7265H72.6491L72.5782 19.6566C72.5782 18.9584 72.5782 18.33 72.7199 17.492H65.4919V13.0231H73.6411V11.2077H63.2952V26.1505H73.7829V24.1954H65.421V19.7265ZM143.937 11.2079L144.079 11.4174C144.22 13.3259 143.322 14.2803 141.385 14.2803H139.615V26.1507H136.142V14.2803H132.528C131.678 14.2803 131.465 14.0708 131.465 13.2328C131.465 11.8363 132.173 11.138 133.591 11.138H143.937V11.2079ZM99.5174 23.299C99.3995 23.5149 99.2757 23.7421 99.1517 23.9861H99.0101C101.136 25.9413 103.616 26.7094 106.38 26.4999C108.08 26.2904 109.64 25.4525 110.206 23.8465C111.057 21.5423 110.561 19.5871 107.656 18.4699C106.947 18.1906 106.256 17.9287 105.565 17.6669C104.874 17.4051 104.183 17.1432 103.475 16.8639C102.624 16.5148 102.199 15.8863 102.411 15.0484C102.624 14.4897 103.191 14.001 103.687 13.6518C104.041 13.4424 104.608 13.3027 105.104 13.4424C106.008 13.5759 106.911 13.8227 107.832 14.0747C108.356 14.2181 108.887 14.3631 109.427 14.4897C109.588 14.2109 109.727 13.9094 109.882 13.5721C109.999 13.3182 110.125 13.0441 110.277 12.7441C108.08 11.4872 105.742 10.9286 103.191 11.6269C101.349 12.0459 100.215 13.3027 100.073 14.6992C99.8604 17.1432 100.782 18.2604 102.766 19.0983C103.245 19.2651 103.736 19.4207 104.233 19.5785C104.986 19.8172 105.753 20.0609 106.522 20.3552C107.301 20.7043 108.009 21.1233 108.151 22.1707C108.293 23.2879 107.301 24.1956 105.813 24.3353C103.545 24.475 101.703 23.6371 100.073 22.1707C99.9348 22.534 99.7365 22.8973 99.5174 23.299Z" fill="#999999" fill-opacity="0.72"/>
</g>
</svg>
