<svg width="126" height="31" viewBox="0 0 126 31" fill="none" xmlns="http://www.w3.org/2000/svg">
<mask id="mask0_405_13973" style="mask-type:luminance" maskUnits="userSpaceOnUse" x="0" y="0" width="126" height="31">
<path d="M125.723 0.120239H0.723389V30.1202H125.723V0.120239Z" fill="white"/>
</mask>
<g mask="url(#mask0_405_13973)">
<mask id="mask1_405_13973" style="mask-type:luminance" maskUnits="userSpaceOnUse" x="0" y="0" width="126" height="31">
<path d="M125.723 0.120239H0.723389V30.1202H125.723V0.120239Z" fill="white"/>
</mask>
<g mask="url(#mask1_405_13973)">
<mask id="mask2_405_13973" style="mask-type:luminance" maskUnits="userSpaceOnUse" x="0" y="0" width="126" height="30">
<path d="M125.285 0.865479H0.723389V29.375H125.285V0.865479Z" fill="white"/>
</mask>
<g mask="url(#mask2_405_13973)">
<path d="M20.6756 8.22366H20.0723L19.0902 6.80544C17.4314 4.42866 16.1863 3.66261 12.83 3.66261H12.3776C10.7188 3.66261 9.58585 3.85511 8.68104 4.04368V14.8511L11.2099 14.7764C15.1694 14.6625 15.8847 14.0496 16.225 11.7868L16.3758 10.7536H17.0563C17.0563 11.5589 16.9828 13.9711 16.9828 15.3893C16.9828 16.8468 17.0563 19.2196 17.0563 20.025H16.3758L16.2636 19.2982C15.8847 16.9214 15.2815 16.1946 11.2099 16.0807L8.68104 16.0021V22.3232C8.68104 27.1121 9.09478 27.6857 11.5115 28.11L12.8687 28.3378V28.9114C12.1533 28.9114 7.9657 28.8367 6.56983 28.8367C5.17395 28.8367 1.51606 28.9153 0.723389 28.9153V28.3417L2.04193 28.1139C3.89021 27.8075 4.23048 26.8489 4.23048 22.3271V9.21758C4.23048 4.69581 3.89021 3.73725 2.04193 3.43082L0.723389 3.20296V2.62939C1.51606 2.62939 6.49249 2.70797 7.88837 2.70797C9.28425 2.70797 15.6952 2.66868 16.4492 2.66868H19.5426L20.6756 8.22366Z" fill="#999999" fill-opacity="0.72"/>
<path d="M30.7058 28.9154C29.801 28.9154 27.7246 28.8761 26.1045 28.8761C24.4457 28.8761 22.2184 28.9154 21.3523 28.9154V28.3419L22.0677 28.2279C23.6143 27.9961 23.916 27.4226 23.916 23.7454V15.7705C23.916 13.7787 23.6143 13.2012 22.2571 12.5883L21.3137 12.168V11.7083L27.6125 10.3294L28.1036 10.6358V23.7415C28.1036 27.4186 28.4052 27.9569 29.9905 28.224L30.7058 28.3379V28.9154ZM25.6521 7.18657C24.1441 7.18657 23.0112 6.11407 23.0112 4.65658C23.0112 3.23837 24.1441 2.12659 25.6521 2.12659C27.1988 2.12659 28.3317 3.23837 28.3317 4.65658C28.3279 6.11407 27.1988 7.18657 25.6521 7.18657Z" fill="#999999" fill-opacity="0.72"/>
<path d="M52.4289 28.9155C51.5975 28.9155 49.4476 28.8762 47.8275 28.8762C46.2421 28.8762 44.0922 28.9155 43.1874 28.9155V28.3419L43.7907 28.228C45.4107 27.9216 45.7124 27.4227 45.7124 24.052V16.8077C45.7124 14.0106 44.5059 12.6316 42.3947 12.6316C40.9254 12.6316 39.6803 13.2052 38.586 14.0498V24.052C38.586 27.4227 38.849 27.9216 40.5078 28.228L41.111 28.3419V28.9155C40.2062 28.9155 38.095 28.8762 36.471 28.8762C34.847 28.8762 32.701 28.9155 31.8309 28.9155V28.3419L32.5463 28.228C34.0542 27.9962 34.3559 27.4227 34.3559 23.7455V15.7313C34.3559 13.7395 34.0157 13.2013 32.6971 12.5491L31.7922 12.0895V11.6691L38.0912 10.2509L38.5822 10.5966V13.1659C40.5813 11.4413 42.4295 10.2902 44.7689 10.2902C48.1252 10.2902 49.9348 12.1288 49.9348 15.9984V23.7377C49.9348 27.4934 50.2364 27.953 51.7831 28.2202L52.4249 28.3341V28.9155H52.4289Z" fill="#999999" fill-opacity="0.72"/>
<path d="M62.4591 29.0685C60.2707 29.0685 58.3489 28.5303 57.0265 27.9568L55.5185 29.375H55.066V6.34582C55.066 4.35404 54.7258 3.78047 53.4459 3.16369L52.5024 2.70404V2.28369L58.7974 0.865479L59.2885 1.21119V12.8986C60.9086 11.3272 62.3432 10.294 64.8333 10.294C69.2066 10.294 72.1491 13.8572 72.1491 18.7246C72.1491 25.2343 68.0389 29.0685 62.4591 29.0685ZM62.3432 12.6668C61.0594 12.6668 60.2706 12.9732 59.2885 13.7V22.8182C59.2885 26.3814 60.9086 28.0668 63.3253 28.0668C66.2679 28.0668 68.1161 25.69 68.1161 21.2075C68.1161 16.0768 65.7768 12.6668 62.3432 12.6668Z" fill="#999999" fill-opacity="0.72"/>
<path d="M83.7257 29.2964C78.4825 29.2964 74.6003 25.9257 74.6003 19.6007C74.6003 14.2736 78.3703 10.1761 83.7644 10.1761C88.9689 10.1761 92.8898 13.5468 92.8898 19.8718C92.8898 25.1989 89.0811 29.2964 83.7257 29.2964ZM83.2347 11.1347C80.671 11.1347 79.1978 13.1265 79.1978 18.5282C79.1978 24.4682 81.0848 28.3378 84.2129 28.3378C86.8152 28.3378 88.2498 26.3461 88.2498 20.9443C88.2536 15.0043 86.4054 11.1347 83.2347 11.1347Z" fill="#999999" fill-opacity="0.72"/>
<path d="M103.903 28.9153C103.036 28.9153 100.96 28.876 99.3395 28.876C97.6807 28.876 95.4534 28.9153 94.5873 28.9153V28.3418L95.3026 28.2278C96.8107 27.996 97.1123 27.4225 97.1123 23.7453V6.34582C97.1123 4.35404 96.772 3.78047 95.4921 3.16369L94.5486 2.70404V2.28369L100.847 0.865479L101.339 1.21119V23.7414C101.339 27.4185 101.64 27.996 103.187 28.2239L103.903 28.3378V28.9153Z" fill="#999999" fill-opacity="0.72"/>
<path d="M125.285 28.9153C123.738 28.9153 120.46 28.9153 118.874 28.9939L118.533 26.5818C116.913 28.1532 115.518 29.1864 113.027 29.1864C108.654 29.1864 105.673 25.6232 105.673 20.7557C105.673 14.2422 109.783 10.4079 115.401 10.4079C116.608 10.4079 117.703 10.5218 118.533 10.7143V6.49903C118.533 4.50725 118.12 3.85511 116.724 3.16369L115.819 2.70404V2.28369L122.269 0.865479L122.76 1.21119V23.7414C122.76 27.4971 123.062 27.9568 124.647 28.2239L125.288 28.3378V28.9153H125.285ZM118.533 16.6543C118.533 13.0911 116.949 11.3664 114.535 11.3664C111.593 11.3664 109.745 13.7786 109.745 18.265C109.745 23.3996 112.084 26.8096 115.514 26.8096C116.759 26.8096 117.586 26.5032 118.529 25.7764V16.6543H118.533Z" fill="#999999" fill-opacity="0.72"/>
</g>
</g>
</g>
</svg>
