<svg width="272" height="523" viewBox="0 0 272 523" fill="none" xmlns="http://www.w3.org/2000/svg">
<path d="M-142.24 297.94C-146.792 303.628 -146.894 311.093 -142.472 314.616L-8.8356 421.08C-4.41861 424.603 2.8558 422.844 7.40741 417.16L167.802 216.625C172.355 210.937 172.457 203.472 168.035 199.949L34.3984 93.4847C29.9766 89.9618 22.7079 91.7168 18.1554 97.4053L-142.244 297.939L-142.24 297.94Z" fill="url(#paint0_linear_1_33749)"/>
<path d="M-141.158 299.587C-145.616 305.162 -145.723 312.482 -141.389 315.936L-10.3756 420.313C-6.04143 423.767 1.08784 422.043 5.54645 416.467L162.806 219.867C167.27 214.288 167.367 206.971 163.038 203.518L32.0241 99.1405C27.6898 95.687 20.5606 97.411 16.102 102.986L-141.153 299.588L-141.158 299.587Z" fill="white"/>
<path d="M124.104 214.38L142.023 204.591L142.482 204.954L137.075 224.458C136.596 226.169 136.405 227.402 136.521 228.175C136.572 228.56 136.915 229.105 137.553 229.83L137.166 230.309L131.593 225.866L131.981 225.386C132.883 226.007 133.546 226.314 133.963 226.313C134.386 226.313 134.701 226.179 134.916 225.91C135.188 225.573 135.451 224.943 135.7 224.018L136.727 220.271L129.871 214.812L126.768 216.5C125.757 217.049 125.099 217.515 124.794 217.892C124.563 218.177 124.492 218.522 124.58 218.92C124.669 219.318 125.053 219.811 125.731 220.413L125.344 220.893L118.356 215.327L118.743 214.848C119.498 215.378 120.223 215.631 120.91 215.604C121.598 215.578 122.663 215.168 124.104 214.38ZM137.095 218.99L139.723 209.394L131.006 214.141L137.089 218.989L137.095 218.99Z" fill="url(#paint1_linear_1_33749)"/>
<path d="M122.575 239.311C120.933 237.909 119.528 238.278 119.514 238.121C119.502 237.959 121.946 238.448 123.943 236.114C125.691 234.074 125.446 231.005 123.402 229.26C121.358 227.515 118.283 227.759 116.537 229.795C114.558 232.108 115.388 234.46 115.214 234.472C115.045 234.485 115.169 232.992 113.588 231.642C111.544 229.897 108.465 230.139 106.721 232.181C106.718 232.186 106.713 232.195 106.71 232.2C106.708 232.204 106.701 232.206 106.698 232.211C106.49 232.455 106.31 232.714 106.164 232.986C105.061 234.965 105.468 237.507 107.261 239.035C109.305 240.78 112.382 240.543 114.129 238.496C114.218 238.39 114.298 238.279 114.38 238.174C114.463 238.412 114.544 238.708 114.695 238.954C113.229 240.391 109.388 244.011 107.757 244.194L111.074 247.023C110.998 245.383 113.992 241.023 115.177 239.359C115.438 239.462 115.755 239.495 116.007 239.538C115.904 239.637 115.806 239.738 115.714 239.849C113.963 241.893 114.203 244.96 116.255 246.703C118.048 248.231 120.624 248.236 122.414 246.842C122.657 246.653 122.885 246.438 123.1 246.193C123.1 246.193 123.105 246.184 123.108 246.179C123.11 246.174 123.115 246.165 123.118 246.161C124.866 244.121 124.629 241.05 122.582 239.309L122.575 239.311Z" fill="url(#paint2_linear_1_33749)"/>
<path d="M-69.8573 289.337C-69.7645 288.794 -69.6928 288.236 -69.5821 287.689C-68.9782 284.381 -68.8129 280.898 -67.6747 277.786C-65.8486 272.763 -63.4103 267.957 -61.149 263.092C-59.3785 259.261 -58.6772 255.335 -59.5266 251.157C-59.9602 249.07 -60.2618 246.948 -60.6241 244.847L-60.6136 244.854C-60.2231 245.169 -59.7217 245.434 -59.4785 245.85C-57.5643 249.154 -55.314 252.331 -53.9148 255.842C-52.1684 260.23 -49.5924 263.77 -45.8314 266.487C-44.4156 267.503 -42.8257 268.266 -41.3083 269.134C-41.2073 269.032 -41.103 268.948 -41.002 268.846C-42.1842 266.105 -43.3591 263.354 -44.5519 260.607C-42.0594 263.497 -39.5596 266.378 -37.4451 268.823C-38.3247 266.321 -39.7111 263.425 -42.4059 261.283C-43.4227 260.477 -44.3683 259.409 -44.9606 258.256C-46.3706 255.531 -47.5515 252.698 -48.8256 249.91C-48.8699 249.771 -48.9142 249.631 -48.9407 249.489L-48.9552 249.51C-48.822 249.134 -48.593 248.777 -48.5556 248.382C-48.056 243.867 -46.2089 239.902 -42.7797 237.004C-40.4442 235.024 -38.3287 233.001 -36.9461 229.963C-36.5178 230.63 -36.1788 231.065 -35.9329 231.545C-33.4302 236.279 -32.5671 241.277 -33.6144 246.568C-34.0498 248.746 -33.7687 250.806 -32.3163 252.518C-31.2035 253.84 -30.0524 255.221 -28.6393 256.173C-25.4254 258.328 -22.129 260.431 -18.6927 262.194C-15.2353 263.971 -12.5171 266.487 -10.1071 269.43C-8.89321 270.9 -7.67204 272.359 -6.31474 274.005C-4.3853 268.446 -3.62008 262.976 -5.13582 257.594C-6.16329 253.948 -8.01879 250.513 -9.75012 247.1C-12.7077 241.306 -14.2739 235.454 -11.2961 229.18C-10.6186 227.761 -9.8209 226.392 -9.06878 224.977C-6.90803 227.423 -5.12844 229.654 -3.10726 231.646C-0.815853 233.9 1.91187 235.722 5.21456 235.821C7.62503 235.885 10.0761 235.322 12.4963 234.94C18.6731 233.972 24.6485 234.205 30.0985 237.721C30.47 238.38 30.8771 239.033 31.209 239.727C32.2291 241.843 33.6175 243.557 35.804 244.65C37.888 245.688 39.8263 246.985 41.8299 248.186C42.054 249.99 41.8272 251.999 42.5921 253.535C43.987 256.328 45.8361 258.933 47.7222 261.44C50.1006 264.61 49.9548 267.453 46.981 270.071C46.3223 270.647 45.6741 271.23 44.9842 271.739C43.9781 272.482 43.6973 273.504 44.0664 274.597C44.456 275.751 45.0423 276.823 45.5533 277.936C45.7087 278.276 45.8713 278.605 46.1788 279.267C43.9061 278.753 41.9769 278.35 40.0628 277.879C38.2055 277.416 36.3601 276.868 34.5141 276.366C30.8589 273.971 28.8006 270.537 28.002 266.285C27.9755 266.142 27.9384 265.992 27.9047 265.86C29.0552 262.118 28.3678 258.564 25.4933 256.299C24.7769 257.957 23.9966 259.618 23.3436 261.319C23.1115 261.907 23.0339 262.632 23.132 263.26C23.6646 266.427 25.4628 268.858 27.7739 270.97C29.5991 274.541 32.6527 276.975 35.7988 279.411C33.8525 280.506 32.0891 281.493 30.3257 282.48C29.6055 281.831 28.8708 281.203 28.1758 280.54C25.9148 278.4 23.6393 276.28 21.4212 274.122C19.3822 272.134 17.196 270.247 15.4521 268.009C12.705 264.492 11.4659 260.203 10.2367 255.967C8.93335 251.431 7.76604 246.832 3.68919 243.806C1.83739 242.428 -0.132459 241.359 -2.81725 240.812C-2.32351 241.633 -2.04257 242.152 -1.71477 242.626C0.453625 245.808 1.84417 249.174 0.921667 253.15C0.819534 253.594 0.798659 254.078 0.899267 254.52C1.96508 259.516 2.87373 264.56 4.20367 269.488C5.35098 273.73 5.04002 277.721 3.22594 281.616C2.32814 283.538 0.922319 285.159 -0.883238 286.367C-1.44702 285.467 -1.91694 284.724 -2.39349 283.947C-2.71301 284.164 -2.86684 284.229 -2.94669 284.346C-3.09186 284.558 -3.2159 284.784 -3.32211 285.007C-5.38884 289.43 -6.44175 294.095 -6.60499 298.981C-6.80261 305.073 -7.9639 310.894 -11.8874 315.85C-12.0504 316.065 -12.1328 316.367 -12.3307 316.792C-8.94281 316.902 -5.73716 317.074 -2.53686 317.118C0.681263 317.159 3.89404 317.071 7.11674 317.037C6.81518 317.5 6.52751 317.988 6.2048 318.436C2.50991 323.58 -1.17774 328.714 -4.87263 333.858L-69.8573 289.337ZM19.5094 257.462C20.1046 256.593 20.8234 255.793 21.2561 254.844C21.8174 253.594 22.1278 252.234 22.5795 250.94C23.5931 248.101 25.3515 247.733 27.5285 249.769C28.5328 250.706 29.6883 251.514 30.9031 252.143C31.3939 252.402 32.463 252.247 32.8062 251.859C33.1349 251.493 33.1184 250.361 32.7933 249.951C30.1817 246.667 27.39 243.556 23.7322 241.346C22.0602 240.341 17.838 240.904 16.6615 242.916C15.2443 245.37 15.8273 247.716 16.9332 249.797C18.209 252.196 19.358 254.509 19.5166 257.451L19.5094 257.462Z" fill="#D7A864"/>
<path d="M30.0484 237.749C24.5877 234.226 18.6229 234 12.4461 234.968C10.0259 235.35 7.58543 235.92 5.16438 235.849C1.8617 235.75 -0.866018 233.928 -3.15743 231.673C-5.1786 229.682 -6.9582 227.45 -9.11895 225.005C-9.87107 226.42 -10.6688 227.789 -11.3463 229.208C-14.3241 235.482 -12.7579 241.334 -9.8003 247.128C-8.06171 250.53 -6.21345 253.976 -5.18598 257.622C-3.65967 263.011 -4.42823 268.463 -6.36493 274.033C-7.72223 272.387 -8.94338 270.928 -10.1573 269.458C-12.5673 266.515 -15.2854 263.998 -18.7428 262.221C-22.1897 260.452 -25.4756 258.356 -28.6895 256.201C-30.1026 255.249 -31.2537 253.868 -32.3665 252.545C-33.8189 250.834 -34.0822 248.77 -33.6646 246.596C-32.6173 241.304 -33.4804 236.307 -35.9831 231.572C-36.229 231.093 -36.568 230.658 -36.9963 229.991C-38.3683 233.036 -40.4838 235.059 -42.8299 237.032C-46.2591 239.93 -48.1062 243.895 -48.6058 248.41C-48.6465 248.787 -48.8827 249.155 -49.0159 249.53C-53.0989 242.296 -54.2209 234.662 -51.8424 226.452C-52.1507 226.63 -52.2544 226.668 -52.3085 226.724C-52.4458 226.879 -52.5725 227.042 -52.6781 227.218C-56.7394 233.917 -57.6591 240.791 -53.9809 247.982C-51.5495 252.73 -48.0976 256.714 -44.5737 260.638C-43.3915 263.379 -42.2165 266.13 -41.0238 268.877C-41.1248 268.979 -41.2291 269.064 -41.3301 269.166C-42.8402 268.287 -44.4374 267.535 -45.8531 266.518C-49.6142 263.802 -52.1902 260.262 -53.9366 255.874C-55.3358 252.362 -57.5861 249.186 -59.5003 245.882C-59.7435 245.466 -60.2449 245.2 -60.6208 244.865C-60.6453 244.833 -60.6625 244.79 -60.6869 244.757C-60.6697 244.8 -60.6558 244.825 -60.6386 244.868C-60.2763 246.969 -59.9748 249.091 -59.5411 251.178C-58.6917 255.357 -59.393 259.282 -61.1635 263.113C-63.4143 267.985 -65.8526 272.791 -67.6892 277.807C-68.8275 280.92 -69.0033 284.395 -69.5966 287.71C-69.6967 288.264 -69.7717 288.804 -69.8718 289.358L-99.5525 269.024C-98.6281 267.494 -97.6118 266.01 -96.7825 264.414C-94.9775 260.918 -93.006 257.474 -91.5795 253.827C-89.6405 248.866 -87.0256 244.414 -83.1523 240.778C-81.0156 238.77 -78.6966 236.95 -76.5519 235.134C-75.9106 237.893 -75.3658 240.43 -74.7496 242.954C-73.7662 246.96 -72.7009 250.959 -71.7426 254.978C-71.4971 256.003 -71.4622 257.085 -71.3414 258.133C-72.1957 259.992 -73.0889 261.84 -73.883 263.725C-75.7207 268.039 -76.2828 272.963 -75.3434 276.035C-75.2748 275.958 -75.1566 275.899 -75.1448 275.813C-75.0895 275.415 -75.0375 274.999 -75.0107 274.597C-74.8065 270.876 -73.6856 267.472 -71.5026 264.421C-70.9298 263.631 -70.3887 262.818 -69.8265 262.02C-66.4735 257.171 -65.0108 251.93 -66.1173 246.019C-66.8259 242.202 -67.2136 238.324 -67.7545 234.467C-66.8113 233.385 -65.9838 232.177 -64.9217 231.239C-57.0006 224.21 -47.7092 220.986 -37.1513 221.353C-33.4187 221.482 -29.6701 221.746 -25.9708 221.447C-20.3986 220.998 -15.2491 219.217 -11.3305 214.88C-10.9695 214.489 -10.5206 214.174 -10.2724 213.971C-6.91113 216.273 -3.84175 218.594 -0.553954 220.551C1.70727 221.898 4.14869 223.072 6.96121 222.866C7.55224 222.819 8.18238 223.033 8.76692 223.2C13.107 224.414 16.9351 226.648 20.6353 229.136C22.7175 231.605 25.2808 233.486 27.9378 235.275C28.794 235.862 29.3413 236.922 30.0305 237.752L30.0484 237.749ZM-15.7807 255.019C-14.4448 256.152 -13.1017 257.274 -11.7763 258.4C-11.672 258.316 -11.5856 258.235 -11.4813 258.151C-12.8425 256.533 -14.0665 254.761 -15.5901 253.312C-17.9317 251.085 -18.6264 248.585 -18.1096 245.405C-17.6514 242.606 -17.4693 239.71 -17.6722 236.878C-17.8825 233.807 -18.6838 230.782 -19.2388 227.693C-21.3393 228.107 -20.247 229.369 -20.2914 230.273C-21.462 229.533 -22.4631 228.364 -24.2295 228.789C-24.1585 229.32 -24.1121 229.819 -24.0121 230.308C-23.1247 235.088 -22.8218 239.702 -26.2967 243.844C-27.7394 245.565 -27.224 248.689 -25.2884 249.922C-22.2562 251.843 -18.9693 253.348 -15.8058 255.033L-15.7807 255.019Z" fill="#CB8E34"/>
<path d="M30.0484 237.749C29.3664 236.908 28.819 235.848 27.9556 235.272C25.288 233.475 22.7425 231.591 20.6425 229.125C20.2725 228.623 19.9967 227.982 19.5072 227.631C16.7107 225.638 13.8417 223.75 11.0597 221.735C8.8657 220.154 6.54629 218.643 4.67704 216.724C1.23324 213.181 -1.90428 209.351 -5.31523 205.488C-5.30797 205.477 -5.69028 205.605 -6.0098 205.822C-9.31859 207.976 -12.7285 209.984 -15.8978 212.343C-19.3979 214.958 -23.1252 216.25 -27.5018 215.883C-37.9886 215.004 -47.9735 216.928 -57.617 221.188C-69.0927 226.264 -79.996 232.385 -90.8133 238.721C-99.8738 244.035 -107.057 251.164 -112.479 260.122L-116.792 257.167C-115.103 255.179 -113.468 253.155 -111.734 251.213C-104.784 243.426 -96.5793 237.231 -87.3587 232.432C-76.5727 226.822 -65.7623 221.244 -54.2716 217.144C-46.6229 214.413 -38.8008 212.766 -30.6222 213.138C-28.8451 213.219 -27.0363 213.072 -25.246 212.976C-21.2884 212.776 -17.795 211.417 -14.6455 208.951C-11.9456 206.846 -9.05002 205 -6.21332 203.036C-7.34916 200.545 -8.68979 197.945 -9.70159 195.228C-10.4323 193.28 -10.8944 191.188 -11.1292 189.128C-11.2718 187.863 -10.9998 186.445 -10.5494 185.244C-9.68878 182.922 -7.96728 181.361 -5.37966 181.733C-0.989023 182.375 3.37729 183.233 7.71787 184.152C9.81023 184.589 11.8559 185.321 13.8691 186.077C14.9801 186.496 15.4733 186.32 15.9615 185.222C17.4449 181.833 19.1405 178.542 20.585 175.141C22.1542 171.468 24.8982 169.004 28.4226 167.464C31.1705 166.264 34.0976 165.483 36.9527 164.512C37.2518 164.483 37.5331 164.458 37.8323 164.429C44.1275 163.9 49.5579 166.266 54.7786 169.391C62.9132 174.248 70.5409 179.754 76.6065 187.132C78.0861 188.94 79.2884 190.993 80.5019 193.008C82.2548 195.89 82.5601 199.026 81.517 202.204C78.1141 212.499 73.7044 222.29 67.0765 230.967C65.5263 233.003 65.4945 232.982 62.8413 233.499C65.3155 237.981 65.1398 242.998 65.9163 247.827C66.119 249.118 65.8527 250.119 64.7675 250.932C64.3938 251.206 64.1623 251.748 64.0173 252.209C62.7849 255.957 60.9244 259.353 58.5763 262.508C58.1559 263.077 57.9689 264.007 58.0623 264.709C58.633 268.728 59.4533 272.699 59.9137 276.72C60.1041 278.392 59.9789 280.252 59.4203 281.815C58.4437 284.556 56.0457 285.653 53.2742 285.981C48.2337 286.56 43.6631 285.297 39.748 282.147C37.8625 280.638 36.4295 280.87 34.6095 282.099C31.8487 283.975 29.7088 286.214 28.6149 289.466C27.4207 293.023 25.1901 295.916 22.6834 298.713C20.4149 301.254 18.5184 304.158 16.6543 307.038C14.1758 310.882 12.029 314.923 9.50826 318.738C7.53588 321.73 5.16184 324.447 3.08376 327.367C1.1799 330.033 -0.554851 332.815 -2.3669 335.528L-4.90368 333.79C-1.20879 328.646 2.48941 323.52 6.17373 318.368C6.48587 317.913 6.78412 317.432 7.08568 316.969C8.86016 314.402 10.737 311.889 12.3847 309.235C14.9667 305.103 17.0677 300.517 20.8732 297.411C24.053 294.81 25.7122 291.572 27.0219 287.892C27.6101 286.24 28.6514 284.743 29.4946 283.172C29.6061 283.077 29.7177 282.982 29.8398 282.895C29.995 282.736 30.1322 282.581 30.2874 282.423C32.0508 281.436 33.8142 280.449 35.7604 279.353C32.6071 276.928 29.5608 274.483 27.7356 270.913C27.4743 270.002 27.2129 269.092 26.9622 268.188C26.8252 267.549 26.7416 266.9 26.5438 266.282C25.9333 264.385 25.9826 262.613 27.4406 261.074C27.4745 261.455 27.4978 261.829 27.5317 262.211C27.6432 263.408 27.7548 264.605 27.8664 265.803C27.8928 265.945 27.9299 266.095 27.9637 266.227C28.7623 270.48 30.8133 273.925 34.4757 276.309C38.6452 279.586 42.5665 283.315 48.254 283.538C48.1965 282.284 48.1405 281.187 48.0739 280.083C48.5529 279.383 49.1239 278.731 49.4616 277.966C49.612 277.634 49.3864 276.965 49.1023 276.677C48.9411 276.504 48.2802 276.721 47.915 276.891C47.3994 277.145 46.9353 277.528 46.4435 277.86C45.7804 276.425 45.1173 274.99 46.0424 273.413C48.0126 271.353 50.0844 271.73 52.1628 273.185C53.9452 274.437 55.6767 275.763 57.4301 277.058C57.7525 277.403 58.0856 277.756 58.4153 278.091C58.5189 278.053 58.612 278.008 58.7229 277.959C58.6274 277.147 58.5286 276.316 58.4331 275.503C58.3979 275.215 58.3555 274.936 58.331 274.655L58.3521 274.669C58.2919 274.395 58.2356 274.091 58.1826 273.806L58.1787 273.834C58.1594 273.681 58.1224 273.531 58.1031 273.378L58.1243 273.392C57.642 270.446 57.1703 267.508 56.688 264.562L56.6985 264.569C56.6542 264.43 56.6172 264.28 56.5874 264.119C56.3018 262.382 56.0163 260.646 55.7665 258.902C55.7181 258.542 55.505 257.742 56.3744 258.4C56.6477 259.475 56.9138 260.56 57.2916 262.049C58.6635 260.046 59.7379 258.478 60.8122 256.91C60.985 256.499 61.1505 256.098 61.2277 255.918C59.6823 255.793 58.201 255.666 56.6661 255.548C58.3606 251.556 58.529 251.469 62.5529 252.918C62.9926 251.46 63.4251 250.013 63.8754 248.562C63.969 248.221 64.1267 247.878 64.1456 247.533C64.5122 242.6 63.2742 237.968 61.269 233.527C61.1586 233.281 60.6209 233.068 60.2933 233.093C59.0862 233.2 57.8811 233.417 56.5697 233.609C56.7438 234.397 56.9019 235.05 57.0317 235.7C57.3243 237.177 57.1685 238.425 55.9817 239.636C54.8708 240.758 54.1214 242.238 53.2648 243.488C53.2634 243.331 53.2362 242.986 53.2195 242.647C53.7572 241.568 54.2949 240.488 54.8325 239.409C56.2442 237.62 55.6469 235.794 54.8248 233.503C54.1672 233.737 53.5202 233.979 52.8625 234.214C51.8409 234.277 50.8121 234.35 49.7905 234.413C45.0338 234.782 40.3454 234.326 35.7353 233.098C34.3568 232.729 32.9626 232.475 31.569 232.174C28.9759 231.425 26.3828 230.676 23.7825 229.937C25.3418 231.379 27.0118 232.524 28.6819 233.668C28.8404 233.776 29.0531 233.829 29.2407 233.895C29.9912 234.409 30.7667 234.909 31.4954 235.455C35.2023 238.228 39.7012 240.049 42.2036 244.286C44.0695 247.23 45.932 250.156 47.7978 253.1C47.6829 253.177 47.5502 253.257 47.4353 253.334C45.8018 251.344 44.493 249.015 41.8378 248.13C39.8375 246.946 37.8959 245.631 35.8119 244.593C33.6254 243.5 32.2476 241.793 31.2169 239.67C30.885 238.976 30.4707 238.334 30.1064 237.664L30.0484 237.749ZM72.1814 184.863C72.1377 184.678 72.0867 184.503 72.043 184.317C72.0001 184.335 71.9572 184.352 71.9037 184.362C71.9797 184.523 72.0591 184.702 72.1351 184.863C72.8143 186.683 73.2314 188.681 74.2334 190.302C76.199 193.485 76.3671 196.776 74.904 199.978C73.0524 204.018 71.0198 208.028 68.5472 211.705C65.1487 216.756 61.2674 221.492 57.5836 226.348C56.859 227.315 56.0921 228.253 55.1688 229.442C58.2333 230.047 61.0383 230.645 63.8736 231.108C64.3776 231.189 65.2069 230.885 65.4755 230.493C68.4516 226.149 71.647 221.893 74.1502 217.287C76.1645 213.576 77.3491 209.421 78.8302 205.423C80.2527 201.556 80.359 197.705 78.4083 193.956C77.7499 192.695 77.1562 191.385 76.3505 190.226C75.0565 188.375 73.5975 186.628 72.2064 184.85L72.1814 184.863ZM61.3276 176.789C56.2388 173.381 51.2193 169.849 46.0177 166.628C44.6529 165.786 42.6477 165.471 41.02 165.648C38.2524 165.947 35.5551 166.824 32.8221 167.458C32.7568 167.553 32.6914 167.649 32.6261 167.744L32.8823 167.733C35.8007 167.848 38.7157 167.946 41.6235 168.054C41.5397 168.199 41.357 168.557 41.1498 168.882C39.1939 171.963 36.461 174.139 33.2484 175.768C30.3078 177.272 27.8224 179.29 26.3051 182.298C24.3523 186.191 22.4207 190.099 20.5703 194.047C20.3579 194.493 20.5624 195.396 20.9054 195.802C23.1765 198.494 25.6061 201.046 27.8449 203.763C28.9888 205.154 29.9056 206.763 30.7907 208.35C31.2977 209.242 31.5465 210.285 31.9929 211.447L25.7143 207.145C29.5699 211.515 33.6862 215.549 38.4349 218.865C41.0562 220.661 43.6486 222.499 46.3029 224.224C48.1923 225.456 50.1945 226.501 52.1202 227.68C52.8891 228.145 53.34 227.94 53.6916 227.2C59.1698 221.176 64.4617 214.993 68.5036 207.892C69.7612 205.671 70.3165 203.047 71.1824 200.604C72.2988 196.231 72.0516 191.967 69.9911 187.925C68.8587 185.701 67.4648 183.609 66.2822 181.414C65.1413 179.293 63.3173 177.966 61.313 176.811L61.3276 176.789ZM-0.464867 207.612C0.595069 208.899 1.55072 210.27 2.72616 211.433C5.40013 214.059 7.97578 216.851 10.9646 219.085C14.5096 221.732 18.3147 224.09 22.249 226.1C25.5935 227.815 29.2144 229.082 32.8346 230.145C38.534 231.823 44.1673 230.81 49.6773 228.933C49.9203 228.851 50.1124 228.593 50.3751 228.368C50.0903 228.127 49.9007 227.95 49.6966 227.794C42.006 222.199 33.6846 217.479 26.5273 211.127C25.1147 209.879 23.6876 208.653 22.3398 207.356C21.3956 206.444 20.5451 205.441 19.6623 204.463C18.2437 202.884 16.8428 201.301 15.4241 199.722C15.4333 199.573 15.5072 199.374 15.4516 199.274C13.8365 196.984 12.7396 194.504 12.5974 191.651C12.5867 191.395 12.364 191.04 12.152 190.942C10.7106 190.234 7.70517 191.538 7.19616 193.12C6.86188 194.152 6.6762 195.239 6.3856 196.457C4.90311 194.087 5.59792 191.667 5.76359 188.931C4.12218 189.582 2.77916 190 1.52935 190.623C-0.311356 191.542 -1.40159 192.974 -1.12969 195.185C-0.967185 196.557 -0.868734 197.932 -0.763028 199.297C-0.735774 199.642 -0.783149 199.984 -0.791552 200.336C-1.00219 200.394 -1.21613 200.434 -1.42677 200.492C-2.8829 196.724 -4.32121 192.951 -5.83554 189.018C-6.85254 191.591 -6.01202 193.832 -5.04606 196.004C-4.0768 198.194 -2.94973 200.29 -1.88737 202.434C-5.11812 199.691 -6.98165 196.064 -8.76596 192.366C-8.77347 193.171 -8.69515 193.94 -8.36264 194.589C-6.90435 197.425 -5.44605 200.261 -3.82997 203.003C-2.86363 204.63 -1.57116 206.076 -0.429209 207.605L-0.464867 207.612ZM51.563 284.466C54.4713 285.571 58.3815 283.128 58.0518 280.208C57.2226 280.761 56.2045 281.091 55.8073 281.784C54.8275 283.464 53.4054 284.202 51.5663 284.484L51.563 284.466Z" fill="#050301"/>
<path d="M-112.476 260.14C-107.043 251.189 -99.8705 244.053 -90.81 238.739C-79.9927 232.403 -69.1 226.274 -57.6137 221.206C-47.9702 216.946 -37.9781 215.011 -27.4985 215.901C-23.1218 216.268 -19.3946 214.976 -15.8945 212.361C-12.743 210.005 -9.31527 207.994 -6.00649 205.84C-5.6764 205.63 -5.2941 205.503 -5.31193 205.506C-1.90824 209.379 1.23655 213.199 4.68035 216.742C6.5496 218.661 8.87628 220.161 11.063 221.753C13.845 223.768 16.7213 225.645 19.5105 227.649C19.9967 227.982 20.2652 228.633 20.6458 229.143C16.9457 226.655 13.1176 224.421 8.77747 223.207C8.19294 223.04 7.56281 222.827 6.97178 222.873C4.15927 223.079 1.71785 221.905 -0.543373 220.558C-3.82391 218.591 -6.90057 216.281 -10.2618 213.978C-10.51 214.182 -10.9589 214.497 -11.32 214.888C-15.2458 219.235 -20.388 221.005 -25.9602 221.454C-29.6596 221.753 -33.4154 221.499 -37.1407 221.36C-47.7092 220.986 -56.9828 224.207 -64.9112 231.246C-65.9733 232.184 -66.8008 233.392 -67.7439 234.474C-68.0186 234.535 -68.4413 234.494 -68.5574 234.664C-70.0376 236.779 -70.8533 239.194 -70.7635 241.715C-70.653 244.546 -70.3049 247.416 -69.6919 250.171C-69.0359 253.158 -69.7465 255.692 -71.3309 258.14C-71.4622 257.085 -71.4865 256.01 -71.732 254.985C-72.7082 250.969 -73.7629 246.977 -74.7391 242.961C-75.3552 240.438 -75.9073 237.911 -76.5413 235.141C-78.6755 236.964 -81.0051 238.778 -83.1417 240.786C-87.015 244.422 -89.6193 248.88 -91.5689 253.835C-92.9954 257.481 -94.9669 260.925 -96.772 264.422C-97.594 266.007 -98.6102 267.49 -99.5419 269.032L-112.48 260.168L-112.476 260.14Z" fill="#B47211"/>
<path d="M30.2867 282.469C30.1316 282.627 29.9943 282.782 29.8392 282.941C29.7277 283.036 29.6161 283.13 29.494 283.218C28.6508 284.789 27.6095 286.286 27.0212 287.938C25.7116 291.618 24.0524 294.856 20.8726 297.457C17.0597 300.574 14.966 305.149 12.384 309.281C10.7258 311.928 8.84894 314.441 7.08503 317.016C3.86233 317.05 0.649567 317.137 -2.56856 317.096C-5.77611 317.063 -8.98177 316.891 -12.3624 316.77C-12.1645 316.345 -12.0999 316.047 -11.9191 315.828C-8.00287 310.882 -6.84158 305.061 -6.6367 298.959C-6.47346 294.073 -5.42781 289.418 -3.35382 284.986C-3.24035 284.752 -3.12688 284.518 -2.97839 284.324C-2.89854 284.208 -2.73415 284.149 -2.4252 283.925C-1.94139 284.692 -1.47873 285.445 -0.914947 286.345C0.883351 285.148 2.29643 283.516 3.19423 281.594C5.01888 277.706 5.31927 273.709 4.17196 269.466C2.84202 264.539 1.93335 259.495 0.867539 254.499C0.777501 254.063 0.795084 253.562 0.889957 253.129C1.81246 249.152 0.421916 245.786 -1.74648 242.604C-2.07428 242.13 -2.35522 241.611 -2.84895 240.79C-0.164169 241.337 1.80568 242.406 3.65748 243.784C7.73764 246.828 8.89438 251.42 10.205 255.945C11.4342 260.181 12.6627 264.463 15.4204 267.987C17.1716 270.214 19.3578 272.101 21.3895 274.101C23.6109 276.276 25.8864 278.396 28.144 280.518C28.8391 281.181 29.5738 281.809 30.294 282.458L30.2867 282.469Z" fill="#EFD1A5"/>
<path d="M48.066 280.14C48.122 281.237 48.1781 282.334 48.2461 283.595C42.5692 283.38 38.63 279.653 34.4678 276.366C36.3139 276.868 38.1593 277.416 40.0166 277.879C41.9234 278.36 43.8599 278.753 46.1325 279.266C45.8251 278.604 45.6625 278.275 45.5071 277.935C45.0066 276.829 44.4097 275.751 44.0202 274.597C43.6511 273.503 43.9247 272.492 44.938 271.738C45.6351 271.219 46.2833 270.636 46.9348 270.07C49.9158 267.442 50.051 264.592 47.676 261.439C45.7899 258.933 43.9407 256.327 42.5459 253.534C41.7916 252.006 42.0078 249.99 41.7837 248.186C44.4356 249.053 45.755 251.389 47.3812 253.391C47.4961 253.314 47.6288 253.233 47.7437 253.157C45.8778 250.212 44.0153 247.286 42.1495 244.342C43.4037 245.731 44.8625 246.979 45.869 248.525C47.5266 251.093 49.5486 253.288 51.9851 255.081C54.985 257.277 55.1356 257.193 56.4182 253.666C56.9286 252.241 57.4707 250.837 59.0435 250.265C60.6268 249.699 62.2274 249.177 63.8246 248.636C63.3921 250.083 62.9418 251.534 62.5021 252.992C58.4888 251.55 58.3098 251.63 56.6153 255.623C58.1607 255.747 59.6315 255.867 61.1769 255.992C61.107 256.162 60.9342 256.573 60.7613 256.984C59.1044 256.954 57.5877 257.332 56.3236 258.474C55.4542 257.816 55.6672 258.616 55.7156 258.976C55.9655 260.72 56.251 262.457 56.5366 264.193C56.5736 264.343 56.6034 264.504 56.6405 264.654L56.6372 264.636C56.6212 265.793 56.4165 266.976 56.6251 268.1C56.9628 269.919 57.5753 271.677 58.0735 273.467L58.0523 273.452C58.0715 273.605 58.1086 273.755 58.1278 273.909L58.1318 273.88C58.1775 274.176 58.241 274.469 58.2868 274.765L58.2729 274.74C58.308 275.028 58.3504 275.307 58.375 275.588C58.4705 276.401 58.5694 277.231 58.6649 278.044C58.5612 278.082 58.4681 278.127 58.3572 278.176C58.0348 277.83 57.7017 277.478 57.372 277.143C56.4657 275.292 55.8867 273.167 54.5843 271.668C52.1929 268.924 49.0568 269.126 46.6015 271.804C46.2332 272.205 46.1913 272.924 46.0021 273.495C45.077 275.072 45.7402 276.507 46.4033 277.942C46.9478 278.688 47.4996 279.425 48.0336 280.164L48.066 280.14ZM47.9342 253.785C47.8127 253.827 47.6912 253.868 47.5624 253.92C47.8415 254.578 48.1099 255.229 48.3889 255.887C48.5177 255.835 48.6431 255.765 48.7719 255.714C48.4856 255.066 48.2099 254.426 47.9163 253.789L47.9342 253.785Z" fill="#C88D36"/>
<path d="M19.5094 257.462C19.3507 254.52 18.209 252.196 16.9259 249.807C15.82 247.726 15.237 245.381 16.6543 242.927C17.8201 240.907 22.0424 240.344 23.725 241.356C27.39 243.556 30.1745 246.678 32.786 249.962C33.1217 250.378 33.1276 251.503 32.7989 251.87C32.4557 252.257 31.3866 252.412 30.8958 252.154C29.681 251.524 28.5256 250.717 27.5213 249.78C25.3442 247.744 23.5858 248.111 22.5722 250.951C22.1205 252.245 21.8102 253.605 21.2488 254.855C20.8234 255.793 20.0973 256.604 19.5021 257.473L19.5094 257.462Z" fill="#EFD1A5"/>
<path d="M-44.5592 260.617C-48.0758 256.682 -51.535 252.709 -53.9664 247.96C-57.634 240.777 -56.7249 233.896 -52.6636 227.197C-52.5474 227.028 -52.4313 226.858 -52.294 226.703C-52.2432 226.629 -52.1362 226.609 -51.8279 226.431C-54.2137 234.651 -53.0917 242.286 -49.0014 249.509L-48.9869 249.488C-48.9426 249.627 -48.8983 249.767 -48.8645 249.899C-47.5905 252.687 -46.4096 255.52 -44.9995 258.245C-44.4072 259.398 -43.4617 260.466 -42.4449 261.272C-39.7395 263.421 -38.3637 266.309 -37.4841 268.811C-39.5986 266.366 -42.0984 263.486 -44.5909 260.595L-44.5592 260.617Z" fill="#050301"/>
<path d="M26.9543 268.245C27.2156 269.156 27.4769 270.066 27.7277 270.97C25.4165 268.857 23.6184 266.427 23.0858 263.259C22.9805 262.642 23.0653 261.906 23.2974 261.318C23.9503 259.617 24.7307 257.956 25.4471 256.299C28.3322 258.571 29.0089 262.117 27.8584 265.86C27.7469 264.662 27.6353 263.465 27.5238 262.268C27.4899 261.886 27.456 261.505 27.4327 261.131C27.0519 260.372 26.6784 259.602 26.2976 258.843C25.8346 259.927 25.9342 260.961 25.574 261.804C24.4936 264.333 25.373 266.336 26.951 268.227L26.9543 268.245Z" fill="#C88D36"/>
<path d="M27.9557 266.284C27.9293 266.142 27.8922 265.992 27.8584 265.86C27.8849 266.002 27.922 266.152 27.9557 266.284Z" fill="#C88D36"/>
<path d="M-48.8401 249.931C-48.8844 249.792 -48.9287 249.653 -48.9625 249.52C-48.9181 249.66 -48.8738 249.799 -48.8401 249.931Z" fill="#CB8E34"/>
<path d="M-71.3197 258.101C-69.7353 255.653 -69.0141 253.126 -69.6807 250.132C-70.2864 247.366 -70.6418 244.507 -70.7523 241.676C-70.8421 239.155 -70.0264 236.74 -68.5462 234.625C-68.4301 234.455 -68.0074 234.496 -67.7327 234.435C-67.2024 238.285 -66.8147 242.163 -66.0956 245.987C-64.9963 251.909 -66.4517 257.139 -69.8047 261.988C-70.3564 262.794 -70.908 263.599 -71.4809 264.39C-73.6744 267.433 -74.7848 270.844 -74.9889 274.566C-75.0158 274.967 -75.0605 275.373 -75.123 275.781C-75.1348 275.867 -75.253 275.926 -75.3217 276.003C-76.2504 272.938 -75.6883 268.015 -73.8613 263.693C-73.0671 261.808 -72.1739 259.96 -71.3197 258.101Z" fill="#050301"/>
<path d="M-15.7807 255.019C-18.9621 253.337 -22.2417 251.822 -25.2633 249.908C-27.1989 248.675 -27.7216 245.561 -26.2716 243.83C-22.8073 239.68 -23.1069 235.085 -23.987 230.294C-24.0764 229.812 -24.1229 229.314 -24.2044 228.775C-22.4381 228.351 -21.437 229.519 -20.2664 230.259C-18.724 234.74 -18.2536 239.064 -21.1009 243.356C-23.5999 247.14 -22.9369 249.618 -19.271 252.269C-18.0667 253.141 -16.931 254.09 -15.7735 255.008L-15.7807 255.019Z" fill="#B47211"/>
<path d="M-15.7807 255.019C-16.9455 254.112 -18.0845 253.145 -19.2783 252.28C-22.9442 249.628 -23.6072 247.15 -21.1082 243.367C-18.2714 239.067 -18.7346 234.733 -20.2736 230.269C-20.2292 229.366 -21.3215 228.104 -19.2104 227.697C-18.6554 230.786 -17.8613 233.821 -17.6438 236.882C-17.4442 239.696 -17.623 242.609 -18.0812 245.409C-18.598 248.589 -17.9033 251.089 -15.5617 253.316C-14.0381 254.765 -12.8068 256.527 -11.4529 258.155C-11.5572 258.239 -11.6436 258.32 -11.7479 258.404C-13.0838 257.271 -14.427 256.148 -15.7523 255.023L-15.7807 255.019Z" fill="#050301"/>
<path d="M-60.642 244.851C-60.642 244.851 -60.673 244.783 -60.6902 244.74C-60.6658 244.772 -60.6486 244.815 -60.6241 244.847L-60.642 244.851Z" fill="#D7A864"/>
<path d="M71.2075 200.59C70.331 203.025 69.7862 205.657 68.5287 207.878C64.4868 214.979 59.1843 221.155 53.7167 227.186C53.2007 226.692 52.7137 226.156 52.1541 225.726C49.4309 223.58 46.6608 221.48 43.9626 219.32C41.4157 217.28 40.4681 213.517 41.9386 210.554C43.4454 207.539 45.2699 204.694 46.819 201.707C47.7835 199.846 48.501 197.847 49.4271 195.679C44.9352 197.225 42.6772 200.816 39.8199 203.763C40.3611 201.907 41.2095 200.215 41.276 198.486C41.3848 195.743 41.8828 193.157 43.2519 190.841C44.5372 188.67 45.5536 186.144 48.1847 185.16C52.9288 183.381 57.686 181.674 62.4439 179.921C63.2125 179.638 63.723 179.754 64.29 180.422C68.4801 185.301 70.754 190.891 70.8571 197.361C70.8814 198.436 71.1085 199.51 71.2431 200.583L71.2075 200.59Z" fill="#FEFEFE"/>
<path d="M15.438 199.747C16.8567 201.326 18.2575 202.909 19.6762 204.488C20.559 205.466 21.4094 206.469 22.3536 207.381C23.7121 208.685 25.1391 209.912 26.5411 211.152C33.7057 217.493 42.0272 222.213 49.7104 227.82C49.9218 227.964 50.0936 228.144 50.389 228.393C50.1157 228.611 49.9415 228.865 49.6912 228.958C44.1812 230.835 38.5479 231.849 32.8485 230.17C29.2283 229.107 25.6074 227.84 22.2629 226.125C18.3286 224.115 14.5202 221.739 10.9784 219.11C7.9824 216.887 5.40674 214.095 2.74002 211.458C1.56458 210.295 0.608939 208.924 -0.450997 207.637C0.69858 206.027 0.335756 204.222 0.253607 202.437C0.157449 200.379 1.14542 197.849 2.4789 196.832C2.43917 197.91 2.41065 198.949 2.35921 200.362C5.26429 197.821 8.29089 197.824 11.4441 198.708C12.769 199.086 14.1124 199.415 15.4413 199.765L15.438 199.747Z" fill="#3D4A69"/>
<path d="M38.4421 218.854C33.6829 215.531 29.5666 211.497 25.7215 207.135L32.0001 211.436C31.5643 210.281 31.2977 209.242 30.7979 208.34C29.9056 206.763 28.9888 205.154 27.8522 203.753C25.6134 201.036 23.1838 198.484 20.9126 195.791C20.5697 195.385 20.3651 194.482 20.5775 194.036C22.4279 190.088 24.3596 186.181 26.3123 182.287C27.8297 179.279 30.315 177.261 33.2556 175.757C36.4755 174.118 39.2012 171.953 41.157 168.871C41.3715 168.535 41.5469 168.189 41.6307 168.044C38.723 167.935 35.8152 167.827 32.8896 167.722C32.873 167.633 32.8565 167.544 32.8294 167.447C35.5624 166.813 38.2597 165.937 41.0272 165.637C42.655 165.46 44.6601 165.775 46.0249 166.617C51.2265 169.838 56.246 173.37 61.3348 176.779C60.9664 176.931 60.6145 177.173 60.2335 177.207C56.974 177.59 53.7251 177.98 50.4596 178.28C46.0331 178.688 42.1858 180.178 39.3691 183.791C35.1473 189.228 32.1576 195.337 29.4605 201.632C29.1333 202.404 29.2577 202.925 29.958 203.467C31.0382 204.316 32.0458 205.271 33.0211 206.251C35.5292 208.779 38.005 211.331 38.2831 215.165C38.3728 216.394 38.3986 217.626 38.46 218.851L38.4421 218.854Z" fill="#B1B1B1"/>
<path d="M38.4421 218.854C38.3807 217.629 38.355 216.397 38.2652 215.168C37.9767 211.327 35.5008 208.775 33.0032 206.254C32.028 205.275 31.0204 204.32 29.9402 203.471C29.2399 202.929 29.1155 202.407 29.4426 201.635C32.1325 195.351 35.1295 189.231 39.3513 183.794C42.1574 180.174 46.0226 178.681 50.4417 178.283C53.7072 177.983 56.9562 177.593 60.2157 177.211C60.5934 177.158 60.9558 176.924 61.317 176.782C63.3212 177.937 65.1453 179.265 66.2968 181.392C67.4793 183.588 68.8732 185.68 70.0056 187.903C72.0661 191.946 72.3133 196.21 71.1969 200.583C71.0623 199.51 70.8352 198.436 70.8109 197.36C70.7078 190.891 68.4411 185.29 64.2438 180.422C63.6768 179.753 63.1662 179.637 62.3977 179.92C57.6504 181.681 52.8825 183.381 48.1385 185.159C45.5001 186.154 44.4943 188.688 43.2057 190.841C41.8365 193.156 41.3386 195.742 41.2297 198.486C41.1705 200.204 40.3149 201.907 39.7737 203.762C42.6382 200.805 44.8963 197.214 49.3809 195.678C48.4548 197.846 47.7446 199.835 46.7728 201.707C45.2237 204.694 43.3919 207.549 41.8924 210.554C40.4219 213.516 41.3695 217.279 43.9164 219.32C46.6251 221.487 49.3847 223.58 52.1079 225.726C52.6602 226.166 53.1472 226.702 53.6705 227.185C53.3295 227.933 52.8607 228.141 52.099 227.666C50.1661 226.497 48.1712 225.442 46.2818 224.21C43.6169 222.477 41.0246 220.639 38.4138 218.85L38.4421 218.854ZM34.3801 203.632C34.5037 203.701 34.6272 203.77 34.7613 203.847C35.119 203.438 35.519 203.058 35.8417 202.61C37.1906 200.731 37.3526 198.523 37.5819 196.329C37.7784 194.455 38.1347 192.598 38.4343 190.732C38.4883 190.427 38.5885 190.122 38.6709 189.82C38.515 189.776 38.3591 189.731 38.2032 189.686C36.0586 194.087 36.33 199.177 34.3907 203.639L34.3801 203.632Z" fill="#EAE9E9"/>
<path d="M63.8246 248.636C62.2274 249.177 60.6268 249.699 59.0435 250.265C57.4707 250.837 56.9286 252.241 56.4182 253.666C55.1461 257.2 54.985 257.277 51.9851 255.081C49.5413 253.298 47.5372 251.1 45.869 248.525C44.8697 246.969 43.4109 245.72 42.1495 244.342C39.6543 240.095 35.1482 238.285 31.4413 235.511C30.7126 234.965 29.9371 234.465 29.1866 233.951C28.9586 233.717 28.7307 233.483 28.4816 233.235C29.5605 232.884 30.5357 232.571 31.5076 232.241C32.894 232.552 34.2987 232.814 35.6739 233.165C40.2841 234.392 44.9619 234.842 49.7291 234.48C50.1756 235.891 50.5184 237.341 51.0864 238.71C51.6577 240.098 52.4614 241.396 53.1614 242.732C53.1781 243.07 53.2054 243.416 53.2068 243.573C54.0633 242.322 54.8128 240.843 55.9236 239.72C57.1031 238.52 57.2557 237.255 56.9736 235.785C56.8438 235.135 56.6857 234.482 56.5116 233.693C57.823 233.502 59.0281 233.284 60.2353 233.177C60.5522 233.145 61.0899 233.358 61.2109 233.612C63.2162 238.053 64.4614 242.674 64.0876 247.617C64.0613 247.973 63.9109 248.306 63.8173 248.647L63.8246 248.636ZM57.3532 248.266C58.1883 246.503 59.7163 246.086 61.412 245.878C62.3953 245.758 63.2523 245.255 63.2002 244.129C63.1262 242.786 62.8349 241.466 62.6255 240.139C62.1377 240.443 61.8809 240.75 61.8837 241.063C61.8952 242.815 60.8932 243.779 59.409 244.381C57.6923 245.073 57.1085 246.401 57.3459 248.277L57.3532 248.266Z" fill="#D6A764"/>
<path d="M72.1814 184.863C73.5651 186.652 75.0242 188.399 76.3255 190.24C77.1311 191.399 77.7248 192.709 78.3832 193.97C80.3339 197.719 80.2276 201.57 78.8051 205.437C77.3418 209.432 76.1394 213.59 74.1251 217.301C71.6147 221.917 68.4159 226.156 65.4504 230.507C65.1745 230.91 64.3452 231.214 63.8486 231.122C61.0205 230.648 58.2261 230.057 55.1437 229.456C56.0776 228.274 56.8339 227.329 57.5585 226.362C61.2423 221.506 65.1236 216.77 68.5221 211.719C70.9947 208.042 73.0345 204.021 74.8789 199.991C76.3348 196.801 76.1739 193.499 74.2083 190.315C73.2063 188.695 72.7892 186.697 72.11 184.877L72.1814 184.863Z" fill="#3D4A69"/>
<path d="M15.438 199.747C14.1091 199.397 12.773 199.058 11.4407 198.69C8.28757 197.806 5.27155 197.811 2.3559 200.344C2.40734 198.931 2.44643 197.899 2.47559 196.814C1.14211 197.831 0.146884 200.372 0.250301 202.42C0.339708 204.193 0.695284 206.009 -0.454293 207.619C-1.59624 206.09 -2.87815 204.651 -3.85506 203.017C-5.4784 200.285 -6.92943 197.439 -8.38772 194.602C-8.72023 193.954 -8.79856 193.184 -8.79105 192.38C-6.99617 196.085 -5.14321 199.705 -1.91247 202.448C-2.97483 200.304 -4.1052 198.19 -5.07115 196.018C-6.03711 193.846 -6.87763 191.605 -5.86062 189.032C-4.34629 192.965 -2.89741 196.745 -1.45185 200.506C-1.24121 200.448 -1.02728 200.408 -0.816639 200.35C-0.808236 199.997 -0.760864 199.656 -0.788118 199.311C-0.904395 197.939 -0.99227 196.571 -1.15477 195.199C-1.41611 192.996 -0.336446 191.556 1.50426 190.637C2.75407 190.014 4.10436 189.585 5.7385 188.945C5.56558 191.691 4.87802 194.101 6.36051 196.471C6.65112 195.253 6.83678 194.166 7.17107 193.134C7.68008 191.552 10.6928 190.238 12.1269 190.955C12.3495 191.061 12.565 191.427 12.5723 191.665C12.7145 194.518 13.8114 196.998 15.4265 199.288C15.4999 199.385 15.4155 199.576 15.399 199.736L15.438 199.747Z" fill="#343C54"/>
<path d="M46.0272 273.481C46.2164 272.91 46.2583 272.191 46.6266 271.79C49.0925 269.12 52.218 268.91 54.6094 271.654C55.9118 273.153 56.5013 275.285 57.3971 277.129C55.6438 275.834 53.9122 274.508 52.1298 273.256C50.0587 271.79 47.9796 271.424 46.0094 273.484L46.0272 273.481Z" fill="#B47211"/>
<path d="M53.1687 242.721C52.4686 241.386 51.665 240.088 51.0937 238.7C50.5184 237.341 50.1756 235.891 49.7363 234.469C50.7579 234.406 51.7868 234.333 52.8084 234.27C53.4637 236.011 54.1158 237.734 54.7784 239.465C54.2407 240.545 53.703 241.624 53.1654 242.704L53.1687 242.721Z" fill="#C88D36"/>
<path d="M56.3375 258.499C57.591 257.35 59.1183 256.979 60.7752 257.009C59.7009 258.577 58.6266 260.145 57.2547 262.148C56.8768 260.659 56.6108 259.574 56.3375 258.499Z" fill="#D6A764"/>
<path d="M31.5255 232.237C30.5502 232.55 29.5677 232.873 28.4994 233.231C28.7485 233.48 28.9764 233.714 29.2044 233.948C29.0241 233.871 28.8041 233.829 28.6456 233.721C26.9755 232.576 25.3055 231.432 23.7462 229.99C26.3393 230.739 28.9324 231.488 31.5327 232.227L31.5255 232.237Z" fill="#C88D36"/>
<path d="M51.5808 284.462C53.4126 284.192 54.8347 283.453 55.8218 281.763C56.219 281.07 57.2477 280.747 58.0663 280.187C58.3961 283.107 54.4786 285.56 51.5775 284.445L51.5808 284.462Z" fill="#B47211"/>
<path d="M54.7817 239.483C54.1191 237.752 53.4743 236.018 52.8117 234.288C53.4693 234.053 54.127 233.819 54.774 233.577C55.5961 235.868 56.1934 237.694 54.7817 239.483Z" fill="#B47211"/>
<path d="M26.9543 268.245C25.3835 266.344 24.5042 264.34 25.5773 261.821C25.9375 260.978 25.8379 259.945 26.3009 258.861C26.6817 259.62 27.0552 260.39 27.436 261.149C25.978 262.688 25.9287 264.46 26.5392 266.357C26.737 266.975 26.8206 267.624 26.9576 268.263L26.9543 268.245Z" fill="#B47211"/>
<path d="M48.066 280.14C47.5214 279.393 46.9696 278.657 46.4356 277.917C46.9275 277.585 47.3915 277.202 47.9071 276.948C48.2795 276.767 48.9332 276.561 49.0944 276.734C49.3785 277.022 49.6041 277.69 49.4537 278.023C49.116 278.788 48.5451 279.44 48.066 280.14Z" fill="#B47211"/>
<path d="M58.084 273.474C57.5858 271.685 56.9807 269.916 56.6357 268.107C56.4198 266.994 56.6318 265.8 56.6477 264.643C57.13 267.589 57.6017 270.528 58.084 273.474Z" fill="#D6A764"/>
<path d="M72.1457 184.87C72.0697 184.709 71.9903 184.53 71.9143 184.369C71.9572 184.352 72.0001 184.335 72.0536 184.324C72.0973 184.51 72.1482 184.685 72.1919 184.871L72.149 184.888L72.1457 184.87Z" fill="#3D4A69"/>
<path d="M56.651 264.661C56.614 264.511 56.5769 264.361 56.5471 264.201C56.5842 264.351 56.6212 264.501 56.651 264.661Z" fill="#D6A764"/>
<path d="M32.8896 167.722C32.8077 167.728 32.7258 167.734 32.6334 167.733C32.6987 167.638 32.764 167.543 32.8294 167.447C32.8565 167.544 32.8803 167.622 32.8896 167.722Z" fill="#B1B1B1"/>
<path d="M29.494 283.218C29.6055 283.123 29.7171 283.028 29.8392 282.941C29.7277 283.036 29.6161 283.13 29.494 283.218Z" fill="#D7A864"/>
<path d="M47.9342 253.785C48.2204 254.433 48.4962 255.073 48.7897 255.71C48.661 255.762 48.5355 255.832 48.4068 255.884C48.1277 255.226 47.8593 254.575 47.5803 253.916C47.7018 253.875 47.8233 253.834 47.952 253.782L47.9342 253.785Z" fill="#050301"/>
<path d="M34.3801 203.632C36.3194 199.169 36.0585 194.087 38.1927 189.679C38.3485 189.724 38.5044 189.768 38.6603 189.813C38.5779 190.114 38.4671 190.412 38.4237 190.725C38.1242 192.59 37.7678 194.448 37.5713 196.322C37.3347 198.526 37.18 200.724 35.8311 202.602C35.5263 203.047 35.1157 203.42 34.7507 203.839C34.6272 203.77 34.5037 203.701 34.3696 203.625L34.3801 203.632Z" fill="#EAE9E9"/>
<path d="M57.3532 248.266C57.1085 246.401 57.6996 245.063 59.4162 244.37C60.9005 243.768 61.9025 242.804 61.891 241.053C61.8882 240.74 62.1449 240.433 62.6328 240.129C62.8349 241.466 63.1262 242.786 63.2074 244.119C63.2668 245.234 62.4098 245.736 61.4193 245.867C59.7235 246.076 58.1956 246.492 57.3604 248.255L57.3532 248.266Z" fill="#EFD1A5"/>
<path d="M42.7713 187.278C41.7016 188.449 40.5598 189.584 39.3459 190.683L33.5408 196.406C33.3845 196.202 33.1982 195.992 32.9819 195.777C32.7655 195.562 32.5492 195.346 32.3328 195.131C32.1165 194.915 31.9001 194.712 31.6838 194.521C31.4914 194.329 31.3232 194.162 31.1789 194.018C31.6717 193.475 32.2126 192.896 32.8015 192.28C33.4024 191.677 34.0094 191.055 34.6224 190.415C35.2473 189.787 35.8423 189.154 36.4072 188.514C36.9841 187.887 37.4949 187.29 37.9396 186.723C37.7232 186.772 37.4167 186.887 37.0201 187.069C36.6355 187.239 36.2389 187.421 35.8302 187.615C35.4216 187.81 35.055 187.973 34.7305 188.107C34.4059 188.241 34.2196 188.284 34.1716 188.236C34.1115 188.176 34.0994 188.044 34.1355 187.839C34.1956 187.635 34.2797 187.394 34.3879 187.117C34.5081 186.852 34.6343 186.569 34.7665 186.268C34.8987 185.967 35.0249 185.696 35.145 185.455C35.2652 185.214 35.3614 185.009 35.4335 184.841C35.5176 184.684 35.5597 184.606 35.5597 184.606C34.3338 185.645 33.1559 186.756 32.0261 187.939C30.9084 189.133 29.8267 190.328 28.781 191.523C28.3363 191.2 27.8916 190.805 27.4469 190.338C27.0021 189.872 26.5874 189.447 26.2028 189.064C26.1788 189.04 26.1788 189.004 26.2028 188.956C26.2389 188.895 26.341 188.769 26.5093 188.576C26.6776 188.383 26.936 188.099 27.2845 187.725C27.6571 187.351 28.1439 186.862 28.7448 186.258C29.3458 185.655 30.0909 184.906 30.9803 184.013C31.8818 183.131 32.9454 182.075 34.1714 180.844C35.4093 179.624 36.8516 178.2 38.4982 176.57C38.7025 176.677 38.9128 176.827 39.1292 177.018C39.3455 177.209 39.5559 177.419 39.7602 177.646C39.9766 177.862 40.1869 178.083 40.3912 178.31C40.6076 178.526 40.824 178.729 41.0403 178.921L41.0583 178.939C41.0463 179.167 40.9682 179.462 40.824 179.823C40.6918 180.172 40.5355 180.533 40.3553 180.907C40.175 181.28 40.0007 181.636 39.8325 181.973C39.6762 182.322 39.5741 182.617 39.526 182.858C39.526 182.93 39.544 182.984 39.5801 183.02C39.6041 183.068 39.7724 183.007 40.0849 182.837C40.4094 182.679 40.77 182.486 41.1666 182.255C41.5873 182.025 42.0079 181.807 42.4286 181.601C42.8613 181.407 43.2038 181.291 43.4562 181.254C43.5284 181.35 43.6786 181.499 43.907 181.703C44.1474 181.918 44.3998 182.145 44.6642 182.384C44.9407 182.636 45.2111 182.893 45.4755 183.156C45.764 183.419 46.0044 183.646 46.1967 183.838C44.9948 184.949 43.853 186.096 42.7713 187.278Z" fill="#050301"/>
<path d="M46.6113 197.087C46.5873 197.159 46.5693 197.262 46.5572 197.394C46.5092 197.827 46.4491 198.248 46.377 198.657C46.3289 199.065 46.2328 199.463 46.0886 199.848C45.9684 200.233 45.7761 200.606 45.5117 200.968C45.2473 201.33 44.8867 201.668 44.43 201.983C43.7689 202.454 43.1199 202.733 42.4829 202.82C41.8699 202.907 41.2749 202.856 40.698 202.666C40.1211 202.476 39.5622 202.184 39.0213 201.79C38.4924 201.384 37.9756 200.929 37.4708 200.426C36.966 199.948 36.4792 199.439 36.0104 198.9C35.5536 198.374 35.1149 197.889 34.6942 197.446C34.6221 197.374 34.55 197.302 34.4779 197.23C34.4178 197.171 34.3697 197.099 34.3337 197.015C36.3408 194.854 38.384 192.766 40.4633 190.75C42.5546 188.721 44.6279 186.639 46.6831 184.502L46.7191 184.502C47.3321 184.848 47.9451 185.254 48.5581 185.72C49.1711 186.186 49.73 186.695 50.2349 187.245C50.7397 187.796 51.1664 188.377 51.515 188.989C51.8755 189.612 52.0919 190.26 52.164 190.933C52.2482 191.594 52.1641 192.267 51.9117 192.953C51.6713 193.627 51.2146 194.302 50.5416 194.978C50.0368 195.486 49.4538 195.891 48.7928 196.194C48.1438 196.509 47.4947 196.753 46.8457 196.924C46.7135 196.96 46.6354 197.015 46.6113 197.087ZM41.1126 198.608C41.3529 198.703 41.6054 198.738 41.8698 198.712C42.1823 198.663 42.4587 198.506 42.6991 198.24C42.9515 197.987 43.1378 197.715 43.258 197.426C43.3301 197.21 43.3481 196.975 43.312 196.723C43.288 196.459 43.2159 196.231 43.0957 196.039C42.9274 195.751 42.7231 195.488 42.4827 195.248C42.2543 194.997 42.0379 194.745 41.8336 194.494C41.6052 194.627 41.3588 194.79 41.0944 194.984C40.83 195.177 40.5716 195.389 40.3192 195.618C40.0908 195.848 39.8865 196.089 39.7062 196.342C39.526 196.595 39.4118 196.842 39.3637 197.083L39.3817 197.137C39.55 197.304 39.7183 197.484 39.8866 197.675C40.0789 197.867 40.2712 198.046 40.4635 198.214C40.6799 198.381 40.8962 198.512 41.1126 198.608ZM46.1785 193.555C46.443 193.626 46.7134 193.619 46.9898 193.534C47.2182 193.473 47.4586 193.375 47.711 193.242C47.9634 193.109 48.1377 192.898 48.2338 192.609C48.3299 192.32 48.348 192.049 48.2879 191.797C48.2518 191.545 48.1616 191.299 48.0174 191.059C47.8251 190.772 47.5907 190.49 47.3143 190.215C47.0618 189.94 46.7974 189.76 46.521 189.678C46.2686 189.979 45.92 190.305 45.4753 190.656C45.0426 191.018 44.6701 191.465 44.3576 191.995C44.5138 192.198 44.6881 192.408 44.8804 192.623C45.0727 192.839 45.2771 193.03 45.4934 193.198C45.7098 193.365 45.9381 193.484 46.1785 193.555Z" fill="#050301"/>
<defs>
<linearGradient id="paint0_linear_1_33749" x1="40.6487" y1="93.508" x2="-14.8688" y2="421.093" gradientUnits="userSpaceOnUse">
<stop stop-color="#BB8F34"/>
<stop offset="1" stop-color="#EACA88"/>
</linearGradient>
<linearGradient id="paint1_linear_1_33749" x1="131.662" y1="202.835" x2="127.289" y2="228.635" gradientUnits="userSpaceOnUse">
<stop stop-color="#BB8F34"/>
<stop offset="1" stop-color="#EACA88"/>
</linearGradient>
<linearGradient id="paint2_linear_1_33749" x1="121.191" y1="227.921" x2="110.702" y2="246.817" gradientUnits="userSpaceOnUse">
<stop stop-color="#FFFCE8"/>
<stop offset="0.0001" stop-color="#EEDBAB"/>
<stop offset="0.0002" stop-color="#EEC173"/>
<stop offset="0.135" stop-color="#C79E4A"/>
<stop offset="0.275" stop-color="#D6B35A"/>
<stop offset="0.405" stop-color="#FEE492"/>
<stop offset="0.635" stop-color="#EEBD57"/>
<stop offset="0.79" stop-color="#B48024"/>
</linearGradient>
</defs>
</svg>
