<svg width="28" height="28" viewBox="0 0 28 28" fill="none" xmlns="http://www.w3.org/2000/svg">
<rect width="28" height="28" rx="14" fill="#FFE8BA"/>
<path d="M13.5486 7.90323C13.5486 7.40439 13.953 7 14.4518 7C14.9506 7 15.355 7.40439 15.355 7.90323V19.0968C15.355 19.5956 14.9506 20 14.4518 20C13.953 20 13.5486 19.5956 13.5486 19.0968V7.90323Z" fill="#2E2D2B"/>
<path d="M19.3228 12.5C19.875 12.5 20.3228 12.9477 20.3228 13.5C20.3228 14.0523 19.875 14.5 19.3228 14.5L9.58082 14.5C9.02853 14.5 8.58082 14.0523 8.58082 13.5C8.58082 12.9477 9.02853 12.5 9.58082 12.5L19.3228 12.5Z" fill="#2E2D2B"/>
</svg>
