<svg width="420" height="255" viewBox="0 0 420 255" fill="none" xmlns="http://www.w3.org/2000/svg">
<g clip-path="url(#clip0_1932_105462)">
<path d="M417.192 104.566H412.914C404.981 84.9442 385.989 66.2026 355.94 50.9559C274.635 9.68431 143.242 9.47089 62.4526 50.489C32.2665 65.8158 13.4116 84.7308 5.88786 104.566H2.12598V142.596H2.15631C2.80858 169.235 23.2107 195.833 63.3779 216.216C144.683 257.487 276.076 257.701 356.88 216.682C397.108 196.26 417.207 169.448 417.207 142.596V104.566H417.192Z" fill="#A46913"/>
<path d="M210.971 248.31C155.089 248.31 102.468 237.225 62.8166 217.083C23.7567 197.26 1.82257 170.902 1.01862 142.85C0.988281 142.77 0.988281 142.69 0.988281 142.61V104.58C0.988281 104.033 1.50402 103.579 2.12595 103.579H5.06871C13.1234 83.0634 32.7519 64.4151 61.8761 49.6353C100.951 29.7998 152.965 18.875 208.347 18.875C263.728 18.875 316.85 29.9599 356.501 50.1021C385.474 64.8153 405.239 83.2901 413.703 103.579H417.176C417.798 103.579 418.314 104.033 418.314 104.58V142.61C418.314 142.61 418.314 142.676 418.314 142.716C418.269 171.076 396.653 197.647 357.426 217.563C318.351 237.398 266.337 248.323 210.956 248.323L210.971 248.31ZM3.26361 142.37C3.26361 142.37 3.29395 142.503 3.29395 142.57C3.96138 169.982 25.5012 195.833 63.9391 215.348C103.257 235.317 155.483 246.309 210.956 246.309C266.428 246.309 317.563 235.477 356.289 215.815C394.818 196.247 416.039 170.249 416.039 142.596C416.039 142.556 416.039 142.53 416.039 142.49V105.567H412.899C412.413 105.567 411.989 105.3 411.822 104.9C403.707 84.7974 384.169 66.4427 355.363 51.8095C316.046 31.8407 263.819 20.8492 208.347 20.8492C152.874 20.8492 101.74 31.6807 63.0138 51.3427C34.0564 66.0558 14.6706 84.5707 6.96482 104.886C6.81313 105.3 6.37323 105.567 5.88783 105.567H3.26361V142.37Z" fill="#260611"/>
<path d="M417.193 107.346C417.551 49.1542 324.924 1.53865 210.304 0.993295C95.6845 0.447939 2.47653 47.1793 2.11849 105.371C1.76046 163.562 94.3879 211.178 209.008 211.723C323.627 212.269 416.835 165.537 417.193 107.346Z" fill="#FFD575"/>
<path d="M210.956 212.734C155.074 212.734 102.453 201.649 62.8014 181.507C22.9376 161.271 0.988281 134.353 0.988281 105.7C0.988281 77.0474 22.6191 50.7024 61.8913 30.7603C100.951 10.9248 152.965 0 208.362 0C263.759 0 316.85 11.0849 356.516 31.2271C396.38 51.4627 418.329 78.3813 418.329 107.021C418.329 135.66 396.699 162.032 357.442 181.96C318.367 201.796 266.352 212.721 210.971 212.721L210.956 212.734ZM208.347 2.00088C153.36 2.00088 101.74 12.8323 63.0138 32.4944C24.4849 52.063 3.26361 78.0611 3.26361 105.7C3.26361 133.339 24.8186 159.897 63.9391 179.773C103.257 199.742 155.483 210.733 210.956 210.733C266.428 210.733 317.563 199.902 356.289 180.24C394.818 160.671 416.039 134.673 416.039 107.034C416.039 79.3951 394.484 52.8367 355.363 32.9612C316.046 12.9924 263.834 2.00088 208.362 2.00088H208.347Z" fill="#260611"/>
<path d="M405.847 107.949C406.186 52.94 318.622 7.92853 210.269 7.41298C101.915 6.89744 13.8031 51.0731 13.4646 106.082C13.1262 161.091 100.69 206.102 209.043 206.618C317.397 207.134 405.509 162.958 405.847 107.949Z" fill="#FFC878"/>
<path d="M210.895 207.638C158.062 207.638 108.308 197.154 70.8107 178.105C33.1009 158.964 12.3347 133.499 12.3347 106.407C12.3347 79.5418 32.7824 54.3707 69.9309 35.509C106.882 16.754 156.06 6.41614 208.423 6.41614C260.786 6.41614 311.01 16.9008 348.507 35.9492C386.202 55.091 406.968 80.5556 406.968 107.648C406.968 134.739 386.505 159.684 349.372 178.546C312.42 197.3 263.243 207.638 210.88 207.638H210.895ZM208.438 8.43036C156.469 8.43036 107.686 18.6615 71.0837 37.2431C34.6633 55.7313 14.61 80.2888 14.61 106.407C14.61 132.752 34.9667 157.603 71.9332 176.371C109.097 195.246 158.441 205.637 210.88 205.637C263.319 205.637 311.632 195.406 348.234 176.811C384.639 158.323 404.693 133.766 404.693 107.648C404.693 81.5293 384.336 56.4516 347.37 37.6699C310.206 18.7949 260.861 8.40368 208.423 8.40368L208.438 8.43036Z" fill="#260611"/>
<path d="M70.5129 41.2857C146.888 2.50856 271.106 2.70864 347.952 41.7259C385.388 60.7343 404.622 85.4385 405.745 110.263C406.913 83.9178 387.679 57.3328 347.952 37.1639C271.106 -1.85337 146.888 -2.05346 70.5129 36.7237C31.3318 56.6125 12.401 82.8907 13.5842 109.049C14.6763 84.4247 33.6071 60.0273 70.5129 41.2857Z" fill="#260611"/>
<path d="M382.108 109.848C382.406 61.4912 305.438 21.9231 210.195 21.4699C114.952 21.0167 37.5013 59.8502 37.2038 108.207C36.9062 156.563 113.875 196.132 209.117 196.585C304.36 197.038 381.811 158.204 382.108 109.848Z" fill="#260611"/>
<path d="M191.1 103.806L69.4454 63.0011C64.4549 66.9362 60.1621 71.0313 56.5974 75.2465L191.1 103.806Z" fill="#FE9BE9"/>
<path d="M201.521 98.9504L156.955 28.6793C148.354 30.1066 139.935 31.8941 131.805 34.055L201.521 98.9504Z" fill="#FE9BE9"/>
<path d="M189.704 105.487L56.2788 75.6467C52.699 79.942 49.8472 84.3572 47.7388 88.8392L189.704 105.473V105.487Z" fill="#FE9BE9"/>
<path d="M198.335 99.804L131.031 34.2684C123.067 36.4027 115.392 38.8971 108.065 41.7517L198.32 99.8174L198.335 99.804Z" fill="#FE9BE9"/>
<path d="M193.056 102.272L86.662 51.6895C80.3972 55.1443 74.8151 58.8126 69.9155 62.6276L193.056 102.258V102.272Z" fill="#FE9BE9"/>
<path d="M191.615 114.344L59.7827 145.398C63.7266 149.559 68.3835 153.588 73.7381 157.443L191.615 114.357V114.344Z" fill="#FE9BE9"/>
<path d="M190.038 112.69L49.6653 131.938C52.1833 136.394 55.4143 140.756 59.3885 144.997L190.038 112.69Z" fill="#FE9BE9"/>
<path d="M188.87 107.274L47.5414 89.2794C45.4633 93.8148 44.1285 98.4034 43.5369 103.032L188.885 107.274H188.87Z" fill="#FE9BE9"/>
<path d="M189.052 110.916L44.2043 117.825C45.2055 122.441 46.9499 127.016 49.4376 131.511L189.052 110.916Z" fill="#FE9BE9"/>
<path d="M208.513 98.1234L212.503 24.5442C203.386 24.4375 194.27 24.7043 185.244 25.3579L208.513 98.1234Z" fill="#FE9BE9"/>
<path d="M107.383 42.0186C101.892 44.1795 96.6128 46.5272 91.5768 49.0883C90.1054 49.8353 88.6795 50.5957 87.2688 51.3693L195.499 100.925L107.398 42.0186H107.383Z" fill="#FE9BE9"/>
<path d="M193.709 115.838L74.2539 157.79C79.5175 161.525 85.4334 165.1 92.0166 168.461L193.709 115.838Z" fill="#FE9BE9"/>
<path d="M43.4914 103.472C42.9453 108.114 43.1577 112.77 44.1133 117.385L188.673 109.088L43.5066 103.459L43.4914 103.472Z" fill="#FE9BE9"/>
<path d="M212.109 98.1633L240.535 26.0782C231.555 25.1978 222.469 24.6909 213.368 24.5575L212.109 98.1633Z" fill="#FE9BE9"/>
<path d="M209.545 119.706L193.208 193.099C202.325 193.579 211.487 193.686 220.618 193.419L209.53 119.72L209.545 119.706Z" fill="#FE9BE9"/>
<path d="M215.658 98.5235L267.703 29.9866C259.117 28.3458 250.319 27.0653 241.4 26.1582L215.658 98.5102V98.5235Z" fill="#1FB2B8"/>
<path d="M219.041 99.1771L293.186 36.1759C285.238 33.8016 276.986 31.8007 268.522 30.1466L219.041 99.1771Z" fill="#1FB2B8"/>
<path d="M316.258 44.4596C309.174 41.4316 301.711 38.7371 293.945 36.4027L222.15 100.111L316.243 44.4729L316.258 44.4596Z" fill="#1FB2B8"/>
<path d="M204.934 98.3901L184.365 25.4246C175.385 26.0915 166.481 27.132 157.774 28.5459L204.934 98.3901Z" fill="#FE9BE9"/>
<path d="M374.491 121.44C375.765 116.852 376.296 112.223 376.084 107.594L231.161 109.622L374.491 121.44Z" fill="#5EC659"/>
<path d="M205.95 119.506L165.388 190.391C174.247 191.658 183.257 192.538 192.344 193.045L205.95 119.506Z" fill="#FE9BE9"/>
<path d="M92.6233 168.768C99.2521 172.116 106.29 175.117 113.647 177.785L196.272 117.132L92.6233 168.768Z" fill="#FE9BE9"/>
<path d="M213.14 119.586L221.483 193.379C230.584 193.085 239.655 192.405 248.575 191.351L213.14 119.6V119.586Z" fill="#FE9BE9"/>
<path d="M199.215 118.199L114.345 178.039C121.93 180.76 129.878 183.121 138.054 185.122L199.215 118.186V118.199Z" fill="#FE9BE9"/>
<path d="M224.926 101.285L336.296 54.5707C333.353 52.8233 330.274 51.1159 327.013 49.4618C323.751 47.8077 320.384 46.2337 316.941 44.7531L224.941 101.298L224.926 101.285Z" fill="#1FB2B8"/>
<path d="M216.644 119.173L249.424 191.244C258.267 190.177 266.959 188.723 275.408 186.909L216.644 119.173Z" fill="#FE9BE9"/>
<path d="M222.985 117.465L301.059 179.986C308.583 177.492 315.788 174.664 322.614 171.476L223 117.465H222.985Z" fill="#5EC659"/>
<path d="M219.966 118.466L276.212 186.749C284.525 184.935 292.579 182.761 300.331 180.226L219.966 118.466Z" fill="#5EC659"/>
<path d="M202.476 118.999L138.843 185.335C147.186 187.349 155.787 189.004 164.554 190.271L202.476 118.999Z" fill="#FE9BE9"/>
<path d="M229.522 113.17L357.335 148.572C361.583 144.45 365.117 140.169 367.923 135.807L229.522 113.183V113.17Z" fill="#5EC659"/>
<path d="M227.844 115.132L342.203 160.952C347.815 157.23 352.715 153.335 356.932 149.293L227.844 115.118V115.132Z" fill="#5EC659"/>
<path d="M323.251 171.182C324.768 170.462 326.269 169.742 327.741 168.995C332.777 166.434 337.419 163.752 341.666 160.964L225.639 116.238L323.251 171.182Z" fill="#5EC659"/>
<path d="M230.645 111.436L368.211 135.38C371.003 130.965 373.05 126.443 374.37 121.881L230.645 111.436Z" fill="#5EC659"/>
<path d="M231.07 107.794L376.054 107.154C375.796 102.539 374.795 97.9232 373.05 93.3612L231.07 107.794Z" fill="#5EC659"/>
<path d="M229.098 104.273L365.056 79.1549C361.81 74.8597 357.851 70.6712 353.179 66.6294L229.098 104.273Z" fill="#1FB2B8"/>
<path d="M220.468 106.468L352.53 64.7105C347.928 61.5133 343.504 57.7902 337.636 55.2231L220.468 106.468Z" fill="#1FB2B8"/>
<path d="M230.387 105.993L372.898 92.9211C371.124 88.3991 368.606 83.9304 365.375 79.5685L230.387 105.993Z" fill="#5EC659"/>
<path d="M210.455 173.397C176.78 173.397 145.047 166.714 121.141 154.562C97.0223 142.316 83.7495 126.002 83.7495 108.635C83.7495 91.267 96.8402 75.2866 120.595 63.228C144.152 51.2627 175.521 44.6731 208.908 44.6731C242.295 44.6731 274.316 51.356 298.222 63.5081C322.341 75.7535 335.613 92.0674 335.613 109.435C335.613 126.803 322.523 142.783 298.768 154.842C275.211 166.807 243.842 173.397 210.47 173.397H210.455ZM208.878 46.674C175.885 46.674 144.926 53.1702 121.702 64.9621C98.6757 76.6472 85.9945 92.1607 85.9945 108.635C85.9945 125.109 98.8729 140.956 122.248 152.828C145.821 164.793 177.144 171.396 210.425 171.396C243.417 171.396 274.362 164.9 297.585 153.108C320.611 141.422 333.293 125.909 333.293 109.422C333.293 92.9344 320.414 77.1007 297.039 65.2288C273.467 53.2636 242.143 46.6606 208.862 46.6606L208.878 46.674Z" fill="#260611"/>
<path d="M315.776 109.532C315.959 79.7771 268.596 55.4298 209.987 55.1509C151.379 54.872 103.719 78.7672 103.536 108.522C103.353 138.277 150.716 162.625 209.324 162.904C267.933 163.182 315.593 139.287 315.776 109.532Z" fill="#260611"/>
<path d="M313.576 109.522C313.756 80.3853 267.374 56.5444 209.98 56.2713C152.587 55.9982 105.915 79.3964 105.735 108.533C105.556 137.669 151.938 161.51 209.331 161.783C266.725 162.056 313.397 138.658 313.576 109.522Z" fill="#FFC878"/>
<path d="M210.319 162.805C182.241 162.805 155.787 157.229 135.855 147.105C115.711 136.874 104.622 123.241 104.622 108.715C104.622 94.1882 115.559 80.8357 135.4 70.7512C155.043 60.7735 181.194 55.2777 209.029 55.2777C236.864 55.2777 263.546 60.8535 283.493 70.978C303.638 81.2092 314.726 94.8419 314.726 109.368C314.726 123.895 303.804 137.247 283.948 147.332C264.305 157.309 238.154 162.805 210.319 162.805ZM209.014 57.2919C181.574 57.2919 155.832 62.6943 136.522 72.4987C117.409 82.1963 106.882 95.0686 106.882 108.728C106.882 122.387 117.576 135.526 136.977 145.384C156.575 155.335 182.62 160.818 210.304 160.818C237.987 160.818 263.486 155.415 282.796 145.611C301.908 135.913 312.436 123.041 312.436 109.382C312.436 95.7222 301.741 82.5831 282.34 72.7254C262.742 62.7744 236.697 57.2919 209.014 57.2919Z" fill="#260611"/>
<path d="M216.614 162.512C216.037 162.512 215.537 162.125 215.476 161.618L208.544 100.858C208.498 100.484 208.696 100.124 209.044 99.9241C209.393 99.724 209.848 99.6973 210.228 99.8841L294.142 140.635C294.688 140.902 294.885 141.516 294.582 141.996C294.278 142.476 293.581 142.65 293.034 142.383L211.016 102.552L217.736 161.418C217.797 161.965 217.342 162.458 216.72 162.512C216.674 162.512 216.644 162.512 216.598 162.512H216.614Z" fill="#260611"/>
<path d="M251.896 158.51C251.517 158.51 251.168 158.35 250.941 158.056L208.741 101.298C208.529 101.005 208.498 100.644 208.665 100.324C208.832 100.004 209.166 99.7908 209.56 99.7507L307.506 89.813C308.143 89.7597 308.689 90.1465 308.765 90.6934C308.84 91.2403 308.385 91.7339 307.763 91.8006L211.638 101.552L252.837 156.963C253.186 157.43 253.034 158.043 252.503 158.35C252.306 158.457 252.094 158.51 251.881 158.51H251.896Z" fill="#260611"/>
<path d="M165.555 157.176C165.328 157.176 165.1 157.123 164.903 156.989C164.387 156.669 164.266 156.042 164.63 155.602L207.952 101.191L132.76 73.0589C132.184 72.8455 131.911 72.2586 132.154 71.7517C132.396 71.2448 133.079 71.018 133.64 71.2181L210.137 99.8307C210.455 99.9508 210.698 100.191 210.789 100.471C210.88 100.764 210.819 101.071 210.622 101.325L166.496 156.749C166.268 157.029 165.919 157.176 165.555 157.176Z" fill="#260611"/>
<path d="M105.168 115.825C104.667 115.825 104.212 115.544 104.061 115.104C103.894 114.584 104.197 114.05 104.774 113.877C106.306 113.437 191.661 102.125 209.317 99.7908L278.275 67.5899C278.836 67.3231 279.519 67.5098 279.807 68.0034C280.095 68.4969 279.898 69.0972 279.337 69.3506L210.212 101.632C210.091 101.685 209.97 101.725 209.848 101.738C174.641 106.394 107.519 115.331 105.441 115.784C105.35 115.811 105.259 115.811 105.153 115.811L105.168 115.825Z" fill="#260611"/>
<path d="M218.388 103.712H216.872V110.822H218.388V103.712Z" fill="#260611"/>
<path d="M216.872 57.9189H215.355V99.2705H216.872V57.9189Z" fill="#260611"/>
<path d="M213.595 38.1368H212.078V42.5788H213.595V38.1368Z" fill="#260611"/>
<path d="M224.213 100.818H222.697V107.928H224.213V100.818Z" fill="#260611"/>
<path d="M199.427 162.965C199.427 162.965 199.321 162.965 199.261 162.965C198.639 162.885 198.214 162.378 198.305 161.831L208.377 101.125L107.868 97.6164C107.246 97.5898 106.746 97.1229 106.776 96.576C106.806 96.0157 107.398 95.5755 107.959 95.6156L209.727 99.1771C210.046 99.1771 210.349 99.3239 210.561 99.5373C210.774 99.7507 210.865 100.044 210.819 100.324L200.565 162.125C200.489 162.618 199.989 162.979 199.443 162.979L199.427 162.965Z" fill="#260611"/>
<path d="M173.473 19.0617C173.473 22.7167 170.106 25.6913 165.934 25.6913C161.763 25.6913 158.396 22.73 158.396 19.0617C158.396 15.3934 161.763 12.4321 165.934 12.4321C170.106 12.4321 173.473 15.3934 173.473 19.0617Z" fill="#FFDB95"/>
<path d="M165.935 26.3582C161.369 26.3582 157.637 23.0901 157.637 19.0617C157.637 15.0332 161.354 11.7651 165.935 11.7651C170.516 11.7651 174.217 15.0332 174.217 19.0617C174.217 23.0901 170.5 26.3582 165.935 26.3582ZM165.935 13.1124C162.203 13.1124 159.154 15.7802 159.154 19.075C159.154 22.3698 162.188 25.0377 165.935 25.0377C169.681 25.0377 172.7 22.3698 172.7 19.075C172.7 15.7802 169.666 13.1124 165.935 13.1124Z" fill="#260611"/>
<path d="M260.968 19.0617C260.968 22.7167 257.6 25.6913 253.429 25.6913C249.257 25.6913 245.89 22.73 245.89 19.0617C245.89 15.3934 249.257 12.4321 253.429 12.4321C257.6 12.4321 260.968 15.3934 260.968 19.0617Z" fill="#FFDB95"/>
<path d="M253.428 26.3582C248.863 26.3582 245.131 23.0901 245.131 19.0617C245.131 15.0332 248.847 11.7651 253.428 11.7651C258.009 11.7651 261.711 15.0332 261.711 19.0617C261.711 23.0901 257.994 26.3582 253.428 26.3582ZM253.428 13.1124C249.697 13.1124 246.648 15.7802 246.648 19.075C246.648 22.3698 249.682 25.0377 253.428 25.0377C257.175 25.0377 260.194 22.3698 260.194 19.075C260.194 15.7802 257.16 13.1124 253.428 13.1124Z" fill="#260611"/>
<path d="M225.548 35.3623V39.084L219.996 36.256V32.4944L225.548 35.3623Z" fill="#FFDB95"/>
<path d="M225.548 40.0843C225.351 40.0843 225.154 40.0443 224.972 39.9509L219.42 37.123C219.071 36.9496 218.859 36.6161 218.859 36.256V32.4943C218.859 32.1341 219.071 31.8007 219.435 31.6272C219.784 31.4538 220.224 31.4538 220.573 31.6272L226.125 34.4952C226.473 34.6686 226.686 35.0021 226.686 35.3622V39.0839C226.686 39.444 226.473 39.7775 226.125 39.9509C225.942 40.0443 225.745 40.0843 225.563 40.0843H225.548ZM221.134 35.6824L224.41 37.3498V35.9358L221.134 34.2417V35.6824Z" fill="#260611"/>
<path d="M225.548 35.3623V39.084L253.368 23.4504V21.1294L225.548 35.3623Z" fill="#FFDB95"/>
<path d="M225.548 39.7509C225.427 39.7509 225.306 39.7242 225.184 39.6708C224.941 39.5508 224.79 39.324 224.79 39.0839V35.3623C224.79 35.1222 224.926 34.9087 225.169 34.7887L252.989 20.5557C253.216 20.4357 253.504 20.4357 253.747 20.5557C253.99 20.6758 254.126 20.8892 254.126 21.1293V23.437C254.126 23.6638 253.99 23.8772 253.778 23.9973L225.958 39.6442C225.836 39.7109 225.685 39.7509 225.548 39.7509ZM226.307 35.7491V37.8701L252.61 23.0769V22.2898L226.307 35.7491Z" fill="#260611"/>
<path d="M253.368 21.1294L225.548 35.3623L219.996 32.4944L247.831 18.2748L253.368 21.1294Z" fill="#FFDB95"/>
<path d="M225.548 36.0292C225.412 36.0292 225.275 36.0025 225.169 35.9358L219.617 33.0679C219.39 32.9479 219.238 32.7344 219.238 32.4943C219.238 32.2542 219.375 32.0408 219.617 31.9207L247.452 17.7011C247.68 17.5811 247.983 17.5811 248.211 17.7011L253.747 20.5557C253.975 20.6758 254.126 20.8892 254.126 21.1293C254.126 21.3694 253.99 21.5828 253.747 21.7029L225.927 35.9358C225.806 36.0025 225.685 36.0292 225.548 36.0292ZM221.498 32.4943L225.548 34.5886L251.866 21.1293L247.831 19.0484L221.498 32.4943Z" fill="#260611"/>
<path d="M193.815 35.3623V39.084L199.367 36.256V32.4944L193.815 35.3623Z" fill="#FFDB95"/>
<path d="M193.815 40.0843C193.618 40.0843 193.42 40.0443 193.254 39.9509C192.905 39.7775 192.692 39.444 192.692 39.0839V35.3622C192.692 35.0021 192.905 34.6819 193.254 34.4952L198.805 31.6272C199.154 31.4405 199.594 31.4405 199.943 31.6272C200.292 31.8007 200.52 32.1341 200.52 32.4943V36.256C200.52 36.6161 200.307 36.9363 199.958 37.123L194.406 39.9509C194.224 40.0443 194.027 40.0843 193.83 40.0843H193.815ZM194.953 35.9358V37.3498L198.229 35.6824V34.2417L194.953 35.9358Z" fill="#260611"/>
<path d="M193.83 35.3623V39.084L166.01 23.4504V21.1294L193.83 35.3623Z" fill="#FFDB95"/>
<path d="M193.83 39.7509C193.694 39.7509 193.542 39.7109 193.421 39.6442L165.601 23.9973C165.388 23.8772 165.252 23.6638 165.252 23.437V21.1293C165.252 20.8892 165.404 20.6758 165.631 20.5557C165.874 20.4357 166.162 20.4357 166.39 20.5557L194.209 34.7887C194.437 34.9087 194.589 35.1222 194.589 35.3623V39.0839C194.589 39.324 194.437 39.5508 194.194 39.6708C194.073 39.7242 193.951 39.7509 193.83 39.7509ZM166.769 23.0769L193.072 37.8701V35.7491L166.769 22.2898V23.0769Z" fill="#260611"/>
<path d="M166.01 21.1294L193.83 35.3623L199.367 32.4944L171.547 18.2748L166.01 21.1294Z" fill="#FFDB95"/>
<path d="M193.83 36.0292C193.694 36.0292 193.572 36.0025 193.451 35.9358L165.631 21.7029C165.404 21.5828 165.252 21.3694 165.252 21.1293C165.252 20.8892 165.388 20.6758 165.631 20.5557L171.168 17.7011C171.411 17.5811 171.699 17.5811 171.926 17.7011L199.761 31.9207C199.989 32.0408 200.14 32.2542 200.14 32.4943C200.14 32.7344 200.004 32.9479 199.761 33.0679L194.209 35.9358C194.088 36.0025 193.951 36.0292 193.83 36.0292ZM167.512 21.1293L193.83 34.5886L197.88 32.4943L171.547 19.0484L167.512 21.1293Z" fill="#260611"/>
<path d="M226.17 95.8157H193.208V103.059C193.208 107.714 200.58 111.503 209.682 111.503C218.783 111.503 226.155 107.728 226.155 103.059C226.155 103.019 226.155 102.979 226.155 102.939V95.8157H226.17Z" fill="#FCBD2B"/>
<path d="M226.17 95.8157H193.208V103.059C193.208 107.714 200.58 111.503 209.682 111.503C218.783 111.503 226.155 107.728 226.155 103.059C226.155 103.019 226.155 102.979 226.155 102.939V95.8157H226.17Z" fill="#FFDB95"/>
<path d="M209.682 112.49C199.807 112.49 192.071 108.341 192.071 103.046V95.8023C192.071 95.2554 192.586 94.8019 193.208 94.8019H226.17C226.792 94.8019 227.308 95.2554 227.308 95.8023V102.925C227.308 102.925 227.308 102.965 227.308 102.992C227.308 103.019 227.308 103.046 227.308 103.046C227.308 108.341 219.572 112.49 209.697 112.49H209.682ZM194.346 96.8161V102.939C194.346 107.087 201.369 110.489 209.682 110.489C217.994 110.489 225.017 107.087 225.017 103.046C225.017 103.006 225.017 102.965 225.017 102.925V96.8028H194.331L194.346 96.8161Z" fill="#260611"/>
<path d="M209.682 104.326C218.78 104.326 226.155 100.546 226.155 95.8823C226.155 91.219 218.78 87.4386 209.682 87.4386C200.584 87.4386 193.208 91.219 193.208 95.8823C193.208 100.546 200.584 104.326 209.682 104.326Z" fill="#FFDB95"/>
<path d="M209.682 105.313C199.807 105.313 192.071 101.165 192.071 95.869C192.071 90.5733 199.807 86.4248 209.682 86.4248C219.557 86.4248 227.293 90.5733 227.293 95.869C227.293 101.165 219.557 105.313 209.682 105.313ZM209.682 88.439C201.369 88.439 194.346 91.8405 194.346 95.8823C194.346 99.9241 201.369 103.326 209.682 103.326C217.994 103.326 225.017 99.9241 225.017 95.8823C225.017 91.8405 217.994 88.439 209.682 88.439Z" fill="#260611"/>
<path d="M220.133 52.9167H199.245V95.4155C199.245 98.3635 203.917 100.765 209.697 100.765C215.476 100.765 220.148 98.3635 220.148 95.4155C220.148 95.3888 220.148 95.3622 220.148 95.3355V52.9167H220.133Z" fill="#FCBD2B"/>
<path d="M220.133 52.9167H199.245V95.4155C199.245 98.3635 203.917 100.765 209.697 100.765C215.476 100.765 220.148 98.3635 220.148 95.4155C220.148 95.3888 220.148 95.3622 220.148 95.3355V52.9167H220.133Z" fill="#FFDB95"/>
<path d="M209.682 101.752C203.189 101.752 198.093 98.9637 198.093 95.4022V52.9034C198.093 52.3565 198.608 51.903 199.23 51.903H220.118C220.74 51.903 221.255 52.3565 221.255 52.9034V95.3221C221.255 98.9504 216.174 101.752 209.666 101.752H209.682ZM200.368 53.9038V95.3221C200.368 97.7499 204.63 99.7508 209.682 99.7508C214.733 99.7508 218.995 97.7632 218.995 95.4022V53.9038H200.383H200.368Z" fill="#260611"/>
<path d="M230.296 38.7371H189.052V47.7944C189.052 53.6236 198.29 58.3591 209.667 58.3591C221.043 58.3591 230.281 53.637 230.281 47.7944C230.281 47.741 230.281 47.701 230.281 47.6477V38.7371H230.296Z" fill="#FCBD2B"/>
<path d="M230.296 38.7371H189.052V47.7944C189.052 53.6236 198.29 58.3591 209.667 58.3591C221.043 58.3591 230.281 53.637 230.281 47.7944C230.281 47.741 230.281 47.701 230.281 47.6477V38.7371H230.296Z" fill="#FFDB95"/>
<path d="M209.682 59.3463C197.486 59.3463 187.929 54.264 187.929 47.7812V38.7238C187.929 38.1769 188.445 37.7234 189.067 37.7234H230.311C230.933 37.7234 231.449 38.1769 231.449 38.7238V47.6344C231.449 47.6344 231.449 47.6878 231.449 47.7145V47.7812C231.449 54.264 221.893 59.3463 209.697 59.3463H209.682ZM190.205 39.7376V47.7945C190.205 52.9701 199.124 57.3587 209.682 57.3587C220.239 57.3587 229.158 52.9835 229.158 47.7945C229.158 47.7411 229.158 47.7011 229.158 47.6478V39.7376H190.19H190.205Z" fill="#260611"/>
<path d="M209.682 49.3685C221.067 49.3685 230.296 44.6385 230.296 38.8038C230.296 32.9691 221.067 28.2391 209.682 28.2391C198.297 28.2391 189.067 32.9691 189.067 38.8038C189.067 44.6385 198.297 49.3685 209.682 49.3685Z" fill="#FFDB95"/>
<path d="M209.682 50.3689C197.486 50.3689 187.929 45.2866 187.929 38.8038C187.929 32.3209 197.486 27.2386 209.682 27.2386C221.877 27.2386 231.434 32.3209 231.434 38.8038C231.434 45.2866 221.877 50.3689 209.682 50.3689ZM209.682 29.2529C199.124 29.2529 190.205 33.6281 190.205 38.8171C190.205 44.0061 199.124 48.3813 209.682 48.3813C220.239 48.3813 229.158 44.0061 229.158 38.8171C229.158 33.6281 220.239 29.2529 209.682 29.2529Z" fill="#260611"/>
<path d="M217.236 35.6558H202.127V38.9772C202.127 41.1115 205.51 42.8456 209.682 42.8456C213.853 42.8456 217.236 41.1115 217.236 38.9772C217.236 38.9639 217.236 38.9372 217.236 38.9239V35.6558Z" fill="#FFDB95"/>
<path d="M209.682 43.5125C205.025 43.5125 201.369 41.525 201.369 38.9772V35.6557C201.369 35.2822 201.703 34.9888 202.128 34.9888H217.236C217.66 34.9888 217.994 35.2822 217.994 35.6557V38.9238C217.994 41.525 214.339 43.5125 209.682 43.5125ZM202.886 36.336V38.9372C202.886 40.7246 205.996 42.192 209.682 42.192C213.368 42.192 216.477 40.7246 216.477 38.9905V36.336H202.886Z" fill="#260611"/>
<path d="M249.318 63.4014V65.6824L254.87 62.8411V60.5334L249.318 63.4014Z" fill="#FFDB95"/>
<path d="M249.318 66.6828C249.121 66.6828 248.923 66.6428 248.757 66.5494C248.408 66.376 248.18 66.0425 248.18 65.6824V63.4147C248.18 63.0546 248.393 62.7344 248.741 62.5477L254.293 59.6797C254.642 59.493 255.082 59.493 255.431 59.6797C255.78 59.8531 256.007 60.1866 256.007 60.5468V62.8545C256.007 63.2146 255.795 63.5348 255.446 63.7215L249.894 66.5494C249.712 66.6428 249.515 66.6828 249.318 66.6828Z" fill="#260611"/>
<path d="M249.318 63.4013V65.6824L220.512 53.7304V48.5148L249.318 63.4013Z" fill="#FFDB95"/>
<path d="M249.318 66.3493C249.212 66.3493 249.09 66.3227 248.999 66.2826L220.178 54.344C219.905 54.2373 219.739 53.9972 219.739 53.7438V48.5281C219.739 48.288 219.89 48.0746 220.118 47.9545C220.345 47.8345 220.649 47.8345 220.876 47.9545L249.697 62.8411C249.925 62.9612 250.076 63.1746 250.076 63.4147V65.6824C250.076 65.9091 249.94 66.1226 249.727 66.2426C249.606 66.3093 249.47 66.3493 249.318 66.3493ZM221.255 53.3169L248.559 64.6286V63.7882L221.255 49.6886V53.3169Z" fill="#260611"/>
<path d="M220.512 48.5147L249.318 63.4013L254.87 60.5334L226.049 45.6602L220.512 48.5147Z" fill="#FFDB95"/>
<path d="M249.318 64.0683C249.181 64.0683 249.06 64.0417 248.939 63.975L220.118 49.0884C219.89 48.9683 219.739 48.7549 219.739 48.5148C219.739 48.2747 219.875 48.0613 220.118 47.9412L225.654 45.0866C225.897 44.9666 226.185 44.9666 226.428 45.0866L255.249 59.9599C255.476 60.0799 255.628 60.2933 255.628 60.5334C255.628 60.7736 255.492 60.987 255.249 61.107L249.697 63.975C249.576 64.0417 249.439 64.0683 249.318 64.0683ZM221.999 48.5148L249.318 62.6277L253.368 60.5334L226.034 46.4339L221.999 48.5148Z" fill="#260611"/>
<path d="M170.061 63.4014V65.6824L164.494 62.8411V60.5334L170.061 63.4014Z" fill="#FFDB95"/>
<path d="M170.061 66.6828C169.863 66.6828 169.666 66.6428 169.484 66.5494L163.932 63.7215C163.583 63.5481 163.371 63.2146 163.371 62.8545V60.5468C163.371 60.1866 163.583 59.8531 163.948 59.6797C164.296 59.5063 164.736 59.5063 165.085 59.6797L170.637 62.5477C170.986 62.7211 171.198 63.0546 171.198 63.4147V65.6824C171.198 66.0426 170.986 66.376 170.622 66.5494C170.44 66.6428 170.243 66.6828 170.061 66.6828Z" fill="#260611"/>
<path d="M170.045 63.4013V65.6824L198.866 53.7304V48.5148L170.045 63.4013Z" fill="#FFDB95"/>
<path d="M170.045 66.3493C169.909 66.3493 169.757 66.3093 169.636 66.2426C169.423 66.1226 169.287 65.9091 169.287 65.6824V63.4147C169.287 63.1746 169.423 62.9612 169.666 62.8411L198.487 47.9545C198.714 47.8345 199.018 47.8345 199.245 47.9545C199.488 48.0746 199.625 48.288 199.625 48.5281V53.7438C199.625 53.9972 199.458 54.2373 199.185 54.344L170.364 66.2826C170.258 66.3227 170.151 66.3493 170.045 66.3493ZM170.804 63.7882V64.6286L198.108 53.3169V49.6886L170.804 63.7882Z" fill="#260611"/>
<path d="M198.866 48.5147L170.045 63.4013L164.494 60.5334L193.33 45.6602L198.866 48.5147Z" fill="#FFDB95"/>
<path d="M170.045 64.0683C169.909 64.0683 169.787 64.0417 169.666 63.975L164.114 61.107C163.887 60.987 163.735 60.7736 163.735 60.5334C163.735 60.2933 163.872 60.0799 164.114 59.9599L192.935 45.0866C193.178 44.9666 193.466 44.9666 193.709 45.0866L199.245 47.9412C199.473 48.0613 199.625 48.2747 199.625 48.5148C199.625 48.7549 199.488 48.9683 199.245 49.0884L170.425 63.975C170.303 64.0417 170.182 64.0683 170.045 64.0683ZM165.995 60.5334L170.045 62.6277L197.364 48.5148L193.33 46.4339L166.01 60.5334H165.995Z" fill="#260611"/>
<path d="M164.706 71.058C168.87 71.058 172.245 68.0898 172.245 64.4284C172.245 60.767 168.87 57.7988 164.706 57.7988C160.542 57.7988 157.167 60.767 157.167 64.4284C157.167 68.0898 160.542 71.058 164.706 71.058Z" fill="#FFDB95"/>
<path d="M164.706 71.725C160.14 71.725 156.424 68.4569 156.424 64.4418C156.424 60.4267 160.14 57.1453 164.706 57.1453C169.272 57.1453 173.003 60.4134 173.003 64.4418C173.003 68.4703 169.287 71.725 164.706 71.725ZM164.706 58.4792C160.974 58.4792 157.94 61.147 157.94 64.4418C157.94 67.7366 160.974 70.3911 164.706 70.3911C168.437 70.3911 171.486 67.7233 171.486 64.4418C171.486 61.1604 168.452 58.4792 164.706 58.4792Z" fill="#260611"/>
<path d="M262.196 64.4284C262.196 68.0834 258.829 71.058 254.657 71.058C250.486 71.058 247.118 68.0967 247.118 64.4284C247.118 60.7601 250.486 57.7988 254.657 57.7988C258.829 57.7988 262.196 60.7601 262.196 64.4284Z" fill="#FFDB95"/>
<path d="M254.672 71.725C250.107 71.725 246.375 68.4569 246.375 64.4418C246.375 60.4267 250.091 57.1453 254.672 57.1453C259.253 57.1453 262.955 60.4134 262.955 64.4418C262.955 68.4703 259.238 71.725 254.672 71.725ZM254.672 58.4792C250.941 58.4792 247.892 61.147 247.892 64.4418C247.892 67.7366 250.926 70.3911 254.672 70.3911C258.419 70.3911 261.438 67.7233 261.438 64.4418C261.438 61.1604 258.404 58.4792 254.672 58.4792Z" fill="#260611"/>
<path d="M209.682 38.7905C214.583 38.7905 218.555 35.2968 218.555 30.987C218.555 26.6773 214.583 23.1836 209.682 23.1836C204.781 23.1836 200.808 26.6773 200.808 30.987C200.808 35.2968 204.781 38.7905 209.682 38.7905Z" fill="#FCBD2B"/>
<path d="M209.682 38.7905C214.583 38.7905 218.555 35.2968 218.555 30.987C218.555 26.6773 214.583 23.1836 209.682 23.1836C204.781 23.1836 200.808 26.6773 200.808 30.987C200.808 35.2968 204.781 38.7905 209.682 38.7905Z" fill="#FFDB95"/>
<path d="M209.682 39.4574C204.372 39.4574 200.049 35.6557 200.049 30.987C200.049 26.3183 204.372 22.5166 209.682 22.5166C214.991 22.5166 219.314 26.3183 219.314 30.987C219.314 35.6557 214.991 39.4574 209.682 39.4574ZM209.682 23.8505C205.207 23.8505 201.566 27.0519 201.566 30.987C201.566 34.9221 205.207 38.1235 209.682 38.1235C214.156 38.1235 217.797 34.9221 217.797 30.987C217.797 27.0519 214.156 23.8505 209.682 23.8505Z" fill="#260611"/>
<path d="M195.322 106.889L123.544 139.198" stroke="black" stroke-width="2"/>
<path d="M199.009 89.2974L181.208 60.4943" stroke="black" stroke-width="2"/>
<path d="M226.113 103.803L313.078 116.648" stroke="black" stroke-width="2"/>
</g>
<defs>
<clipPath id="clip0_1932_105462">
<rect width="418.024" height="254.979" fill="white" transform="translate(0.988281)"/>
</clipPath>
</defs>
</svg>
