<svg width="17" height="18" viewBox="0 0 17 18" fill="none" xmlns="http://www.w3.org/2000/svg">
<path d="M14.8658 7.65991C14.7775 7.23708 14.6477 6.83032 14.4804 6.44228C14.3225 6.07298 14.1298 5.7224 13.9091 5.39191C13.6709 5.03732 13.4006 4.70548 13.0982 4.40442C12.7811 4.0873 12.4292 3.80363 12.0518 3.55609C11.6973 3.32327 11.3186 3.12524 10.9198 2.96601C10.5532 2.81882 10.1705 2.70241 9.77314 2.62347C9.68081 2.60473 9.58849 2.58868 9.49482 2.5753C9.46538 2.56995 9.43728 2.56727 9.40785 2.56325C9.33961 2.55389 9.2727 2.54586 9.20446 2.53783C9.17369 2.53382 9.14291 2.53114 9.11214 2.52847C9.0265 2.52044 8.94087 2.51375 8.85389 2.50973H8.82446C8.71875 2.50304 8.6117 2.50037 8.50466 2.50037C8.39093 2.50037 8.27853 2.50304 8.16613 2.50973H8.13803C8.04571 2.51642 7.95338 2.52445 7.86106 2.53382C7.82894 2.53649 7.79549 2.54051 7.76338 2.54452C7.69112 2.55255 7.62021 2.56192 7.54929 2.57262C7.51851 2.57797 7.48774 2.58199 7.45696 2.586C7.35795 2.60206 7.26027 2.61945 7.16393 2.63952C6.7411 2.72784 6.33433 2.85763 5.9463 3.02488C5.57699 3.18411 5.22642 3.37545 4.89592 3.59623C4.54134 3.83441 4.21084 4.1047 3.90844 4.40576C3.59132 4.72288 3.30765 5.07479 3.06011 5.45212C2.82863 5.8067 2.62926 6.18537 2.47003 6.58411C2.32284 6.95074 2.20643 7.33342 2.12749 7.72949C2.04586 8.14027 2.00171 8.56577 2.00171 9.00064C2.00171 9.45959 2.04988 9.90784 2.14087 10.3414C2.22918 10.7642 2.36031 11.171 2.52623 11.559C2.68412 11.9283 2.8768 12.2789 3.09758 12.6094C3.33575 12.964 3.60604 13.2958 3.90844 13.5969C4.22556 13.914 4.57747 14.1977 4.9548 14.4452C5.30938 14.6767 5.68805 14.876 6.08679 15.0353C6.45342 15.1825 6.8361 15.2989 7.23351 15.3778C7.32583 15.3965 7.4195 15.4126 7.51182 15.426C7.54126 15.4313 7.56936 15.434 7.5988 15.438C7.66704 15.4474 7.73394 15.4554 7.80218 15.4635C7.83296 15.4675 7.86373 15.4701 7.89451 15.4728C7.98014 15.4808 8.06712 15.4875 8.15409 15.4929C8.2705 15.4996 8.38691 15.5023 8.50466 15.5023C8.96361 15.5023 9.41186 15.4541 9.84405 15.3631C10.2669 15.2748 10.6736 15.145 11.0617 14.9777C11.431 14.8185 11.7816 14.6272 12.1121 14.4064C12.4666 14.1682 12.7985 13.8979 13.0995 13.5969C13.4167 13.2797 13.7003 12.9278 13.9479 12.5505C14.1807 12.1959 14.3787 11.8172 14.538 11.4185C14.6851 11.0519 14.8015 10.6692 14.8805 10.2731C14.9621 9.86235 15.0063 9.43685 15.0063 9.00198C15.0063 8.54303 14.9581 8.09478 14.8671 7.66259L14.8658 7.65991ZM9.57778 2.59002C9.55905 2.586 9.53898 2.58333 9.51891 2.57931C9.53898 2.58199 9.55771 2.586 9.57778 2.59002ZM9.36904 2.5579C9.32087 2.55121 9.27137 2.54586 9.2232 2.54051C9.2727 2.54586 9.32087 2.55255 9.36904 2.5579ZM8.13402 2.50973C8.04571 2.51508 7.9574 2.52178 7.87042 2.53114C7.9574 2.52311 8.04571 2.51508 8.13402 2.50973ZM7.74331 2.54452C7.69112 2.55121 7.64028 2.5579 7.58943 2.56459C7.64028 2.5579 7.69246 2.54987 7.74331 2.54452ZM7.4302 2.58868C7.41013 2.59269 7.39006 2.59671 7.36999 2.59938C7.39006 2.59537 7.41013 2.59135 7.4302 2.58868ZM7.42753 15.4099C7.4476 15.4139 7.46633 15.4166 7.4864 15.4206C7.46633 15.418 7.4476 15.4139 7.42753 15.4099ZM7.63626 15.442C7.68443 15.4487 7.73394 15.4554 7.78345 15.4608C7.73394 15.4554 7.68577 15.4487 7.63626 15.442ZM7.90387 15.4728C7.98549 15.4808 8.06845 15.4862 8.15141 15.4916C8.06845 15.4862 7.98683 15.4808 7.90387 15.4728Z" fill="#5EC659"/>
<path d="M2.18918 11.7022C2.01389 11.2928 1.87607 10.8619 1.78241 10.415C1.74361 10.2304 1.71283 10.043 1.68875 9.85303L0.0683594 10.0564C0.0977966 10.2906 0.135262 10.5221 0.183432 10.7509C0.299843 11.3035 0.468438 11.836 0.686541 12.3431C0.726683 12.4368 0.769501 12.5291 0.813656 12.6215L2.29087 11.9257C2.25608 11.8507 2.21995 11.7772 2.18784 11.7009L2.18918 11.7022Z" fill="#F8F7F5"/>
<path d="M15.6125 13.6612L14.2463 12.766C13.9881 13.1594 13.691 13.526 13.3592 13.8565C13.1799 14.0358 12.9899 14.2031 12.7932 14.361L13.8128 15.6361C14.0577 15.4394 14.2918 15.232 14.514 15.0112C14.9247 14.6005 15.2927 14.1482 15.6125 13.6612Z" fill="#F8F7F5"/>
<path d="M5.94899 15.3765C5.63589 15.2507 5.33482 15.1035 5.0458 14.9349L4.2229 16.3466C4.58016 16.5553 4.95348 16.7386 5.34152 16.8939C5.78174 17.0705 6.24203 17.211 6.7157 17.3127L7.05958 15.715C6.67689 15.6334 6.30491 15.521 5.94899 15.3778V15.3765Z" fill="#F8F7F5"/>
<path d="M14.8178 6.29778C14.993 6.70723 15.1309 7.13808 15.2245 7.58499C15.2633 7.76965 15.2941 7.95697 15.3182 8.14698L16.9386 7.94359C16.9091 7.70943 16.8717 7.47795 16.8235 7.24914C16.7071 6.69652 16.5385 6.16398 16.3204 5.65686C16.2803 5.56319 16.2374 5.47087 16.1933 5.37854L14.7161 6.07433C14.7509 6.14926 14.7856 6.22419 14.8191 6.29912L14.8178 6.29778Z" fill="#F8F7F5"/>
<path d="M11.0576 2.62489C11.3707 2.75066 11.6731 2.89919 11.9608 3.06645L12.7837 1.6548C12.4264 1.44606 12.0531 1.26275 11.6651 1.10753C11.2235 0.930909 10.7646 0.790413 10.2909 0.688721L9.94702 2.28636C10.3297 2.36798 10.7017 2.48038 11.0576 2.62355V2.62489Z" fill="#F8F7F5"/>
<path d="M16.9371 7.94226L15.3167 8.14565C15.2926 7.95698 15.2619 7.76965 15.2231 7.58366C15.1294 7.13675 14.9929 6.70724 14.8163 6.29645C14.7842 6.22018 14.7481 6.14525 14.7133 6.07032L16.1905 5.37453C16.0098 4.99319 15.8038 4.62656 15.5723 4.27867C15.2619 3.81436 14.9059 3.38083 14.5126 2.98744C14.0978 2.57264 13.6388 2.20066 13.1451 1.87819C13.026 1.80059 12.9055 1.72565 12.7824 1.6534L11.9595 3.06505C11.6705 2.89645 11.3695 2.74793 11.0564 2.62349C10.7004 2.48032 10.3285 2.36792 9.94577 2.2863L10.2896 0.688661C10.2482 0.679295 10.2067 0.671266 10.1639 0.6619C9.62597 0.554856 9.07068 0.498657 8.50201 0.498657C7.90122 0.498657 7.31515 0.561546 6.74915 0.679295C6.19654 0.795706 5.66399 0.964301 5.15687 1.1824C4.67383 1.38846 4.21354 1.64002 3.78268 1.92904C3.5793 2.06552 3.38394 2.21137 3.1926 2.36391L4.2122 3.63907C4.01417 3.79696 3.82416 3.96556 3.6462 4.14352C3.31035 4.47937 3.01063 4.85002 2.74971 5.24876L2.75907 5.23537L1.39292 4.34022L1.38087 4.35761C1.07714 4.82192 0.817552 5.317 0.608815 5.83884C0.416135 6.3192 0.266273 6.81963 0.163243 7.3388C0.0561983 7.8767 0 8.43199 0 9.00066C0 9.35926 0.022747 9.71117 0.0655647 10.0577L1.68595 9.85434C1.71004 10.043 1.74081 10.2303 1.77961 10.4163C1.87328 10.8632 2.00976 11.2928 2.18638 11.7035C2.2185 11.7798 2.25329 11.8534 2.28941 11.9283L0.8122 12.6241C0.992837 13.0055 1.1989 13.3721 1.43038 13.72C1.74081 14.1843 2.09673 14.6178 2.49012 15.0112C2.90492 15.426 3.36387 15.798 3.85761 16.1205C3.9767 16.1981 4.09847 16.273 4.22157 16.3453L5.04447 14.9336C5.33349 15.1022 5.63455 15.2507 5.94766 15.3752C6.33569 15.5304 6.73979 15.6521 7.1586 15.7351C7.12515 15.7284 7.0917 15.719 7.05691 15.7124L6.71303 17.31C6.75451 17.3194 6.79599 17.3287 6.8388 17.3368C7.3767 17.4438 7.93199 17.5 8.50067 17.5C9.10146 17.5 9.68752 17.4371 10.2522 17.3194C10.8048 17.2029 11.3373 17.0344 11.8445 16.8162C12.3275 16.6089 12.7878 16.3586 13.2187 16.0696C13.422 15.9331 13.6187 15.7873 13.8087 15.6347L12.7891 14.3596C12.9872 14.2017 13.1758 14.0331 13.3551 13.8551C13.687 13.5233 13.984 13.158 14.2423 12.7646L15.6084 13.6598L15.6205 13.6424C15.9242 13.1781 16.1838 12.6817 16.3925 12.1612C16.5852 11.6821 16.7351 11.1804 16.8381 10.6612C16.9451 10.1233 17.0013 9.568 17.0013 8.99933C17.0013 8.64073 16.9786 8.28882 16.9358 7.94226H16.9371ZM14.5005 5.65686C14.4791 5.61806 14.4564 5.57792 14.4336 5.53911C14.4564 5.57792 14.4791 5.61672 14.5005 5.65686ZM4.68989 3.2885C4.60693 3.34336 4.52531 3.40224 4.44502 3.46111C4.52531 3.40224 4.60693 3.3447 4.68989 3.2885ZM1.63912 9.20271C1.63912 9.21877 1.63912 9.23616 1.64046 9.25356C1.64046 9.23616 1.63912 9.22011 1.63912 9.20271ZM1.64848 9.41145C1.64848 9.4275 1.65116 9.44222 1.65116 9.45828C1.65116 9.44222 1.64848 9.42617 1.64848 9.41145ZM2.38442 12.1157C2.39646 12.1397 2.4085 12.1625 2.42054 12.1866C2.4085 12.1638 2.39646 12.1397 2.38442 12.1157ZM2.50484 12.3431C2.52759 12.3833 2.55033 12.4221 2.57308 12.4609C2.55033 12.4221 2.52759 12.3819 2.50484 12.3431ZM13.501 12.2588C13.2735 12.6054 13.0139 12.9279 12.7222 13.2196C12.4453 13.4965 12.1415 13.7454 11.8164 13.9635C11.5126 14.1669 11.1902 14.3422 10.8516 14.488C10.4957 14.6406 10.1211 14.761 9.73302 14.8426C9.33562 14.9256 8.92483 14.9711 8.50334 14.9711C8.10327 14.9711 7.71389 14.9309 7.33656 14.856C6.97261 14.7837 6.6207 14.6767 6.28485 14.5416C5.91956 14.3944 5.57166 14.2124 5.24518 13.9996C4.89862 13.7735 4.57615 13.5126 4.28445 13.2209C4.00748 12.9439 3.7586 12.6402 3.5405 12.315C3.33711 12.0113 3.16183 11.6888 3.01598 11.3503C2.86344 10.9944 2.74301 10.6197 2.66139 10.2317C2.57843 9.83427 2.53294 9.42349 2.53294 9.00066C2.53294 8.60192 2.57308 8.21121 2.64801 7.83388C2.72027 7.46993 2.82731 7.11802 2.96246 6.78083C3.10964 6.41554 3.29162 6.06765 3.50437 5.74116C3.7305 5.3946 3.99142 5.07213 4.28312 4.78044C4.56009 4.50346 4.86383 4.25458 5.18898 4.03648C5.49272 3.83309 5.81519 3.65781 6.15372 3.51196C6.50964 3.35942 6.8843 3.239 7.27233 3.15737C7.66974 3.07441 8.08052 3.02892 8.50334 3.02892C8.90342 3.02892 9.2928 3.06906 9.67013 3.14399C10.0341 3.21625 10.386 3.32329 10.7218 3.45844C11.0871 3.60562 11.435 3.7876 11.7615 4.00035C12.1081 4.22782 12.4305 4.4874 12.7222 4.7791C12.9992 5.05608 13.2481 5.35981 13.4662 5.68496C13.6696 5.9887 13.8449 6.31117 13.9907 6.6497C14.1433 7.00562 14.2637 7.38028 14.344 7.76831C14.4269 8.16572 14.4724 8.5765 14.4724 8.99799C14.4724 9.39807 14.4323 9.78744 14.3573 10.1648C14.2851 10.5287 14.178 10.8806 14.0429 11.2165C13.8957 11.5818 13.7137 11.9297 13.501 12.2562V12.2588ZM15.3542 8.54439C15.3542 8.55911 15.3555 8.57382 15.3569 8.58854C15.3569 8.57382 15.3555 8.55911 15.3542 8.54439ZM15.3649 8.74777C15.3649 8.76383 15.3662 8.77988 15.3662 8.79728C15.3662 8.78122 15.3662 8.76517 15.3649 8.74777Z" fill="#5EC659"/>
<path d="M3.64757 4.14485C3.82687 3.96555 4.01688 3.79829 4.21357 3.6404L3.19397 2.36523C2.94911 2.56059 2.71495 2.76933 2.49283 2.99011C2.08205 3.40089 1.71408 3.85315 1.39429 4.3402L2.76044 5.23536C3.01869 4.84198 3.31574 4.47535 3.64757 4.14485Z" fill="#F8F7F5"/>
<path d="M13.873 7.86868C13.798 7.51275 13.6883 7.16887 13.5478 6.84105C13.414 6.52928 13.2521 6.23357 13.0661 5.95392C12.8654 5.65419 12.6366 5.37454 12.3824 5.12165C12.1148 4.85404 11.8177 4.61453 11.4993 4.40579C11.1995 4.21043 10.8797 4.04318 10.5439 3.90803C10.2348 3.78359 9.91099 3.68591 9.57647 3.61901C9.22992 3.54943 8.87132 3.51331 8.50335 3.51331C8.11532 3.51331 7.73799 3.55479 7.3727 3.63105C7.01677 3.70599 6.67289 3.81571 6.34507 3.9562C6.0333 4.09001 5.73759 4.25191 5.45794 4.4379C5.15821 4.63861 4.87856 4.86742 4.62433 5.12165C4.35672 5.38926 4.11721 5.68631 3.90847 6.00477C3.71311 6.30449 3.54452 6.62429 3.40937 6.96014C3.28494 7.26923 3.18726 7.59304 3.12035 7.92755C3.05078 8.27411 3.01465 8.63405 3.01465 9.00067C3.01465 9.38871 3.05613 9.76604 3.1324 10.1313C3.20733 10.4873 3.31705 10.8311 3.45754 11.159C3.59135 11.4707 3.75326 11.7664 3.93925 12.0447C4.13995 12.3445 4.36876 12.6241 4.62299 12.8784C4.8906 13.146 5.18765 13.3855 5.50611 13.5942C5.80583 13.7909 6.12563 13.9568 6.46148 14.0933C6.77191 14.2178 7.09438 14.3154 7.42889 14.3823C7.68982 14.4345 7.95876 14.468 8.23173 14.4813C7.96278 14.468 7.69918 14.4345 7.44228 14.3837C7.11177 14.3181 6.79198 14.2218 6.4869 14.0987C6.15507 13.9649 5.83928 13.8003 5.54224 13.6063C5.22779 13.4002 4.93476 13.1634 4.66982 12.8984C4.41827 12.6469 4.19214 12.3712 3.99411 12.0755C3.80945 11.7999 3.65022 11.5069 3.51776 11.1991C3.3786 10.8753 3.27022 10.5354 3.19662 10.1835C3.12035 9.82224 3.08021 9.44892 3.08021 9.06624C3.08021 8.70362 3.11634 8.34904 3.18458 8.0065C3.25015 7.676 3.34649 7.3562 3.46959 7.05113C3.60339 6.71929 3.76797 6.40351 3.96199 6.10646C4.16805 5.79202 4.40489 5.49898 4.66982 5.23405C4.92138 4.98249 5.19702 4.75636 5.49273 4.55833C5.76837 4.37368 6.0614 4.21445 6.36915 4.08198C6.69296 3.94282 7.03283 3.83444 7.38474 3.76085C7.74601 3.68458 8.11933 3.64444 8.50202 3.64444C8.86463 3.64444 9.21921 3.68056 9.56176 3.7488C9.89226 3.81437 10.2107 3.91071 10.5171 4.03381C10.849 4.16761 11.1647 4.3322 11.4618 4.52621C11.7762 4.73227 12.0693 4.96911 12.3342 5.23405C12.5858 5.4856 12.8119 5.76124 13.0099 6.05695C13.1946 6.33259 13.3538 6.62562 13.4863 6.93338C13.6254 7.25719 13.7338 7.59705 13.8074 7.94896C13.8837 8.31024 13.9238 8.68355 13.9238 9.06624C13.9238 9.42885 13.8877 9.78344 13.8194 10.126C13.7539 10.4565 13.6575 10.7763 13.5344 11.0813C13.4006 11.4132 13.2361 11.729 13.042 12.026C12.836 12.3405 12.5991 12.6335 12.3342 12.8984C12.0827 13.15 11.807 13.3761 11.5113 13.5741C11.2357 13.7588 10.9426 13.918 10.6349 14.0505C10.3111 14.1897 9.9712 14.298 9.61929 14.3716C9.25802 14.4479 8.8847 14.488 8.50202 14.488C8.89005 14.488 9.26738 14.4466 9.63267 14.3703C9.9886 14.2954 10.3325 14.1856 10.6603 14.0451C10.9721 13.9113 11.2678 13.7494 11.5474 13.5634C11.8472 13.3627 12.1268 13.1339 12.3797 12.8797C12.6473 12.6121 12.8868 12.315 13.0956 11.9966C13.2909 11.6969 13.4582 11.3771 13.5933 11.0412C13.7178 10.7321 13.8154 10.4083 13.8823 10.0738C13.9519 9.7259 13.988 9.3673 13.988 9.00067C13.988 8.61264 13.9466 8.2353 13.8703 7.87002L13.873 7.86868Z" fill="#EAE573"/>
<path d="M3.41462 5.6823C3.19384 6.02083 3.01053 6.37541 2.86468 6.74204C2.72552 7.08993 2.61982 7.44987 2.54756 7.81382C2.46996 8.20587 2.43115 8.60327 2.43115 9.00068C2.43115 9.42083 2.47531 9.83964 2.56228 10.2518C2.6439 10.6398 2.76299 11.0211 2.91954 11.3904C3.06405 11.7303 3.24068 12.0595 3.45075 12.3739C3.66885 12.7004 3.92041 13.0095 4.20809 13.2972C4.51183 13.6009 4.83965 13.8645 5.18621 14.0906C5.5234 14.3114 5.87932 14.4947 6.24595 14.6406C6.59518 14.7797 6.95378 14.8854 7.31773 14.9577C7.70978 15.0353 8.10719 15.0755 8.50459 15.0741C8.92474 15.0741 9.34355 15.03 9.75567 14.943C10.1437 14.8614 10.5251 14.7423 10.8944 14.5857C11.2342 14.4412 11.5634 14.2646 11.8778 14.0545C12.203 13.8364 12.5134 13.5849 12.8011 13.2972C13.1048 12.9934 13.3684 12.6656 13.5946 12.3191C13.8153 11.9819 13.9986 11.6259 14.1445 11.2593C14.2837 10.9101 14.3894 10.5515 14.4616 10.1875C14.5392 9.79548 14.578 9.39808 14.578 8.99934C14.578 8.58053 14.5339 8.16038 14.4469 7.74826C14.3653 7.36022 14.2462 6.97887 14.0896 6.60957C13.9451 6.26971 13.7685 5.94054 13.5584 5.6261C13.3403 5.29961 13.0888 4.99052 12.8011 4.70284C12.4973 4.3991 12.1695 4.13551 11.8243 3.90937C11.4858 3.6886 11.1312 3.50528 10.7646 3.35943C10.4167 3.22028 10.0567 3.11457 9.69278 3.04231C9.30073 2.96471 8.90333 2.9259 8.50593 2.9259C8.08578 2.9259 7.66697 2.97006 7.25484 3.05703C6.86681 3.13865 6.48546 3.25774 6.11616 3.41563C5.77629 3.56014 5.44713 3.73677 5.13269 3.94684C4.8062 4.16361 4.49711 4.4165 4.20943 4.70418C3.90569 5.00792 3.64209 5.33574 3.41596 5.68096L3.41462 5.6823ZM6.30616 3.86789C6.64603 3.72338 6.99526 3.61366 7.35252 3.53873C7.73119 3.45979 8.11655 3.41831 8.50325 3.41831C8.86854 3.41831 9.23517 3.45444 9.5951 3.52535C9.92962 3.59092 10.2601 3.6886 10.5799 3.81705C10.9171 3.95085 11.2436 4.11945 11.554 4.32283C11.8725 4.53023 12.1735 4.77242 12.4519 5.05207C12.7154 5.31567 12.9469 5.60068 13.1476 5.9004C13.3403 6.18942 13.5022 6.49182 13.636 6.80493C13.7805 7.14479 13.8903 7.49403 13.9652 7.85129C14.0441 8.22996 14.0856 8.61532 14.0856 9.00202C14.0856 9.3673 14.0495 9.73393 13.9786 10.0939C13.9117 10.4284 13.8153 10.7589 13.6869 11.0787C13.5531 11.4159 13.3845 11.7424 13.1811 12.0528C12.9737 12.3712 12.7315 12.6723 12.4519 12.9506C12.1883 13.2142 11.9032 13.447 11.6035 13.6464C11.3145 13.8391 11.0121 14.001 10.7003 14.1348C10.3605 14.2793 10.0112 14.389 9.65398 14.464C9.27531 14.5429 8.88995 14.5844 8.50325 14.5844C8.13796 14.5844 7.77133 14.5483 7.4114 14.4773C7.07688 14.4104 6.74638 14.3141 6.42659 14.1856C6.0894 14.0505 5.76291 13.8832 5.45248 13.6799C5.13403 13.4725 4.83296 13.2289 4.55465 12.9506C4.29105 12.687 4.05823 12.402 3.85886 12.1023C3.66618 11.8133 3.50427 11.5109 3.37047 11.1991C3.22596 10.8592 3.11624 10.51 3.04131 10.1527C2.96236 9.77407 2.92088 9.38871 2.92088 9.00202C2.92088 8.63673 2.95701 8.27144 3.02793 7.91016C3.09483 7.57565 3.19117 7.24515 3.31962 6.92535C3.45477 6.58816 3.62202 6.26168 3.82541 5.95125C4.03281 5.63279 4.27499 5.33173 4.55465 5.05341C4.81824 4.78982 5.10325 4.55833 5.40297 4.35762C5.69199 4.16494 5.9944 4.00304 6.30616 3.86923V3.86789Z" fill="#5EC659"/>
<path d="M13.0649 5.95521L13.4663 5.6876C13.2482 5.36112 12.9993 5.05738 12.7223 4.78174L12.3811 5.12294C12.6353 5.37717 12.8641 5.65683 13.0649 5.95521Z" fill="#5EC659"/>
<path d="M13.5479 6.84102L13.9921 6.65102C13.8462 6.31249 13.671 5.99002 13.4676 5.68628L13.0662 5.95389C13.2522 6.23221 13.4141 6.52925 13.5479 6.84102Z" fill="#E2E3DD"/>
<path d="M13.873 7.86863L14.3453 7.76962C14.2637 7.38158 14.1446 7.00692 13.9921 6.651L13.5479 6.841C13.6883 7.16883 13.7981 7.51271 13.873 7.86863Z" fill="#5EC659"/>
<path d="M12.3811 12.8784L12.7223 13.2196C13.014 12.9279 13.2736 12.6054 13.5011 12.2588L13.097 11.9952C12.8882 12.3137 12.6487 12.6094 12.3811 12.8784Z" fill="#E2E3DD"/>
<path d="M3.41064 6.96018L2.96239 6.78088C2.82725 7.11807 2.7202 7.46998 2.64795 7.83393L3.12162 7.92894C3.18852 7.59442 3.2862 7.27195 3.41064 6.96152V6.96018Z" fill="#E2E3DD"/>
<path d="M3.13371 10.1313L2.66138 10.2304C2.743 10.6184 2.86209 10.9931 3.01596 11.349L3.45886 11.159C3.31836 10.8312 3.20864 10.4873 3.13371 10.1313Z" fill="#5EC659"/>
<path d="M3.1217 7.92752L2.64803 7.83252C2.5731 8.20985 2.53296 8.60056 2.53296 8.9993H3.016C3.016 8.63268 3.05346 8.27408 3.1217 7.92618V7.92752Z" fill="#5EC659"/>
<path d="M3.016 9.00061H2.53296C2.53296 9.4221 2.57711 9.83422 2.66141 10.2316L3.13375 10.1326C3.05748 9.76732 3.016 9.38998 3.016 9.00195V9.00061Z" fill="#E2E3DD"/>
<path d="M3.45877 11.1589L3.01587 11.3489C3.16172 11.6875 3.337 12.0099 3.54039 12.3137L3.9418 12.0461C3.75581 11.7678 3.59391 11.4707 3.4601 11.1603L3.45877 11.1589Z" fill="#E2E3DD"/>
<path d="M4.62441 12.8783L4.2832 13.2195C4.5749 13.5112 4.89737 13.7708 5.24393 13.9982L5.50752 13.5942C5.18907 13.3854 4.89336 13.1459 4.62441 12.8783Z" fill="#E2E3DD"/>
<path d="M3.94048 12.0461L3.53906 12.3137C3.75717 12.6402 4.00604 12.944 4.28302 13.2196L4.62423 12.8784C4.37 12.6242 4.14119 12.3445 3.94048 12.0448V12.0461Z" fill="#5EC659"/>
<path d="M5.50749 13.5942L5.2439 13.9983C5.57038 14.2111 5.91828 14.3931 6.28357 14.5402L6.46287 14.092C6.12701 13.9568 5.80722 13.7896 5.50749 13.5929V13.5942Z" fill="#5EC659"/>
<path d="M3.90841 6.00481L3.50431 5.74121C3.29156 6.0677 3.10959 6.41559 2.9624 6.78088L3.41065 6.96018C3.54579 6.62433 3.71305 6.30453 3.90975 6.00481H3.90841Z" fill="#5EC659"/>
<path d="M8.50347 3.51331V3.03027C8.08198 3.03027 7.66986 3.07443 7.27246 3.15873L7.37148 3.63106C7.73677 3.55479 8.11544 3.51331 8.50213 3.51331H8.50347Z" fill="#E2E3DD"/>
<path d="M6.34371 3.9562L6.1537 3.51331C5.81518 3.65915 5.4927 3.83444 5.18896 4.03782L5.45658 4.43924C5.73489 4.25325 6.03194 4.09135 6.34371 3.95754V3.9562Z" fill="#E2E3DD"/>
<path d="M7.37144 3.63102L7.27242 3.15869C6.88439 3.24031 6.51107 3.3594 6.15381 3.51328L6.34381 3.95617C6.67164 3.81568 7.01552 3.70596 7.37144 3.63102Z" fill="#5EC659"/>
<path d="M4.62435 5.1216L4.28314 4.7804C3.99145 5.07209 3.73186 5.39456 3.50439 5.74112L3.90849 6.00472C4.11722 5.68626 4.35674 5.39055 4.62435 5.1216Z" fill="#E2E3DD"/>
<path d="M5.4579 4.43792L5.19029 4.0365C4.8638 4.2546 4.56006 4.50348 4.28442 4.78046L4.62563 5.12166C4.87986 4.86743 5.15951 4.63862 5.45924 4.43792H5.4579Z" fill="#5EC659"/>
<path d="M13.873 7.86867C13.9493 8.23396 13.9908 8.61129 13.9908 8.99933H14.4738C14.4738 8.57784 14.4297 8.16572 14.3454 7.76965L13.873 7.86867Z" fill="#E2E3DD"/>
<path d="M13.885 10.0724L14.3587 10.1674C14.4336 9.79006 14.4738 9.39935 14.4738 9.00061H13.9907C13.9907 9.36724 13.9533 9.72584 13.885 10.0737V10.0724Z" fill="#5EC659"/>
<path d="M12.3809 5.12166L12.7221 4.78046C12.4304 4.48876 12.108 4.22918 11.7614 4.00171L11.4978 4.4058C11.8163 4.61454 12.112 4.85405 12.3809 5.12166Z" fill="#E2E3DD"/>
<path d="M13.5959 11.0399L14.0442 11.2192C14.1793 10.882 14.2864 10.5315 14.3586 10.1675L13.885 10.0725C13.8181 10.407 13.7204 10.7295 13.5959 11.0399Z" fill="#E2E3DD"/>
<path d="M6.46275 14.0933L6.28345 14.5415C6.62064 14.6767 6.97121 14.7837 7.33516 14.856L7.43016 14.3823C7.09565 14.3154 6.77318 14.2177 6.46275 14.0933Z" fill="#E2E3DD"/>
<path d="M11.4993 4.40584L11.7629 4.00175C11.4364 3.789 11.0885 3.60703 10.7232 3.45984L10.5439 3.90809C10.8798 4.04323 11.1996 4.21049 11.4993 4.40584Z" fill="#5EC659"/>
<path d="M10.5426 3.90808L10.7219 3.45983C10.3847 3.32469 10.0341 3.21764 9.6702 3.14539L9.5752 3.61906C9.90971 3.68596 10.2322 3.78364 10.5426 3.90808Z" fill="#E2E3DD"/>
<path d="M13.0969 11.9953L13.501 12.2589C13.7138 11.9324 13.8957 11.5845 14.0429 11.2192L13.5947 11.0399C13.4595 11.3758 13.2923 11.6956 13.0969 11.9953Z" fill="#5EC659"/>
<path d="M8.50342 14.488V14.971C8.92491 14.971 9.33703 14.9269 9.73309 14.8426L9.63408 14.3702C9.26879 14.4465 8.89145 14.488 8.50342 14.488Z" fill="#E2E3DD"/>
<path d="M9.5752 3.61902L9.6702 3.14535C9.29287 3.07042 8.90216 3.03027 8.50342 3.03027V3.51331C8.87005 3.51331 9.22864 3.55078 9.57654 3.61902H9.5752Z" fill="#5EC659"/>
<path d="M7.43021 14.381L7.33521 14.8547C7.71254 14.9296 8.10325 14.9697 8.50199 14.9697V14.4867C8.13536 14.4867 7.77676 14.4492 7.42887 14.381H7.43021Z" fill="#5EC659"/>
<path d="M9.63403 14.3703L9.73305 14.8426C10.1211 14.761 10.4944 14.6419 10.8517 14.4881L10.6617 14.0452C10.3338 14.1857 9.98996 14.2954 9.63403 14.3703Z" fill="#5EC659"/>
<path d="M10.6616 14.0438L10.8516 14.4867C11.1902 14.3409 11.5126 14.1656 11.8164 13.9622L11.5488 13.5608C11.2704 13.7468 10.9734 13.9087 10.6616 14.0425V14.0438Z" fill="#E2E3DD"/>
<path d="M11.5488 13.562L11.8164 13.9635C12.1429 13.7454 12.4467 13.4965 12.7223 13.2195L12.3811 12.8783C12.1269 13.1325 11.8472 13.3613 11.5488 13.562Z" fill="#5EC659"/>
<path d="M1.72217 10.0818C1.7252 10.1005 1.72823 10.1193 1.73127 10.1366C1.72823 10.1179 1.7252 10.0992 1.72217 10.0818Z" fill="#5EC659"/>
<path d="M13.3591 13.8565C13.691 13.5247 13.988 13.1594 14.2463 12.766C13.988 13.1594 13.691 13.526 13.3591 13.8565Z" fill="#5EC659"/>
<path d="M6.49756 15.5692C6.68087 15.6254 6.8682 15.6736 7.0582 15.7137C6.8682 15.6736 6.68221 15.6254 6.49756 15.5692Z" fill="#5EC659"/>
<path d="M6.22461 15.4795C6.2982 15.5063 6.37313 15.529 6.44806 15.5531C6.37313 15.529 6.2982 15.5049 6.22461 15.4795Z" fill="#5EC659"/>
<path d="M0.926053 12.5706C0.883235 12.4796 0.840418 12.3886 0.800276 12.2963C0.586187 11.7958 0.41893 11.2713 0.305195 10.7267C0.258363 10.5019 0.220898 10.2731 0.19146 10.0416L0.0683594 10.0577C0.0977966 10.2918 0.135262 10.5233 0.183432 10.7521C0.299843 11.3048 0.468438 11.8373 0.686541 12.3444C0.726683 12.4381 0.769501 12.5304 0.813656 12.6227L0.926053 12.5706Z" fill="url(#paint0_linear_405_17459)"/>
<path d="M14.4255 14.9229C14.2074 15.141 13.976 15.3457 13.7351 15.5384L13.8127 15.6348C14.0576 15.4381 14.2917 15.2307 14.5139 15.0099C14.9246 14.5991 15.2926 14.1468 15.6124 13.6598L15.5094 13.5916C15.1936 14.0719 14.831 14.5175 14.4269 14.9229H14.4255Z" fill="url(#paint1_linear_405_17459)"/>
<path d="M5.38701 16.7774C5.00433 16.6249 4.6377 16.4442 4.28579 16.2382L4.2229 16.3452C4.58016 16.5539 4.95348 16.7373 5.34152 16.8925C5.78174 17.0691 6.24203 17.2096 6.7157 17.3113L6.74112 17.1909C6.27414 17.0905 5.82188 16.9527 5.38701 16.7787V16.7774Z" fill="url(#paint2_linear_405_17459)"/>
<path d="M16.2051 5.70368C16.4192 6.20412 16.5865 6.72863 16.7002 7.27322C16.747 7.49802 16.7845 7.72682 16.8139 7.95831L16.937 7.94225C16.9076 7.70809 16.8701 7.47661 16.822 7.2478C16.7056 6.69518 16.537 6.16264 16.3189 5.65551C16.2787 5.56185 16.2359 5.46952 16.1917 5.3772L16.0793 5.42938C16.1222 5.52037 16.165 5.61136 16.2051 5.70368Z" fill="url(#paint3_linear_405_17459)"/>
<path d="M11.6183 1.22261C11.9996 1.37648 12.3676 1.55712 12.7195 1.76184L12.7824 1.6548C12.4251 1.44606 12.0518 1.26275 11.6638 1.10753C11.2222 0.930909 10.7633 0.790413 10.2896 0.688721L10.2642 0.809146C10.7311 0.9095 11.1834 1.04732 11.6183 1.22127V1.22261Z" fill="url(#paint4_linear_405_17459)"/>
<path d="M0.191342 10.0417C0.148524 9.70046 0.125777 9.35256 0.125777 8.99932C0.125777 8.43867 0.181976 7.89141 0.286344 7.36154C0.388036 6.8504 0.535222 6.35666 0.725226 5.88432C0.931287 5.37051 1.18686 4.88212 1.48524 4.4245L1.49595 4.40711L1.39292 4.33887L1.38087 4.35626C1.07714 4.82057 0.817552 5.31565 0.608815 5.83749C0.416135 6.31785 0.266273 6.81828 0.163243 7.33745C0.0561983 7.87535 0 8.43064 0 8.99932C0 9.35791 0.022747 9.70982 0.0655647 10.0564L0.188666 10.0403L0.191342 10.0417Z" fill="#337630"/>
<path d="M4.28573 16.2382C4.16397 16.1673 4.04488 16.0937 3.92713 16.0174C3.44008 15.6989 2.98916 15.3323 2.57971 14.9229C2.19167 14.5348 1.84244 14.108 1.53603 13.6504C1.30722 13.3078 1.10383 12.9466 0.925873 12.5706L0.813477 12.6227C0.994114 13.0041 1.20017 13.3707 1.43166 13.7186C1.74209 14.1829 2.09801 14.6164 2.4914 15.0098C2.9062 15.4246 3.36515 15.7966 3.85889 16.1191C3.97798 16.1967 4.09974 16.2716 4.22284 16.3439L4.28573 16.2368V16.2382Z" fill="#337630"/>
<path d="M13.7351 15.5398C13.5478 15.6897 13.3538 15.8342 13.1531 15.968C12.7276 16.253 12.274 16.4992 11.799 16.7039C11.2985 16.918 10.774 17.0852 10.2294 17.199C9.67281 17.3154 9.09477 17.3769 8.50335 17.3769C7.9427 17.3769 7.39544 17.3207 6.86557 17.2164C6.82409 17.2084 6.78261 17.199 6.74246 17.191L6.71704 17.3114C6.75852 17.3207 6.8 17.3301 6.84282 17.3381C7.38072 17.4452 7.93601 17.5014 8.50468 17.5014C9.10547 17.5014 9.69154 17.4385 10.2562 17.3207C10.8088 17.2043 11.3414 17.0357 11.8485 16.8176C12.3315 16.6102 12.7918 16.36 13.2227 16.071C13.4261 15.9345 13.6227 15.7887 13.8128 15.6361L13.7351 15.5398Z" fill="#337630"/>
<path d="M16.9372 7.94226L16.8141 7.95832C16.8569 8.29952 16.8783 8.64742 16.8783 9.00066C16.8783 9.56131 16.8235 10.1086 16.7178 10.6384C16.6161 11.1496 16.4689 11.6433 16.2789 12.1157C16.0728 12.6295 15.8173 13.1179 15.5189 13.5755L15.5068 13.5929L15.6099 13.6611L15.6219 13.6437C15.9256 13.1794 16.1852 12.683 16.394 12.1625C16.5866 11.6835 16.7365 11.1817 16.8395 10.6625C16.9466 10.1246 17.0028 9.56934 17.0028 9.00066C17.0028 8.64206 16.98 8.29016 16.9372 7.9436V7.94226Z" fill="#337630"/>
<path d="M12.7195 1.76183C12.8412 1.83275 12.9603 1.90634 13.0781 1.98261C13.5651 2.30107 14.0161 2.6677 14.4255 3.07714C14.8135 3.46518 15.1641 3.89202 15.4692 4.34963C15.698 4.69218 15.9014 5.05345 16.0793 5.42945L16.1917 5.37726C16.0111 4.99592 15.805 4.62929 15.5736 4.28139C15.2631 3.81709 14.9072 3.38356 14.5138 2.99017C14.099 2.57537 13.6401 2.20339 13.1463 1.88092C13.0272 1.80331 12.9068 1.72838 12.7837 1.65613L12.7208 1.76317L12.7195 1.76183Z" fill="#337630"/>
<path d="M3.27022 2.46159C3.45755 2.31173 3.65157 2.16722 3.85094 2.03342C4.27644 1.74841 4.73004 1.50221 5.20505 1.29749C5.70549 1.0834 6.23 0.91614 6.77459 0.802405C7.33122 0.685994 7.90926 0.624444 8.50069 0.624444C9.06133 0.624444 9.6086 0.680642 10.1385 0.785011C10.1799 0.793039 10.2214 0.802405 10.2616 0.811772L10.287 0.691347C10.2455 0.68198 10.204 0.673952 10.1612 0.664586C9.62331 0.557541 9.06802 0.501343 8.49935 0.501343C7.89856 0.501343 7.31249 0.564231 6.74649 0.68198C6.19388 0.798391 5.66133 0.966986 5.15421 1.18509C4.67117 1.39115 4.21088 1.6427 3.78002 1.93172C3.57664 2.06821 3.38128 2.21405 3.18994 2.36659L3.26755 2.46293L3.27022 2.46159Z" fill="#337630"/>
<path d="M2.57968 3.07708C2.79778 2.85898 3.02926 2.65425 3.27011 2.46157L3.19251 2.36523C2.94764 2.56059 2.71348 2.76933 2.49137 2.99011C2.08058 3.40089 1.71262 3.85315 1.39282 4.3402L1.49585 4.40845C1.81163 3.92808 2.17425 3.48251 2.57834 3.07842L2.57968 3.07708Z" fill="url(#paint5_linear_405_17459)"/>
<path d="M9.96313 16.1647C9.96313 15.9733 10.1183 15.8181 10.3097 15.8181C10.501 15.8181 10.6562 15.9733 10.6562 16.1647C10.6562 16.356 10.501 16.5112 10.3097 16.5112C10.1183 16.5112 9.96313 16.356 9.96313 16.1647Z" fill="#F8F8F7"/>
<path d="M6.44946 1.83667C6.44946 1.64533 6.60468 1.49011 6.79602 1.49011C6.98736 1.49011 7.14258 1.64533 7.14258 1.83667C7.14258 2.02801 6.98736 2.18323 6.79602 2.18323C6.60468 2.18323 6.44946 2.02801 6.44946 1.83667Z" fill="#F8F8F7"/>
<path d="M0.905762 7.70141C0.905762 7.51007 1.06098 7.35486 1.25232 7.35486C1.44366 7.35486 1.59887 7.51007 1.59887 7.70141C1.59887 7.89276 1.44366 8.04797 1.25232 8.04797C1.06098 8.04797 0.905762 7.89276 0.905762 7.70141Z" fill="#F8F8F7"/>
<path d="M2.83667 14.1107C2.83667 13.9194 2.99188 13.7642 3.18323 13.7642C3.37457 13.7642 3.52978 13.9194 3.52978 14.1107C3.52978 14.3021 3.37457 14.4573 3.18323 14.4573C2.99188 14.4573 2.83667 14.3021 2.83667 14.1107Z" fill="#F8F8F7"/>
<path d="M15.3086 10.696C15.3086 10.5047 15.4638 10.3495 15.6552 10.3495C15.8465 10.3495 16.0017 10.5047 16.0017 10.696C16.0017 10.8874 15.8465 11.0426 15.6552 11.0426C15.4638 11.0426 15.3086 10.8874 15.3086 10.696Z" fill="#F8F8F7"/>
<path d="M13.6013 4.08862C13.6013 3.89728 13.7565 3.74207 13.9479 3.74207C14.1392 3.74207 14.2944 3.89728 14.2944 4.08862C14.2944 4.27996 14.1392 4.43518 13.9479 4.43518C13.7565 4.43518 13.6013 4.27996 13.6013 4.08862Z" fill="#F8F8F7"/>
<path d="M13.0995 11.9979C13.2988 11.6928 13.4648 11.3717 13.5959 11.0412C13.7217 10.7268 13.8167 10.4016 13.8822 10.0738C13.9518 9.72055 13.9879 9.36061 13.9879 9.00068C13.9879 8.62201 13.9478 8.24334 13.8702 7.87002C13.7966 7.51945 13.6896 7.17557 13.5464 6.84239C13.4153 6.53598 13.256 6.23759 13.0674 5.95392C13.0232 5.88836 12.9777 5.82279 12.9295 5.75857C12.9148 5.7385 12.9001 5.71976 12.8854 5.69969C12.8506 5.6542 12.8158 5.60737 12.7783 5.56321C12.7623 5.54314 12.7462 5.52173 12.7288 5.50166C12.682 5.44546 12.6352 5.3906 12.5857 5.33574L12.5696 5.31701C12.5094 5.25011 12.4478 5.18454 12.3836 5.12165C12.3154 5.05341 12.2471 4.98785 12.1762 4.92496L12.1588 4.9089C12.0999 4.85672 12.0411 4.80587 11.9809 4.75636C11.9595 4.73897 11.938 4.72157 11.9166 4.70418C11.8685 4.66671 11.8203 4.62925 11.7721 4.59312C11.7507 4.57706 11.7306 4.56235 11.7092 4.54629C11.641 4.49678 11.5714 4.44861 11.5018 4.40312C11.1968 4.20375 10.8756 4.03917 10.5451 3.9067C10.2307 3.78092 9.90554 3.68592 9.57771 3.62035C9.22447 3.55078 8.86453 3.51465 8.50593 3.51465C8.12726 3.51465 7.74859 3.55479 7.37527 3.6324C7.0247 3.70599 6.68082 3.81303 6.34765 3.95621C6.04123 4.08734 5.74285 4.24656 5.45918 4.43523C5.16481 4.63192 4.88515 4.85939 4.62557 5.11898C4.35127 5.39328 4.11309 5.68899 3.90971 6.00209C3.71034 6.30717 3.54576 6.6283 3.41329 6.9588C3.28751 7.27325 3.19251 7.5984 3.12695 7.92622C3.05737 8.27947 3.02124 8.6394 3.02124 8.998C3.02124 9.37667 3.06138 9.75534 3.13899 10.1287C3.21258 10.4792 3.31963 10.8231 3.4628 11.1563C3.59393 11.4627 3.75316 11.7611 3.94316 12.0448C3.98732 12.1103 4.03281 12.1759 4.08098 12.2401C4.0957 12.2602 4.11042 12.2789 4.12514 12.299C4.15993 12.3445 4.19472 12.3913 4.23218 12.4355C4.24824 12.4555 4.26429 12.4756 4.28169 12.497C4.32852 12.5532 4.37535 12.6081 4.42486 12.6629C4.49043 12.7352 4.55733 12.8074 4.62825 12.8784C4.90255 13.1527 5.19826 13.3908 5.51136 13.5942C5.81644 13.7936 6.13757 13.9582 6.46807 14.0906C6.78252 14.2164 7.10766 14.3114 7.43549 14.377C7.78873 14.4466 8.14867 14.4827 8.50861 14.4827C8.88728 14.4827 9.26595 14.4426 9.63926 14.3649C9.98984 14.2914 10.3337 14.1843 10.6669 14.0411C10.9733 13.91 11.2717 13.7508 11.5554 13.5621C11.8497 13.3654 12.1294 13.1379 12.389 12.8784C12.6633 12.6041 12.9014 12.3084 13.1048 11.9952L13.0995 11.9979ZM12.9697 5.8161C12.9603 5.80272 12.951 5.78934 12.9416 5.77462C12.951 5.78801 12.9603 5.80139 12.9697 5.8161ZM12.8653 5.67293C12.8399 5.63948 12.8145 5.60737 12.789 5.57392C12.8145 5.60603 12.8399 5.63948 12.8653 5.67293ZM11.6892 4.53425C11.6758 4.52488 11.6611 4.51551 11.6463 4.50481C11.6597 4.51418 11.6744 4.52354 11.6892 4.53425ZM4.03549 12.1839C4.04485 12.1973 4.05422 12.212 4.06492 12.2254C4.05556 12.212 4.04619 12.1973 4.03549 12.1839ZM4.14119 12.3271C4.16662 12.3605 4.19204 12.3926 4.21746 12.4261C4.19204 12.394 4.16662 12.3605 4.14119 12.3271ZM4.28169 12.505C4.32584 12.5586 4.37134 12.6108 4.41817 12.6643C4.37134 12.6121 4.32584 12.5586 4.28169 12.505Z" fill="#337630"/>
<path d="M13.7578 7.89415C13.6842 7.54492 13.5772 7.20906 13.4394 6.88793C13.3082 6.58285 13.1503 6.2925 12.967 6.02087C12.7703 5.72784 12.5469 5.45487 12.298 5.20599C12.0357 4.94374 11.7454 4.70958 11.4336 4.50619C11.1406 4.31485 10.8275 4.15027 10.4983 4.0178C10.1946 3.89604 9.8788 3.80104 9.55232 3.73547C9.47605 3.72075 9.39978 3.70737 9.32217 3.69533C9.29809 3.69132 9.274 3.68864 9.24992 3.68463C9.19372 3.6766 9.13752 3.66991 9.08132 3.66322C9.0559 3.66054 9.03047 3.65786 9.00505 3.65519C8.93413 3.6485 8.86322 3.64315 8.79096 3.63913H8.76688C8.67857 3.63244 8.59159 3.6311 8.50194 3.6311C8.40828 3.6311 8.31461 3.63378 8.22229 3.63779H8.19954C8.12327 3.64315 8.047 3.64984 7.97073 3.65786C7.94397 3.66054 7.91721 3.66322 7.89045 3.66723C7.83158 3.67392 7.7727 3.68195 7.71383 3.69132C7.6884 3.69533 7.66298 3.69801 7.63756 3.70202C7.55594 3.7154 7.47565 3.73012 7.39537 3.74618C7.04614 3.81977 6.71029 3.92681 6.38915 4.06463C6.08408 4.19576 5.79372 4.35365 5.52075 4.53697C5.22772 4.73366 4.95476 4.95712 4.70588 5.20599C4.44362 5.46825 4.20946 5.75861 4.00607 6.06904C3.81473 6.36208 3.65015 6.67518 3.51902 7.00434C3.39726 7.30808 3.30092 7.62386 3.23669 7.95035C3.16845 8.29021 3.13232 8.64078 3.13232 9.00072C3.13232 9.38073 3.17247 9.75003 3.2474 10.1073C3.32099 10.4565 3.42803 10.7924 3.56585 11.1135C3.69698 11.4186 3.85487 11.7089 4.03819 11.9806C4.23488 12.2736 4.45834 12.5466 4.70722 12.7954C4.96947 13.0577 5.25983 13.2919 5.5716 13.4953C5.86463 13.6866 6.17774 13.8512 6.5069 13.9823C6.8093 14.1041 7.12642 14.2004 7.45291 14.2646C7.52918 14.2794 7.60545 14.2927 7.68305 14.3048C7.70714 14.3088 7.73122 14.3115 7.75531 14.3155C7.81151 14.3235 7.8677 14.3302 7.9239 14.3369C7.94933 14.3396 7.97475 14.3422 8.00017 14.3449C8.07109 14.3516 8.14201 14.357 8.21426 14.361C8.30926 14.3663 8.40694 14.369 8.50328 14.369C8.88195 14.369 9.25259 14.3289 9.60985 14.2539C9.95909 14.1803 10.2949 14.0733 10.6161 13.9355C10.9211 13.8043 11.2115 13.6465 11.4831 13.4631C11.7762 13.2664 12.0491 13.043 12.298 12.7941C12.5603 12.5318 12.7944 12.2415 12.9978 11.9297C13.1892 11.6367 13.3537 11.3236 13.4862 10.9944C13.608 10.6907 13.703 10.3749 13.7685 10.0484C13.8354 9.70855 13.8729 9.35798 13.8729 8.99805C13.8729 8.61938 13.8328 8.24873 13.7578 7.89147V7.89415ZM9.21914 3.67927C9.179 3.67392 9.13886 3.66857 9.09872 3.66455C9.13886 3.66991 9.179 3.67392 9.21914 3.67927ZM8.99836 3.65385C8.93146 3.64716 8.86322 3.64181 8.79498 3.63913C8.86322 3.64315 8.93146 3.6485 8.99836 3.65385ZM7.87573 3.66857C7.83291 3.67392 7.7901 3.67927 7.74862 3.68463C7.79143 3.67794 7.83291 3.67258 7.87573 3.66857ZM7.61481 14.2941C7.63087 14.2967 7.64692 14.2994 7.66432 14.3021C7.64826 14.2994 7.63221 14.2967 7.61481 14.2941ZM7.78742 14.3208C7.82756 14.3262 7.8677 14.3315 7.90918 14.3355C7.86904 14.3302 7.82756 14.3262 7.78742 14.3208Z" fill="#5EC659"/>
<defs>
<linearGradient id="paint0_linear_405_17459" x1="-0.0593019" y1="11.3414" x2="0.442333" y2="11.1928" gradientUnits="userSpaceOnUse">
<stop stop-color="#8F8D90"/>
<stop offset="0.08" stop-color="#9C9A9D"/>
<stop offset="0.37" stop-color="#C6C5C7"/>
<stop offset="0.63" stop-color="#E5E5E5"/>
<stop offset="0.85" stop-color="#F8F8F8"/>
<stop offset="1" stop-color="white"/>
</linearGradient>
<linearGradient id="paint1_linear_405_17459" x1="15.1386" y1="14.9507" x2="14.4177" y2="14.2297" gradientUnits="userSpaceOnUse">
<stop stop-color="#8F8D90"/>
<stop offset="0.08" stop-color="#9C9A9D"/>
<stop offset="0.37" stop-color="#C6C5C7"/>
<stop offset="0.63" stop-color="#E5E5E5"/>
<stop offset="0.85" stop-color="#F8F8F8"/>
<stop offset="1" stop-color="white"/>
</linearGradient>
<linearGradient id="paint2_linear_405_17459" x1="5.47395" y1="17.0611" x2="5.66527" y2="16.5656" gradientUnits="userSpaceOnUse">
<stop stop-color="#8F8D90"/>
<stop offset="0.08" stop-color="#9C9A9D"/>
<stop offset="0.37" stop-color="#C6C5C7"/>
<stop offset="0.63" stop-color="#E5E5E5"/>
<stop offset="0.85" stop-color="#F8F8F8"/>
<stop offset="1" stop-color="white"/>
</linearGradient>
<linearGradient id="paint3_linear_405_17459" x1="16.9923" y1="6.45782" x2="16.0888" y2="6.66641" gradientUnits="userSpaceOnUse">
<stop stop-color="#8F8D90"/>
<stop offset="0.08" stop-color="#9C9A9D"/>
<stop offset="0.37" stop-color="#C6C5C7"/>
<stop offset="0.63" stop-color="#E5E5E5"/>
<stop offset="0.85" stop-color="#F8F8F8"/>
<stop offset="1" stop-color="white"/>
</linearGradient>
<linearGradient id="paint4_linear_405_17459" x1="11.6783" y1="0.554919" x2="11.3259" y2="1.40827" gradientUnits="userSpaceOnUse">
<stop stop-color="#8F8D90"/>
<stop offset="0.08" stop-color="#9C9A9D"/>
<stop offset="0.37" stop-color="#C6C5C7"/>
<stop offset="0.63" stop-color="#E5E5E5"/>
<stop offset="0.85" stop-color="#F8F8F8"/>
<stop offset="1" stop-color="white"/>
</linearGradient>
<linearGradient id="paint5_linear_405_17459" x1="1.64019" y1="2.81437" x2="2.47064" y2="3.58364" gradientUnits="userSpaceOnUse">
<stop stop-color="#8F8D90"/>
<stop offset="0.08" stop-color="#9C9A9D"/>
<stop offset="0.37" stop-color="#C6C5C7"/>
<stop offset="0.63" stop-color="#E5E5E5"/>
<stop offset="0.85" stop-color="#F8F8F8"/>
<stop offset="1" stop-color="white"/>
</linearGradient>
</defs>
</svg>
