<svg width="133" height="77" viewBox="0 0 133 77" fill="none" xmlns="http://www.w3.org/2000/svg">
<path d="M120.393 52.4628C120.562 51.8107 120.717 51.5512 120.678 51.3294C117.075 33.4575 108.12 19.0841 92.6439 9.13831C88.7091 6.61442 84.2509 5.18246 79.5541 4.70214C69.421 3.66219 60.282 9.05211 56.3276 18.4048C54.2814 23.2502 53.0893 28.2076 54.2711 33.5499C56.4602 34.7344 58.6872 35.7612 60.7366 37.0846C63.9605 39.1693 66.1725 42.0689 66.8323 45.9571C67.3283 48.8826 66.5388 51.2323 64.7077 52.0653C62.4026 53.1141 60.2199 52.2931 58.7544 50.6223C56.7004 48.2949 54.9695 45.6425 53.3653 42.964C52.3279 41.2321 51.7633 39.2117 51.0048 37.3555C41.5118 35.4287 34.6102 42.5535 34.7347 54.2026C35.879 54.9981 37.1551 55.7783 38.3047 56.7112C42.4408 60.0668 45.0404 64.2903 45.0012 69.7393C44.9882 71.7844 44.4963 73.8811 42.3052 74.8631C40.6099 75.619 38.3415 74.7849 36.5785 72.6807C33.7845 69.3347 32.4076 65.3301 31.4716 61.1518C31.1482 59.6977 30.9219 58.2248 30.662 56.8209C16.1101 53.2977 1.74399 62.2677 2.94247 76.6642C1.96143 76.172 1.02776 76.0039 0.673435 75.4506C0.285331 74.8399 0.245398 73.8591 0.36226 73.0979C1.49902 65.8809 4.51886 59.8455 11.3189 56.4132C16.389 53.8597 21.83 52.8046 27.5138 52.9215C28.3216 52.9354 29.1351 52.9333 29.9434 52.9203C30.0616 52.9182 30.1819 52.8084 30.5344 52.6296C30.7175 51.9106 30.982 51.0135 31.1528 50.1004C33.2742 38.7896 38.1525 34.2338 49.9136 32.877C49.9488 31.761 49.993 30.5941 50.0132 29.4186C50.1212 22.5046 52.1811 16.2735 56.4082 10.8307C63.3563 1.87165 74.4455 -1.50859 85.7015 1.83613C91.8272 3.65794 97.2655 6.72871 102.067 10.9314C113.697 21.1305 121.249 33.6571 123.616 49.084C123.743 49.8975 123.88 50.706 124.028 51.5094C124.053 51.6177 124.183 51.71 124.608 52.2168C126.208 49.7466 126.866 47.0785 127.671 44.4816C128.459 41.9328 129.143 39.3461 129.933 36.5632C131.938 37.5543 132.373 38.9495 132.332 40.4879C132.281 42.2574 132.336 44.1106 131.816 45.7543C130.428 50.1708 128.962 54.5772 127.139 58.8177C125.696 62.1938 123.495 62.4677 121.239 59.8953C116.47 54.4312 111.732 48.933 107.026 43.4195C106.285 42.5543 105.761 41.5146 104.937 40.2488C107.22 39.3635 108.261 40.5007 109.289 41.4975C112.911 45.0276 116.504 48.5918 120.418 52.4447L120.393 52.4628ZM40.7461 71.5237C41.9567 65.7513 39.6679 61.0087 34.7807 59.0053C35.9206 63.6009 36.8483 67.9296 40.7461 71.5237ZM62.7695 49.0305C63.3687 43.9116 60.9378 40.5351 55.8782 39.2456C57.3179 43.2007 58.8083 46.7589 62.7695 49.0305Z" fill="#333333"/>
</svg>
